/* XPM */
static char *tgif[] = {
/* width height num_colors chars_per_pixel */
"    32    32        9            1",
/* colors */
". c #b2c0dc",
"# c #0000c0",
"a c #ffff00",
"b c #828200",
"c c #ff0000",
"d c #3cfb34",
"e c #ffa600",
"f c #ff00ff",
"g c #000000",
/* pixels */
"..........####aaaa####..........",
".........####aaaaaa####.........",
"........####aaaaaaaa####........",
"........####aaaaaaaa####........",
"......####aaaaaaaaaaaa####......",
".....######################.....",
"....########################....",
"....########################....",
"..######aaaaaaa#####aaaaaa####..",
".#######aaaaaaa######aaaaaa####.",
"####a###aaaaaaa##a####aaaaaa####",
"####a###aaaaaaa##aa####aaaaa####",
"##aaa###aaaaaaa##aaa####aaaaaa##",
"#aaaa###aaaaaaa##aaaa####aaaaaa#",
"aaaaa###aaaaaaa##aaaaa####aaaaaa",
"################################",
"################################",
"aaaaaaaaaaaaaaa##aaaaaaaaaaaaaaa",
"#aaaaaaaaaaaaaa##aaaaaaaaaaaaaa#",
"##aaccccccaaaddd#aaaeeaaffffff##",
"####gccgggaddgggddaaeegaffggggg#",
"####accgaaadgga#ddgaeegaffga####",
".####ccgaaddgaa##ggaeggafffff##b",
"..##ccggaaddaaddddaaegaafffffgbb",
"....ccg#aaddaaagdgaeegaafg##bbbb",
"....cgg#aaddaaaddgaeggaffg##bbb.",
"....cg###aaddddddgaegaafgg#bbb..",
"....cg####aadddgdgaega#fg#bbb...",
"........####aaa##aaa####bbbb....",
"........####aaa##aaa####bbb.....",
".........####aa##aa####bbb......",
"..........####a##a####bbb......."
};
