/* XPM */
static char *fldiff_xpm[] = {
"32 32 6 1",
"0	c #000000",
"1	c #000099",
"2	c #CCCCCC",
"3	c #FFFF99",
"4	c #FFFF00",
"5	c #FFFFFF",
"00111111111111111111111111111100",
"01111111111111111111111111111110",
"11111111111111111111111111111111",
"11111111111111111111111111111111",
"22333344444444422333333333333322",
"22300000000000422300033333333322",
"22333344444444422333333333333322",
"22300000000000422300033333333322",
"22333344444444422333333333333322",
"22500055555555522500055555555522",
"22555555555555522555555555555522",
"22500055555555522500055555555522",
"22555555555555522555555555555522",
"22500055555555522500055555555522",
"22333344444333322333333333333322",
"22300000004333322300033333333322",
"22333344444333322333333333333322",
"22300000004333322300033333333322",
"22333344444333322333333333333322",
"22500055555555522500055555555522",
"22555555555555522555555555555522",
"22500055555555522500055555555522",
"22555555555555522555555555555522",
"22500055555555522500055555555522",
"22333333333333322333344444444422",
"22300033333333322300000000000422",
"22333333333333322333344444444422",
"22300033333333322300000000000422",
"22333333333333322333344444444422",
"22222222222222222222222222222222",
"02222222222222222222222222222220",
"00222222222222222222222222222200"
};
