/* XPM */
static char * trovacap_xpm[] = {
"32 32 481 2",
"  	c None",
". 	c #FFFFFF",
"+ 	c #B77002",
"@ 	c #B56E00",
"# 	c #BF8023",
"$ 	c #CC9C54",
"% 	c #DDBC88",
"& 	c #E0C18D",
"* 	c #B77106",
"= 	c #B46B00",
"- 	c #C08226",
"; 	c #D5AD71",
"> 	c #EBD8B2",
", 	c #FBF7D5",
"' 	c #FFFFCA",
") 	c #DBB880",
"! 	c #B77008",
"~ 	c #000000",
"{ 	c #B8730A",
"] 	c #CD9C52",
"^ 	c #E8D0A5",
"/ 	c #FBF7D3",
"( 	c #FFFFCC",
"_ 	c #FFFFAC",
": 	c #FFFF8C",
"< 	c #FFFF9E",
"[ 	c #F8F0D3",
"} 	c #CD9C4E",
"| 	c #CC9B49",
"1 	c #BA7714",
"2 	c #FFFFB1",
"3 	c #FFFF91",
"4 	c #FFFFDD",
"5 	c #BC7A1B",
"6 	c #D6AE6A",
"7 	c #FFFFBC",
"8 	c #FFFF9C",
"9 	c #FFFF88",
"0 	c #FFFF8A",
"a 	c #FFFD88",
"b 	c #FFFFAD",
"c 	c #FBF8E9",
"d 	c #CB983E",
"e 	c #DAB474",
"f 	c #BA7614",
"g 	c #D9B469",
"h 	c #F8EFAB",
"i 	c #FFFFA7",
"j 	c #FFFB7D",
"k 	c #FFFC82",
"l 	c #FFFD87",
"m 	c #FFF57E",
"n 	c #FFFFDB",
"o 	c #E3C99C",
"p 	c #FFFFEA",
"q 	c #DDBD83",
"r 	c #B46C04",
"s 	c #F3E38C",
"t 	c #FFFD90",
"u 	c #FFF878",
"v 	c #FFF673",
"w 	c #FFF87C",
"x 	c #FFF97F",
"y 	c #FFFA81",
"z 	c #FFF177",
"A 	c #FFEC70",
"B 	c #C48929",
"C 	c #FFFFD6",
"D 	c #E5CB9B",
"E 	c #C0811A",
"F 	c #FFF270",
"G 	c #FFF372",
"H 	c #FFF475",
"I 	c #FFF97E",
"J 	c #FFD959",
"K 	c #FFEC6B",
"L 	c #FFFFC1",
"M 	c #FFFFBF",
"N 	c #EFDDB6",
"O 	c #B36B00",
"P 	c #D29E26",
"Q 	c #F8E261",
"R 	c #FFF268",
"S 	c #FFEC61",
"T 	c #FFED65",
"U 	c #FFEE68",
"V 	c #FFEF6A",
"W 	c #FFF06B",
"X 	c #FFF16E",
"Y 	c #FFF170",
"Z 	c #FFDF5D",
"` 	c #FFC741",
" .	c #FFF67A",
"..	c #FBF8C5",
"+.	c #CA9639",
"@.	c #F5EA73",
"#.	c #FFFF8B",
"$.	c #FFFFA9",
"%.	c #F8EFCE",
"&.	c #B9750B",
"*.	c #B26900",
"=.	c #B56D00",
"-.	c #B66E00",
";.	c #B66E02",
">.	c #DAAB2B",
",.	c #FFEC5C",
"'.	c #FFEC5D",
").	c #FFE95D",
"!.	c #FFEA5F",
"~.	c #FFEA61",
"{.	c #FFEC63",
"].	c #FFEC65",
"^.	c #FFED66",
"/.	c #FFEE69",
"(.	c #FFF06C",
"_.	c #FFF471",
":.	c #FFE865",
"<.	c #FFBF39",
"[.	c #FFD14B",
"}.	c #FFFE8E",
"|.	c #E8D19A",
"1.	c #D3A736",
"2.	c #FFFF89",
"3.	c #FFFF98",
"4.	c #FBF9D7",
"5.	c #C68A26",
"6.	c #DE9B1D",
"7.	c #E8A829",
"8.	c #ECAD2D",
"9.	c #EBAE2F",
"0.	c #D3921A",
"a.	c #BA7305",
"b.	c #E3AE2C",
"c.	c #FFDE4E",
"d.	c #FFE252",
"e.	c #FFE555",
"f.	c #FFE758",
"g.	c #FFE85A",
"h.	c #FFEA5D",
"i.	c #FFEB5F",
"j.	c #FFEB60",
"k.	c #FFEB62",
"l.	c #FFEB63",
"m.	c #FFE660",
"n.	c #FFD852",
"o.	c #FFC03A",
"p.	c #FFC43E",
"q.	c #FFE961",
"r.	c #FFFCA0",
"s.	c #D1A555",
"t.	c #EBD760",
"u.	c #FFFF8E",
"v.	c #FEFED2",
"w.	c #D1A04B",
"x.	c #F8CB47",
"y.	c #FFE567",
"z.	c #FFE261",
"A.	c #FABD39",
"B.	c #C57F0B",
"C.	c #BF7907",
"D.	c #D39018",
"E.	c #D08B14",
"F.	c #D7931A",
"G.	c #E09E22",
"H.	c #EBAE2E",
"I.	c #F9C23C",
"J.	c #FFD046",
"K.	c #FFDD52",
"L.	c #FFE559",
"M.	c #FFE95C",
"N.	c #FFE75C",
"O.	c #FFD74E",
"P.	c #FFCC44",
"Q.	c #FFD34B",
"R.	c #FFE760",
"S.	c #FFF46B",
"T.	c #F1DE86",
"U.	c #CD9D35",
"V.	c #FEFD88",
"W.	c #FFFF87",
"X.	c #FFFFC8",
"Y.	c #D9B472",
"Z.	c #E5B638",
"`.	c #FFE768",
" +	c #FCC643",
".+	c #CF8A12",
"++	c #CB8610",
"@+	c #B97204",
"#+	c #EBAA2A",
"$+	c #F6C03D",
"%+	c #E8AA2B",
"&+	c #DE9C22",
"*+	c #D49119",
"=+	c #CC8511",
"-+	c #D08912",
";+	c #DB971E",
">+	c #E7AA2D",
",+	c #F5C241",
"'+	c #FFD954",
")+	c #FFE960",
"!+	c #FFEC60",
"~+	c #FFED61",
"{+	c #FFF36E",
"]+	c #D7AB4B",
"^+	c #E3C651",
"/+	c #FFFD86",
"(+	c #FFFE84",
"_+	c #FFFFAF",
":+	c #E6CF9A",
"<+	c #D9A129",
"[+	c #FFD14A",
"}+	c #D48E15",
"|+	c #DF9E22",
"1+	c #D8961C",
"2+	c #C27C0A",
"3+	c #FBDA57",
"4+	c #FFF570",
"5+	c #FFEC68",
"6+	c #FFE460",
"7+	c #FCDA58",
"8+	c #F3CA4A",
"9+	c #E2AD33",
"0+	c #D79A24",
"a+	c #CD8F1B",
"b+	c #CF8F1B",
"c+	c #DCA32D",
"d+	c #EEC348",
"e+	c #FDE05E",
"f+	c #FFF067",
"g+	c #F9DE58",
"h+	c #CB9527",
"i+	c #FBF379",
"j+	c #FFFC83",
"k+	c #FFFA82",
"l+	c #FFFB83",
"m+	c #FFFB82",
"n+	c #F6F0BF",
"o+	c #D09123",
"p+	c #DD9719",
"q+	c #D29D28",
"r+	c #FFC944",
"s+	c #CA840F",
"t+	c #D4951D",
"u+	c #FFEF69",
"v+	c #FFF571",
"w+	c #FFF16D",
"x+	c #FFE15E",
"y+	c #FFD652",
"z+	c #FFD250",
"A+	c #FDD150",
"B+	c #F2C548",
"C+	c #E0AE36",
"D+	c #D19623",
"E+	c #CC901F",
"F+	c #DCAF39",
"G+	c #D39E29",
"H+	c #DEB943",
"I+	c #FFFF82",
"J+	c #FFF87D",
"K+	c #FFF97D",
"L+	c #FFFA80",
"M+	c #FFFB80",
"N+	c #CA9742",
"O+	c #C78710",
"P+	c #FBDE62",
"Q+	c #FEC23E",
"R+	c #BE7705",
"S+	c #B56B00",
"T+	c #EBBE3E",
"U+	c #FFF269",
"V+	c #FFDB55",
"W+	c #FFC641",
"X+	c #FFC43F",
"Y+	c #FFCA46",
"Z+	c #FFCE4B",
"`+	c #FFD453",
" @	c #FFED6B",
".@	c #FFEE6D",
"+@	c #F5D95F",
"@@	c #E0B63F",
"#@	c #D19C24",
"$@	c #F9DA55",
"%@	c #FFF676",
"&@	c #FFF779",
"*@	c #FFF77B",
"=@	c #FFFFA8",
"-@	c #DCBB77",
";@	c #DEAB31",
">@	c #FFE666",
",@	c #F6B734",
"'@	c #B97202",
")@	c #C5820E",
"!@	c #FDCE47",
"~@	c #FFBF38",
"{@	c #FFC13B",
"]@	c #FFCD4B",
"^@	c #FFE764",
"/@	c #FFE054",
"(@	c #FFD746",
"_@	c #FFD241",
":@	c #FFD94C",
"<@	c #FFEF6F",
"[@	c #FFF575",
"}@	c #FFF576",
"|@	c #FFF678",
"1@	c #FFF577",
"2@	c #FFFB85",
"3@	c #F1E6A8",
"4@	c #D0992A",
"5@	c #FFDB59",
"6@	c #EFAE2E",
"7@	c #B77001",
"8@	c #E2A528",
"9@	c #FFC840",
"0@	c #FFC23C",
"a@	c #FFC640",
"b@	c #FFBF3B",
"c@	c #FFC336",
"d@	c #FFC633",
"e@	c #FFC83B",
"f@	c #FFCE47",
"g@	c #FFCD48",
"h@	c #FFC841",
"i@	c #FEDA59",
"j@	c #FFEF75",
"k@	c #FFF172",
"l@	c #FFF272",
"m@	c #FFF474",
"n@	c #FFF677",
"o@	c #FFFD79",
"p@	c #FFFFAE",
"q@	c #CB9A41",
"r@	c #F5C140",
"s@	c #EBAA2B",
"t@	c #C17D0A",
"u@	c #FCC33D",
"v@	c #FFB933",
"w@	c #FFA520",
"x@	c #FFBB32",
"y@	c #FFBC36",
"z@	c #FFB22D",
"A@	c #FFB52E",
"B@	c #FFC23D",
"C@	c #FFD24B",
"D@	c #FEE057",
"E@	c #FEE86C",
"F@	c #FFEC71",
"G@	c #FFF975",
"H@	c #F8E667",
"I@	c #E1C046",
"J@	c #D0A135",
"K@	c #CA8F25",
"L@	c #F2BE3E",
"M@	c #E7A527",
"N@	c #B46C00",
"O@	c #E8AC2C",
"P@	c #FFC740",
"Q@	c #FFB12B",
"R@	c #FF9B17",
"S@	c #FFAB25",
"T@	c #FFB732",
"U@	c #FFA622",
"V@	c #FFA31D",
"W@	c #FFBC37",
"X@	c #FFCF49",
"Y@	c #FFD446",
"Z@	c #FFD73B",
"`@	c #FFDF48",
" #	c #FFEA6B",
".#	c #FEEA6D",
"+#	c #F3DC5C",
"@#	c #DBB23A",
"##	c #C38312",
"$#	c #C88513",
"%#	c #E2A72B",
"&#	c #FDD04E",
"*#	c #FFD552",
"=#	c #E2A023",
"-#	c #FFA925",
";#	c #FFA521",
">#	c #FFC533",
",#	c #FFD245",
"'#	c #DCB138",
")#	c #DC991F",
"!#	c #F5BA39",
"~#	c #FFCB47",
"{#	c #FFD24E",
"]#	c #FFD24F",
"^#	c #DE9C21",
"/#	c #B87103",
"(#	c #F3B12C",
"_#	c #FFB32C",
":#	c #FFA723",
"<#	c #FFB225",
"[#	c #FFB72A",
"}#	c #FFC73E",
"|#	c #E6BC3E",
"1#	c #D0961F",
"2#	c #E19015",
"3#	c #E49618",
"4#	c #FFC843",
"5#	c #FFD14D",
"6#	c #D99A1F",
"7#	c #FFBE34",
"8#	c #FFAD27",
"9#	c #FFB129",
"0#	c #FFAD24",
"a#	c #FFB42B",
"b#	c #D38E17",
"c#	c #EB9D21",
"d#	c #FFBB38",
"e#	c #FFC642",
"f#	c #FFC947",
"g#	c #FFD04B",
"h#	c #DF9D22",
"i#	c #C17B08",
"j#	c #FCC43A",
"k#	c #FFAD25",
"l#	c #FFB22B",
"m#	c #FFC73D",
"n#	c #DBAB2B",
"o#	c #CA8C15",
"p#	c #D98F17",
"q#	c #FFB731",
"r#	c #FFBA33",
"s#	c #FFC53E",
"t#	c #FFC943",
"u#	c #FFCF4A",
"v#	c #FFC946",
"w#	c #FFC33E",
"x#	c #FFC742",
"y#	c #E3A124",
"z#	c #F8C83D",
"A#	c #DEAB29",
"B#	c #FFB530",
"C#	c #FFE264",
"D#	c #FFE265",
"E#	c #FFC23B",
"F#	c #FFCD47",
"G#	c #E8A729",
"H#	c #D18D16",
"I#	c #DDA524",
"J#	c #BB7A08",
"K#	c #BD7706",
"L#	c #F6AA28",
"M#	c #FFAF29",
"N#	c #FFAB26",
"O#	c #FFAC27",
"P#	c #FFB22C",
"Q#	c #FFC33C",
"R#	c #FFC540",
"S#	c #FED353",
"T#	c #FCD556",
"U#	c #FABC38",
"V#	c #F7B632",
"W#	c #F3B331",
"X#	c #F0B433",
"Y#	c #DE9D21",
"Z#	c #B66F00",
"`#	c #BF7A09",
" $	c #FEB833",
".$	c #FFB932",
"+$	c #FFBD37",
"@$	c #FDBD38",
"#$	c #F8B935",
"$$	c #D2921B",
"%$	c #CC8A15",
"&$	c #C5800D",
"*$	c #C07907",
"=$	c #BB7404",
"-$	c #B97303",
";$	c #B87102",
">$	c #BB7405",
",$	c #F7B733",
"'$	c #EEB02F",
")$	c #DE9E22",
"!$	c #D08D16",
"~$	c #C37E0B",
"{$	c #BA7303",
"]$	c #BD7605",
"^$	c #B77000",
". . . . . . . . . . . . . . . . . . . . . . . . . . . . . . . . ",
". . . . . . . . . . . . . . . . . . . . . . . + + . . . . . . . ",
". . . . . . . . . . . . . . . . . . . @ # $ % & * . . . . . . . ",
". . . . . . . . . . . . . . . . = - ; > , ' . ) ! . . . . . . . ",
". ~ . . . . . . . . . . . . { ] ^ / ( _ : < [ } | . . . . . . . ",
"~ ~ ~ ~ ~ . ~ ~ . ~ ~ . 1 ~ ~ ~ 2 3 ~ ~ ~ 4 ~ ~ ~ . . ~ ~ ~ . . ",
". ~ . . . . . ~ ~ . 5 6 ~ 7 8 9 ~ 0 a ~ b c d ~ e . ~ . . . ~ . ",
". ~ . . . . . ~ f g h i ~ j k l ~ a m ~ n o ~ p q . . ~ ~ ~ ~ . ",
". ~ . . . ~ r ~ s t u v ~ w x y ~ z A < ~ B ~ C D . ~ . . . ~ . ",
". . ~ ~ ~ E ~ ~ ~ ~ F G H ~ ~ ~ I J K L ~ ~ 0 M N + ~ ~ ~ ~ ~ ~ ",
". . . O P Q R S T U V W X Y G u Z `  ...+.@.#.$.%.&.*.=.-.@ @ . ",
". . ;.>.,.'.).!.~.{.].^./.(._.:.<.[.}.|.1.3 2.3.4.5.6.7.8.9.0.@ ",
". a.b.c.d.e.f.g.h.i.j.k.l.m.n.o.p.q.r.s.t.3 0 u.v.w.x.y.z.A.B.@ ",
"@ C.D.E.F.G.H.I.J.K.L.M.N.O.P.Q.R.S.T.U.V.#.#.W.X.Y.Z.`. +.+++. ",
". @+#+$+%+&+*+=+-+;+>+,+'+)+!+~+i.{+]+^+: /+l (+_+:+<+[+}+|+1+. ",
". . 2+3+4+5+6+7+8+9+0+a+b+c+d+e+f+g+h+i+j+k+l+m+3 n+o+p+q+r+s+. ",
". . . t+u+{+v+w+x+y+z+A+B+C+D+E+F+G+H+I+J+K+x L+M+M N+O+P+Q+R+. ",
". . . S+T+U+V+W+<.X+Y+Z+`+ @.@+@@@#@$@%@&@&@*@w u =@-@;@>@,@'@. ",
". . . . )@!@<.~@o.{@X+r+]@^@W /@(@_@:@<@[@H }@|@1@2@3@4@5@6@7@. ",
". . . . . 8@9@o.o.o.0@a@b@c@d@e@f@g@h@i@j@k@l@m@n@o@p@q@r@s@. . ",
". . . . . t@u@{@o.0@v@w@w@x@y@z@A@B@C@D@E@F@_.G@H@I@J@K@L@M@. . ",
". . . . . N@O@P@{@Q@R@S@T@U@V@W@X@Y@Z@`@ #.#+#@###$#%#&#*#=#. . ",
". . . . . . ~ ~ ~ ~ z@-#;#~ ~ ~ >#,#~ ~ '#~ ~ )#!#~#{#z+]#^#. . ",
". . . . . ~ /#(#_#~ :#Q@~ <#[#}#~ |#1#~ ~ 2#3#~ W+4#Y+]@5#^#. . ",
". . . . . ~ . 6#7#8#9#0#a#~ ~ ~ ~ b#c#~ d#d#T@~ o.p.e#f#g#h#. . ",
". . . . . ~ . i#j#k#l#m#~ n#o#p#~ q#r#~ s#t#u#~ v#<.w#x#g@y#. . ",
". . . . . . ~ ~ ~ ~ z#A#~ ~ ~ ~ ~ ~ B#~ ~ ~ ~ C#D#E#E#a@F#G#. . ",
". . . . . . . . H#I#J#K#L#M#8#N#O#O#P#~ Q#R#x#S#T#U#V#W#X#Y#-.. ",
". . . . . . . . Z#. . `# $Q@.$+$@$#$~ ~ ~ $$%$&$*$=$-$;$7@7@. . ",
". . . . . . . . . . . >$,$'$)$!$~${$Z#. . . . . . . . . . . . . ",
". . . . . . . . . . . 7@]$^$. . . . . . . . . . . . . . . . . . ",
". . . . . . . . . . . . . . . . . . . . . . . . . . . . . . . . "};
