/* XPM */
static char *dummy[]={
"23 32 21 1",
". c None",
"k c #0000ff",
"l c #00ffff",
"o c #35ecd8",
"p c #36ebde",
"m c #37ebe0",
"s c #69f3ce",
"i c #775914",
"n c #795211",
"g c #7d4c11",
"h c #7e4c15",
"j c #804000",
"r c #82219e",
"b c #c5a5c4",
"e c #d3c4d3",
"# c #eaf1ea",
"f c #fbfefb",
"d c #fcfdfb",
"a c #ff0000",
"q c #ff8000",
"c c #ffff00",
".......................",
".............#aaa......",
"..........aaaaaa.......",
"......aaaaaaaaab.......",
"..aaaaaaaaaaaaa...cc...",
"daaaaaaaaaaaaae.fcccc..",
".ggaaaaaaaaaaa.cccccc..",
".ggghaaaaaaaa.cccccccc.",
".iggggaaaaaaa..ccccccc.",
"..ggggggaaaa....cccccc.",
"..gggggggga.....cccc...",
"..ggggggggg......c.....",
"..jgggggggkkkkkkkkkkkk.",
"...ggggggj.kkkkkkkkkk..",
"...gggggg...kkkkkkkk...",
"...jgggg.....kkkkkk....",
"....gggg......kkkkl....",
"....ggg........kkml....",
"....ggn.........mml....",
"....jg.........mmml....",
".....j.......lmmmml....",
"............lmmmmml....",
"............ommmmp.....",
"............ommmp......",
"............ommp.qq....",
"............omp..qqqq..",
"............rs....qqqq.",
"...........rr.....qqqq.",
"..........rrr.....qqq..",
".........rrrr.....qq...",
"........rrrrr......q...",
".......rrrrrr.........."};
