/* XPM */
static char *OmegaT[] = {
/* columns rows colors chars-per-pixel */
"32 32 4 1 ",
"  c black",
". c blue",
"X c gray100",
"o c None",
/* pixels */
"ooooooooooooo      ooooooooooooo",
"ooooooooooooXXXXXXXXoooooooooooo",
"ooooooooo      XX      ooooooooo",
"oooooooooXXXXXXXXXXXXXXooooooooo",
"oooooo     XXXXXXXXXX     oooooo",
"ooooooXXXXXXXXXXXXXXXXXXXXoooooo",
"oooo   ..................   oooo",
"ooooXXX.XXXXXXXXXXXXXXXX.XXXoooo",
"oo    X.XXXXXXXXXXXXXXXX.X    oo",
"ooXXXXX.XXXXXXXXXXXXXXXX.XXXXXoo",
"o    XX.XXXXXXXXXXXXXXXX.XX    o",
"oXXXXXX.......XXXX.......XXXXXXo",
"o    XXXXXXXX.XXXX.XXXXXXXX    o",
"XXXXXXXXXXXXX.XXXX.XXXXXXXXXXXXX",
"    XXXXXXXXX.XXXX.XXXXXXXXX    ",
"XXXXXXXXXXXXX.XXXX.XXXXXXXXXXXXX",
"    XXXXXXXXX.XXXX.XXXXXXXXX    ",
"XXXXXXXXXXXXX.XXXX.XXXXXXXXXXXXX",
"o    XXXXXXXX.XXXX.XXXXXXXX    o",
"oXXXXXXXXXXXX.XXXX.XXXXXXXXXXXXo",
"o     XXXXXXX.XXXX.XXXXXXX     o",
"oooXXXXXXXXXX.XXXX.XXXXXXXXXXooo",
"ooo      XXXX.XXXX.XXXX      ooo",
"oooooXXXXXXXX.XXXX.XXXXXXXXooooo",
"ooooo      XX.XXXX.XX      ooooo",
"ooooooooXXXXX.XXXX.XXXXXoooooooo",
"oooooooo     .XXXX.     oooooooo",
"ooooooooXXXXX.XXXX.XXXXXoooooooo",
"             .XXXX.             ",
"XXXXXXXXXXXXX.XXXX.XXXXXXXXXXXXX",
"             ......             ",
"oooooooooooooooooooooooooooooooo"
};
