/* XPM */
static char * starvoyager_xpm[] = {
"32 32 7 1",
" 	c None",
".	c #000000",
"+	c #B8B8B8",
"@	c #7B7B7B",
"#	c #393939",
"$	c #0000FF",
"%	c #FF0000",
"                                ",
"              ++++              ",
"              ++++              ",
"             @++++@             ",
"             @++++@             ",
"             @++++@             ",
"          @++@++++@++@          ",
"        #@@+++@@@@+++@@#        ",
"        #@++++++++++++@#        ",
"       ++++++++++++++++++       ",
"      +++@@+++@++@+++@@+++      ",
"      ++@@@@+@++++@+@@@@++      ",
"     +++@@@@+++@@+++@@@@+++     ",
"     +++@@@@++@@@@++@@@@+++     ",
"+++++@++@@+++@####@+++@@++@+++++",
"+++++@+++++@+@####@+@+++++@++@++",
"+++++++++++++@@##@@+++++++++++++",
"+++@@@@++++@++@@@@++@++++@@@@+++",
"++++++++++++@++++++@+++@++++++++",
"+++++@+++++++++++++++++@++@+++++",
"+++++@++++++@++++++@+++@++@+++++",
"+++++@++++++++++++++++++++@+++++",
" +++@@@@++++++++++++++++@@@@+++ ",
" +++@@@@++++#@@##@@#++++@@@@+++ ",
" +++++++++++#@@@@@@#+++++++++++ ",
" +++++@+++++#@@##@@#+++++@+++++ ",
"      @++++++++++++++++++@      ",
"        +++++++##+++++++        ",
"          +++++##+++++          ",
"          +++++##+++++          ",
"           ++++++++++           ",
"            %%%%%%%%            "};
