/* XPM */
static const char * icon_gentoo_small_xpm[] = {
"32 32 120 2",
"  	c None",
". 	c #000000",
"+ 	c #010200",
"@ 	c #152208",
"# 	c #1E310B",
"$ 	c #142108",
"% 	c #000100",
"& 	c #040601",
"* 	c #325213",
"= 	c #49761B",
"- 	c #6EB329",
"; 	c #7FCF30",
"> 	c #51831E",
", 	c #263E0E",
"' 	c #010100",
") 	c #020301",
"! 	c #121D07",
"~ 	c #5E9923",
"{ 	c #7BC82E",
"] 	c #80D030",
"^ 	c #77C12C",
"/ 	c #48751B",
"( 	c #050902",
"_ 	c #253C0E",
": 	c #6FB52A",
"< 	c #7CC92E",
"[ 	c #273F0E",
"} 	c #28420F",
"| 	c #1A2B0A",
"1 	c #6DB229",
"2 	c #78C32D",
"3 	c #2B4510",
"4 	c #030501",
"5 	c #101A06",
"6 	c #68AA27",
"7 	c #78C22D",
"8 	c #68A927",
"9 	c #1B2B0A",
"0 	c #7DCB2F",
"a 	c #385C15",
"b 	c #345413",
"c 	c #74BD2C",
"d 	c #365914",
"e 	c #1D300B",
"f 	c #0B1304",
"g 	c #4D7D1D",
"h 	c #080D03",
"i 	c #0C1304",
"j 	c #77C12D",
"k 	c #71B82B",
"l 	c #3F6617",
"m 	c #67A726",
"n 	c #101906",
"o 	c #0A1104",
"p 	c #629F25",
"q 	c #050802",
"r 	c #4D7C1D",
"s 	c #79C42D",
"t 	c #2D4A11",
"u 	c #7DCC2F",
"v 	c #131F07",
"w 	c #619E25",
"x 	c #73BB2B",
"y 	c #060902",
"z 	c #68A827",
"A 	c #49771C",
"B 	c #030401",
"C 	c #162308",
"D 	c #4E7F1D",
"E 	c #273F0F",
"F 	c #63A125",
"G 	c #0F1805",
"H 	c #172509",
"I 	c #335213",
"J 	c #436C19",
"K 	c #416A19",
"L 	c #5F9B24",
"M 	c #0F1806",
"N 	c #253D0E",
"O 	c #5A9222",
"P 	c #3A5F16",
"Q 	c #0B1204",
"R 	c #5C9522",
"S 	c #6DB129",
"T 	c #416A18",
"U 	c #4A781C",
"V 	c #385B15",
"W 	c #7CCA2F",
"X 	c #76C02C",
"Y 	c #070C03",
"Z 	c #72BA2B",
"` 	c #142007",
" .	c #53871F",
"..	c #599021",
"+.	c #040702",
"@.	c #446F1A",
"#.	c #7FCE30",
"$.	c #4B7B1C",
"%.	c #1B2C0A",
"&.	c #47731B",
"*.	c #66A526",
"=.	c #355614",
"-.	c #0C1405",
";.	c #5F9A24",
">.	c #243A0D",
",.	c #72B92B",
"'.	c #23380D",
").	c #75BE2C",
"!.	c #578D21",
"~.	c #010201",
"{.	c #5C9623",
"].	c #406718",
"^.	c #5D9723",
"/.	c #70B52A",
"(.	c #6FB42A",
"_.	c #355714",
":.	c #080E03",
"<.	c #192909",
"[.	c #568C20",
"}.	c #192809",
"                          . . . . . .                           ",
"                  . . . . . . . . . . . . . .                   ",
"              . . . . . . . . . . . . . . . . . .               ",
"            . . . . . . . . . . . . . . . . . . . .             ",
"          . . . . . . . + @ # # $ % . . . . . . . . .           ",
"        . . . . . . & * = - ; > , ' . . . . . . . . . .         ",
"      . . . . . ) ! ~ { ] ^ / ( . . . . . . . . . . . . .       ",
"    . . . . . . _ : ] ] < [ . . . . } | . . . . . . . . . .     ",
"    . . . . ) _ 1 ] ] 2 3 . . 4 5 6 7 8 9 . . . . . . . . .     ",
"  . . . . . ! : ] ] 0 a . . ' b c ] ] ] d . . . e f . . . . .   ",
"  . . . . & ~ ] ] ] g h . . i j ] ] ] k # . . . l ~ & . . . .   ",
"  . . . . * { ] ] m n . . o p ] ] ] ] g . . . q r { * . . . .   ",
"  . . . + = ] ] s 3 . . . t { ] ] ] u v . . . i w ] = + . . .   ",
". . . . @ - ] ] x @ . . y z ] ] ] ] A B . . . C ] ] - @ . . . . ",
". . . . # ] ] ] D . . . E ] ] ] ] F G . . . . H ] ] ] # . . . . ",
". . . . # ] ] ] I . . . J ] ] ] F ) . . . . . K ] ] ] # . . . . ",
". . . . # ] ] ] C . . . L ] ] F M . . . . . . ~ ] ] ] # . . . . ",
". . . . # ] ] ] C . . . N O P ) . Q R h . . . S ] ] ] # . . . . ",
". . . . @ - ] ] C . . . . . . . . T ] h . . @ x ] ] - @ . . . . ",
"  . . . + = ] ] U . . . . . . y V W X Y . . 3 s ] ] = + . . .   ",
"  . . . . * { ] Z ` . . . . )  .j ] ..+.. . @.] ] { * . . . .   ",
"  . . . . & ~ ] #.X $.%.# &.*.] ] ] =.% . -.;.] ] ~ & . . . .   ",
"  . . . . . ! : ] ] ] ] ] ] ] ] ] X >.. . @ ,.] : ! . . . . .   ",
"    . . . . ) _ 1 ] ] ] ] ] ] ] ] D & . . '.] )._ ) . . . .     ",
"    . . . . . . _ : ] ] ] ] ] ] !.~.. . . {.] ].. . . . . .     ",
"      . . . . . ) ! ^./././.(._.:.. . . <.[.}.& . . . . .       ",
"        . . . . . . . . . . . . . . . . . . . . . . . .         ",
"          . . . . . . . . . . . . . . . . . . . . . .           ",
"            . . . . . . . . . . . . . . . . . . . .             ",
"              . . . . . . . . . . . . . . . . . .               ",
"                  . . . . . . . . . . . . . .                   ",
"                          . . . . . .                           "};
