/* XPM */
static char *dummy[]={
"16 16 3 1",
". c None",
"# c #0000ff",
"a c #808080",
"................",
".....#.#.#......",
"................",
".....#.#.#......",
"................",
".#.#.#.#.#.#.#..",
"................",
".#.#.#.a.#.#.#..",
"................",
".#.#.#.#.#.#.#..",
"................",
".....#.#.#......",
"................",
".....#.#.#......",
"................",
"................"};
