/* XPM */
static char *sumo_32x32[] = {
/* columns rows colors chars-per-pixel */
"32 32 142 2 ",
"   c #000000",
".  c #0C0C0C",
"X  c #121212",
"o  c #1C1C1C",
"O  c #232323",
"+  c #2A2A2A",
"@  c #313131",
"#  c #3D3D3D",
"$  c #444444",
"%  c #4D4D4D",
"&  c #535353",
"*  c #585858",
"=  c #646464",
"-  c #6D6D6D",
";  c #737373",
":  c #7C7C7B",
">  c #FF0000",
",  c #FB0F0A",
"<  c #FF1500",
"1  c #FF3B00",
"2  c #ED383A",
"3  c #BE6138",
"4  c #FF5700",
"5  c #FF5B00",
"6  c #FF6100",
"7  c #FF6F00",
"8  c #FE7E06",
"9  c #957A5B",
"0  c #B56868",
"q  c #7EBE3C",
"w  c #02FF00",
"e  c #08FF00",
"r  c #1BFF1D",
"t  c #27FF00",
"y  c #39FF00",
"u  c #5BFF00",
"i  c #72C461",
"p  c #79DD7A",
"a  c #BF9B3A",
"s  c #FF8400",
"d  c #FF8F00",
"f  c #FF8E0F",
"g  c #FF9200",
"h  c #FEA001",
"j  c #FFA900",
"k  c #FFB500",
"l  c #FFBE00",
"z  c #FFA027",
"x  c #8BFF00",
"c  c #9DFF00",
"v  c #A0FF01",
"b  c #B5FF08",
"n  c #FFC400",
"m  c #FFCC00",
"M  c #FFDC06",
"N  c #CBFF1B",
"B  c #FFE41E",
"V  c #FFEB36",
"C  c #FFEA3D",
"Z  c #E1FF38",
"A  c #AE885B",
"S  c #A09251",
"D  c #AD9D50",
"F  c #93A652",
"G  c #A6B651",
"H  c #989165",
"J  c #8E877E",
"K  c #8B9E74",
"L  c #A5886B",
"P  c #B09A77",
"I  c #B99E72",
"U  c #A1A175",
"Y  c #C7BA48",
"T  c #FFB14E",
"R  c #E5A85B",
"E  c #FFB764",
"W  c #FFBE6B",
"Q  c #E5FF40",
"!  c #FFF048",
"~  c #F6FF6C",
"^  c #FFF376",
"/  c #FFFA7C",
"(  c #B17E80",
")  c #828282",
"_  c #8B8B8B",
"`  c #99958B",
"'  c #929292",
"]  c #959599",
"[  c #9C9C9C",
"{  c #89AE85",
"}  c #9D9EA7",
"|  c #A3A3A3",
" . c #A1A2A8",
".. c #ACACAC",
"X. c #B0B0AF",
"o. c #B3B3B4",
"O. c #B8B8B7",
"+. c #BAB7BB",
"@. c #B4BEBD",
"#. c #BCBCBC",
"$. c #F19696",
"%. c #C0BBBF",
"&. c #EAB5B5",
"*. c #FAB3B3",
"=. c #DEDE92",
"-. c #FFCA87",
";. c #FFC790",
":. c #FFFF95",
">. c #FFFF9F",
",. c #C0C0BF",
"<. c #E8CAB2",
"1. c #FFFFA0",
"2. c #C0BFC0",
"3. c #BFC0C0",
"4. c #BFCDCD",
"5. c #C2C2C2",
"6. c #C8C7C7",
"7. c #C3C6CD",
"8. c #CDC5CC",
"9. c #C3CCCC",
"0. c #CCCCCB",
"q. c #DBC3C3",
"w. c #DDCFC4",
"e. c #CDDFCC",
"r. c #D5D5D5",
"t. c #D9D8D7",
"y. c #DFD2DF",
"u. c #D9D9D9",
"i. c #F4DBC4",
"p. c #E4D7D7",
"a. c #E1D8D2",
"s. c #E0D8DF",
"d. c #D3EDD3",
"f. c #FFFFC3",
"g. c #FFFFD7",
"h. c #D6DDE5",
"j. c #DAE2E3",
"k. c #E5E5E5",
"l. c #EAEAEA",
"z. c #F4F4F4",
"x. c #FFFFFF",
"c. c None",
/* pixels */
"l.u.t.u.u.t.t.r.t.c.c.c.c.c.c.c.c.c.c.c.c.c.c.c.c.c.c.c.c.c.c.c.",
"t.5.o.) L [ 3.3.6.x.x.z.x.z.z.z.z.x.t.z.z.z.z.z.z.z.z.z.z.z.z...",
"t...A -.T 4 ( 3.r.] #.x.x.x.x.x.x.x.% x.x.x.x.x.x.x.x.x.x.x.x.o.",
"u.9 W ;.E 8 , 4.0.: - z.x.x.x.x.x.k.  x.x.x.x.x.x.x.x.x.x.x.x.O.",
"u.3 z T z 6 > q.0.: - z.x.x.x.x.x.[   0.x.x.x.x.x.x.x.x.x.x.x.#.",
"u.0 1 7 5 < > j.9.J - z.x.x.x.x.x.*   ) x.x.x.x.x.x.x.x.x.x.x.#.",
"u.3.2 > > > *.3.6.: - z.x.x.x.x.x..   # x.x.x.x.x.x.x.x.x.x.x.#.",
"r.3.9.&.$.p.5.3.6.= $ x.x.x.x.x.l.      x.x.x.x.x.x.J z.x.x.x.#.",
"r.3.3.3.5.3.5.3.6.: o $ z.x.x.x.[       0.x.x.x.j.O ; x.x.x.x.#.",
"0.3. .H D ` #.3.5.: -     | x.x.; +   O ] x.x.)     x.x.x.x.x.#.",
"9.} Y / V m I 5.5.: ; &     # z.x.x.. x.x.k.O     ' x.x.x.x.x.#.",
"6.S ! ^ C m h 7.#.: - l.        | x.. x.:       X x.x.x.x.x.x.5.",
"6.a M B M n d w.3.: - z.)     O k.x.. x.0..     ..x.x.x.x.x.x.#.",
"#.P k n l j f h.#.; - z.x.. + X l.x.. x.6.o X + x.x.x.x.x.x.x.%.",
"#.#.R d d s i.#.#.: - z.x.#.x.u.. x.. l.. z.z.r.x.x.x.x.x.x.x.#.",
"o.,.7.a.<.j.#.5.O.; ; 0._ $ $ x.6.o X X k.x.o % ] k.x.x.x.x.x.3.",
"o.5.5.5.5.5.5.5.#.+         @ o.o.=   _ o.#.X       . & | k.x.#.",
"..5.' U G K +.#.o..         O . : :   : :   X         . & _ l.#.",
"..] =.g.>.b i 2.o.: = _ & . # O x.x.. x.x.X o o * | l.x.x.x.x.#.",
"..F 1.f.:.N t 8...; - z.x.x.z.o x.x.. x.x.. x.x.x.x.x.x.x.x.x.#.",
"| q Z ~ Q v e e...; - z.x.x.x.O x.x.. x.x.. x.x.x.x.x.x.x.x.x.#.",
"[ { u c x y r y...; - z.x.; o   o o.. _ O   O ] x.x.x.x.x.x.x.#.",
"] 2.p w w r d.#...; - z.x.[       z.. #.      0.x.x.x.x.x.x.x.o.",
"' 2.5.s.e.y.#.,.| - - z.x.k.    . x.. x.      x.x.x.x.x.x.x.x.#.",
") 6.6.5.5.5.5.5.| - - z.x.x..   * x.. x.+   # x.x.x.x.x.x.x.x.o.",
"c.= % & * ; ; ; = : - z.x.x.&   | x.. x.;   : x.x.x.x.x.x.x.x.#.",
"c.c.    o ; ; ; ; ; - z.x.x.]   l.x.. x.#.  6.x.x.x.x.x.x.x.x.o.",
"c.c.c.c.o : ) ) : : | x.x.x.u.. x.x.. x.x.  x.x.x.x.x.x.x.x.x.o.",
"c.c.c.c.c.x.x.x.x.x.x.x.x.x.x.= x.x.. x.x.= x.x.x.x.x.x.x.x.x.o.",
"c.c.c.c.c.z.x.x.x.x.x.x.x.x.x.l.x.x.. x.x.k.x.x.x.x.x.x.x.x.x.o.",
"c.c.c.c.c.z.x.x.x.x.x.x.x.x.x.x.x.x.. x.x.x.x.x.x.x.x.x.x.x.x...",
"c.c.c.c.c.X.O.O.#.#.#.#.#.#.#.#.#.5.@ #.#.o.#.O.O.o.o.o.o.o.o.) "
};
