/* XPM */
static char *latexdraw32[] = {
/* columns rows colors chars-per-pixel */
"32 32 69 1 ",
"  c #0D1B50",
". c #101E52",
"X c #152255",
"o c #192557",
"O c #1B2758",
"+ c #1D2A5A",
"@ c #212E5C",
"# c #26315F",
"$ c #273260",
"% c #2A3561",
"& c #2E3963",
"* c #323D66",
"= c #353F68",
"- c #364169",
"; c #3B456C",
": c #3E486E",
"> c #3F4970",
", c #404A6F",
"< c #444D71",
"1 c #475073",
"2 c #4A5375",
"3 c #4D5778",
"4 c #4F5878",
"5 c #545C7B",
"6 c #585F7D",
"7 c #59617E",
"8 c #576080",
"9 c #5D6581",
"0 c #606782",
"q c #646B85",
"w c #686E87",
"e c #666D8A",
"r c #696F88",
"t c #6D738A",
"y c #71768D",
"u c #73798E",
"i c #6F7691",
"p c #707791",
"a c #757B91",
"s c #797E92",
"d c #7C8195",
"f c #7C8298",
"g c #82879C",
"h c #858A9E",
"j c #898E9F",
"k c #878DA0",
"l c #898EA1",
"z c #8D92A4",
"x c #9196A7",
"c c #9599A9",
"v c #9A9EAD",
"b c #9EA2AF",
"n c #9EA2B0",
"m c #A1A5B3",
"M c #A5A9B5",
"N c #A8ABB6",
"B c #ABADB9",
"V c #AEB1BC",
"C c #B2B4BE",
"Z c #B4B7C0",
"A c #B7B9C2",
"S c #BBBDC4",
"D c #C3C5CB",
"F c #C7C8CD",
"G c #C9CACE",
"H c #CBCCD0",
"J c #CFD0D3",
"K c #D2D3D5",
"L c None",
/* pixels */
"LLLLLLLLuuuuyuyyuuaassssLLLLLLLL",
"LLLLLuuuyyyyyyyyyyyuuusssggLLLLL",
"LLLLuyyyyttyrttttttyyyyausssLLLL",
"LLLuyyyttrrrwwwwrrrrtttyyusssLLL",
"LLuyyttrwwqqqqqqqwqwwwrtttyussLL",
"Luuyttrwqqqqqq0qq0q0qqqwrttyuuaL",
"Luyttrwqqq0099997000000qwwwtttuL",
"Lyytrwqqq0999879777779000qqwwtyL",
"uyyrrqq00077655654445557700qqwwt",
"uyyrqujs77770gp55glljgfr76700qqw",
"ytrrqgSCy667lFl56DGDSSSMhq6770qq",
"yytwq0bGv75aSZ834FSzgzmDFc657770",
"yytwq0yCSs0bGs314FM7<2<ySDs45567",
"ytrwq07jDBlFm3114GN5<<<<gHM24556",
"ytwwqq77mJHSq1112FM5,<,,eSC22245",
"yyrqq776fDJx111<1Fm5;;:;9BS51224",
"yyrwq095cKKm1<<<1Dm3-;;-8BA5>>22",
"yyrqq07sSSBDp<<><Dn3---=9ZC>>>><",
"uytwq7qMFkaSV2>;>Dm2=**&iDn=;;>>",
"uyyrq7xFm85lGk<;>Dn<&&%1MDi&--;>",
"uytrquSSa33qBS8;>DBe8egCGz-&**-;",
"auyrwNGc8423sGb<>HKDSZZmp>$%&**-",
"duyrwjzr54314sp:;psfpi01&@$$$&&&",
"auyte0997543<:::-&&$$@+@@@@@#$$&",
"Lauyrw0075421<,;-=&&%$@@+++++@$$",
"Lduyrwq0755422,;;=&&%$@++OOO++@L",
"Ldautrq0965412,,;-*&%$@@OOXXo++L",
"LLauyrw0075422<,;-=&%$@+OXXX.oLL",
"LLLautrw0965321<>;=&&$#+OXX. XLL",
"LLLLuyrwq9655211>;-=&%$++XXX LLL",
"LLLLLutwq0965311<>;=&&$#+OoLLLLL",
"LLLLLLLLeq995431<>;-=&%$@LLLLLLL"
};
