/* XPM */
static char * icon32_xpm[] = {
"32 32 93 2",
"  	c #FFFFFF",
". 	c #DEDEDE",
"+ 	c #D6D6D6",
"@ 	c #CECECE",
"# 	c #C6C6C6",
"$ 	c #BDBDBD",
"% 	c #B5B5B5",
"& 	c #ADADAD",
"* 	c #A5A5A5",
"= 	c #9C9C9C",
"- 	c #949494",
"; 	c #8C8C8C",
"> 	c #848484",
", 	c #7B7B7B",
"' 	c #737373",
") 	c #6B6B6B",
"! 	c #636363",
"~ 	c #5A5A5A",
"{ 	c #525252",
"] 	c #4A4A4A",
"^ 	c #424242",
"/ 	c #393939",
"( 	c #313131",
"_ 	c #292929",
": 	c #212121",
"< 	c #181818",
"[ 	c #101010",
"} 	c #080808",
"| 	c #ADA5A5",
"1 	c #948C8C",
"2 	c #8C8484",
"3 	c #7B7373",
"4 	c #847B7B",
"5 	c #736B6B",
"6 	c #6B6363",
"7 	c #5A5252",
"8 	c #524A4A",
"9 	c #4A4242",
"0 	c #423939",
"a 	c #393131",
"b 	c #312929",
"c 	c #292121",
"d 	c #211818",
"e 	c #181010",
"f 	c #100808",
"g 	c #080000",
"h 	c #737B7B",
"i 	c #7B8484",
"j 	c #6B7373",
"k 	c #636B6B",
"l 	c #525A5A",
"m 	c #5A6363",
"n 	c #4A5252",
"o 	c #424A4A",
"p 	c #738484",
"q 	c #6B7B7B",
"r 	c #394242",
"s 	c #313939",
"t 	c #293131",
"u 	c #526363",
"v 	c #738C8C",
"w 	c #212929",
"x 	c #5A7373",
"y 	c #394A4A",
"z 	c #638484",
"A 	c #4A6363",
"B 	c #314242",
"C 	c #5A7B7B",
"D 	c #425A5A",
"E 	c #182121",
"F 	c #293939",
"G 	c #4A6B6B",
"H 	c #395252",
"I 	c #426363",
"J 	c #101818",
"K 	c #314A4A",
"L 	c #294242",
"M 	c #426B6B",
"N 	c #315252",
"O 	c #396363",
"P 	c #427373",
"Q 	c #315A5A",
"R 	c #396B6B",
"S 	c #295252",
"T 	c #214242",
"U 	c #316363",
"V 	c #295A5A",
"W 	c #183939",
"X 	c #215252",
"Y 	c #081818",
"Z 	c #082929",
"` 	c #000808",
" .	c #000000",
" . . . . . . . . . . . . . . . . . . . . . . . . . . . . . . . .",
" .. $ % % % % % % % % % % % % % % % % % % % % % % % % % % $ .  .",
" .$ ( < < < < < < < < < < < < < < < < < < < < < < < < < < ( $  .",
" .% <  . . . . . . . . . . . . .[  . . . .}  . . . . . . .< %  .",
" .% <  . . . . . . . . . . . .[ < [ } } [ / :  . . . . . .< %  .",
" .% <  . . . . . . .} } < { n : : ~ { : ^ / : ^ [  . . . .< %  .",
" .% <  . . . .} } d ( ^ ) n O ^ ^ ] 7 : ^ / < { ^  . . . .< %  .",
" .% <  . . .[ ] ^ U { { { ^ 8 [ } l R : 0 { ~ ^ ^ ^ ~ }  .< %  .",
" .% <  . . .( ^ _ w o _ { 9 ' [ } { n : ^ > i 8 ^ _ {  . .< %  .",
" .% <  . ._ / ^ ^ ^ : < e U s , : } } _ ) ^ < R l ^ / ^ } < %  .",
" .% <  .} : : ] ^ ^ <  .} w : , _ [ < _ ] 0 [ m l : : ^ } < %  .",
" .% < } / { ( _ ^  .[ ^ <  .}  .: ` : } : : } ( ' ( [ E } < %  .",
" .% <  .: ~ { ^ ]  ./ [ } 0 ^ ( ^ X r ! ] ) ] { ;  . .Q o [ %  .",
" .% <  . .E S a [ : } _ 7 R j > & 1 & > ' ' ' , ] ( ) 5 < < %  .",
" .% <  . . .J < < < } , ' n { > & ; - ' { ] ] ~ { ] { _ } < %  .",
" .% <  . . . .[ < ] * $ $ { l ^ ] / / / / ] < { > ) }  . .< %  .",
" .% <  . . . .[ } % $ $ $ i M 8 _ _ _ : [ <  .{ > ' :  . .< %  .",
" .% <  . ._ < [ , $ $ % * } e / [  . ./ ~ - > : m 2 >  . .< %  .",
" .% <  .[ ] < ^ ' = % ; ]  .} [ } < _ > > , ~ w V 3 )  . .< %  .",
" .% <  .< ! ; , _ ( <  . . .} : ] ! , ! ] ( [ d ) ' _  . .< %  .",
" .% <  .< > > , ] [  .[ [  . .' , > ; < : :  ._ ' ^ }  . .< %  .",
" .% <  . . . .: _  .}  .} / , ; ; ~ : [ [ < [ P m  . . . .< %  .",
" .% <  . . .[ ~ '  . .< } ~ = ; - : : < [ ] ( > !  . . . .< %  .",
" .% <  . . .< / : ^ [ w _ ; , ' ^ : : { ' , , ! ]  . . . .< %  .",
" .% <  . . . ._ / ] 6 U h ~ { _ : ^ : ] ) > ) : _  . . . .< %  .",
" .% <  . . . .: / ^ ! ] ] ~ ~ } } < < ) & ~ : ) <  . . . .< %  .",
" .% <  . . . .< _ < < b ^ > * [ [  .[ - = : : _ }  . . . .< %  .",
" .% <  . . . . . . . . .[ ~ , ( : [ < ^ <  . . . . . . . .< %  .",
" .% <  . . . . . . . . . .{ ~ }  . . .}  . . . . . . . . .< %  .",
" .$ ( < < < < < < < < < < [ [ < < < < < < < < < < < < < < ( $  .",
" .. $ % % % % % % % % % % % % % % % % % % % % % % % % % % $ .  .",
" . . . . . . . . . . . . . . . . . . . . . . . . . . . . . . . ."};
