/* XPM */
static char *noname[] = {
/* width height ncolors chars_per_pixel */
"32 32 493 2",
/* colors */
"   c #2068D5",
" . c #1C3D6E",
" X c #6B758A",
" o c #FAF828",
" O c #4A729B",
" + c #8B1208",
" @ c #4B6C9C",
" # c #F8CB19",
" $ c #3381F8",
" % c #FF2E21",
" & c #294674",
" * c #D39797",
" = c #264471",
" - c #465776",
" ; c #567DA0",
" : c #436F8A",
" > c #6A9DCE",
" , c #183E77",
" < c #56687F",
" 1 c #FF0B00",
" 2 c #B3C5CD",
" 3 c #5C0B0B",
" 4 c #3B88F9",
" 5 c #2B4E79",
" 6 c #3483FC",
" 7 c #6F5A31",
" 8 c #F2BFBF",
" 9 c #194585",
" 0 c #5A5444",
" q c #7998AB",
" w c #307FF8",
" e c #FFCFCF",
" r c #164EA3",
" t c #B5CBD2",
" y c #5E6B80",
" u c #EDB9BA",
" i c #DB7777",
" p c #93B6CB",
" a c #91AFD3",
" s c #3E8CFF",
" d c #4180D7",
" f c #95B5C3",
" g c #53687F",
" h c #4276AD",
" j c #A11306",
" k c #183B70",
" l c #A4C1D5",
" z c #2D4C7E",
" x c #3C7CD2",
" c c #9E5252",
" v c #0938AA",
" b c #BBD3DB",
" n c #F6F02A",
" m c #4B8AE4",
" M c #65583E",
" N c #325D90",
" B c #436179",
" V c #3D86EA",
" C c #E8C0C2",
" Z c #164385",
" A c #507189",
" S c #154184",
" D c #1C5EC3",
" F c #3681ED",
" G c #4D8AD2",
" H c #8190A2",
" J c #5E7F9A",
" K c #496C8C",
" L c #619CD5",
" P c #3A81DD",
" I c #981A0A",
" U c #599DD7",
" Y c #365076",
" T c #408EF0",
" R c #EAB0B0",
" E c #3F6EAD",
" W c #697487",
" Q c #588BAB",
" ! c #F7C0C0",
" ~ c #FEEBEB",
" ^ c #3382F7",
" / c #1D60C7",
" ( c #85A8C0",
" ) c #144186",
" _ c #78AEF2",
" ` c #7396AB",
" ' c #769FCF",
" ] c #D89191",
" [ c #606A7E",
" { c #A7C7DE",
" } c #E68B8B",
" | c #4178B2",
".  c #6D768E",
".. c #1C3E70",
".X c #DA7272",
".o c #FF2216",
".O c #05246A",
".+ c #7AAAE0",
".@ c #A3C1DA",
".# c #619BCE",
".$ c #2769CA",
".% c #B30800",
".& c #A0C1D7",
".* c #3786FE",
".= c #183A6C",
".- c #826025",
".; c #6596C8",
".: c #7299B7",
".> c #3484FB",
"., c #D91001",
".< c #FF3123",
".1 c #3E7CC6",
".2 c #4F5B77",
".3 c #CFE1E4",
".4 c #468BDB",
".5 c #3080F7",
".6 c #F2ECEC",
".7 c #D0807F",
".8 c #3F7BBD",
".9 c #0C46B6",
".0 c #6494B3",
".q c #154080",
".w c #4078B4",
".e c #9E190C",
".r c #194C9B",
".t c #F9F6F6",
".y c #1E4C8C",
".u c #627590",
".i c #183A6F",
".p c #FCD518",
".a c #1956B2",
".s c #5996D3",
".d c #81ADCC",
".f c #476F9D",
".g c #D89797",
".h c #6CA6D5",
".j c #526E8A",
".k c #1F4479",
".l c #FEFEFE",
".z c #B0CBD9",
".x c #3B6C9B",
".c c #506E88",
".v c #E4A5A6",
".b c #6F2626",
".n c #D11E13",
".m c #002375",
".M c #254F8C",
".N c #FEDDDD",
".B c #C51D11",
".V c #639ACC",
".C c #5C798D",
".Z c #354D74",
".A c #6797C6",
".S c #272F38",
".D c #A30D00",
".F c #689CBD",
".G c #0A3D6E",
".H c #5A7BB6",
".J c #B3CFDF",
".K c #FFECEB",
".L c #E6D9D9",
".P c #D47F7F",
".I c #154286",
".U c #70ACC8",
".Y c #5088A2",
".T c #990200",
".R c #456C94",
".E c #C80B00",
".W c #6276A0",
".Q c #71A2C9",
".! c #8FB5CC",
".~ c #FADF1C",
".^ c #588096",
"./ c #D63128",
".( c #FF2515",
".) c #1E3D71",
"._ c #DCAA02",
".` c #9DB0BC",
".' c #54647B",
".] c #6189AC",
".[ c #6296CE",
".{ c #385070",
".} c #710000",
".| c #5494D4",
"X  c #BC8992",
"X. c #FDFC18",
"XX c #5E9DC0",
"Xo c #FF3422",
"XO c #154489",
"X+ c #85A9C2",
"X@ c #89B0E7",
"X# c #47758F",
"X$ c #3C79C3",
"X% c #E1A9A9",
"X& c #124086",
"X* c #5C79A7",
"X= c #64A6D3",
"X- c #327EEE",
"X; c #192F58",
"X: c #ECE325",
"X> c #E38A8A",
"X, c #406892",
"X< c #22406E",
"X1 c #307AEC",
"X2 c #1C3D72",
"X3 c #4374AC",
"X4 c #E8B3B3",
"X5 c #4174AA",
"X6 c #18396E",
"X7 c #F1AEDD",
"X8 c #6E7087",
"X9 c #6B94C6",
"X0 c #3378DB",
"Xq c #715C34",
"Xw c #9CA7B4",
"Xe c #3878CC",
"Xr c #903B35",
"Xt c #8CA9B8",
"Xy c #5D6F80",
"Xu c #A8190E",
"Xi c #1D4576",
"Xp c #83AEE4",
"Xa c #3069A3",
"Xs c #4286D9",
"Xd c #FF271B",
"Xf c #325284",
"Xg c #163E79",
"Xh c #5C7D96",
"Xj c #5A677D",
"Xk c #5792DD",
"Xl c #8A631E",
"Xz c #39608E",
"Xx c #3886FA",
"Xc c #3688F8",
"Xv c #836021",
"Xb c #6193C9",
"Xn c #609CBE",
"Xm c #FFD3D3",
"XM c #6091C8",
"XN c #FFD1D3",
"XB c #495E76",
"XV c #2871DD",
"XC c #A40000",
"XZ c #7DA2CA",
"XA c #6EA6CF",
"XS c #627B9F",
"XD c #347BC1",
"XF c #ADCAD8",
"XG c #DF1B0F",
"XH c #ABC8D6",
"XJ c #FFE0E0",
"XK c #FFDEE0",
"XL c #A14A03",
"XP c #2169D6",
"XI c #97B6BF",
"XU c #233540",
"XY c #5C6478",
"XT c #173B73",
"XR c #1C3C6E",
"XE c #5387BB",
"XW c #1B3C6D",
"XQ c #3988FE",
"X! c #367DDA",
"X~ c #1E65D3",
"X^ c #2D77E5",
"X/ c #6197CC",
"X( c #BA1B12",
"X) c #5A0606",
"X_ c #5C9DF2",
"X` c #1D62C8",
"X' c #495A79",
"X] c #A37715",
"X[ c #2865B5",
"X{ c #5686A0",
"X} c #F62C22",
"X| c #596982",
"o  c #87AEDA",
"o. c #22416D",
"oX c #B5D3F0",
"oo c #CC9090",
"oO c #588AB9",
"o+ c #FBDCDF",
"o@ c #00104F",
"o# c #AB8080",
"o$ c #FF0000",
"o% c #C8E5F2",
"o& c #F5C2C2",
"o* c #5095D2",
"o= c #D0B1B8",
"o- c #1E4780",
"o; c #3C67A4",
"o: c #4A6FF4",
"o> c #FFFB08",
"o, c #2260BC",
"o< c #86A7BB",
"o1 c #E28600",
"o2 c #B2CCCF",
"o3 c #E3A3A3",
"o4 c #6B9CD2",
"o5 c #5C687E",
"o6 c #D4BFBF",
"o7 c #FAF8F8",
"o8 c #164A99",
"o9 c #1E3F6C",
"o0 c #D08D8D",
"oq c #1A58B4",
"ow c #387ED8",
"oe c #AEC2CB",
"or c #4C8EB0",
"ot c #023978",
"oy c #FED0D1",
"ou c #567385",
"oi c #002776",
"op c #F1B7B7",
"oa c #214172",
"os c #174C9D",
"od c #416A8E",
"of c #E0A1A3",
"og c #688CA7",
"oh c #56647B",
"oj c #546279",
"ok c #E3ACB3",
"ol c #789BB0",
"oz c #317AD4",
"ox c #E8A64E",
"oc c #5697CA",
"ov c #D49302",
"ob c #134085",
"on c #4677B7",
"om c #3F78BA",
"oM c #3271CB",
"oN c #25446F",
"oB c #FFCBCB",
"oV c #C70900",
"oC c #1E3F72",
"oZ c #7490A2",
"oA c #98190D",
"oS c #EEE5E5",
"oD c #4D84CB",
"oF c #9FC1E0",
"oG c #71A7EB",
"oH c #4E6780",
"oJ c #6D82AF",
"oK c #4775A4",
"oL c #3787FE",
"oP c #EE9696",
"oI c #3687FD",
"oU c #144793",
"oY c #A3C1D0",
"oT c #5289B2",
"oR c #3685FD",
"oE c #CF97A9",
"oW c #1955AF",
"oQ c #DC9898",
"o! c #A90000",
"o~ c #2B73DB",
"o^ c #487BBC",
"o/ c #E07B7B",
"o( c #5B6E86",
"o) c #B8CDD4",
"o_ c #E0ECF8",
"o` c #254472",
"o' c #2F5589",
"o] c #5B7E9D",
"o[ c #1E4175",
"o{ c #000E5B",
"o} c #4F839B",
"o| c #3B72B9",
"O  c #3E8CFE",
"O. c #E69B9B",
"OX c #6697CC",
"Oo c #183B6F",
"OO c #8B631D",
"O+ c #377BD6",
"O@ c #B2C0C4",
"O# c #C47909",
"O$ c #759DB3",
"O% c #4E6279",
"O& c #458DE7",
"O* c #508BDE",
"O= c #3784F7",
"O- c #1D4881",
"O; c #B38D8D",
"O: c #FFE9E8",
"O> c #88979E",
"O, c #FFFFFF",
"O< c #8DB4DB",
"O1 c #EDBBBC",
"O2 c #AFCAD8",
"O3 c #234273",
"O4 c #C48D0C",
"O5 c #4A88CE",
"O6 c #1F406F",
"O7 c #FFDEDE",
"O8 c #3F71B6",
"O9 c #344F7D",
"O0 c #1D3E6D",
"Oq c #4A6782",
"Ow c #75A9E1",
"Oe c #3A88FD",
"Or c #689AC7",
"Ot c #113A75",
"Oy c #FBF727",
"Ou c #5D98D0",
"Oi c #0B3E6F",
"Op c #3786FA",
"Oa c #636F8A",
"Os c #2E74DA",
"Od c #1C60C5",
"Of c #1A2735",
"Og c #560000",
"Oh c #5A96B9",
"Oj c #347FED",
"Ok c #708DB1",
"Ol c #7D0C02",
"Oz c #445472",
"Ox c #3D82D8",
"Oc c #1E4D92",
"Ov c #72A0C0",
"Ob c #678FA8",
"On c #5A86B9",
"Om c #1A3C6D",
"OM c #4173A7",
"ON c #5A748E",
"OB c #407EC7",
"OV c #3678D1",
"OC c #F3BEBE",
"OZ c #AFCCDE",
"OA c #AC1A0F",
"OS c #307CF6",
"OD c #174081",
"OF c #FFE4E4",
"OG c #E4A50D",
"OH c #23416F",
"OJ c #5D687D",
"OK c #4F6A83",
"OL c #5C667C",
"OP c #498FF4",
"OI c #864949",
"OU c #153B75",
"OY c #E9D32C",
"OT c #D8A0A0",
"OR c #183A6E",
"OE c #4672A5",
"OW c #576277",
"OQ c #4A647E",
"O! c #052162",
"O~ c #EDB20F",
"O^ c #99A9BB",
"O/ c #B4CFDC",
"O( c #E09494",
"O) c #76A1D4",
"O_ c #D19899",
"O` c #4692FE",
"O' c #95C4EF",
"O] c #AFC7D7",
"O[ c #BA6C68",
"O{ c #1C4075",
"O} c #667996",
"O| c #A4C3E0",
"+  c #ADC5D5",
"+. c #A2C3DE",
"+X c #CC99B5",
"+o c #649CCC",
"+O c #307AE5",
"++ c #294C85",
"+@ c #1A58B5",
"+# c #E7C902",
"+$ c #3F5169",
"+% c #F02316",
"+& c #6788A4",
"+* c #3A7DD1",
"+= c #89621D",
"+- c #3787F9",
"+; c #FF6356",
"+: c #55748F",
"+> c #5993CB",
"+, c #B5CED6",
"+< c #B6CCD7",
"+1 c #880E02",
"+2 c #4389DD",
"+3 c #AECBD9",
"+4 c #466A94",
"+5 c #4786D7",
"+6 c #304664",
"+7 c #3D80E1",
"+8 c #FFC9C9",
"+9 c #264964",
"+0 c #2E7BF0",
"+q c #7C0D00",
"+w c #558CBD",
"+e c #860000",
"+r c None",
/* pixels */
"O,O,O,O,O,O,O,O,O,O,O,O,Og 3 cOgO,O,O,O,O,O,O,O,O,O,O,O,O,O,O,O,",
"O,O,O,O,O,O,O,O,O,O,O,Og.bo7o/O,O,O,O,O,O,O,O,O,O,O,O,O,O,O,O,O,",
"O,O,O,O,O,O,O,O,O,O,OgX).t 8.XOgO,O,O,O,O,O,O,O,O,O,O,O,O,O,O,O,",
"O,O,O,O,O,O,O,O,O,O,Ogo6XJo3 iOgO,O,O,O,O,O,O,O,O,O,O,O,O,O,O,O,",
"O,O,O,O,O,O,O,O,O,OgOIO,o&.g }O,O,O,O,O,O,O,O,O,O,O,O,O,O,O,O,O,",
"O,O,O,O,O,O,O,O,O,Og.6.NX4o0X>O,O,O,O,O,O,O,O,O,O,O,O,O,O,O,O,O,",
"O,O,O,O,O,O,O,O,Ogo#O,oBX% ]oPO,O,O,O,O,O,O,O,O,O,O,O,O,O,O,O,O,",
"O,O,O,O,O,O,O,O,OgoS ~ !OTO(O,O,O,O,O,O,O,O,O,O,O,O,O,O,O,O,O,O,",
"O,O,O,O,O,O,O,OgO;O,O7op *O.O,O,O,O,O,O,O,O,O,O,O,O,O,O,O,O,O,O,",
"O,O,O,O,O,O,O,Og.L.lXm RoooQO,O,O,O,O,O,O,O,O,O,O,O,O,O,O,O,O,O,",
"O,O,O,O,O,O,O,Og+;O,XKO1of.vO,O,O,O,O,O,O,O,O,O,O,O,O,O,O,O,O,O,",
"O,O,O,O,O,O,O,Xo 1X}oyO_OlO,O,O,O,O,O,O,o:ouO,O,O,O,O,O,O,O,O,O,",
"O,O,O,O,O,O,O,.<.o.,o!+e.DO,O,O,X5.AX9 ' a.@O/ bXIO,O,O,O,O,O,O,",
"O,O,O,O,O,O,O, %+%.BXu IO,O,O,.QOr.;OXO)O<O|OZXFoY f `O,O,O,O,O,",
"O,O,O,O,O,O,.(Xd.nOA.eO,O,O,.#+o.VX/.[o4o oF {.& p (oloZO,O,O,O,",
"O,O,O,O,O,O,o$XGX(oAoAO,O, G.|.sOuXZXb moXo%.3o2X+.:ogXh.CO,O,O,",
"O,O,O,O,O,o+.P.E j+1+q.9OxXs.4 >.UX= LOwOP _O'Xk.d qo]+:OK+9O,O,",
"O,O,O,O, e C./.% +O[O,ozow P+5O& TOpXx 4OSX1+7oDo^.] A.coHO%O,O,",
"O,O,O,OF uo=oV.TXrXN vOVO+X!+2XcoRoL.* 6 wX- U+>XE ; KOQ g.'+$O,",
"O,O,O,+8oE.7XC.}X  eo_Xe+*o~ F+-oIXQ sO O=.+oc.FO$+&O} <X|Xj [O,",
"O,O,O,.KX7o>O~XL+XOCXDX$.1X0.h ^.>OeO`X_X@XpO* xoOonX* X yOJXYO,",
"O,O,O,O,O,X..~+#okO:o|om.8+wXn V.5 $oG+<O2+3.J doMOkXS Wo5OLOW.S",
"O,O,O,O,O,Oy.p._oxO,O8 |.woTOho*+0Oj+..zXH+ +, toeO^ HX8ohoj.2XU",
"O,O,O,O,O, o #ovo1O, EX3 hOnorXX+OX^XA.! lO]o) 2O@oJO>++X' -OzOf",
"O,O,O,O,O, nOGO#O,O,OMOEoK.H Q.0XMXVOsO5Ovo<Xt.`Xw.W.u Z Y.Z.{O,",
"O,O,O,O,O,X:O4OOO,O,Xa.f O @X{ObOBXP  X~.$.Yo}.^ONOa 9.I &o`XiO,",
"O,O,O,O,O,OYX]+=O,O,X;+4.RX,.xX[OdX` / Do, JX# :o(Xfobo[oC.)O!O,",
"O,O,O,O,O,O,Xl+=+=O,O,odXz NOc roWoq+@.ao;.jOq BO-obOD.. kOiO,O,",
"O,O,O,O,O,O,+=+=+=+=O,.Oo'.M.yXOoUo8os.r. XyXB 5o-.qXR.iORo{O,O,",
"O,O,O,O,O,O,O,Xl+=XlXl+=Xl.-Xq M 0.kX&obO9 z ) SO6 .OoX6oiO,O,O,",
"O,O,O,O,O,O,O,O,O,Xl+=+=XlXlXv 7+6Xg ,O{O3 =oNo.o9Om.=.mO,O,O,O,",
"O,O,O,O,O,O,O,O,O,O,O,O,O,O,O,otOtOUXTX2oaOHX<O0XW.Go@O,O,O,O,O,"
};
