/* XPM */
static char * mball_m_xpm[] = {
"32 32 11 1",
" 	c None",
".	c #808080",
"+	c #FFA500",
"@	c #000000",
"#	c #FFFF00",
"$	c #FF0000",
"%	c #00FF00",
"&	c #FF00FF",
"*	c #2E8B57",
"=	c #00FFFF",
"-	c #0000FF",
"            ........            ",
"         ...+++@@###...         ",
"       ..++++++@@######..       ",
"      .++++++++@@########.      ",
"     .+++++++++@@#########.     ",
"    .@@+++++@@@@@@@@#####@@.    ",
"   .$@@@++@@+++@@###@@##@@@%.   ",
"  .$$$@@@@+++++@@#####@@@@%%%.  ",
"  .$$$$@@++++++@@#####@@@%%%%.  ",
" .$$$$$@@@@++++@@####@@@@%%%%%. ",
" .$$$$@$$@@@+++@@###@@@%%@%%%%. ",
" .$$$$@$$$@@@++@@##@@@%%%@%%%%. ",
".$$$$@$$$$$@@@+@@#@@@%%%%%@%%%%.",
".$$$$@$$$$$$@@@@@@@@%%%%%%@%%%%.",
".$$$$@$$$$$$$@@@@@@%%%%%%%@%%%%.",
".@@@@@@@@@@@@@@@@@@@@@@@@@@@@@@.",
".@@@@@@@@@@@@@@@@@@@@@@@@@@@@@@.",
".&&&&@&&&&&&&@@@@@@*******@****.",
".&&&&@&&&&&&@@@@@@@@******@****.",
".&&&&@&&&&&@@@=@@-@@@*****@****.",
" .&&&&@&&&@@@==@@--@@@***@****. ",
" .&&&&@&&@@@===@@---@@@**@****. ",
" .&&&&&@@@@====@@----@@@@*****. ",
"  .&&&&@@@=====@@-----@@@****.  ",
"  .&&&@@@@=====@@-----@@@@***.  ",
"   .&@@@==@@===@@---@@--@@@*.   ",
"    .@@=====@@@@@@@@-----@@.    ",
"     .=========@@---------.     ",
"      .========@@--------.      ",
"       ..======@@------..       ",
"         ...===@@---...         ",
"            ........            "};
