/* XPM */
static char * biniou_xpm[] = {
"32 32 156 2",
"  	c None",
". 	c #D8B996",
"+ 	c #685F52",
"@ 	c #593E20",
"# 	c #422606",
"$ 	c #97826A",
"% 	c #B1997E",
"& 	c #472905",
"* 	c #40382F",
"= 	c #5D4322",
"- 	c #534B41",
"; 	c #513515",
"> 	c #574F45",
", 	c #744E25",
"' 	c #BFA489",
") 	c #5B4A36",
"! 	c #665C51",
"~ 	c #383734",
"{ 	c #CAA983",
"] 	c #422100",
"^ 	c #472D0E",
"/ 	c #473A2D",
"( 	c #684923",
"_ 	c #6E583C",
": 	c #82623B",
"< 	c #3D1F00",
"[ 	c #473016",
"} 	c #5F5649",
"| 	c #AE977C",
"1 	c #3F1F00",
"2 	c #412504",
"3 	c #7D623F",
"4 	c #462A07",
"5 	c #816F5B",
"6 	c #0B2F0E",
"7 	c #684A30",
"8 	c #927147",
"9 	c #4A2B09",
"0 	c #7F6444",
"a 	c #0B330E",
"b 	c #0C2D0E",
"c 	c #0B360E",
"d 	c #072B0E",
"e 	c #472311",
"f 	c #004217",
"g 	c #5B310B",
"h 	c #593204",
"i 	c #4E2C03",
"j 	c #0D4810",
"k 	c #0B2C0D",
"l 	c #0C370F",
"m 	c #0A320D",
"n 	c #1B3921",
"o 	c #09360C",
"p 	c #162B14",
"q 	c #7B5A3B",
"r 	c #8F7354",
"s 	c #0B2B0E",
"t 	c #0C300E",
"u 	c #0C2B0D",
"v 	c #0B3D0F",
"w 	c #0B340E",
"x 	c #0C4210",
"y 	c #0B330D",
"z 	c #0D3810",
"A 	c #0C4C11",
"B 	c #0C3A0F",
"C 	c #0C3810",
"D 	c #0B370E",
"E 	c #0A370F",
"F 	c #322B13",
"G 	c #422000",
"H 	c #0D2A11",
"I 	c #0B350E",
"J 	c #0C310E",
"K 	c #0C300D",
"L 	c #0B2A0D",
"M 	c #0B2D0D",
"N 	c #0C400F",
"O 	c #0C2C0E",
"P 	c #0A380E",
"Q 	c #103E13",
"R 	c #0C3D10",
"S 	c #0C360E",
"T 	c #0B3E0F",
"U 	c #0D5D13",
"V 	c #0C380E",
"W 	c #0C320F",
"X 	c #09390D",
"Y 	c #0C2D0D",
"Z 	c #06290E",
"` 	c #0D320E",
" .	c #0C350E",
"..	c #0B2B0D",
"+.	c #0B4310",
"@.	c #0C4010",
"#.	c #0C330F",
"$.	c #0C4510",
"%.	c #033E15",
"&.	c #0A3A0E",
"*.	c #0D3A11",
"=.	c #0B380F",
"-.	c #0D5311",
";.	c #0C4D11",
">.	c #0D5712",
",.	c #0B300E",
"'.	c #0D390F",
").	c #0C3F10",
"!.	c #0D3A0F",
"~.	c #0D5112",
"{.	c #0B390F",
"].	c #7E4C1A",
"^.	c #1F370D",
"/.	c #0D5111",
"(.	c #0C4910",
"_.	c #0C340E",
":.	c #0C370E",
"<.	c #0B370F",
"[.	c #0D5612",
"}.	c #0C3E0F",
"|.	c #0B2C0E",
"1.	c #874E0F",
"2.	c #987E5D",
"3.	c #0C4811",
"4.	c #0C3C0F",
"5.	c #0B3C0F",
"6.	c #0C4110",
"7.	c #0C4410",
"8.	c #0D5E13",
"9.	c #0C4111",
"0.	c #0C390F",
"a.	c #794302",
"b.	c #0C320E",
"c.	c #0D5813",
"d.	c #0C3D0F",
"e.	c #0B300F",
"f.	c #0C2F0D",
"g.	c #0B240D",
"h.	c #0B310E",
"i.	c #0C2F0E",
"j.	c #673A04",
"k.	c #0E3611",
"l.	c #0B280D",
"m.	c #0C3E10",
"n.	c #0D5211",
"o.	c #0D290E",
"p.	c #0B270C",
"q.	c #764303",
"r.	c #0B240C",
"s.	c #0B290D",
"t.	c #0C4911",
"u.	c #6D3C04",
"v.	c #814703",
"w.	c #7F4603",
"x.	c #4A2B06",
"y.	c #6A3C04",
"                                                                ",
"                                                                ",
"                                                                ",
"                                                                ",
"                                        .                       ",
"                                  +   @                         ",
"                                      #           $ %           ",
"                                      &             *           ",
"                                      =     -                   ",
"                                      ;       >                 ",
"                                    ,                           ",
"                              '     ) ! ~ {                     ",
"                              ]     ^     /   (                 ",
"                              _     :   <     [   }           | ",
"                              1     2   3     4               5 ",
"                          6   7   8     9   0                   ",
"                      a b c d e f g     h   i                   ",
"                    a j k l m n o p   q   r     s t u v         ",
"                  w x y z a A B C D E F   G H I J K L M N       ",
"                  O P Q R S T U V B W X Y Z `  ...+.B @.#.$.    ",
"                %.&.*.    =.-.L ;.>.,.'.).!.I 6 t R $.l ~.{.    ",
"                ].^.      M {./.(._.~.>.:.x ,.#.L <.[.x }.|.    ",
"              1.2.          M 3.$.4.5.6.7.8.b 9.c ..0.M J       ",
"              a.              6 b.[.c.l d.B e.f.g.h.Y i.        ",
"            j.                  k.l.B m.n.7.W w o.p.'.          ",
"          q.                        6 r.s.,.l.#.t.              ",
"          u.                                                    ",
"        v.                                                      ",
"      w.                                                        ",
"    x.y.                                                        ",
"                                                                ",
"                                                                "};
