/* XPM */
static char *Grr[] = {
/* columns rows colors chars-per-pixel */
"32 32 173 2 ",
"   c #030202",
".  c #140F0B",
"X  c #15100C",
"o  c #151311",
"O  c #2F271F",
"+  c #31261B",
"@  c #302820",
"#  c #363331",
"$  c #3C3630",
"%  c #3D3A36",
"&  c #453627",
"*  c #463728",
"=  c #503D2B",
"-  c #5E4D3C",
";  c #684F38",
":  c #70573E",
">  c #364775",
",  c #374875",
"<  c #384875",
"1  c #464544",
"2  c #4B4B4B",
"3  c #53504E",
"4  c #6B5B4D",
"5  c #7B5F45",
"6  c #735E4A",
"7  c #6C5C51",
"8  c #67615F",
"9  c #6D615A",
"0  c #766252",
"q  c #796458",
"w  c #515168",
"e  c #686361",
"r  c #736963",
"t  c #796C63",
"y  c #726B69",
"u  c #796F6A",
"i  c #7C7066",
"p  c #6B6E73",
"a  c #6F7176",
"s  c #737173",
"d  c #7C7272",
"f  c #717379",
"g  c #79747D",
"h  c #7D7B7D",
"j  c #866344",
"k  c #8A6546",
"l  c #81654B",
"z  c #89674A",
"x  c #8D6C4D",
"c  c #946A46",
"v  c #986B47",
"b  c #926E4D",
"n  c #91704F",
"m  c #9E734E",
"M  c #8D6E52",
"N  c #816759",
"B  c #836B5B",
"V  c #8A6E58",
"C  c #947152",
"Z  c #9C7453",
"A  c #9B7856",
"S  c #9D785A",
"D  c #A1744F",
"F  c #A27651",
"G  c #A57953",
"H  c #AA7D55",
"J  c #A27C5A",
"K  c #AA7F59",
"L  c #836F61",
"P  c #827065",
"I  c #8A756A",
"U  c #927761",
"Y  c #9E7D63",
"T  c #947C6E",
"R  c #987F69",
"E  c #817C7B",
"W  c #A07F65",
"Q  c #A6805C",
"!  c #AD825C",
"~  c #B1845C",
"^  c #B6885F",
"/  c #9B836E",
"(  c #978171",
")  c #988474",
"_  c #92867C",
"`  c #9E8A7A",
"'  c #A28163",
"]  c #AC8562",
"[  c #A3846B",
"{  c #AC8A6D",
"}  c #B58B63",
"|  c #BA8E65",
" . c #B68F6C",
".. c #B98F68",
"X. c #BD9067",
"o. c #BD936C",
"O. c #AC8D70",
"+. c #B29376",
"@. c #BE9570",
"#. c #C09167",
"$. c #C1946A",
"%. c #CC9C6F",
"&. c #C59C76",
"*. c #CB9D71",
"=. c #C29D79",
"-. c #CCA076",
";. c #C7A07C",
":. c #CCA47E",
">. c #D4A475",
",. c #D4A67A",
"<. c #D8A778",
"1. c #D7A87B",
"2. c #DAAA7C",
"3. c #737485",
"4. c #7A7D82",
"5. c #7B7C8E",
"6. c #7D7F90",
"7. c #7F8187",
"8. c #7F8192",
"9. c #828385",
"0. c #8A8685",
"q. c #83848D",
"w. c #87898E",
"e. c #888A8E",
"r. c #948E8B",
"t. c #848694",
"y. c #868994",
"u. c #8B8D95",
"i. c #868898",
"p. c #8B8D9B",
"a. c #8E909F",
"s. c #959292",
"d. c #989696",
"f. c #92959C",
"g. c #989699",
"h. c #96989B",
"j. c #9D9B9B",
"k. c #B79E86",
"l. c #B8A594",
"z. c #BFAB9C",
"x. c #9294A1",
"c. c #9C9EA1",
"v. c #9DA0A7",
"b. c #9FA1AD",
"n. c #A4A5A7",
"m. c #A2A4A9",
"M. c #AAABAD",
"N. c #B1B0AF",
"B. c #A3A4B0",
"V. c #ACAFB5",
"C. c #AEAFB9",
"Z. c #AFB0BA",
"A. c #B1B3B6",
"S. c #B4B5BC",
"D. c #BBBBBB",
"F. c #C19F81",
"G. c #CDAA8A",
"H. c #D6AB84",
"J. c #DAAD81",
"K. c #D5AE89",
"L. c #DDB186",
"P. c #DEB58D",
"I. c #C5AB93",
"U. c #DCB690",
"Y. c #BABBC3",
"T. c #BEBFC9",
"R. c #BEC1C5",
"E. c #C9C6C6",
"W. c #C2C2CA",
"Q. c #C7C8CF",
"!. c #CACACD",
"~. c #D0CECE",
"^. c None",
/* pixels */
"^.^.^.^.^.^.^.^.^.^.^.^.^.^.^.^.^.^.^.^.^.^.^.^.^.^.^.^.^.^.^.^.",
"^.^.^.^.^.^.^.< < > ^.^.< ^.^.^.^.^.^.< ^.^., < < ^.^.^.^.^.^.^.",
"^.^.^.^.^.^.^.< < ^.^.< ^.^.^.x.x.^.^.^.< ^.^.< < ^.^.^.^.^.^.^.",
"^.^.^.^.^.^.^.< < ^.^.< ^.^.^.C.Z.^.^.^.< ^.^.< < ^.^.^.^.^.^.^.",
"^.^.^.^.^.^.^.< < > ^.^., ^.^.a.a.^.^.> , ^.> < < ^.^.^.^.^.^.^.",
"^.^.^.^.^.^.^.^.> , > ^.^.^.^.Z.C.^.^.^.^.> > > ^.^.^.^.^.^.^.^.",
"^.^.^.^.^.^.^.^.^.w < , ^.^.^.Y.Y.^.^.^., , w ^.^.^.^.^.^.^.^.^.",
"^.^.^.^.^.G o.&.;. .N ^.^.^.^.W.W.^.^.^.^.B ..;.&.o.G ^.^.^.^.^.",
"^.^.^.^.^.D *.L.U.U.$.^.^.^.^.Q.!.^.^.^.^.@.U.P.L.*.D ^.^.^.^.^.",
"^.^.^.^.^.^.H %.<.2.,.! F F T W.W.T F D ! 1.2.<.%.H ^.^.^.^.^.^.",
"^.^.^.^.^.^.^.H | %.1.H.K.K.G.z.I.G.H.K.1.1.%.| H ^.^.^.^.^.^.^.",
"^.^.^.^.^.^.^.^.^.G ! @.&.:.-.L.J.:.&.=...! G ^.^.^.^.^.^.^.^.^.",
"^.^.^.^.^.^.^.^.^.^.z Q ' / ' -.*.' T ' J k ^.^.^.^.^.^.^.^.^.^.",
"^.^.^.^.^.^.^.^.^.^.j n 7 f.y ] ^ y f.7 n j ^.^.^.^.^.^.^.^.^.^.",
"^.^.^.^.^.^.^.^.^.^.v n $ 9.1 n n 1 9.$ n b ^.^.^.^.^.^.^.^.^.^.",
"^.^.^.^.^.^.^.^.^.^.H } : @ & ]  .* @ : } F ^.^.^.^.^.^.^.^.^.^.",
"^.^.^.^.^.^.^.^.^.^.~ } J x S *.1.Q n J | Q ^.^.^.^.^.^.^.^.^.^.",
"^.^.^.^.^.^.^.^.^.^.} } ~ } *.J.J.1.$.] } ~ ^.^.^.^.^.^.^.^.^.^.",
"^.^.^.^.^.^.^.^.^.m | %.1.1.J.L.L.2.2.<.-.} c ^.^.^.^.^.^.^.^.^.",
"^.^.^.^.^.^.^.D ^ G o.1.J.L.P.P.P.P.L.2.<.X.Z ~ F ^.^.^.^.^.^.^.",
"^.^.^.^.^.^.v H X.X.%.L.P.U.P.P.P.P.U.P.L.-.X.X.H v ^.^.^.^.^.^.",
"^.^.^.^.^.^.v ~ %.-.n 6 O.F.k.l.z.I.G.+.6 x %.$.! v ^.^.^.^.^.^.",
"^.^.^.^.^.^.F ! } C X   o 3 s.D.!.N._ #   . n ^ H F ^.^.^.^.^.^.",
"^.W.Y.S.Z.s.M m #.;   & 5 - % 1 2 1 4 5 &   ; #.S ' E.A.S.Y.R.^.",
"^.S.A.M.n.0.i n ~ z = Q 2.-.C + + b %.2.Q = x ~ [ _ ~.n.M.A.Z.^.",
"^.B.n.c.h.e.r.x Z } ] { | >.>.| ..>.>.} O.] | z Y 0.R.h.c.m.B.^.",
"^.x.f.u.e.e.r.q T K ) d.t V W ] ] J U 9 j.` ~ 0 ( E V.y.u.f.a.^.",
"^.8.y.q.7.q.9.4.r.b 9 a f a u e 8 e 9.p 4.r S u g.h c.7.9.y.5.^.",
"^.3.t.t.y.t.y.y.y.I d 6.u.t.t.t.t.t.t.y.y.E I y.p.t.p.t.u.t.3.^.",
"^.^.^.^.5.t.i.t.i.q.q.5.3.g d P B L q 7 ^.^.^.^.^.^.^.^.^.^.^.^.",
"^.^.^.^.8.a.a.p.i.t.q.^.^.C G ~ ! H v ^.^.^.^.^.^.^.^.^.^.^.^.^.",
"^.^.^.^.^.8.8.^.^.^.^.^.^.^.^.^.^.^.^.^.^.^.^.^.^.^.^.^.^.^.^.^."
};
