/* XPM */
static char *tom4[] = {
/* columns rows colors chars-per-pixel */
"24 32 214 2 ",
"   c #010101",
".  c #080707",
"X  c #0B0A06",
"o  c #060708",
"O  c #06080A",
"+  c #0B0C0C",
"@  c #060C13",
"#  c #0B0E13",
"$  c #051013",
"%  c #0F1113",
"&  c #0F1719",
"*  c #131413",
"=  c #1A1714",
"-  c #1D1A15",
";  c #14171A",
":  c #161A1E",
">  c #1C1C1C",
",  c #201613",
"<  c #241916",
"1  c #2D1B16",
"2  c #231D1C",
"3  c #291D1A",
"4  c #351C14",
"5  c #3A1F17",
"6  c #351F18",
"7  c #25221E",
"8  c #2D261C",
"9  c #3D2017",
"0  c #34221A",
"q  c #3D2E19",
"w  c #121821",
"e  c #251F22",
"r  c #1D2021",
"t  c #1F222A",
"y  c #1D2331",
"u  c #1D273B",
"i  c #242124",
"p  c #2B2523",
"a  c #2D2827",
"s  c #24222A",
"d  c #362F2C",
"f  c #222A3B",
"g  c #353130",
"h  c #3B383C",
"j  c #4C1706",
"k  c #4F1D0D",
"l  c #651F0A",
"z  c #691D0D",
"x  c #432015",
"c  c #4D2113",
"v  c #552212",
"b  c #5B2211",
"n  c #4C3415",
"m  c #433119",
"M  c #513612",
"N  c #563A16",
"B  c #5D3D12",
"V  c #69240F",
"C  c #722107",
"Z  c #782004",
"A  c #76240B",
"S  c #7D250A",
"D  c #6D3207",
"F  c #6D350B",
"G  c #71390D",
"H  c #662511",
"J  c #57352C",
"K  c #5B3A30",
"L  c #623426",
"P  c #694312",
"I  c #764B10",
"U  c #7C4E12",
"Y  c #49423F",
"T  c #624621",
"R  c #674B26",
"E  c #624928",
"W  c #7D572F",
"Q  c #654136",
"!  c #755632",
"~  c #0F2758",
"^  c #1B2D54",
"/  c #1B2F5A",
"(  c #1B305F",
")  c #243048",
"_  c #2F3D5A",
"`  c #1D3364",
"'  c #14316E",
"]  c #1B346D",
"[  c #143271",
"{  c #1C3772",
"}  c #15367B",
"|  c #19397D",
" . c #33486B",
".. c #474443",
"X. c #4D4542",
"o. c #524946",
"O. c #6C5D59",
"+. c #73645F",
"@. c #8C1F00",
"#. c #9B1300",
"$. c #951803",
"%. c #981E04",
"&. c #862507",
"*. c #8A2607",
"=. c #942504",
"-. c #9E2500",
";. c #A32600",
":. c #AC2401",
">. c #A52801",
",. c #AB2800",
"<. c #BC2700",
"1. c #B22A01",
"2. c #AE350F",
"3. c #B83007",
"4. c #A22C19",
"5. c #A53016",
"6. c #B73912",
"7. c #A93C27",
"8. c #864C00",
"9. c #804F0C",
"0. c #8D5305",
"q. c #85520B",
"w. c #8A550A",
"e. c #975906",
"r. c #9A5B06",
"t. c #985B08",
"y. c #805112",
"u. c #82571F",
"i. c #946019",
"p. c #9D681F",
"a. c #AE6302",
"s. c #B36600",
"d. c #BC6C00",
"f. c #B6442C",
"g. c #AE4838",
"h. c #B75435",
"j. c #B85536",
"k. c #BD593B",
"l. c #926426",
"z. c #866334",
"x. c #896533",
"c. c #AD7B36",
"v. c #C57000",
"b. c #CC7400",
"n. c #C2760E",
"m. c #CD790A",
"M. c #D17600",
"N. c #D77900",
"B. c #DA7B00",
"V. c #C1502D",
"C. c #C45C3C",
"Z. c #C57E20",
"A. c #925846",
"S. c #AC5A41",
"D. c #85655C",
"F. c #BD6145",
"G. c #B1664F",
"H. c #B56D57",
"J. c #83706B",
"K. c #897068",
"L. c #897671",
"P. c #C86A4D",
"I. c #C67F6F",
"U. c #D7810F",
"Y. c #C8862D",
"T. c #D3933D",
"R. c #E6972D",
"E. c #AE8245",
"W. c #A4857C",
"Q. c #AC8A7F",
"!. c #C9944A",
"~. c #D49B4D",
"^. c #E4A34B",
"/. c #E9AF5F",
"(. c #D7866D",
"). c #D38675",
"_. c #D38872",
"`. c #D3977F",
"'. c #D7A969",
"]. c #D9AA6A",
"[. c #0E3483",
"{. c #0E3689",
"}. c #153783",
"|. c #173A83",
" X c #1A3C85",
".X c #1B3E8A",
"XX c #1B3F90",
"oX c #214084",
"OX c #25468B",
"+X c #2E4E93",
"@X c #44609C",
"#X c #4B67A1",
"$X c #5A73A9",
"%X c #667FB4",
"&X c #9D8680",
"*X c #9E8D98",
"=X c #A78D87",
"-X c #A98D86",
";X c #A58E88",
":X c #AD948C",
">X c #AC9690",
",X c #AD999C",
"<X c #BCA199",
"1X c #DAA290",
"2X c #CDAEA5",
"3X c #DEAFA2",
"4X c #E5B1A0",
"5X c #E6C4B8",
"6X c #EAC4BB",
"7X c #F0C5B9",
"8X c #F1CBBF",
"9X c #EDCCC3",
"0X c #F4D1C7",
"qX c #FAD2C7",
/* pixels */
"          O @ @ @ @ @ o                         ",
"      + : 8 n B B B n 0 & +                     ",
"    # 8 q.d.v.b.v.m.T.!.z.2 #                   ",
"  . 2 r.b.d.d.d.d.Z.'.].^.9.>                   ",
"o # q v.d.d.d.d.d.d.Y.Y.n.s.> #                 ",
"+ 2 B w.q.w.w.w.w.w.8.8.0.w.M 7 +               ",
"+ p n n F F G F D F W ! T M B 8 +               ",
". % @ > $.$.7._.g.4.6X*X,Xh @ % .               ",
"      3 %.#.5.`.3X3X5X1XQ.X.* o   O .           ",
"      & z :.f.).8X0X7X4Xd % p > * Y 7           ",
"      + > J W.-X=X=X>XK.> + O.+.L.L.; *         ",
"  . : 2 2 : & ; - = , = r $ L.qX2XJ.J.i .       ",
"  > V =.6 > 6 - 2 A H > < j D.9X6X<Xo.7 O       ",
"O 2 ,.V 3 =.F.H.J * < L S.3.Z <X6X:X&Xg .       ",
"o 2 >.5 b <.h._.).A.G.(.P.1.;.K ..% * ;         ",
"o 2 ,.b 2 =.:.6.k.C.V.6.-.l 1 : + .             ",
"o 2 >.>.x > x C -.:.@.k > a Q 3 .               ",
"o 7 -.,.,.&.c 2 2 6 > 0 C 2.j.3 .               ",
"o 2 >.,.,.1.1.>.A v *.1.1.:.=.2 .               ",
"o > S >.-.-.-.;.,.:.;.-.;.1.H ;                 ",
"  # > i s s s i e e i i p 1 2 O                 ",
"    + s }..X|.| |.| |.} OX .= +                 ",
"      - u ] | .X.X X.X XOX%X_ = .               ",
"      * - ^ ` / | .X X X} @X%X) * .             ",
"    ; t ] .X.X{ ^ ` .X.X X}.#X$Xf *             ",
"  + s | .X X X.X.Xu y }..X X|.+XoXy *           ",
"  X f .X.X.X.X.X Xs < { .X X X|..X` =           ",
"  + y ' ' [ [ [ ' w & [ {.[.}.[.}.~ % $ +       ",
"  + m 0.w.w.w.q.0.l.E P y.U U U U u.x.R 8 % .   ",
"  @ N B.M.M.M.M.M.R.c.a.B.M.M.M.M.U.^./.~.T %   ",
"  @ m r.t.t.r.e.t.r.I 9.r.t.r.r.r.e.e.p.c.i.> . ",
"  + r : : : : : : : : > : : : : : : : ; * > > . "
};
