/* XPM */
static char *jabref32[] = {
/* columns rows colors chars-per-pixel */
"32 32 61 1 ",
"  c #4F5F8F",
". c #50608F",
"X c #536392",
"o c #586794",
"O c #5B6A96",
"+ c #5E6D98",
"@ c #606E99",
"# c #65739C",
"$ c #69779E",
"% c #6B789F",
"& c #6A77A0",
"* c #6D7AA1",
"= c #717DA4",
"- c #7582A6",
"; c #7984A6",
": c #7784A8",
"> c #7A86AA",
", c #7F8AAA",
"< c #8690AF",
"1 c #8A94B3",
"2 c #8E98B5",
"3 c #939CB6",
"4 c #939DB9",
"5 c #97A1BB",
"6 c #9AA2BA",
"7 c #9FA7C1",
"8 c #A4ACC2",
"9 c #ABB2C5",
"0 c #ADB5CA",
"q c #B0B7C9",
"w c #B3B9CC",
"e c #B9BECC",
"r c #B8BED1",
"t c #BCC2CF",
"y c #BDC3D2",
"u c #C2C6D3",
"i c #C5C9D5",
"p c #CACDD5",
"a c #C5CAD9",
"s c #C9CDD9",
"d c #CED0D6",
"f c #CDD1DD",
"g c #D0D2D7",
"h c #D3D5DA",
"j c #D6D8DE",
"k c #D8DADE",
"l c #D1D5E1",
"z c #D7DAE3",
"x c #DBDDE2",
"c c #DBDEE8",
"v c #DFE0E5",
"b c #DFE1EA",
"n c #E2E3E6",
"m c #E3E5EA",
"M c #E7E8EC",
"N c #EAEBEE",
"B c #ECEEF1",
"V c #EFF0F2",
"C c #F3F3F5",
"Z c #F7F7F9",
"A c #FDFDFD",
/* pixels */
"    .                     .    .",
"   .                        .   ",
"  .  #=****&O  O+X       .     .",
".    -lMmmbmr+ =aa01+X     . .  ",
"     .2VAAAAA1 .0ZAZb0=.    . . ",
" . .  .4CAAAAyX OaAAAAm8O     . ",
".      .5CAAAB&  *cAAAAZy+  .   ",
". .     orAAAZ1   >cAAAAZrO   . ",
" .       *MAAA8    &fAAZZC1     ",
"  . . .  XwAZAr     #rCZZZyo  . ",
".   . .   1ZZZy.     o8VCZf@    ",
"   .      >NZZao      &zZCao   .",
" .  . .   =cCCa+     o7MCV8.    ",
"   .      #lCVa+   o1uMVCs+   . ",
"    .. .  oaVBu+ .>yBCCCs-  .   ",
". .       OaBNuO >bCCVM0#     . ",
"          +uNMtO 8VVVN8o        ",
" . .      +uMnto 0CVVb%         ",
".   .     +tnn9X 7VBNm:         ",
".  .      +tvv8  :mBNM8.        ",
" .        Otvk6  ouNNMh%   . .  ",
"  .       #ukk3   <bMMn6      . ",
"          =dkd,   o0Mnns$       ",
"          3hgp% .  #innv8X  . . ",
" o%X .  X;phh9o     -ivvk<      ",
" #ue3<<69pddp,       %txki#     ",
" Xqvkkhkhhdd3X  .     $qkv8o    ",
"  %tkkhhddp6O  ..      @8jh<    ",
"   #6euut8;. . . .    . X,ty%   ",
"    X@%%#X        .  .    +<,X  ",
"   .  .       . .      .    X.  ",
" .    ..  . .      . .     .   ."
};
