/* XPM */
static char *out[] = {
/* columns rows colors chars-per-pixel */
"32 31 193 2 ",
"   c #5BB62B532B73",
".  c #482A278B330C",
"X  c #50923E643CE2",
"o  c #6C242A6825A4",
"O  c #7EAB2D5C26E9",
"+  c #7BD934A42EFA",
"@  c #6CB6369C321A",
"#  c #7DAF3AAE351D",
"$  c #39004FAC344A",
"%  c #57D147991E45",
"&  c #5EC159A51F9F",
"*  c #65EC4DD41A83",
"=  c #6D9C5EBD1B0A",
"-  c #73C962F01F17",
";  c #7A47668A18D7",
":  c #7DE069BD18F5",
">  c #510656D72701",
",  c #6AEC5DE93ECF",
"<  c #66DF60C8265D",
"1  c #755C64EB21CA",
"2  c #7C3469A42259",
"3  c #74C666D32ED9",
"4  c #7AA16A9929BF",
"5  c #765369F53653",
"6  c #7D496E8B3447",
"7  c #33DA27D443F7",
"8  c #2C702CED593A",
"9  c #27B539B554D7",
"0  c #2B5032705DAC",
"q  c #2E2E31AB6393",
"w  c #2BB23AEA6054",
"e  c #2EF432E76897",
"r  c #3228352865E5",
"t  c #3B933DA964D2",
"y  c #3238361E6C08",
"u  c #1D5940124CA3",
"i  c #2AA85D604E4B",
"p  c #34695E004264",
"a  c #23E14B845090",
"s  c #229154CD5571",
"d  c #2C9B3FDC6347",
"f  c #3DB840A76912",
"g  c #30BE4FE46D8D",
"h  c #299876656564",
"j  c #2803779A6A48",
"k  c #262E7E986E1C",
"l  c #29EA7CE06D8D",
"z  c #34CA60FC76C3",
"x  c #3632694F7AA5",
"c  c #2D697D0372E4",
"v  c #338D7D47702E",
"b  c #52D45A7C5AD8",
"n  c #7E6248A94416",
"m  c #7F89500A4BEC",
"M  c #631F56585BAC",
"N  c #437746106A51",
"B  c #551E57367530",
"V  c #53077B896472",
"C  c #69D673257529",
"Z  c #8113342F2EA7",
"A  c #8818314D28DA",
"S  c #929835592D94",
"D  c #830C368B307A",
"F  c #864B398D3378",
"G  c #882F3A3A3402",
"H  c #9E0C377F3010",
"J  c #9D6C3A78329F",
"K  c #A5D938082F63",
"L  c #A21B39FF31A1",
"P  c #AD4F3D0D33E1",
"I  c #82866E4E1BD0",
"U  c #9C0B415A3ABE",
"Y  c #816147D2410D",
"T  c #95624AA74497",
"R  c #96D14D8247C8",
"E  c #884F5A2555CC",
"W  c #9D4E5B47558A",
"Q  c #9BF15EA85ACF",
"!  c #A1AC5C9B57C2",
"~  c #81EC74E54363",
"^  c #87FC7D6C5380",
"/  c #86307D125953",
"(  c #8C9C66CA6292",
")  c #84496A946710",
"_  c #94596E5869AA",
"`  c #9CE36D9A69BE",
"'  c #8E1E71086C20",
"]  c #8F82757E716D",
"[  c #958675B3728A",
"{  c #2EA4804B6FEC",
"}  c #2AC185C87432",
"|  c #2B0089787755",
" . c #2DDE8E7C7C5B",
".. c #325080C37168",
"X. c #3C7180D07308",
"o. c #339F82B07DF9",
"O. c #2E8690417E07",
"+. c #4A4683E17729",
"@. c #488D84597894",
"#. c #54E9850D7B93",
"$. c #5EB3828E7AF9",
"%. c #8B4983386298",
"&. c #92658B166D13",
"*. c #3BCC78DF87F4",
"=. c #6B306CB28159",
"-. c #6EA16FF28738",
";. c #77A678AE88C9",
":. c #78FA79DC8C05",
">. c #35EA87FB840F",
",. c #3D42948A9408",
"<. c #42208989970B",
"1. c #63A08B7184B5",
"2. c #6DE594268BD9",
"3. c #780496EA8E94",
"4. c #7C4E9BCF9553",
"5. c #44DF9444A102",
"6. c #4DB5A20CA51C",
"7. c #49D7A462AD57",
"8. c #479BAA85AC04",
"9. c #51E6A561ABB2",
"0. c #5289A8C3AFBD",
"q. c #4F28AD31B8A8",
"w. c #55B1B120B531",
"e. c #579BB806BC1A",
"r. c #5855B9A6BDC8",
"t. c #53E5BC87C5A9",
"y. c #58E9BB61C0B8",
"u. c #573DC384CD3C",
"i. c #5AE1CD2ED705",
"p. c #5D08CFE3DAD3",
"a. c #5F2FD288DD57",
"s. c #62BEDE9FE83F",
"d. c #6416DEFBEA98",
"f. c #6394E1D3ED4A",
"g. c #66FEE84CF4FB",
"h. c #6786E8D0F61A",
"j. c #697EEBAEF747",
"k. c #6BBEF041FCF2",
"l. c #6C12F13FFDAB",
"z. c #9CFF97CA8384",
"x. c #8ABC8B3599EE",
"c. c #AD4D86B882A6",
"v. c #A5DA8B168700",
"b. c #AD8A88898576",
"n. c #A2489A7982B8",
"m. c #A9BC94A19171",
"M. c #B4389FA19E19",
"N. c #8B42A2D09CBD",
"B. c #A7B4A2BA9004",
"V. c #B180AC409856",
"C. c #977F98B6A55C",
"Z. c #98E6997EA6EC",
"A. c #8CAFA60AA092",
"S. c #B6D4A514A281",
"D. c #B949A8FDA503",
"F. c #B90DAB52A88D",
"G. c #BF6FBB7FAD6F",
"H. c #A742A805B083",
"J. c #AA37B539B141",
"K. c #B4BEB436B79B",
"L. c #BD5BBB0BB156",
"P. c #B553B566BA71",
"I. c #B156BB9CB8C4",
"U. c #CAD8BAEEB8AC",
"Y. c #C421C230B9CB",
"T. c #C965C17DBE87",
"R. c #BB71C55AC1BD",
"E. c #C20FC10DC22B",
"W. c #CF15C608C2D0",
"Q. c #CC32C9C5C17A",
"!. c #C548CAA7C925",
"~. c #CCB2CF7FCEB1",
"^. c #D82FD1E4CFA5",
"/. c #CF63CF7DD068",
"(. c #D359D466D2A9",
"). c #DAF0D5BDD408",
"_. c #D630DA70D80B",
"`. c #DC14D9D1D5D5",
"'. c #D853D874D8EC",
"]. c #DCF4DDC5DCD0",
"[. c #E370DF5DDD5A",
"{. c #E261E233DFD5",
"}. c #E5C5E472E1DB",
"|. c #E8F9E7B9E5D9",
" X c #ED48ECF7EB20",
".X c #F077EFA7EE3F",
"XX c #F052F0ABEF6C",
"oX c #F1CCF153EFE7",
"OX c #F522F55FF3B1",
"+X c #F923F7BFF641",
"@X c #F832F879F7D4",
"#X c #F9B2F999F787",
"$X c #FF15FF17FD52",
/* pixels */
"$X$X$X$X$X$X$X$X$X$X$X$X].J.I.!.(.{..X+X#X$X$X$X$X$X$X$X$X$X$X$X",
"$X$X$X$X$X$X$X$X$X#X_.A.@.{ l v @.+.#.1.3.N.J.oX$X$X$X$X$X$X$X$X",
"$X$X$X$X$X$X$XOX~.4.@.}  .O.O. . . .| | | k $ n.@X$X$X$X$X$X$X$X",
"$X$X$X$X$XoXR.2...| | O. . . . . . . .O.O.h & 2 V.$X$X$X$X$X$X$X",
"$X$X$X$X(.$...|  . . . . . . . . . . . . .p ; I 4 G.$X$X$X$X$X$X",
"$X$X$X#X;.u } O. .O. . . . . . . .O. . .l > I I I 6 Q.$X$X$X$X$X",
"$X$X$X'.N q a } O.O. . .O.O.O. .| } k k i = I I I : ~ `.$X$X$X$X",
"$X$X$XC.r y 0 s }  .} } l j j v o.,.8.e.6.< I I I I : ^ }.$X#X$X",
"$X$X XB e y y 0 s { >.,.8.u.i.f.j.l.l.l.g.V : I I I I : &.+X$X$X",
"$X$XP.r y y y r x s.j.l.l.l.l.l.l.l.l.l.l.e.< I I I I I 3 '.$X$X",
"$X+X-.e y y y q <.l.l.l.k.k.k.k.l.l.l.l.l.g.V ; I I I I 1 L.$X$X",
"$X/.f y y y y 0 7.l.l.l.k.k.k.k.k.k.l.l.l.l.e.< I I I I ; z.$X$X",
"$Xx.e y e y y 0 t.l.k.k.k.k.k.k.k.k.k.k.l.l.g.V ; I I I : / OX$X",
"#X=.r y y y y d a.l.k.k.k.k.k.k.k.k.k.k.l.l.l.e.< I I I I 5 {.$X",
"$X;.e y y y r g f.l.l.k.k.k.k.k.k.k.k.l.l.l.l.h.V : I I I 1 Y.$X",
"$Xx.e e y y e z j.l.l.k.k.k.l.k.k.k.k.k.l.l.l.l.y.< I I I ; B.$X",
"$XZ.q y y y e *.k.k.k.k.k.k.k.k.k.k.k.k.l.k.k.l.g.V : I I : %.#X",
"$XH.q y y y 0 5.l.k.k.k.k.k.k.k.k.k.k.k.l.l.k.k.l.w.% * * * , |.",
"$XP.e y r y 0 q.l.l.l.k.k.k.k.k.k.k.k.k.l.l.l.l.d.C S S S A ' OX",
"$XE.t y y y w u.l.l.k.k.k.k.k.k.k.l.k.k.l.l.l.d.C L P P P R ).$X",
"$X/.t y y q 9 i.l.l.l.l.l.l.l.l.k.k.l.k.k.l.d.C L P P P J S.$X$X",
"$X].t 8 7 .   b 9.f.l.l.l.l.k.k.k.k.l.l.l.d.C L P P P L ` oX$X$X",
"$X.XM   + D G D @ b 9.f.l.l.l.l.k.k.k.l.d.C L P P P P T ^.$X$X$X",
"$X$X`._ D F F F F F @ b 0.f.l.l.k.k.l.d.C L P P P P J M.$X$X$X$X",
"$X$X$X Xv.# F G G F G D @ b 7.f.l.l.d.C J P P P P L ` oX$X$X$X$X",
"$X$X$X$X@XD.Y D G G D F G D @ b 0.a.C L P P P P L Q ).$X$X$X$X$X",
"$X$X$X$X$X$XW.E D F F G G F G D @ X J P P P P U b.|.$X$X$X$X$X$X",
"$X$X$X$X$X$X$X[.[ # + G G F F F F o J P P L W U.#X$X$X$X$X$X$X$X",
"$X$X$X$X$X$X$X$XoXF.[ m # + D F G o S P U c.}.$X$X$X$X$X$X$X$X$X",
"$X$X$X$X$X$X$X$X$X$X#X|.T.m.( n # o O ! U.#X$X$X$X$X$X$X$X$X$X$X",
"$X$X$X$X$X$X$X$X$X$X$X$X$X$XOX).S.) ] [.$X$X$X$X#X$X$X$X$X$X$X$X"
};
