/* XPM */
static char * icon_spacezero_xpm[] = {
"32 32 16 1",
" 	c None",
".	c #FF0000",
"+	c #000000",
"@	c #840000",
"#	c #D50000",
"$	c #340000",
"%	c #D20000",
"&	c #F50000",
"*	c #FFFF00",
"=	c #B00000",
"-	c #100000",
";	c #F70000",
">	c #960000",
",	c #EF0000",
"'	c #00FF00",
")	c #CD0000",
"                                ",
"                                ",
"            ........            ",
"          ...++++++...          ",
"        ...++++++++++@#.        ",
"       ..++++++++++++++$%       ",
"      .&+++++****++++++++=      ",
"     ..++++**++++***+++++-;     ",
"    ..+++**++++++++***++++>.    ",
"    .+++++++++++++*+++**+++.    ",
"   ..+++++++++++++*++++*+++,.   ",
"   .+++++++++++++*++++++*+++.   ",
"  ..+++++++++++++*++++++*+++..  ",
"  .++++++++++++++*+++++++*+++.  ",
"  .+++++++++...+*++++++***+++.  ",
"  .+++++++++...'''+****++++++.  ",
"  .+++++++++...'.'*++++++++++.  ",
"  .+++*++++++++'''+++++++++++.  ",
"  .+++*+++++++*+++*++++++++++.  ",
"  ..+++*++++++*++++*++++++++..  ",
"   .+++*++++++*++++*++++++++.   ",
"   ..+++*++++*++++++*++++++..   ",
"    .+++**+++*+++++++*+++++.    ",
"    ..++++***++++++++**+++..    ",
"     ..+++++****+++**++++..     ",
"      ..++++++++***+++++..      ",
"       ..++++++++++++++..       ",
"        ..)++++++++++...        ",
"          ...++++++...          ",
"            ........            ",
"                                ",
"                                "};
