/* XPM */
static char *mobac_xpm[] = {
/* width height ncolors chars_per_pixel */
"32 32 668 2",
/* colors */
"   c #000000",
" . c #B1B1B1",
" X c #031A45",
" o c #0971DC",
" O c #4C71A7",
" + c #032566",
" @ c #ADADAD",
" # c #013285",
" $ c #A5CEF1",
" % c #0754B9",
" & c #4A5F7A",
" * c #7A8492",
" = c #A9A9A9",
" - c #001338",
" ; c #002059",
" : c #012D7B",
" > c #EDEEEF",
" , c #398EE0",
" < c #01142F",
" 1 c #00122E",
" 2 c #055ECE",
" 3 c #B3B5B6",
" 4 c #48A1E8",
" 5 c #001B4F",
" 6 c #1F3053",
" 7 c #7198CB",
" 8 c #B0B1B3",
" 9 c #021A47",
" 0 c #8DC0ED",
" q c #0345AB",
" w c #AEAFB1",
" e c #001845",
" r c #042460",
" t c #8697AE",
" y c #051836",
" u c #999999",
" i c #022F7F",
" p c #012F7E",
" a c #0E254C",
" s c #011432",
" d c #044EB9",
" f c #959595",
" g c #C5C9CE",
" h c #90C8F3",
" j c #001F52",
" k c #939393",
" l c #5676AD",
" z c #D5E9F8",
" x c #959FAC",
" c c #063D86",
" v c #0347AE",
" b c #001C48",
" n c #3188DB",
" m c #118DED",
" M c #0B4BA2",
" N c #0846A9",
" B c #5475A1",
" V c #8AC0ED",
" C c #CDD1D9",
" Z c #ACAFB2",
" A c #2B415B",
" S c #898989",
" D c #BACCE4",
" F c #0D6BD2",
" G c #00153E",
" H c #878787",
" J c #0B81E7",
" K c #8694A7",
" L c #858585",
" P c #0664D5",
" I c #506C93",
" U c #DADCDF",
" Y c #838383",
" T c #535C6B",
" R c #087BE4",
" E c #054DB3",
" W c #00112A",
" Q c #90A0B4",
" ! c #B2D6F3",
" ~ c #E4E8EC",
" ^ c #001C4B",
" / c #2A60A9",
" ( c #63B2EE",
" ) c #0A74DC",
" _ c #0B72DD",
" ` c #0546A9",
" ' c #0E8BED",
" ] c #818998",
" [ c #5D82BA",
" { c #456288",
" } c #F4F5F5",
" | c #0656C1",
".  c #3E618B",
".. c #C9CFD8",
".X c #5F81B2",
".o c #777777",
".O c #F2F3F3",
".+ c #0668D8",
".@ c #0452BF",
".# c #B6BBC2",
".$ c #83BAE9",
".% c #053F9F",
".& c #757575",
".* c #03215B",
".= c #0981E8",
".- c #8091AE",
".; c #737373",
".: c #E3EFF8",
".> c #68717C",
"., c #1365C7",
".< c #042252",
".1 c #001F58",
".2 c #012C7A",
".3 c #818384",
".4 c #02132F",
".5 c #0861D0",
".6 c #044BB5",
".7 c #042B73",
".8 c #055FCD",
".9 c #055DCD",
".0 c #023892",
".q c #0E5FC2",
".w c #043D8A",
".e c #122238",
".r c #B1B2B3",
".t c #031B47",
".y c #479CE6",
".u c #BBD2EB",
".i c #04358A",
".p c #065AC4",
".a c #0344AA",
".s c #002465",
".d c #066CDB",
".f c #0A87EC",
".g c #414F66",
".h c #02163C",
".j c #0A1A30",
".k c #2955A1",
".l c #6180AD",
".z c #8095B1",
".x c #9CCEF4",
".c c #0967D4",
".v c #00143A",
".b c #74BAF1",
".n c #B9C9DF",
".m c #DDDDDE",
".M c #DCDDDD",
".N c #8C949F",
".B c #818387",
".V c #032054",
".C c #2B394D",
".Z c #A5A6A7",
".A c #193659",
".S c #83B1E2",
".D c #072C6F",
".F c #001E51",
".G c #023A95",
".H c #0B4DAB",
".J c #0F75DD",
".K c #0876E0",
".L c #426595",
".P c #073E86",
".I c #D6D7D7",
".U c #0874E0",
".Y c #66B1ED",
".T c #589BDC",
".R c #D9E5F1",
".E c #3884D7",
".W c #001947",
".Q c #485466",
".! c #041841",
".~ c #072C5B",
".^ c #096DD7",
"./ c #0E84E9",
".( c #00163D",
".) c #84878D",
"._ c #445F83",
".` c #00215E",
".' c #0B80E6",
".] c #044FBB",
".[ c #CBCBCC",
".{ c #C5DBF1",
".} c #011334",
".| c #247AD7",
"X  c #BEDCF4",
"X. c #70B8F0",
"XX c #747F91",
"Xo c #097CE4",
"XO c #074CB4",
"X+ c #FEFEFE",
"X@ c #051F4F",
"X# c #023A98",
"X$ c #012B76",
"X% c #9DA3AC",
"X& c #E2EAF3",
"X* c #012976",
"X= c #082048",
"X- c #FCFCFC",
"X; c #80AFE2",
"X: c #FAFAFA",
"X> c #C3C3C4",
"X, c #F8F8F8",
"X< c #0A6FDB",
"X1 c #56667A",
"X2 c #5C6576",
"X3 c #F6F6F6",
"X4 c #0A6DDB",
"X5 c #021842",
"X6 c #0E6ED5",
"X7 c #AECFEE",
"X8 c #001840",
"X9 c #F4F4F4",
"X0 c #04193A",
"Xq c #001640",
"Xw c #EDF3F7",
"Xe c #0C84EA",
"Xr c #434E64",
"Xt c #F2F2F2",
"Xy c #021738",
"Xu c #71849B",
"Xi c #ADB8CC",
"Xp c #0451BE",
"Xa c #0A82E8",
"Xs c #6C90C1",
"Xd c #174688",
"Xf c #F0F0F0",
"Xg c #C5CAD3",
"Xh c #498EDA",
"Xj c #102349",
"Xk c #022D7A",
"Xl c #EEEEEE",
"Xz c #597CAB",
"Xx c #142443",
"Xc c #001E57",
"Xv c #1D467A",
"Xb c #ACB5C1",
"Xn c #ECECEC",
"Xm c #A7B2C6",
"XM c #031D50",
"XN c #00122C",
"XB c #7B7F87",
"XV c #EAEAEA",
"XC c #053E8A",
"XZ c #132338",
"XA c #011B4E",
"XS c #C3C5C7",
"XD c #E3E7ED",
"XF c #E8E8E8",
"XG c #0971DD",
"XH c #0A1E39",
"XJ c #086FDC",
"XK c #0757C4",
"XL c #E4E4E4",
"XP c #0D347E",
"XI c #319CED",
"XU c #001643",
"XY c #E2E2E2",
"XT c #ABCDEE",
"XR c #0453C1",
"XE c #2B3D56",
"XW c #E0E0E0",
"XQ c #A5AAB0",
"X! c #02225C",
"X~ c #7F858E",
"X^ c #0868D2",
"X/ c #2E3C4F",
"X( c #041633",
"X) c #DEDEDE",
"X_ c #1F55A0",
"X` c #828487",
"X' c #012D7C",
"X] c #1D467D",
"X[ c #DCDCDC",
"X{ c #566D8A",
"X} c #C6C9CD",
"X| c #031F53",
"o  c #053B97",
"o. c #044CB7",
"oX c #0B7BE2",
"oo c #0B79E2",
"oO c #0B5FCB",
"o+ c #D8D8D8",
"o@ c #39537E",
"o# c #D6D6D6",
"o$ c #1E4C95",
"o% c #0447AD",
"o& c #8A8E92",
"o* c #03276A",
"o= c #6086B8",
"o- c #0345AC",
"o; c #D4D4D4",
"o: c #001846",
"o> c #052662",
"o, c #D2D2D2",
"o< c #182A4D",
"o1 c #0988ED",
"o2 c #E1E2E4",
"o3 c #CAE2F5",
"o4 c #C6CEDA",
"o5 c #D0D0D0",
"o6 c #58718F",
"o7 c #738399",
"o8 c #CDDDEE",
"o9 c #728398",
"o0 c #0C7FE6",
"oq c #021434",
"ow c #031F56",
"oe c #3E5A7C",
"or c #E4EBF4",
"ot c #C9C8C9",
"oy c #C8C8C8",
"ou c #5389CC",
"oi c #DBEAF5",
"op c #011129",
"oa c #0877E2",
"os c #1990EC",
"od c #3F619E",
"of c #053890",
"og c #6B99D3",
"oh c #03296D",
"oj c #01296B",
"ok c #041D43",
"ol c #0B72DB",
"oz c #C2C2C2",
"ox c #59729D",
"oc c #00256A",
"ov c #042664",
"ob c #2186E0",
"on c #B5BEC9",
"om c #E0E2E6",
"oM c #A0BADC",
"oN c #00173F",
"oB c #BEBEBE",
"oV c #888989",
"oC c #00153F",
"oZ c #021637",
"oA c #6781A4",
"oS c #0B81E8",
"oD c #96979A",
"oF c #0666D6",
"oG c #001635",
"oH c #011436",
"oJ c #BFC8D6",
"oK c #011F57",
"oL c #023B9A",
"oP c #47A5EE",
"oI c #1A51A1",
"oU c #1890EE",
"oY c #142438",
"oT c #0A60C6",
"oR c #959FB0",
"oE c #A4C0E3",
"oW c #DEE7F1",
"oQ c #001A4C",
"o! c #3E6496",
"o~ c #F8F9FA",
"o^ c #01276E",
"o/ c #E2E6EB",
"o( c #AFD4F1",
"o) c #075AC3",
"o_ c #B0B0B0",
"o` c #0870DB",
"o' c #032666",
"o] c #0756C3",
"o[ c #023386",
"o{ c #076CDA",
"o} c #838891",
"o| c #023186",
"O  c #0B85EB",
"O. c #002263",
"OX c #B5CAE3",
"Oo c #558FD4",
"OO c #10244B",
"O+ c #074FB9",
"O@ c #2D4A6E",
"O# c #98A5B6",
"O$ c #818385",
"O% c #415B7B",
"O& c #032B73",
"O* c #9EC3EA",
"O= c #001C4F",
"O- c #42A1EC",
"O; c #031F48",
"O: c #41A1EB",
"O> c #0976DF",
"O, c #1A73D2",
"O< c #E1E6ED",
"O1 c #0B5BC0",
"O2 c #AFB0B2",
"O3 c #0770DD",
"O4 c #0743A5",
"O5 c #9C9C9C",
"O6 c #03183E",
"O7 c #053282",
"O8 c #2C5C9B",
"O9 c #DBE0E7",
"O0 c #9A9A9A",
"Oq c #02235E",
"Ow c #09409D",
"Oe c #737577",
"Or c #DDDDDF",
"Ot c #969696",
"Oy c #1A4086",
"Ou c #0B7EE4",
"Oi c #949494",
"Op c #13243D",
"Oa c #001C52",
"Os c #929292",
"Od c #064AB1",
"Of c #012974",
"Og c #063990",
"Oh c #0876E1",
"Oj c #909090",
"Ok c #001027",
"Ol c #021B4A",
"Oz c #03286C",
"Ox c #001948",
"Oc c #02358C",
"Ov c #A8AFB8",
"Ob c #011A3F",
"On c #2D5C9F",
"Om c #0341A4",
"OM c #00163E",
"ON c #84878E",
"OB c #888888",
"OV c #15274C",
"OC c #0551BD",
"OZ c #0854B6",
"OA c #021536",
"OS c #868686",
"OD c #717378",
"OF c #032058",
"OG c #848484",
"OH c #4F5C71",
"OJ c #002055",
"OK c #097CE5",
"OL c #03142D",
"OP c #FDFEFE",
"OI c #087AE4",
"OU c #4D6990",
"OY c #031F4E",
"OT c #808080",
"OR c #042A70",
"OE c #011B4C",
"OW c #001B4B",
"OQ c #B1D5F2",
"O! c #626A73",
"O~ c #7C7C7C",
"O^ c #42648F",
"O/ c #B2C0D2",
"O( c #00266C",
"O) c #084AA2",
"O_ c #69ACEA",
"O` c #053488",
"O' c #6DADE4",
"O] c #F6F6F7",
"O[ c #C7E3F7",
"O{ c #001641",
"O} c #0A54BB",
"O| c #767676",
"+  c #011738",
"+. c #0567D7",
"+X c #0752B8",
"+o c #0980E8",
"+O c #4E8DD6",
"++ c #002058",
"+@ c #78828F",
"+# c #023C9C",
"+$ c #275592",
"+% c #01122E",
"+& c #00122D",
"+* c #021D50",
"+= c #022A71",
"+- c #012A70",
"+; c #055CCD",
"+: c #001B4E",
"+> c #054BAC",
"+, c #045CCC",
"+< c #335280",
"+1 c #D2D5DA",
"+2 c #ADBFDA",
"+3 c #67B0EB",
"+4 c #F6F8FA",
"+5 c #959DA8",
"+6 c #013287",
"+7 c #F2F4F6",
"+8 c #0A86EC",
"+9 c #0984EB",
"+0 c #0A66D5",
"+q c #012D7D",
"+w c #4677BA",
"+e c #D8D8D9",
"+r c #011127",
"+t c #085DC9",
"+y c #081D45",
"+u c #37445C",
"+i c #03296B",
"+p c #0773DF",
"+a c #BFD2E8",
"+s c #D4D4D5",
"+d c #001847",
"+f c #ABD3F2",
"+g c #02348B",
"+h c #67686A",
"+j c #3B424C",
"+k c #053384",
"+l c #7086A1",
"+z c #A2D0F3",
"+x c #BACCE3",
"+c c #086AD6",
"+v c #4093E2",
"+b c #00225E",
"+n c #052359",
"+m c #0866D6",
"+M c #637EA8",
"+N c #0853B5",
"+B c #073572",
"+V c #0963CD",
"+C c #001D54",
"+Z c #FDFDFD",
"+A c #18519D",
"+S c #919193",
"+D c #93C5EE",
"+F c #FBFBFB",
"+G c #001C4A",
"+H c #F9F9F9",
"+J c #001A4A",
"+K c #5384C3",
"+L c #168AEA",
"+P c #0459C8",
"+I c #B0D2F0",
"+U c #F7F7F7",
"+Y c #ACAFB4",
"+T c #011B41",
"+R c #0E89EC",
"+E c #C0C0C1",
"+W c #465167",
"+Q c #F5F5F5",
"+! c #06479F",
"+~ c #6DA8E3",
"+^ c #F3F3F3",
"+/ c #0554BF",
"+( c #002261",
"+) c #04439D",
"+_ c #04235B",
"+` c #5C708D",
"+' c #F1F1F1",
"+] c #001636",
"+[ c #011437",
"+{ c #EFEFEF",
"+} c #79838F",
"+| c #087DE6",
"@  c #EDEDED",
"@. c #0763CE",
"@X c #052B73",
"@o c #767F8C",
"@O c #042B72",
"@+ c #EBEBEB",
"@@ c #E5EAEF",
"@# c #5B78A3",
"@$ c #0A60C7",
"@% c #055DCC",
"@& c #E9E9E9",
"@* c #0B74DF",
"@= c #085EC5",
"@- c #01276F",
"@; c #B2B2B3",
"@: c #626975",
"@> c #6D98CF",
"@, c #E7E7E7",
"@< c #4C6587",
"@1 c #C1C2C5",
"@2 c #C6D2E1",
"@3 c #032867",
"@4 c #032667",
"@5 c #E5E5E5",
"@6 c #5B84BA",
"@7 c #165BB5",
"@8 c #AABCD6",
"@9 c #083483",
"@0 c #001743",
"@q c #023387",
"@w c #E3E3E3",
"@e c #002464",
"@r c #929AA4",
"@t c #E1E1E1",
"@y c #2B3A56",
"@u c #DFDFDF",
"@i c #033D9F",
"@p c #DDDDDD",
"@a c #001F5A",
"@s c #8C949E",
"@d c #011530",
"@f c #314769",
"@g c #DBDBDB",
"@h c #0F3462",
"@j c #869EC3",
"@k c #A4A4A5",
"@l c #022B73",
"@z c #D9D9D9",
"@x c #8A9DBD",
"@c c #8D9EB6",
"@v c #E7E9EA",
"@b c #D7D7D7",
"@n c #0548AE",
"@m c #001025",
"@M c #919DB0",
"@N c #021B48",
"@B c #D5D5D5",
"@V c #062763",
"@C c #0456C4",
"@Z c #D1D1D1",
"@A c #465263",
"@S c #AACEF0",
"@D c #EAF4FA",
"@F c #043282",
"@G c #096BD6",
"@H c #033281",
"@J c #033FA2",
"@K c #15274A",
"@L c #00235D",
"@P c #022E80",
"@I c #0865D5",
"@U c #012E7F",
"@Y c #0C7EE6",
"@T c #2494ED",
"@R c #CBCBCB",
"@E c #0B7EE5",
"@W c #063470",
"@Q c #B6C7DE",
"@! c #C9C9C9",
"@~ c #083B93",
"@^ c #2877D0",
"@/ c #68B5F1",
"@( c #02122A",
"@) c #B5D9F4",
"@_ c #C7C7C7",
"@` c #6D8BB4",
"@' c #001028",
"@] c #0776E1",
"@[ c #C5C5C5",
"@{ c #1B3153",
"@} c #21304F",
"@| c #36619F",
"#  c #7389A6",
"#. c #00266A",
"#X c #89C1ED",
"#o c #374F75",
"#O c #2181E0",
"#+ c #267CDB",
"#@ c #BBBBBB",
"## c #0665D6",
"#$ c #959699",
"#% c #79828E",
"#& c #074EB6",
"#* c #023C9A",
"#= c #939497",
"#- c #0F7BE2",
"#; c #147ADD",
"#: c #02122D",
"#> c #0C61C8",
"#, c #D5D7DB",
"#< c #10203E",
"#1 c #061C48",
"#2 c #B3B3B3",
"#3 c #2E71C5",
"#4 c #023590",
"#5 c None",
/* pixels */
"#5#5#5#5#5#5#5#5#5#5#5#5# . Xv@W+BX]O^ Q#5#5#5#5#5#5#5#5#5#5#5#5",
"#5#5#5#5#5#5#5#5#5.#o7._OU.z B+$.wXC c.Po!XbXY#5#5#5#5#5#5#5#5#5",
"#5#5#5#5#5#5#5o,+E K tXd@` }X3XsO) / M+!+AO8on.MXL#5#5#5#5#5#5#5",
"#5#5#5#5#5#5 3@<+<oA.lOno/+U.n@7+NOZOZ+K 7@6 >Xn@wX[#5#5#5#5#5#5",
"#5#5#5#5#5o_+` I@#@|X_XD Dog#3.q@=@$oToWo8+x+7X9Xl@5@z#5#5#5#5#5",
"#5#5#5#5.ZXQ@MOr O+)+w@>O1#>+OXh FX6.E+4X;.uor+HX9@ XLo+#5#5#5#5",
"#5#5#5@k *.[@po2oI+> %o)+VX^.^ol )#; ,+IX7+~+Z+FX,Xt@+@t+s#5#5#5",
"#5#5oBo}X%X}+M@j.H+X.p@.@Go`O>oXob.$.'.yO'@SX+X-X:+QO9o4@gX)#5#5",
"#5#5O0O2oR.-o$ [ E |.8+c o.KXo J V#X.YX OPX+X++Zo~+a ~o=+1@Z#5#5",
"#5 8 =#ooj@H.G `O}+t.cX<.U R.=O o1O:@)+ZX+X++Z+ZO*@^ouomXz@b@z#5",
"#5.g@f@L+-o[#*o%+/@%oF _ooo0./+R 'oUO[+Z@D+fo3X-.{.SO<@+ U@z@!#5",
"#5@{.<+b@l+6+#Od.@@%+.XGoa+|Xe.foP h z.xXI (+3+D.TX&OX@v@w+eXS#5",
" ]X=.Fo>+= #oL@nXp+,+mXJ@]+|Xe+8.bX:.:os m@T 4Ou nO,.,@Q@w@c {+l",
"OH aO=OqOR+ko .a.]+P@I.d+pOIoS+9O- !X.@/+zo(XaOK#O.|Oo@2XY.IOvo6",
"+uOO+:X!#.X'@~O4#&XK.5.+O3Oh@E+o+LOQoi+H+HXw $O_XTO].O@8O/@Boyoe",
"Xx 6OEoK.sX$.i+# vOCoO+0X4@*#-@Y 0X3+UX,X,X,X,+U+UX3+^@ .X gX>@h",
"#<.!OlOa.`o^@F.0Om.6o].9##o{.J+v.RX9+QX3X3X3X3X3+QX9Xt@ ...L x.~",
"@:@}#1XA.1@4X$@qX# qO+@C 2 P#+@@Xt+^+^X9X9X9X9X9+^+^XfXnXYO#X{O@",
"ON.)OVOl.V rO( :Oc.%o% d@C+;oEXl+{Xf+'XtXtXtXtXt+'XfXl@+XYo,+YO%",
"@;OiX2XUoQ+nov@O iof@io-o.XRoM@+Xn@ Xl+{+{Xf+{+{+{XlXn@,@uo5@rXu",
"#5OB#=o< e+*.1@eO&@9OgOw NXO+2XFXV@+Xn@ @ @ @ XnXnXV@,XYo+@! &#5",
"#5OGOs#$Xj@N 5@a.s.7@U+gX#@JoJXL@5@,XF@&@&@&@&@&@,@5XWo+@R Z.A#5",
"#5 . YOtXrX5+d 5@ao'@-.2o|#4.k C@t@wXL@5@5@5@5XL@wX)o#ot@sX1o9#5",
"#5#5O~OS.B@yXqo:+:OF+(ocOf+qO`odXg.m#,Xi l@xXm@u@go;@_.roD A#5#5",
"#5#5#@.o H+S+W+y 9X@Oa@aO.oc@XX*XPOy@PO7 pXkox@bo,@[#2o&O$+5#5#5",
"#5#5#5 fO|OBOiXB@K XOlXMow.*@V +o*Ozoh.D+i@3o@@1oz .O5oV.>#5#5#5",
"#5#5#5#5 L.&OGOj T.hoC@0OxoQX|+CXc.1 ;+_++OJ jXX @ u LO!#5#5#5#5",
"#5#5#5#5#5 L.;Oe.4.}+[.v GO{.t.W+JOW ^OY+G bO;X~ kOTOD#5#5#5#5#5",
"#5#5#5#5#5#5X`+jop#:X(oqoH -O6.(OMoNX8ok+TObXE S.&.3#5#5#5#5#5#5",
"#5#5#5#5#5#5#5.N.j@m@( W+% s yOAoZXy+ X0+]oGXH+h w#5#5#5#5#5#5#5",
"#5#5#5#5#5#5#5#5#5@ooY+rOk@'OLXN+& 1 <@d <Op+@#5#5#5#5#5#5#5#5#5",
"#5#5#5#5#5#5#5#5#5#5#5#5#%@AX/XZ.e.C.Q+}#5#5#5#5#5#5#5#5#5#5#5#5"
};
