/* XPM */
static char *aliki_32x32[] = {
/* columns rows colors chars-per-pixel */
"32 32 22 1 ",
"  c #0169C7",
". c #0268C7",
"X c #0167C8",
"o c #0168C8",
"O c #0169C8",
"+ c #0168C9",
"@ c #0169C9",
"# c #0268C8",
"$ c #0269C8",
"% c #0268C9",
"& c #0269C9",
"* c #016AC8",
"= c #016AC9",
"- c #026AC9",
"; c #0168CA",
": c #0169CA",
"> c #0169CB",
", c #0269CA",
"< c #0269CB",
"1 c #016ACA",
"2 c #026ACA",
"3 c None",
/* pixels */
"33333333333333333333333333333333",
"333333o3333333333333333333333333",
"33333oo3333333333333333333333333",
"3333322o333333333333333333333333",
"33333*oo333333333333333333333333",
"33333222333333333333333333333333",
"33333232333333333333333333333333",
"33333232333333333333333333333333",
"3333oo32333333333333333333333333",
"3333223o333333333333333333333333",
"3333oo3oo333323332333233333333o3",
"3333233*o3333o333o333o3333333323",
"3333233323333o3332333o3333333323",
"33332333233332333333323333333333",
"333323332333323333333o3333333333",
"3332*33323333o333333323333333333",
"333oo3332233323332333233332333o3",
"33323333oo333o333o333o3332o33323",
"3332333332333o33323332333*3333*3",
"33323333323332333o333o332*333323",
"3332ooo*223332333o333o33o3333323",
"33o2*2222*333o333233323o23333323",
"3322222222333233323332oo333333*3",
"33o*333332o33o333o333o2*33333323",
"332333333o233o333233322o33333323",
"33233333332332333o333o32o3333323",
"33o3333333o332333o333o33233333*3",
"3323333333233o3332333233o2333323",
"32o3333333233o3332333o333*333323",
"3o233333332*32333o33323332o33323",
"32o33333331o32333o333o3333o233*3",
"33333333333333333333333333333333"
};
