/* XPM */
static char *astk[] = {
/* columns rows colors chars-per-pixel */
"16 16 114 2",
"   c #B93823",
".  c #B93A25",
"X  c #BC3A24",
"o  c #C73B23",
"O  c #CB3921",
"+  c #CB3B23",
"@  c #D43B22",
"#  c #D83B21",
"$  c #E33A20",
"%  c #E5581C",
"&  c #DC4320",
"*  c #CB4F36",
"=  c #E65737",
"-  c #DE6F52",
";  c #7C9831",
":  c #7F9D31",
">  c #AC8A1F",
",  c #B08E1E",
"<  c #B38F1E",
"1  c #B8931D",
"2  c #809E31",
"3  c #98B42E",
"4  c #93B82F",
"5  c #9BBE2F",
"6  c #84A431",
"7  c #86A631",
"8  c #89AA31",
"9  c #8CAF31",
"0  c #92B73E",
"q  c #B1AD25",
"w  c #BABB25",
"e  c #DD851B",
"r  c #C59B1B",
"t  c #C59D1B",
"y  c #C0991C",
"u  c #E48019",
"i  c #CCA11A",
"p  c #DDAD17",
"a  c #D3A618",
"s  c #D2A619",
"d  c #DEA718",
"f  c #D3B31B",
"g  c #D9B51A",
"h  c #E3A617",
"j  c #E3B215",
"k  c #E0B016",
"l  c #E3B216",
"z  c #E4B216",
"x  c #C2B02A",
"c  c #9BC330",
"v  c #9CC430",
"b  c #9CC434",
"n  c #A8C22A",
"m  c #E39562",
"M  c #EA9876",
"N  c #98C045",
"B  c #98C265",
"V  c #4E7C96",
"C  c #4F7F9A",
"Z  c #4F819C",
"A  c #5084A1",
"S  c #5288A7",
"D  c #538BAA",
"F  c #538BAB",
"G  c #558FB0",
"H  c #5693B5",
"J  c #5A9ABE",
"K  c #5D9BBD",
"L  c #7596A6",
"P  c #7697AA",
"I  c #7799AA",
"U  c #7EA2B5",
"Y  c #579AC0",
"T  c #5B9DC1",
"R  c #5D9DC1",
"E  c #69A4C1",
"W  c #70A7C4",
"Q  c #79ABC6",
"!  c #8EB795",
"~  c #93BE98",
"^  c #84A9A0",
"/  c #87B5A9",
"(  c #80A6B9",
")  c #80A6BA",
"_  c #8DB5BE",
"`  c #BAC8B6",
"'  c #C2C2A4",
"]  c #C7C7A7",
"[  c #C9C9A9",
"{  c #CDCDAD",
"}  c #CECEAD",
"|  c #DCD2AE",
" . c #D6D5B2",
".. c #D8D8B5",
"X. c #DBDDBA",
"o. c #E9C9A4",
"O. c #F0D1AB",
"+. c #E0E0BC",
"@. c #86ADC2",
"#. c #81AEC5",
"$. c #84B5CF",
"%. c #88B2C8",
"&. c #91B9C2",
"*. c #90BDCC",
"=. c #83B5D1",
"-. c #8EBBD3",
";. c #90BDD4",
":. c #AAC8C3",
">. c #D2E1C8",
",. c #E4E6C1",
"<. c #EEEDC6",
"1. c #EFF0C8",
"2. c #F1F2CA",
"3. c None",
/* pixels */
"3.3.3.3.3.3.3.3.3.3.3.3.3.3.3.3.",
"3.3.3.3.3.3.3.3.Z V 3.3.3.3.3.3.",
"3.3.3.3.3.3.3.D D A C 3.3.3.3.3.",
"3.3.3.' [ 3.3.H G D A 3.3.3.3.3.",
"3.3.] {  .` K K W Q #.@.U L 3.3.",
"3.3.{ ..X._ J R $.;.-.%.( I 3.3.",
"3.3.3.+.,.:.E T =.*.~ ! ( I 3.3.",
"3.3.3.| <.2.>.&./ B b N ^ P 3.3.",
"3.3.  * o.2.O.m x n c c 0 3.3.3.",
"3.3.X + - M = u j g w 5 4 3.3.3.",
"3.3.X + # $ % h j z f 3 9 7 3.3.",
"3.3.. o @ & e d p k q 8 7 : 3.3.",
"3.3.3.3.3.3.r i a a 3.2 ; 3.3.3.",
"3.3.3.3.3.< 1 y t 3.3.3.3.3.3.3.",
"3.3.3.3.3.3.> < 3.3.3.3.3.3.3.3.",
"3.3.3.3.3.3.3.3.3.3.3.3.3.3.3.3."
};
