/* XPM */
static char *brp_pacu___x__[] = {
/* columns rows colors chars-per-pixel */
"32 23 104 2",
"   c #0F1213",
".  c #0F1712",
"X  c #0F1812",
"o  c #101413",
"O  c #101713",
"+  c #101813",
"@  c #101D13",
"#  c #181E1B",
"$  c #181E1C",
"%  c #102312",
"&  c #112512",
"*  c #152117",
"=  c #152317",
"-  c #152417",
";  c #152617",
":  c #112912",
">  c #112C11",
",  c #152D16",
"<  c #18201B",
"1  c #19241B",
"2  c #1A211D",
"3  c #1C231E",
"4  c #1C231F",
"5  c #192A1B",
"6  c #113211",
"7  c #153216",
"8  c #113811",
"9  c #113A10",
"0  c #163D15",
"q  c #1C3B1C",
"w  c #232A26",
"e  c #242C27",
"r  c #262D29",
"t  c #11480F",
"y  c #124F0F",
"u  c #12530E",
"i  c #135B0E",
"p  c #135F0D",
"a  c #124010",
"s  c #164C14",
"d  c #1C5219",
"f  c #1C5319",
"g  c #1B5418",
"h  c #1C5B18",
"j  c #1C5C18",
"k  c #13640D",
"l  c #13690C",
"z  c #136C0C",
"x  c #13760B",
"c  c #13700C",
"v  c #147B0B",
"b  c #1C6817",
"n  c #1B6D15",
"m  c #1D6E17",
"M  c #20751A",
"N  c #245422",
"B  c #245B21",
"V  c #14820A",
"C  c #14870A",
"Z  c #158C0A",
"A  c #15900A",
"S  c #149609",
"D  c #159A09",
"F  c #1D8614",
"G  c #1E9913",
"H  c #219C16",
"J  c #15AC07",
"K  c #15A608",
"L  c #16A608",
"P  c #1AA40D",
"I  c #1AAC0C",
"U  c #16B007",
"Y  c #16B207",
"T  c #16B707",
"R  c #16B806",
"E  c #16B807",
"W  c #1FAB11",
"Q  c #1FB311",
"!  c #1FB711",
"~  c #16C605",
"^  c #17CD05",
"/  c #1BC80A",
"(  c #1BCB0A",
")  c #1BCE09",
"_  c #17D304",
"`  c #17D604",
"'  c #18DF04",
"]  c #20CD0F",
"[  c #20CF0F",
"{  c #20C510",
"}  c #17E203",
"|  c #18E603",
" . c #1CE507",
".. c #18EB03",
"X. c #1CE807",
"o. c #18F102",
"O. c #19F502",
"+. c #1CF206",
"@. c #19F901",
"#. c #19FF00",
"$. c #19FF01",
"%. c #1DFA06",
"&. c #1DFC06",
"*. c #20E70C",
/* pixels */
"w < < 2 2 < < 2 2 2 2 2 2 2 1 W F $ < 2 2 < < 2 2 2 < 2 2 < < r ",
"2 . . . + + + + O + O X . O 8 | ~ % + + + + + . X X + X + + . 2 ",
"< . + + + + + + + + + + O O k $...8 O + + + + + + + + + + + X < ",
"2 . + + + + + + + + + + O O Z $.$.k O + + + + + + + + + + + + < ",
"4 + + + + + + + + + + + + @ E $.$.Z O O + + + + + + + + + + + 4 ",
"2 + + + + + + + + + + + + : ` $.$.U + . + + + + + + + + + + . 2 ",
"2 . + + + + + + + + O O O a ..$.$.^ & . + + + + + + + + + + . < ",
"2 . + + + + + + + + + O O i O.$.$. .8 . + + + + + + + + + + X 2 ",
"2 X + + + + + + + + + + O v $.$.$.o.y O + + + + + + + + + + + 4 ",
"2 X + + + + + + + + + + O D $.$.$.$.l O + + + + + + + + + + X 2 ",
"< + + + + + + + + + + + @ T $.$.$.$.Z O + + + + + + + + + + X < ",
"2 X + + + + + + + + + + : _ $.$.$.$.I + + + + + + + + + + + X 4 ",
"2 + + + + + + + + + O O 8  .$.$.$.$.~ % O O O + + + + + + + + 2 ",
"2 + + + + + + + + + O O u O.$.$.$.$.' 6 O O + + + + + + + + X < ",
"2 + + + + + + + + + + O z $.$.$.$.$.o.s O O + + + + + + + + X 2 ",
"2 + + + + O + O + + + O A $.$.$.$.$.@.k O + + + + + O + + + + 2 ",
"# O + O @ v D > O O + @ U $.$.$.$.$.$.C O O O O 9 K i + + O O # ",
"# o O O z O.$.Z X O   & _ $.$.$.$.$.$.J O O o @ E $...t   X X # ",
"B g g j W ] ] ! j d f b ( ] ] ] ] ] ) Q h d d m { [ ] G g f g N ",
"H +.&.I , - * 7 ( %.%.( 7 # - - - * * s X.%.%.P - - - 0 ( &. .M ",
"5 x A 6 O O O O V $.$.L + X + X + + O & _ $.@.i O . + X t D i < ",
"# X X X + + O O 8 } $.l   X X X + O O O S $.E % . X X + O . X < ",
"e < # 2 4 * < 4 2 G ) q # 2 2 2 2 2 # 2 g *.n 2 # 2 < 4 2 < # r "
};
