/* XPM */
static char *dummy[]={
"32 32 246 2",
"Qt c None",
".o c #000000",
".G c #010000",
".p c #010101",
".5 c #020000",
".U c #020101",
".H c #020202",
".M c #030000",
".E c #030101",
".f c #030202",
"#c c #040000",
".F c #040101",
"#7 c #050101",
"ak c #060101",
"a7 c #070101",
".T c #080101",
".N c #090101",
"am c #090202",
"bF c #0a0101",
"a4 c #0a0202",
"bO c #0c0101",
"aC c #0c0202",
"bR c #0d0101",
"ad c #0d0202",
"#b c #0e0202",
"bY c #0f0202",
"#d c #120303",
".L c #130303",
"bq c #140303",
"a# c #150303",
".D c #151515",
"aj c #160303",
".I c #161616",
"bj c #170303",
".w c #181818",
".K c #191919",
"#y c #1a0404",
".J c #1a1a1a",
"aH c #1b0404",
"#o c #1c0404",
"aN c #1d0404",
".e c #1d1d1d",
"aI c #1e0505",
"ae c #1f0505",
"bG c #210505",
"#W c #220505",
"#a c #230505",
"bv c #240505",
"#F c #250505",
".Z c #260606",
"#e c #270505",
"bd c #270606",
".Y c #280606",
".a c #2a2a2a",
"bZ c #2b0606",
"#8 c #2c0606",
"#Z c #2d0707",
"bt c #2f0707",
".n c #2f2f2f",
"bW c #300707",
".v c #303030",
".P c #310707",
"#2 c #320707",
"aO c #330707",
"a1 c #340707",
"#R c #350808",
".Q c #360808",
".z c #363636",
"bS c #370808",
".6 c #380808",
"aT c #390808",
"a8 c #3a0909",
"bB c #3b0808",
"#Y c #3b0909",
"ah c #3c0909",
"#0 c #3e0909",
".g c #3e3e3e",
"#E c #400909",
"bo c #410909",
"## c #410a0a",
"#f c #420a0a",
"#L c #430a0a",
"#z c #440a0a",
"#n c #450a0a",
".q c #454545",
"aa c #460a0a",
"aM c #470a0a",
"a3 c #470b0b",
"bK c #480b0b",
"bz c #490b0b",
".V c #4b0b0b",
"aA c #4c0b0b",
"a5 c #4d0b0b",
"#6 c #4f0b0b",
"bN c #4f0c0c",
".O c #500b0b",
"#P c #500c0c",
"an c #510c0c",
"bh c #530c0c",
"aX c #540c0c",
"a2 c #550c0c",
"aw c #560c0c",
"a. c #570d0d",
"aP c #580d0d",
"#N c #590d0d",
"#V c #5b0d0d",
"#I c #5d0e0e",
".4 c #5f0e0e",
".S c #610e0e",
"#4 c #620e0e",
"bg c #630e0e",
"aE c #640e0e",
"ac c #640f0f",
"b# c #650e0e",
"bx c #650f0f",
"aF c #660f0f",
"bw c #670f0f",
"al c #680f0f",
".# c #686868",
"aR c #690f0f",
"a6 c #6a0f0f",
"#C c #6a1010",
"bD c #6b1010",
"bJ c #6c0f0f",
"ai c #6d1010",
"#J c #6e1010",
"bX c #701111",
"#g c #711010",
"#O c #721111",
"bV c #731010",
"bn c #741111",
".A c #747474",
"aB c #751111",
".j c #767676",
"#3 c #771111",
"br c #781111",
".C c #787878",
"by c #791111",
"az c #7a1212",
"aQ c #7b1212",
"#p c #7c1212",
".0 c #7e1313",
"aU c #7f1313",
"av c #811313",
"bp c #821313",
"#S c #841313",
"ax c #851414",
"bm c #861313",
"#. c #871313",
"bk c #881414",
".y c #898989",
"bQ c #8a1414",
".s c #8a8a8a",
"#T c #8b1414",
"aV c #8d1515",
".b c #8d8d8d",
"bf c #8f1515",
"#U c #911515",
"#Q c #921515",
".d c #929292",
"as c #951616",
"aq c #961616",
"bE c #971616",
".x c #979797",
"bH c #981616",
".R c #991616",
"#K c #9c1717",
"aW c #9e1717",
"aG c #9f1717",
"bL c #a01717",
"bi c #a11717",
"af c #a21717",
"#1 c #a31818",
".X c #a51818",
"aY c #a71818",
"#h c #a81818",
".7 c #a91919",
"bu c #aa1919",
"aJ c #ad1919",
"bC c #ae1919",
"bT c #af1919",
"bP c #af1a1a",
"a0 c #b01a1a",
"#s c #b21a1a",
"#G c #b41a1a",
"ba c #b51a1a",
"aD c #b61a1a",
"bA c #b61b1b",
".W c #b81b1b",
"ay c #b91b1b",
"ap c #ba1b1b",
"#m c #bb1b1b",
".k c #bcbcbc",
"b. c #bd1c1c",
"at c #be1c1c",
".t c #bfbfbf",
".1 c #c01c1c",
"#B c #c11c1c",
"#D c #c21c1c",
".B c #c2c2c2",
"aK c #c31c1c",
"#M c #c41c1c",
"bI c #c51c1c",
".3 c #c51d1d",
"aS c #c61d1d",
".m c #c6c6c6",
"#i c #c71d1d",
".u c #c9c9c9",
"ar c #ca1d1d",
"ab c #ca1e1e",
"be c #cb1d1d",
"bM c #cb1e1e",
"#v c #cc1e1e",
"bb c #cd1d1d",
"#r c #cd1e1e",
"au c #ce1e1e",
"#H c #cf1e1e",
"ag c #d01e1e",
"bl c #d21e1e",
"aL c #d31e1e",
"#A c #d31f1f",
"a9 c #d41f1f",
".i c #d4d4d4",
"#9 c #d51f1f",
"#X c #d61f1f",
"#t c #d71f1f",
"#q c #d81f1f",
"bc c #d82020",
"#u c #d91f1f",
"#j c #da2020",
"aZ c #db2020",
"#5 c #dc2020",
"#w c #dd2020",
".9 c #de2020",
"bU c #de2121",
".c c #dedede",
".2 c #df2020",
"ao c #df2121",
"bs c #e02020",
".8 c #e02121",
"#l c #e12121",
"#x c #e22121",
"#k c #e32121",
".h c #f2f2f2",
".r c #fefefe",
".l c #ffffff",
"QtQtQtQtQtQtQtQtQtQtQtQtQtQtQtQtQtQtQtQtQtQtQtQtQtQtQtQtQtQtQtQt",
"QtQtQtQtQtQtQtQtQtQtQtQtQt.#.a.b.c.d.eQtQtQtQtQtQtQtQtQtQtQtQtQt",
"QtQtQtQtQtQtQtQtQtQt.f.g.h.i.j.k.l.m.n.o.o.oQtQtQtQtQtQtQtQtQtQt",
"QtQtQtQtQtQtQtQtQt.o.p.q.r.c.s.t.l.u.v.o.o.o.o.oQtQtQtQtQtQtQtQt",
"QtQtQtQtQtQtQt.o.o.o.o.w.x.y.z.A.B.C.D.o.o.o.o.o.oQtQtQtQtQtQtQt",
"QtQtQtQtQtQt.E.F.G.o.o.H.I.J.H.K.z.J.H.o.o.G.L.M.o.oQtQtQtQtQtQt",
"QtQtQtQtQt.N.O.P.E.o.o.o.o.o.o.o.o.o.o.o.o.Q.R.S.T.o.oQtQtQtQtQt",
"QtQtQtQt.U.V.W.X.Y.G.o.o.o.o.o.o.o.o.G.Z.0.1.2.3.4.5.o.oQtQtQtQt",
"QtQtQtQt.6.7.8.9.3#.###a#b#c#d#e#f#g#h#i#j#k#k#l#m#n.o.oQtQtQtQt",
"QtQtQt#o#p.8#k#k#k.2#j#q#r#s#t#u#j.9#l.9#v#w#x#k#l.R#y.o.GQtQtQt",
"QtQtQt#z.1#A#t#l#k#k#k#k#B#C#k#k#k#k#D#E.F#F#G#k#k#H#I.5.5QtQtQt",
"QtQtQt#J#K#L.S#M#x#k#k#x#G#N#k#k#k#x#O#b.o.M#P#l#k#k#Q#y.oQtQtQt",
"QtQt#R#S#n.o#c#T#w#k#k#w#U#V#k#k#k#w#n.5.o.o#W#X#k#k.W#Y.o#ZQtQt",
"QtQt#0#1#2.o.o#3#t#k#k#X#4#4#k#k#k#5#6#7.o.G#8#9#k#k#ta..oa#QtQt",
"QtQtaaabacadaeaf.8#l#kagahai#k#jag#5#Taj.oak#J#k#k#k#xal#camQtQt",
"QtQtanaoap#Saqaras#Oatau.P#J#vavawaxayazaAal#D#k#k#k#kaBaC.5QtQt",
"QtQtan#k#k.8#laD#2.NaE#H#2aFaGaH.GaIaJ#XaKaL#k#k#k#k#kaBaC.GQtQt",
"QtQtaM#k#k#k#kaGaN.o#Y#HaOaPaQ.5.o.5#T#5#k#k#k#k#k#k#kaR#7.TQtQt",
"QtQt#E#q#k#k#kaSaT.TaU#HaOaPaV.N.o.NaW#l#HaXaMaY#k#kaZ#V.G#dQtQt",
"QtQt.Qa0#k#k#k#l#vay#qaga1a2apa3a4a5aK#ka6a7.Fa8a9#kb.#E.o.ZQtQt",
"QtQtQtaz#x#vb#aMba.8#kag.Qaabbbc#r#u#x.9bd.o.oae.X#xasaN.oQtQtQt",
"QtQtQtaMbebf#y.obg#9#k#9bh#abi#k#k#k#k#ibj.o.oa#bkbl#4.5.GQtQtQt",
"QtQtQt#Fbmbn.T.obo#H#kaZbpbqbr#k#k#k#kbsbt.G.o#WbuaWbv.o.oQtQtQt",
"QtQtQtQt#fb#aH.5bw#9#k.8aYbjbx.9#k#k#k#kbya4akbzbAbh.G.o.oQtQtQt",
"QtQtQtQtadbBaA.ObC.2#k#k#m#oaM.3#k#k#k#kaubD#4bEbDbF.o.oQtQtQtQt",
"QtQtQtQtQtbq.Vbu#w#k#k#k.1.ZbGbH#k#k#k#k#k#lbIbJbq.o.oQtQtQtQtQt",
"QtQtQtQtQtQtadbKbL#5#k#kbMbNbOai#u#k#k#k#xbPa2#b.o.o.oQtQtQtQtQt",
"QtQtQtQtQtQtQtak.YbgbC#waZbQbRbSbT#kbUapbVbWak.o.o.oQtQtQtQtQtQt",
"QtQtQtQtQtQtQtQt#Rad.Z#fbXacbY#ba2aB.VbZbY.o.o.oQtQtQtQtQtQtQtQt",
"QtQtQtQtQtQtQtQtQtQt#7.5ad#b.M.GbF#b.F.o.o.o.oQtQtQtQtQtQtQtQtQt",
"QtQtQtQtQtQtQtQtQtQtQtQt.o.o.o.o.o.o.o.oQtQtQtQtQtQtQtQtQtQtQtQt",
"QtQtQtQtQtQtQtQtQtQtQtQtQtQtQtQtQtQtQtQtQtQtQtQtQtQtQtQtQtQtQtQt"};
