/* XPM */
static char * curtain_xpm[] = {
"22 22 375 2",
"  	c None",
". 	c #110000",
"+ 	c #120000",
"@ 	c #210001",
"# 	c #200001",
"$ 	c #260001",
"% 	c #2A0001",
"& 	c #300001",
"* 	c #310100",
"= 	c #350101",
"- 	c #3B0000",
"; 	c #430000",
"> 	c #230001",
", 	c #330001",
"' 	c #310001",
") 	c #2F0000",
"! 	c #280001",
"~ 	c #2A0000",
"{ 	c #260000",
"] 	c #220001",
"^ 	c #190000",
"/ 	c #1E0001",
"( 	c #120001",
"_ 	c #140000",
": 	c #160000",
"< 	c #250000",
"[ 	c #2D0100",
"} 	c #310000",
"| 	c #3A0000",
"1 	c #3B0101",
"2 	c #420101",
"3 	c #4A0000",
"4 	c #540001",
"5 	c #400001",
"6 	c #3B0002",
"7 	c #320000",
"8 	c #340001",
"9 	c #2F0001",
"0 	c #2B0001",
"a 	c #1F0000",
"b 	c #170000",
"c 	c #1A0001",
"d 	c #2C0001",
"e 	c #360001",
"f 	c #3B0001",
"g 	c #470001",
"h 	c #480101",
"i 	c #510202",
"j 	c #5B0001",
"k 	c #680001",
"l 	c #4F0001",
"m 	c #4A0102",
"n 	c #4A0101",
"o 	c #410001",
"p 	c #420001",
"q 	c #3D0001",
"r 	c #370001",
"s 	c #320001",
"t 	c #1F0001",
"u 	c #200000",
"v 	c #3F0001",
"w 	c #450101",
"x 	c #570000",
"y 	c #560202",
"z 	c #610202",
"A 	c #6D0002",
"B 	c #7D0002",
"C 	c #3E0001",
"D 	c #620002",
"E 	c #5A0102",
"F 	c #5C0101",
"G 	c #530002",
"H 	c #520001",
"I 	c #4E0001",
"J 	c #410002",
"K 	c #290001",
"L 	c #3C0001",
"M 	c #410000",
"N 	c #490001",
"O 	c #500101",
"P 	c #660001",
"Q 	c #640303",
"R 	c #720303",
"S 	c #800004",
"T 	c #920105",
"U 	c #4B0102",
"V 	c #770003",
"W 	c #6C0103",
"X 	c #710003",
"Y 	c #690003",
"Z 	c #660102",
"` 	c #630002",
" .	c #5B0102",
"..	c #420002",
"+.	c #380001",
"@.	c #2D0001",
"#.	c #470102",
"$.	c #4C0001",
"%.	c #5C0001",
"&.	c #780002",
"*.	c #720405",
"=.	c #820406",
"-.	c #920107",
";.	c #A30208",
">.	c #580002",
",.	c #8A0005",
"'.	c #7D0205",
").	c #860005",
"!.	c #800105",
"~.	c #7A0204",
"{.	c #7B0004",
"].	c #720304",
"^.	c #680002",
"/.	c #4A0001",
"(.	c #360101",
"_.	c #510101",
":.	c #5E0001",
"<.	c #870002",
"[.	c #7E0607",
"}.	c #8E0509",
"|.	c #A0020A",
"1.	c #AE040B",
"2.	c #650103",
"3.	c #9B0209",
"4.	c #8D0307",
"5.	c #980108",
"6.	c #96030A",
"7.	c #8C0307",
"8.	c #940008",
"9.	c #890507",
"0.	c #650104",
"a.	c #7F0005",
"b.	c #5F0002",
"c.	c #500000",
"d.	c #400201",
"e.	c #5E0202",
"f.	c #650102",
"g.	c #6B0102",
"h.	c #730003",
"i.	c #960004",
"j.	c #8A0808",
"k.	c #98060A",
"l.	c #AB030D",
"m.	c #B7050E",
"n.	c #710103",
"o.	c #A9040B",
"p.	c #9C050A",
"q.	c #A9030B",
"r.	c #AB060E",
"s.	c #9C040B",
"t.	c #AC010D",
"u.	c #9D060B",
"v.	c #760105",
"w.	c #940007",
"x.	c #730104",
"y.	c #650101",
"z.	c #4E0202",
"A.	c #6D0302",
"B.	c #750202",
"C.	c #790203",
"D.	c #7F0104",
"E.	c #A40005",
"F.	c #950A0A",
"G.	c #A3070C",
"H.	c #B6060F",
"I.	c #BF0710",
"J.	c #7F0206",
"K.	c #B5070F",
"L.	c #A9050C",
"M.	c #B80410",
"N.	c #BD0A14",
"O.	c #A9060E",
"P.	c #BF0312",
"Q.	c #AD090F",
"R.	c #860107",
"S.	c #A70009",
"T.	c #860304",
"U.	c #7C0103",
"V.	c #5E0304",
"W.	c #800504",
"X.	c #870206",
"Y.	c #890106",
"Z.	c #8E0206",
"`.	c #B3000A",
" +	c #A00C0E",
".+	c #AD0810",
"++	c #C00813",
"@+	c #C40815",
"#+	c #8C0309",
"$+	c #C20B15",
"%+	c #B70711",
"&+	c #C60817",
"*+	c #CF101B",
"=+	c #B50813",
"-+	c #D0071A",
";+	c #BB0D14",
">+	c #94020A",
",+	c #B7010E",
"'+	c #980409",
")+	c #920305",
"!+	c #6F0505",
"~+	c #920806",
"{+	c #9C040A",
"]+	c #9C0309",
"^+	c #9D040A",
"/+	c #C1000D",
"(+	c #AC0F12",
"_+	c #B80912",
":+	c #CA0B18",
"<+	c #CC0A18",
"[+	c #9B050D",
"}+	c #CD0F1C",
"|+	c #C30A17",
"1+	c #D20C1D",
"2+	c #DB1422",
"3+	c #BE0A18",
"4+	c #DE0D22",
"5+	c #C61019",
"6+	c #A2040F",
"7+	c #C30213",
"8+	c #A7050D",
"9+	c #A60508",
"0+	c #7F0708",
"a+	c #A70C0C",
"b+	c #B1090F",
"c+	c #AD060E",
"d+	c #AE060F",
"e+	c #CF0311",
"f+	c #B91216",
"g+	c #C30B16",
"h+	c #D50F1C",
"i+	c #D40D1B",
"j+	c #A70714",
"k+	c #D61321",
"l+	c #CF0C1D",
"m+	c #DA1021",
"n+	c #E51927",
"o+	c #C40B1B",
"p+	c #E61025",
"q+	c #CD131D",
"r+	c #AC0712",
"s+	c #CD0317",
"t+	c #B4080F",
"u+	c #B5080D",
"v+	c #8E0A0C",
"w+	c #B81113",
"x+	c #C60F16",
"y+	c #C10917",
"z+	c #C00A16",
"A+	c #DC0718",
"B+	c #C6161C",
"C+	c #CE0D1B",
"D+	c #DE1222",
"E+	c #DA0F20",
"F+	c #B20A18",
"G+	c #DC1626",
"H+	c #D90F22",
"I+	c #E21326",
"J+	c #EB1E2D",
"K+	c #CA0B1E",
"L+	c #EE162C",
"M+	c #D41520",
"N+	c #B50916",
"O+	c #D6061A",
"P+	c #BF0A12",
"Q+	c #C20B11",
"R+	c #9D0C0F",
"S+	c #C41319",
"T+	c #D6151D",
"U+	c #D0101D",
"V+	c #D00E1D",
"W+	c #E80C1D",
"X+	c #D11A22",
"Y+	c #D9111F",
"Z+	c #E51525",
"`+	c #E01124",
" @	c #BB0B1B",
".@	c #E11729",
"+@	c #DF0F25",
"@@	c #E61629",
"#@	c #F02230",
"$@	c #CF0D20",
"%@	c #F41B2F",
"&@	c #DA1722",
"*@	c #BB0B16",
"=@	c #DC081B",
"-@	c #CA0D16",
";@	c #CD0D14",
">@	c #A91013",
",@	c #CF1620",
"'@	c #DF1924",
")@	c #DD1923",
"!@	c #DC1322",
"~@	c #F11321",
"{@	c #DA1E25",
"]@	c #E01321",
"^@	c #EB1728",
"/@	c #E41326",
"(@	c #C10D1E",
"_@	c #E4192B",
":@	c #E51228",
"<@	c #EA182B",
"[@	c #F42733",
"}@	c #D20F22",
"|@	c #F71E32",
"1@	c #DF1A25",
"2@	c #BF0B17",
"3@	c #E20C1D",
"4@	c #D21017",
"5@	c #D61019",
"6@	c #B31417",
"7@	c #D91726",
"8@	c #E61C29",
"9@	c #E41E29",
"0@	c #E51929",
"a@	c #F71725",
"b@	c #E02129",
"c@	c #E61425",
"d@	c #EF172B",
"e@	c #E71229",
"f@	c #C70F20",
"g@	c #E7192D",
"h@	c #E9142B",
"i@	c #EE1A2E",
"j@	c #F72A36",
"k@	c #D61124",
"l@	c #F92034",
"m@	c #E31C27",
"n@	c #C20B18",
"o@	c #E70D20",
"p@	c #DB1019",
"q@	c #DE131E",
"r@	c #B9171A",
"s@	c #E0182C",
"t@	c #EB1F2E",
"u@	c #EA222D",
"v@	c #ED1D2F",
"w@	c #FB1B28",
"x@	c #E4242C",
"y@	c #EA1528",
"z@	c #F2172B",
"A@	c #E8122A",
"B@	c #CA1022",
"C@	c #E7192E",
"D@	c #EE162F",
"E@	c #F11B30",
"F@	c #FA2D39",
"G@	c #D81126",
"H@	c #FA2135",
"I@	c #E61D29",
"J@	c #C50B19",
"K@	c #EA0D21",
"L@	c #E10F1B",
"M@	c #E51722",
"N@	c #BF1C1E",
"O@	c #E5192F",
"P@	c #EE2231",
"Q@	c #ED2430",
"R@	c #F22132",
"S@	c #FC1E2B",
"T@	c #E7252E",
"U@	c #ED1629",
"V@	c #F3172C",
"W@	c #E9112B",
"X@	c #CC1024",
"Y@	c #E8192F",
"Z@	c #F11731",
"`@	c #F31E32",
" #	c #FB2E3A",
".#	c #DB1227",
"+#	c #FB2336",
"@#	c #E81E2B",
"##	c #C70B19",
"$#	c #EB0E21",
"%#	c #E40E1C",
"                                            ",
"                                            ",
". + @ # $ % & * = - ; > , ' ) ! ~ { ] ^ / ( ",
"_ : < { [ } | 1 2 3 4 % 5 6 - 7 8 9 0 a $ b ",
"c c d 9 e f g h i j k , l m n o p q r ! s t ",
"u # 8 r v w x y z A B C D E F G H I g , J % ",
"K { L M N O P Q R S T U V W X Y Z `  ...H +.",
"8 @.#.$.G %.&.*.=.-.;.>.,.'.).!.~.{.].G ^./.",
"M (._.>.:.^.<.[.}.|.1.2.3.4.5.6.7.8.9.0.a.b.",
"c.d.e.f.g.h.i.j.k.l.m.n.o.p.q.r.s.t.u.v.w.x.",
"y.z.A.B.C.D.E.F.G.H.I.J.K.L.M.N.O.P.Q.R.S.T.",
"U.V.W.X.Y.Z.`. +.+++@+#+$+%+&+*+=+-+;+>+,+'+",
")+!+~+{+]+^+/+(+_+:+<+[+}+|+1+2+3+4+5+6+7+8+",
"9+0+a+b+c+d+e+f+g+h+i+j+k+l+m+n+o+p+q+r+s+t+",
"u+v+w+x+y+z+A+B+C+D+E+F+G+H+I+J+K+L+M+N+O+P+",
"Q+R+S+T+U+V+W+X+Y+Z+`+ @.@+@@@#@$@%@&@*@=@-@",
";@>@,@'@)@!@~@{@]@^@/@(@_@:@<@[@}@|@1@2@3@4@",
"5@6@7@8@9@0@a@b@c@d@e@f@g@h@i@j@k@l@m@n@o@p@",
"q@r@s@t@u@v@w@x@y@z@A@B@C@D@E@F@G@H@I@J@K@L@",
"M@N@O@P@Q@R@S@T@U@V@W@X@Y@Z@`@ #.#+#@###$#%#",
"                                            ",
"                                            "};
