/* XPM */
static char *dicompyler[] = {
/* columns rows colors chars-per-pixel */
"16 16 84 1",
"  c #5A4B2D",
". c #435E2A",
"X c #684A2D",
"o c #774C22",
"O c #714E2B",
"+ c #705E28",
"@ c #466628",
"# c #4C7724",
"$ c #343F5A",
"% c #2D3D60",
"& c #5A2C5A",
"* c #762F44",
"= c #702070",
"- c #B43F3E",
"; c #B63F3E",
": c #BC3E3E",
"> c #F61717",
", c #C63D3D",
"< c #C93C3C",
"1 c #DC3636",
"2 c #D83838",
"3 c #EF2323",
"4 c #E52E2E",
"5 c #E03232",
"6 c #BF551B",
"7 c #95761B",
"8 c #A5611E",
"9 c #B16419",
"0 c #B4691E",
"q c #8F4C34",
"w c #A15429",
"e c #A44433",
"r c #A2433F",
"t c #B2403F",
"y c #897024",
"u c #D06F12",
"i c #F77B02",
"p c #FA7C01",
"a c #F97C02",
"s c #9D3E42",
"d c #943349",
"f c #8C5143",
"g c #965E48",
"h c #9F5954",
"j c #EA7E7E",
"k c #5BB20B",
"l c #62B009",
"z c #6AA634",
"x c #5FC303",
"c c #5EC104",
"v c #60C601",
"b c #60C800",
"n c #60C900",
"m c #7DA756",
"M c #B68F19",
"N c #B2902A",
"B c #C68515",
"V c #D8A60D",
"C c #F2B605",
"Z c #FFBF00",
"A c #C59D25",
"S c #BC8A58",
"D c #C39061",
"F c #D6BE79",
"G c #1945A4",
"H c #1645AD",
"J c #1545B0",
"K c #1046BC",
"L c #677DAF",
"P c #0D47C4",
"I c #0C47C7",
"U c #0A47CA",
"Y c #0B47CA",
"T c #0A47CB",
"R c #961596",
"E c #981897",
"W c #9F3F9E",
"Q c #A30CA2",
"! c #B505B4",
"~ c #BB03BA",
"^ c #BF00BE",
"/ c #9D5786",
"( c #B269B1",
") c None",
/* pixels */
"))))))))))))))))",
")))))))HG)))))))",
")))))))KJ)))))))",
")))))))TP)))))))",
")))))))TT$))))))",
")0S)))LIT%))))N)",
"8pppuDhrsfFACZZM",
")O9ip6,j1-BZZVy)",
")))Xoe2>3<w7+)))",
")))))g<45:*)))))",
")))))lqttdQ)))))",
"))))zbc /^^=))))",
")))Sbv.))(^~&)))",
")))cb@))))W^R)))",
")))x#))))))E!)))",
"))))))))))))))))"
};
