/* XPM */
static char *dreamchess[] = {
/* columns rows colors chars-per-pixel */
"32 32 158 2",
"   c #3D2B17",
".  c #3C2C1D",
"X  c #362B24",
"o  c #3D2E23",
"O  c #3A2F28",
"+  c #3F3023",
"@  c #2B2D37",
"#  c #272D3C",
"$  c #292F3D",
"%  c #322D31",
"&  c #3A3533",
"*  c #37353E",
"=  c #3C3639",
"-  c #402D17",
";  c #412F19",
":  c #44321C",
">  c #4B361C",
",  c #4D381E",
"<  c #533B1E",
"1  c #583D1E",
"2  c #423223",
"3  c #483625",
"4  c #4D3920",
"5  c #43342A",
"6  c #4E3E2E",
"7  c #543E22",
"8  c #583F21",
"9  c #533D2C",
"0  c #443932",
"q  c #4C3E35",
"w  c #453B3E",
"e  c #533F31",
"r  c #574024",
"t  c #5C4224",
"y  c #57412E",
"u  c #5E4629",
"i  c #4F423D",
"p  c #53443C",
"a  c #5C4739",
"s  c #5E4B3D",
"d  c #614425",
"f  c #664927",
"g  c #6E4D27",
"h  c #604729",
"j  c #644A2A",
"k  c #6C4D2A",
"l  c #704E29",
"z  c #6E502E",
"x  c #72522D",
"c  c #7A572D",
"v  c #7E592E",
"b  c #634C37",
"n  c #6B4F33",
"m  c #604B3D",
"M  c #6C523E",
"N  c #735432",
"B  c #795732",
"V  c #775934",
"C  c #7B5A33",
"Z  c #745538",
"A  c #2E3241",
"S  c #4B4245",
"D  c #464249",
"F  c #554745",
"G  c #5C4A43",
"H  c #634E42",
"J  c #6C5642",
"K  c #785D44",
"L  c #825E34",
"P  c #866135",
"I  c #8C6435",
"U  c #85623B",
"Y  c #8C6639",
"T  c #8D683C",
"R  c #906636",
"E  c #986C37",
"W  c #906639",
"Q  c #936B3B",
"!  c #996E3B",
"~  c #9D723D",
"^  c #A4743E",
"/  c #AE7B3D",
"(  c #856243",
")  c #8B6944",
"_  c #806449",
"`  c #87694D",
"'  c #8D6A49",
"]  c #946D42",
"[  c #996F45",
"{  c #9B7343",
"}  c #97734A",
"|  c #9D794F",
" . c #A37642",
".. c #A57843",
"X. c #AB7B44",
"o. c #A3774A",
"O. c #A77D4B",
"+. c #AC7E4A",
"@. c #B17F46",
"#. c #A27D52",
"$. c #A97F52",
"%. c #A87F58",
"&. c #AF8147",
"*. c #B28146",
"=. c #B4834A",
"-. c #B9874B",
";. c #BB894C",
":. c #A68156",
">. c #AD8452",
",. c #B08654",
"<. c #B88754",
"1. c #B58955",
"2. c #BB8C53",
"3. c #B48B5C",
"4. c #BC8E58",
"5. c #BE925D",
"6. c #B68F60",
"7. c #BA9262",
"8. c #C08C4E",
"9. c #C18E52",
"0. c #C39156",
"q. c #C4945C",
"w. c #C9975C",
"e. c #CB995B",
"r. c #C39561",
"t. c #C59966",
"y. c #CB9B64",
"u. c #D29E64",
"i. c #D3A063",
"p. c #DAA566",
"a. c #D4A46A",
"s. c #DCA76B",
"d. c #DDA96A",
"f. c #D4A570",
"g. c #D4A872",
"h. c #DAA972",
"j. c #DEB075",
"k. c #E1AB6D",
"l. c #E0AE70",
"z. c #E6B275",
"x. c #E2B47C",
"c. c #ECB779",
"v. c #EEB97B",
"b. c #F2BC7E",
"n. c #E6B781",
"m. c #E7BD83",
"M. c #EBBB82",
"N. c #F4BE80",
"B. c #E8C187",
"V. c #E8C78D",
"C. c #F1C087",
"Z. c #F9C284",
"A. c #F7C78F",
"S. c #F8CB8E",
"D. c #E9CB90",
"F. c #FED398",
"G. c #FFDFA2",
"H. c None",
/* pixels */
"H.H.H.H.H.H.H.H.H.H.H.H.H.w i G m H i H.H.H.H.H.H.H.H.H.H.H.H.H.",
"H.H.H.H.H.H.H.H.H.H.H.* d x [ <.r.<. .] G H.H.H.H.H.H.H.H.H.H.H.",
"H.H.H.H.H.H.H.H.H.H.H.H.5 d C ] o. .W Z H.H.H.H.H.H.H.H.H.H.H.H.",
"H.H.H.H.H.H.H.H.H.H.H.H.0 d L [ $. .W H H.H.H.H.H.H.H.H.H.H.H.H.",
"H.H.H.H.H.H.H.H.H.H.H.e t d k g l d d d e H.H.H.H.H.H.H.H.H.H.H.",
"H.H.H.H.= m J u e y n C )  .[ Q L x ] $.o.[ ( L [ %.( H H.H.H.H.",
"H.H.H.H.X u V h 7 8 B L [ w.h.a.t.o.+.r.4.<. . .@.u.} Z H.H.H.H.",
"H.H.H.H.@ ; h t 8 8 Z L T 1.B.S.n.%.X.@.@.+. .X.@.<.L F H.H.H.H.",
"H.H.H.H.H.X , r 7 7 x C P ~ 2.y.q.X.X.X.X.X...X.+.! N H.H.H.H.H.",
"H.H.H.H.H.X : > 7 t z B L R ^ X.X.X.@.X.X.X.X... .W b H.H.H.H.H.",
"H.H.H.H.H.# - ; < d g c L I E ~ ^ X.X.@.X.X...~ Q L D H.H.H.H.H.",
"H.H.H.H.H.H.  ; > t z B P I E ~ ^ X.*.*.X.X...~ Y C H.H.H.H.H.H.",
"H.H.H.H.H.H.X - > t g c P Y E ~ X.*.-.-.*.X. .~ I n H.H.H.H.H.H.",
"H.H.H.H.H.H.% - > 8 g c I Y ~ ..X.-.;.;.*./ ^ E P a H.H.H.H.H.H.",
"H.H.H.H.H.H.A - > 1 g B I Q ~ X.-.8.0.0.-.X.^ E L D H.H.H.H.H.H.",
"H.H.H.H.H.H.H.. > 1 g c I E ^ *.2.w.i.w.-.@...! C H.H.H.H.H.H.H.",
"H.H.H.H.H.H.H.+ > 1 g v Y ~ &.4.i.z.c.p.8.*./ ~ C H.H.H.H.H.H.H.",
"H.H.H.H.H.H.H.+ > 1 g v R ~ ;.0.d.b.Z.d.9.*./ E C H.H.H.H.H.H.H.",
"H.H.H.H.H.H.H.3 > 8 x v Q ..2.w.d.b.b.d.;./ ^ E V H.H.H.H.H.H.H.",
"H.H.H.H.H.H.H.3 < 8 x v Q { 1.5.p.z.v.p.8.*.^ E Z H.H.H.H.H.H.H.",
"H.H.H.H.H.H.H.+ , 7 g c I Q &.,.q.u.u.0.;.*...E Z H.H.H.H.H.H.H.",
"H.H.H.H.H.H.H.O : < d g v I ~ &.&.=.*.&.X...~ I b H.H.H.H.H.H.H.",
"H.H.H.H.H.H.H.% : , 8 f N V Y T [ } { ! Q Y P B p H.H.H.H.H.H.H.",
"H.H.H.H.H.H.H.* + , 8 u k V ) } #.:.:.{ I U C z S H.H.H.H.H.H.H.",
"H.H.H.H.H.H.H.H.r r j K ~ >.g.m.F.G.S.p.;.&.{ L H.H.H.H.H.H.H.H.",
"H.H.H.H.H.H.H.H.r j V C Q :.5.a.x.m.j.w.-.X. .Y H.H.H.H.H.H.H.H.",
"H.H.H.H.H.H.i u V C Y !  .&.>.2.0.4.0.2.;.*.X...! K H.H.H.H.H.H.",
"H.H.H.H.0 y t z V C T } ,.r.g.x.B.V.D.B.j.e.-.*.X.{ ' K H.H.H.H.",
"H.H.H.H.& & 0 i p s x V U ) :.:.3.3.7.3.O.{ ' ` _ K J m H.H.H.H.",
"H.H.H.H.H.H.H.H.H.H.: , r r r u u u t r 7 : H.H.H.H.H.H.H.H.H.H.",
"H.H.H.H.H.H.H.H.H.H.+ > 7 r u k j u r r 4 2 H.H.H.H.H.H.H.H.H.H.",
"H.H.H.H.H.H.H.H.H.H.O > 7 r u z N N z f 7 O H.H.H.H.H.H.H.H.H.H."
};
