/* XPM */
static char *ebumeter__x__[] = {
/* columns rows colors chars-per-pixel */
"32 32 102 2",
"   c #000000",
".  c #030503",
"X  c #030603",
"o  c #050A05",
"O  c #060C06",
"+  c #080F08",
"@  c #081109",
"#  c #0B150B",
"$  c #0B160C",
"%  c #0E1B0E",
"&  c #0F1D0F",
"*  c #0F1E10",
"=  c #101F10",
"-  c #112212",
";  c #132614",
":  c #132714",
">  c #142815",
",  c #162C17",
"<  c #172D18",
"1  c #172F19",
"2  c #1A331B",
"3  c #1A341B",
"4  c #1B361C",
"5  c #1C381E",
"6  c #1D3A1F",
"7  c #1E3B1F",
"8  c #1F3D20",
"9  c #203F21",
"0  c #204022",
"q  c #214223",
"w  c #224323",
"e  c #234625",
"r  c #244725",
"t  c #244826",
"y  c #274D29",
"u  c #274E29",
"i  c #29512B",
"p  c #2A532C",
"a  c #2B542C",
"s  c #2C582E",
"d  c #2E5A30",
"f  c #2E5B30",
"g  c #2F5E32",
"h  c #306032",
"j  c #316233",
"k  c #336535",
"l  c #356938",
"z  c #376D39",
"x  c #386F3A",
"c  c #38703B",
"v  c #3A723C",
"b  c #3B763E",
"n  c #3D783F",
"m  c #3E7B41",
"M  c #3F7D42",
"N  c #407E43",
"B  c #418044",
"V  c #418144",
"C  c #448647",
"Z  c #458848",
"A  c #468C4A",
"S  c #488E4B",
"D  c #488F4B",
"F  c #49914C",
"G  c #4A924D",
"H  c #4A944E",
"J  c #4C9750",
"K  c #4D9850",
"L  c #4D9951",
"P  c #4E9B51",
"I  c #4E9B52",
"U  c #509E53",
"Y  c #509F54",
"T  c #51A155",
"R  c #53A457",
"E  c #54A758",
"W  c #55A858",
"Q  c #56AA59",
"!  c #56AA5A",
"~  c #57AD5B",
"^  c #58AF5C",
"/  c #5AB35E",
"(  c #5BB55F",
")  c #5DB861",
"_  c #5EBB63",
"`  c #5FBC63",
"'  c #60BE64",
"]  c #61BF65",
"[  c #62C367",
"{  c #64C668",
"}  c #66CB6B",
"|  c #67CD6C",
" . c #68CE6D",
".. c #6AD36F",
"X. c #6BD46F",
"o. c #6BD470",
"O. c #6CD671",
"+. c #6DD872",
"@. c #6EDB73",
"#. c #6FDD74",
"$. c #71DF76",
"%. c #71E076",
/* pixels */
"%.%.%.%.%.%.%.%.%.%.%.%.%.%.%.%.%.%.%.%.%.%.%.%.%.%.%.%.%.%.%.%.",
"%.%.%.%.%.%.%.%.%.%.%.] s / %.%.%.%.%.%.%.%.%.%.%.%.%.%.%.%.%.%.",
"/ % % % % % % % 3 %.%.Q   G %.%.%.%.%.%.%.%.%.%.%.%.%.%.%.%.%.%.",
"~               % %.%.Q   G %.%.%.%.%.%.%.%.%.%.%.%.%.%.%.%.%.%.",
"~   k } } } } }  .%.%.Q   G %.%.%.%.%.%.%.%.%.%.%.%.%.%.%.%.%.%.",
"~   c %.%.%.%.%.%.%.%.Q   G %.%.%.%.$.$.%.%.%.$.%.%.%.%.%.%.%.%.",
"~   c %.%.%.%.%.%.%.%.Q   G / a > g  .$.%.%.{ d / $.%.%.$.m v %.",
"~   c %.%.%.%.%.%.%.%.Q   M @ . .   2 @.%.%./   G $.%.%.$.2 > %.",
"~   c %.%.%.%.%.%.%.%.Q   O i O.O.a   B $.$./   F $.%.%.%.2 : %.",
"~   @ - - - - - x %.%.Q   @ @.%.%.$.# > $.$./   F %.%.%.%.2 > %.",
"~               d %.%.Q   s %.%.%.%.s   } $./   F %.%.%.%.2 > %.",
"~   k } } } } } o.%.%.Q   m %.%.%.%.B   ( %./   F %.%.%.%.3 > %.",
"~   c %.%.%.%.%.%.%.%.Q   A %.%.%.%.H   T $./   G %.%.%.%.2 : %.",
"~   c %.%.%.%.%.%.%.%.Q   C %.%.%.%.S   Q %./   F %.%.%.%.2 > %.",
"~   c %.%.%.%.%.%.%.%.Q   b %.%.%.%.m   ) %.)   M %.%.%.%.= > %.",
"~   c %.%.%.%.%.%.%.%.Q   q %.%.%.%.r   ..%. .  p %.%.%.... > %.",
"~   c $.$.$.%.$.$.$.%.Q   X [ %.%.{ . q %.%.$.o : %.%.%.v   > %.",
"~   - e e e e e e @.%.Q   ; - K J :   T %.%.%.i   , H k @ & > %.",
"~                 @.$.Q   S 2       l %.%.%.$.[ #       L 2 > %.",
"..Q Q Q R Q Q Q E $.$...Q  .@.I z R %.%.%.%.$.%.{ M b ` %.( / %.",
"$.$.$.%.%.%.%.%.$.%.%.%.%.%.%.%.%.2 @.$.$.$.%.%.%.%.%.%.%.%.%.%.",
"%.$.$...%.%.%.#.$.%.%.%.%.%.%.%.%.& X.%.%.%.%.$.%.%.%.%.%.%.%.%.",
"%.@ v   6 O.6 & ~ %.%.} 6 > F $.R @ l m %.%.A g T %.$.) | ) ~ $.",
"%.O t ( , 6 n Z , $.$.2 y B @ ' R $ a h %.Z O i o Q $.s p o s %.",
"%.# Q %.m : $.$.- @.[ # %.%.n k %.3 ] $.%.: ^ %.L q $.h - { %.%.",
"$.% ..%.L y %.%.q ( T < L L N 9 %.6 ) $.$.o } X.| % $.l d %.%.%.",
"%.- X.%.Q u %.%.u R U @ 6 4 3 y %.q / $...  .       @.z M %.%.%.",
"%.> } %./ e %.%.a I ] = %.%.$.%.$.e Q %.$.o o.$.@.O.$.m M %.%.%.",
"$.2 { %.) 7 %.%.d I @.@ ) %.%.%.%.h H %.%.1 L %.%.%.%.B b %.%.%.",
"$.8 ) %.` 6 %.%.h G $.N @ v c s %.G 6 L o.S * H ) l %.Z z %.%.%.",
"%./ O.%.O.I %.%.Q ] %.%.Z 6 t R %.O.b : ) %.v + X p %.D k %.%.%.",
"%.$.%.%.%.%.%.%.%.%.%.%.%.%.%.%.%.%.%.%.%.%.%.$.#.$.%.$.#.%.%.%."
};
