/* XPM */
static char *eficas__[] = {
/* columns rows colors chars-per-pixel */
"16 16 64 1",
"  c #624D273E13CD",
". c #639A27DD13F4",
"X c #6EDC2C4B1640",
"o c #71B72D8316D6",
"O c #73FD2E611723",
"+ c #8D8938911C60",
"@ c #91963A3C1D36",
"# c #94CD3B861DE8",
"$ c #9F023F9C1FD6",
"% c #A1E340B92064",
"& c #A21D40E92073",
"* c #A32F413A20C6",
"= c #A52442142105",
"- c #A94843B121D5",
"; c #ABF844D32266",
": c #AE10459A22D9",
"> c #B0F646BD2384",
", c #B206474823A0",
"< c #B35347BF23DD",
"1 c #B37D47CA23E6",
"2 c #B52548712439",
"3 c #B9BE4A5A2531",
"4 c #BAB54ACC255A",
"5 c #BCBA4B8525C5",
"6 c #C02F4CE92673",
"7 c #C1C04D6B26D7",
"8 c #C2B84E0F26FD",
"9 c #C56B4EE32773",
"0 c #C6A24F6C27AC",
"q c #C8B3505A2838",
"w c #CBB2518028CF",
"e c #CCB951E72908",
"r c #CE2952702949",
"t c #CEF352E42989",
"y c #D14F53B829DD",
"u c #D2E6547A2A42",
"i c #D59B55B72ADA",
"p c #D9FF579C2BC7",
"a c #DB1357BF2BCE",
"s c #DC7D58242C2C",
"d c #DFBE59A62CCF",
"f c #E17D5A312D1D",
"g c #E3B75B172D8B",
"h c #E36D5B3C2DC0",
"j c #E6145C352E0C",
"k c #E66F5C392E29",
"l c #E7B35CB52E54",
"z c #E90F5D262EB1",
"x c #EAC55E1C2F3B",
"c c #EE2E5F3D2FB2",
"v c #F00E5FFB3008",
"b c #F142607E3045",
"n c #F25260EB307F",
"m c #F315615130B1",
"M c #F53962123112",
"N c #F62D62B7315D",
"B c #F75A6303317F",
"V c #F8E7639F31D2",
"C c #F94B64113207",
"Z c #FB5664FA3288",
"A c #FC0D658332C1",
"S c #FCBE65183291",
"D c #FEF766173310",
"F c None",
/* pixels */
"FFFFFFFFFFFFFFFF",
"FFFFFFFFFFFFFFFF",
"FFFFFFFFFFFFFFFF",
"FFFFFFFFFFFFFFFF",
"FFDFFFFFFFFFFFFF",
"FDM9Dbr=ZfFFFFDw",
"Fu#:w@<6roFZFb>o",
"FVlaMlrw+FFzrMbz",
"Fy*3r*39*FZf3Frl",
"Du<a.FiqZFZMulu7",
"vc7;FF6Ff2=$2fsX",
"F FFFFFFFFFFFFFF",
"FFFFFFFFFFFFFFFF",
"FFFFFFFFFFFFFFFF",
"FFFFFFFFFFFFFFFF",
"FFFFFFFFFFFFFFFF"
};
