/* XPM */
static char * enigma_xpm[] = {
"32 32 9 1",
" 	c None",
".	c #000100",
"+	c #2F302E",
"@	c #545653",
"#	c #676966",
"$	c #9C9E9B",
"%	c #B6B8B5",
"&	c #F7F9F6",
"*	c #131512",
"             ......             ",
"          ............          ",
"        ................        ",
"      ....................      ",
"     ......................     ",
"    ..******................    ",
"   ..**+++++*................   ",
"   ..*++@##@+*...............   ",
"  ...*+@$%%$#+*...............  ",
"  ...*+#%&&&%#+...............  ",
" ....*+#%&&&&$+*............... ",
" ....*+@$&&&&%@*............... ",
" .....*+#%&&&%@*............... ",
".......*+#$%%#+.................",
"........*++@@+*.................",
"..........***...................",
"................................",
"................................",
"................................",
" ...............................",
" .............................. ",
" .............................. ",
"  ............................. ",
"  ............................  ",
"   ..........................   ",
"   ..........................   ",
"    ........................    ",
"     ......................     ",
"      ....................      ",
"        ................        ",
"          .............         ",
"             .......            "};
