/* XPM */
static char *faustworks[] = {
/* columns rows colors chars-per-pixel */
"32 32 231 2 ",
"   c #0C1CAD",
".  c #0B0BB7",
"X  c #0A0BBC",
"o  c #0E16B7",
"O  c #0B18B1",
"+  c #0B14BC",
"@  c #0E1ABC",
"#  c #101EBC",
"$  c #0D2BA6",
"%  c #0F4495",
"&  c #0D6F9B",
"*  c #0D7396",
"=  c #0D759C",
"-  c #0D7D9C",
";  c #0A50B5",
":  c #095FB7",
">  c #0959B9",
",  c #0B6CAA",
"<  c #0C75A1",
"1  c #0D7EA2",
"2  c #0C75AC",
"3  c #0C7AAD",
"4  c #0A65B4",
"5  c #0964BD",
"6  c #0B7AB3",
"7  c #0B75BA",
"8  c #073AC9",
"9  c #052BD6",
"0  c #0537D7",
"q  c #0539D7",
"w  c #0436DD",
"e  c #053CD9",
"r  c #0409E8",
"t  c #0210EE",
"y  c #010AF6",
"u  c #0107F8",
"i  c #000EFF",
"p  c #0215F7",
"a  c #021BF6",
"s  c #0114FF",
"d  c #021BFF",
"f  c #0327E7",
"g  c #042FE0",
"h  c #0435E4",
"j  c #0439E2",
"k  c #043AEC",
"l  c #0124F6",
"z  c #032DF7",
"x  c #0222FE",
"c  c #032BFE",
"v  c #152CFF",
"b  c #0435F5",
"n  c #053CF6",
"m  c #0333FE",
"M  c #053BFF",
"N  c #0A3CFF",
"B  c #1339FF",
"V  c #1D38FE",
"C  c #074BC6",
"Z  c #0855C1",
"A  c #075BC3",
"S  c #085CC7",
"D  c #0644D3",
"F  c #0544DA",
"G  c #064AD9",
"H  c #0754D4",
"J  c #075AD7",
"K  c #0650DD",
"L  c #0965C5",
"P  c #0965CB",
"I  c #0A6ACB",
"U  c #0C74C6",
"Y  c #0D75CB",
"T  c #0960D0",
"R  c #0542E2",
"E  c #064DE1",
"W  c #0546E9",
"Q  c #0752E1",
"!  c #0853ED",
"~  c #0541F6",
"^  c #0844F7",
"/  c #0B4DF6",
"(  c #0643FE",
")  c #0946FF",
"_  c #064BFF",
"`  c #084AFF",
"'  c #144BFE",
"]  c #1A4AFF",
"[  c #0B54F5",
"{  c #0E59F6",
"}  c #0B54FE",
"|  c #0D5BFE",
" . c #105CF6",
".. c #1656FF",
"X. c #125BFF",
"o. c #1C5BFF",
"O. c #204EFF",
"+. c #2D4CFD",
"@. c #3246FF",
"#. c #384CFF",
"$. c #2350FF",
"%. c #2E54FF",
"&. c #3056FF",
"*. c #3F55FF",
"=. c #3C5FFF",
"-. c #0E6DE1",
";. c #0E60FD",
":. c #0D68FE",
">. c #1464F6",
",. c #1768F6",
"<. c #196CF6",
"1. c #1164FE",
"2. c #136BFE",
"3. c #1C6AFE",
"4. c #1E72F6",
"5. c #1671FE",
"6. c #1974FE",
"7. c #1C7AFE",
"8. c #2364E7",
"9. c #2263FF",
"0. c #2E64FF",
"q. c #2E6EFF",
"w. c #3263FF",
"e. c #336BFF",
"r. c #3D6FFF",
"t. c #2175F6",
"y. c #267BF6",
"u. c #297EF6",
"i. c #2673FE",
"p. c #207FFE",
"a. c #287BFE",
"s. c #3570FF",
"d. c #3B73FF",
"f. c #3B79FE",
"g. c #445BFF",
"h. c #4F6DFF",
"j. c #516EFF",
"k. c #4071FF",
"l. c #407BFE",
"z. c #5377FF",
"x. c #0E888F",
"c. c #0F938C",
"v. c #0E8A94",
"b. c #0D839C",
"n. c #0E8A9C",
"m. c #10969D",
"M. c #11999E",
"N. c #0D81A3",
"B. c #0F8DA1",
"V. c #0D82A9",
"C. c #0E88A8",
"Z. c #1197A4",
"A. c #1193A9",
"S. c #108BB6",
"D. c #1187BC",
"F. c #1189BC",
"G. c #2484FE",
"H. c #2F82FE",
"J. c #2A8BFE",
"K. c #3285FE",
"L. c #3D80FE",
"P. c #358CFE",
"I. c #3B8BFE",
"U. c #3B93FE",
"Y. c #4483FE",
"T. c #448DFE",
"R. c #4F88FF",
"E. c #5287FF",
"W. c #5983FF",
"Q. c #538DFE",
"!. c #598BFF",
"~. c #4395FE",
"^. c #4B93FE",
"/. c #4399FE",
"(. c #4D9CFE",
"). c #5693FE",
"_. c #5D95FE",
"`. c #539AFE",
"'. c #5E9AFE",
"]. c #6A80FF",
"[. c #6295FE",
"{. c #6993FF",
"}. c #609AFE",
"|. c #6F9DFE",
" X c #7594FF",
".X c #7E91FF",
"XX c #759CFF",
"oX c #799BFF",
"OX c #59A3FE",
"+X c #63A6FE",
"@X c #65A9FE",
"#X c #6CADFE",
"$X c #73A2FE",
"%X c #75AAFE",
"&X c #7CACFE",
"*X c #76B0FE",
"=X c #7BB3FE",
"-X c #7EB8FE",
";X c #8D9BFF",
":X c #81ACFE",
">X c #8DABFF",
",X c #96ADFF",
"<X c #9DABFF",
"1X c #84B3FE",
"2X c #8CB7FE",
"3X c #8BBCFE",
"4X c #9DB6FF",
"5X c #A4B3FF",
"6X c #A1B9FF",
"7X c #ADBFFF",
"8X c #95C2FE",
"9X c #9EC9FE",
"0X c #ADC3FF",
"qX c #A4CBFE",
"wX c #AACEFE",
"eX c #B1CCFF",
"rX c #AFD2FE",
"tX c #BBD5FE",
"yX c #C2D5FF",
"uX c #CED3FF",
"iX c #C5DAFF",
"pX c #CCDBFF",
"aX c #D1D8FF",
"sX c #CAE1FE",
"dX c #D0E4FF",
"fX c #DDE5FF",
"gX c #DEE9FF",
"hX c #EFF5FF",
"jX c #F0F3FF",
"kX c #F5F9FF",
"lX c None",
/* pixels */
"lXo # # @ # # @ @ @ @ + @ + + + + + + + + + + + X + X + X X . lX",
"o 8.y.y.t.4.4.<.<.,.>.>. . .{ { / / ^ ^ n b m z l l a a p y r . ",
"# H.J.J.G.G.G.7.7.6.5.2.:.1.;.| } } } ! U I 7 E n c x d s i y X ",
"# u.J.J.G.G.p.7.7.6.5.5.2.1.;.| X.} Y M.B.C.V.B.N.k x d s i y X ",
"o u.J.J.G.G.p.7.7.6.5.2.:.1.;.| } S.M.U ! ~ n E 3 b.F s s i y X ",
"# G.J.J.G.G.p.p.7.6.5.5.2.1.;.| -.Z.Y ` ( M M m b 3 5 z s i y X ",
"# H.J.J.G.G.p.7.7.5.5.2.2.;.;.| F.A.[ ` ( ( M m c G b.h s i y X ",
"  u.J.J.G.G.G.7.7.6.5.5.2.1.;.;.S.S.` ` ( M m m c k 1 D s i y X ",
"# u.J.J.G.G.G.7.7.6.5.2.2.1.| >.S.S.` ` ( M m m c k 1 D i i y X ",
"# H.J.J.G.G.p.7.7.6.5.5.2.1.;.| F.Z.[ ( ( M M m c G b.h i i y X ",
"  u.J.J.G.G.G.7.7.6.5.2.2.;.;.| -.Z.Y ` ) M m m b 3 v.4 Z e u X ",
"# u.J.J.G.G.7.7.6.6.6.2.2.1.;.| } S.M.Y ! ~ n E 3 b.v.- - > t X ",
"# u.J.J.G.G.G.7.7.6.6.2.:.1.;.| | } Y m.B.C.V.n.V.5 c.e e x.8 X ",
"# u.J.J.G.G.G.7.6.6.5.2.:.1.;.| } } [ ! U I 7 K k z 4 - - > y X ",
"# H.J.G.G.G.G.7.7.6.5.2.2.1.| | } } ` ( ( M M m c R 4 - 4 0 u . ",
"# u.J.J.G.G.7.7.7.6.5.2.2.1.;.| } } ` ` ) M m W 5 V.- - 4 C y X ",
"# u.J.J.G.G.p.7.6.6.5.5.:.1.;.| | } ` ( ( M ~ L n.S j j 4 = 9 . ",
"# u.J.J.G.G.p.7.7.6.5.2.2.1.;.| } } ` ` ( M T v.H c d d s > *   ",
"# u.J.J.G.p.p.7.7.5.5.2.1.1.| } } } _ ` ( M P V.z c x d i g = $ ",
"# u.J.(.(.P.G.P.7.7.a.2.i.3.3.f.q.9.e.e.w.' 6 3 z c d d s f = % ",
"# u.U.9X#X~.`.wXK.I.%X:._.).$X[.E.d.{.4XW.] J n.k x x d s 8 = O ",
"# y./.qX+XU.*X=X'.I.&X:.'._.&X[.q.} o.oX) M Q 3 3 k x l e < ; O ",
"o G./.9XOX(.qX=X3XT.=X:.'.Q.3.R.>Xe.o.oX) M m K b.N., , < , t X ",
"# y./.3XG.+X*X^.2X`.1X).1XL.Y.f.&Xs.o. X) M m M b A A 4 w p y X ",
"# H.U.OXJ.(.U.7.T.K.T.&X).1.Y.|.!.X.' k.' N ] N B +.V d s i y X ",
"  y.(.tXU.rX3X`.wXI.wXeXtX_.Y.pXeX0Xo.>X X X,X&.5X5X;Xv s i y X ",
"# y.U.sX-XiXwX3XqX1XtXa.%XtX[.pXXXpX0.6XfX0X$.%.aX.X*.d i i u . ",
"# H.J.wXsX8XwXdX%X2XrX:.'.iX[.fXyXeX..6XjX7X] m h.<XuX@.i i y X ",
"  G.J.-XkX@X8XhX^.^.pX2XtX>XQ.yXd.yXW.6X>X,X5X=..X;XaX#.s i y X ",
"# G.J.U.#XP.U.@XG.6.T.%X'.3.i.R.X.l.d.r.0.' z.&.h.].g.d s i y X ",
"o 8.y.t.t.4.4.<.<.,.>. . .[ [ [ / / ~ n b b z z a a a a p y r . ",
"lXo # # # @ @ @ @ @ @ @ + + @ + + + + + + + + + X + + X X X . lX"
};
