/* XPM */
static char * felix_xpm[] = {
"32 32 1023 2",
"  	c None",
". 	c #D5B98A",
"+ 	c #E7CEA0",
"@ 	c #EAD3A5",
"# 	c #D6C194",
"$ 	c #BCAC83",
"% 	c #5A5136",
"& 	c #4B5142",
"* 	c #6D6E59",
"= 	c #6E6F58",
"- 	c #69684E",
"; 	c #59583F",
"> 	c #696B55",
", 	c #6D715E",
"' 	c #686750",
") 	c #616352",
"! 	c #585644",
"~ 	c #646656",
"{ 	c #5A5B47",
"] 	c #595645",
"^ 	c #58543E",
"/ 	c #63604D",
"( 	c #5B5A43",
"_ 	c #605D4D",
": 	c #615F4C",
"< 	c #565240",
"[ 	c #404432",
"} 	c #4C3F31",
"| 	c #836E53",
"1 	c #D8BA89",
"2 	c #DEC295",
"3 	c #E5CD9B",
"4 	c #DFC490",
"5 	c #E0C999",
"6 	c #B39A6C",
"7 	c #E4D1A1",
"8 	c #998761",
"9 	c #514D38",
"0 	c #4D4E3D",
"a 	c #6C6F56",
"b 	c #79806C",
"c 	c #757760",
"d 	c #6D6F54",
"e 	c #7C7E67",
"f 	c #6B684C",
"g 	c #4F442D",
"h 	c #4A3A25",
"i 	c #4C3D2A",
"j 	c #483621",
"k 	c #5F492C",
"l 	c #42352A",
"m 	c #423626",
"n 	c #656556",
"o 	c #626456",
"p 	c #5F5D49",
"q 	c #5B5B45",
"r 	c #5B5A44",
"s 	c #656655",
"t 	c #67654F",
"u 	c #6C6A57",
"v 	c #675C44",
"w 	c #C4A57B",
"x 	c #C3A471",
"y 	c #DAC093",
"z 	c #C6AD78",
"A 	c #EED5A7",
"B 	c #CEB589",
"C 	c #C0AD86",
"D 	c #4E4A34",
"E 	c #605A41",
"F 	c #736D50",
"G 	c #7A8067",
"H 	c #7A7F69",
"I 	c #6E735E",
"J 	c #696B54",
"K 	c #86896D",
"L 	c #4E4431",
"M 	c #5F4B30",
"N 	c #463726",
"O 	c #472F21",
"P 	c #513222",
"Q 	c #745634",
"R 	c #47291C",
"S 	c #664C31",
"T 	c #51412F",
"U 	c #5A5945",
"V 	c #656754",
"W 	c #545547",
"X 	c #585D50",
"Y 	c #5D5D4B",
"Z 	c #5C5D4F",
"` 	c #5E6357",
" .	c #666857",
"..	c #78735D",
"+.	c #CCB284",
"@.	c #E8D4A4",
"#.	c #F2DEB3",
"$.	c #D1B78A",
"%.	c #A58F6B",
"&.	c #5D5942",
"*.	c #615A3E",
"=.	c #979374",
"-.	c #84886E",
";.	c #75765D",
">.	c #7B7E67",
",.	c #757C67",
"'.	c #737D66",
").	c #473F29",
"!.	c #4F3423",
"~.	c #3E2B24",
"{.	c #4E3727",
"].	c #624932",
"^.	c #774E2B",
"/.	c #885829",
"(.	c #6D4325",
"_.	c #5F3F26",
":.	c #351F16",
"<.	c #382E22",
"[.	c #6D6D58",
"}.	c #505044",
"|.	c #505A51",
"1.	c #5C5F54",
"2.	c #6C7567",
"3.	c #626453",
"4.	c #666C5B",
"5.	c #69654E",
"6.	c #766A50",
"7.	c #EFDBB1",
"8.	c #EEDDAD",
"9.	c #D6BD94",
"0.	c #8C8469",
"a.	c #817D60",
"b.	c #7F7A5C",
"c.	c #8F8F72",
"d.	c #898B72",
"e.	c #777A5E",
"f.	c #72745B",
"g.	c #737B65",
"h.	c #63634C",
"i.	c #4B2E22",
"j.	c #49321B",
"k.	c #70421F",
"l.	c #A36C37",
"m.	c #6F431E",
"n.	c #5A371E",
"o.	c #664226",
"p.	c #624028",
"q.	c #683D20",
"r.	c #9D632D",
"s.	c #4E3318",
"t.	c #584F3F",
"u.	c #545C54",
"v.	c #50584D",
"w.	c #52584D",
"x.	c #5A5F53",
"y.	c #676B57",
"z.	c #696A54",
"A.	c #74755E",
"B.	c #575C4A",
"C.	c #867753",
"D.	c #C4B48B",
"E.	c #817759",
"F.	c #857F65",
"G.	c #8D8A6A",
"H.	c #79775B",
"I.	c #807D61",
"J.	c #75775E",
"K.	c #7C7D65",
"L.	c #7B7C61",
"M.	c #6C765D",
"N.	c #49442B",
"O.	c #674323",
"P.	c #6F3C25",
"Q.	c #56311D",
"R.	c #764D32",
"S.	c #8E5931",
"T.	c #76442A",
"U.	c #AE7741",
"V.	c #6B3B1D",
"W.	c #815430",
"X.	c #512E1D",
"Y.	c #67462A",
"Z.	c #623A1C",
"`.	c #65695A",
" +	c #676D5D",
".+	c #646A58",
"++	c #5B5E48",
"@+	c #5E604C",
"#+	c #6D715D",
"$+	c #70735D",
"%+	c #64664A",
"&+	c #5B5D45",
"*+	c #948664",
"=+	c #838165",
"-+	c #8A8C70",
";+	c #908E6F",
">+	c #858265",
",+	c #6B694A",
"'+	c #78795C",
")+	c #85896B",
"!+	c #808164",
"~+	c #7D8366",
"{+	c #4F412D",
"]+	c #493322",
"^+	c #6A4528",
"/+	c #754021",
"(+	c #865127",
"_+	c #BD7F45",
":+	c #B1723A",
"<+	c #DBA96D",
"[+	c #C08A4F",
"}+	c #C69561",
"|+	c #6D4527",
"1+	c #614228",
"2+	c #473525",
"3+	c #645E49",
"4+	c #676E5F",
"5+	c #6A6F5D",
"6+	c #6D7361",
"7+	c #6D7058",
"8+	c #70735E",
"9+	c #717355",
"0+	c #716F53",
"a+	c #6D6C50",
"b+	c #8B8663",
"c+	c #8A8E6C",
"d+	c #92916E",
"e+	c #959572",
"f+	c #7B7453",
"g+	c #858260",
"h+	c #7C7B5D",
"i+	c #707052",
"j+	c #797C5D",
"k+	c #4D4632",
"l+	c #483927",
"m+	c #563727",
"n+	c #472A17",
"o+	c #965832",
"p+	c #CA8C4E",
"q+	c #E4A95C",
"r+	c #F2CB8C",
"s+	c #EBC286",
"t+	c #EDC587",
"u+	c #E0B16D",
"v+	c #915929",
"w+	c #4D2B1A",
"x+	c #453121",
"y+	c #2F231C",
"z+	c #605C46",
"A+	c #6D6F5E",
"B+	c #6F725F",
"C+	c #6C705C",
"D+	c #6D6C52",
"E+	c #6C6D53",
"F+	c #7D7D61",
"G+	c #72724C",
"H+	c #7A7B5C",
"I+	c #8E8B6A",
"J+	c #9A9A7B",
"K+	c #9A9B7B",
"L+	c #747350",
"M+	c #868563",
"N+	c #8F9273",
"O+	c #646542",
"P+	c #48442C",
"Q+	c #513E2D",
"R+	c #4E3522",
"S+	c #674123",
"T+	c #703F22",
"U+	c #AC6D38",
"V+	c #9C6335",
"W+	c #9D6336",
"X+	c #AF7241",
"Y+	c #E4B674",
"Z+	c #D7A96F",
"`+	c #84421A",
" @	c #93552D",
".@	c #7B4420",
"+@	c #593B24",
"@@	c #433324",
"#@	c #5B5949",
"$@	c #717563",
"%@	c #6F6D56",
"&@	c #787A66",
"*@	c #67664D",
"=@	c #666753",
"-@	c #7F846F",
";@	c #87886D",
">@	c #6E7159",
",@	c #8E8C67",
"'@	c #92906C",
")@	c #8D8969",
"!@	c #9E9E7D",
"~@	c #777856",
"{@	c #696C48",
"]@	c #6E6E50",
"^@	c #5B5034",
"/@	c #483620",
"(@	c #4E3423",
"_@	c #5C3A23",
":@	c #74482D",
"<@	c #CF945D",
"[@	c #925A38",
"}@	c #8A5F43",
"|@	c #A56944",
"1@	c #CC945A",
"2@	c #C29462",
"3@	c #613A24",
"4@	c #804B2D",
"5@	c #7E4B30",
"6@	c #4B2F1A",
"7@	c #3D2E23",
"8@	c #5D5643",
"9@	c #767562",
"0@	c #686951",
"a@	c #72765F",
"b@	c #747661",
"c@	c #666956",
"d@	c #84826D",
"e@	c #898E77",
"f@	c #72765D",
"g@	c #898A67",
"h@	c #929470",
"i@	c #9D9E7D",
"j@	c #818360",
"k@	c #787B58",
"l@	c #878B6B",
"m@	c #6C7659",
"n@	c #5C553E",
"o@	c #533721",
"p@	c #704D35",
"q@	c #654026",
"r@	c #815433",
"s@	c #B17D4D",
"t@	c #A47145",
"u@	c #955A36",
"v@	c #BF8959",
"w@	c #CA9760",
"x@	c #EBC68F",
"y@	c #CA9462",
"z@	c #C08554",
"A@	c #956E3E",
"B@	c #553925",
"C@	c #3F2F26",
"D@	c #5D5842",
"E@	c #767762",
"F@	c #7A806E",
"G@	c #808571",
"H@	c #7B7E6A",
"I@	c #767861",
"J@	c #777966",
"K@	c #858A74",
"L@	c #777B63",
"M@	c #919571",
"N@	c #939975",
"O@	c #6D6F4E",
"P@	c #7C7955",
"Q@	c #949877",
"R@	c #898F6F",
"S@	c #7E825F",
"T@	c #5F593F",
"U@	c #342C24",
"V@	c #614127",
"W@	c #693B25",
"X@	c #845531",
"Y@	c #B78856",
"Z@	c #D9AE7B",
"`@	c #DEB883",
" #	c #CE9F6B",
".#	c #BF894E",
"+#	c #E3BF8C",
"@#	c #E5BB86",
"##	c #DFB482",
"$#	c #957045",
"%#	c #432F22",
"&#	c #413626",
"*#	c #726F56",
"=#	c #76765F",
"-#	c #6D6E58",
";#	c #63624D",
">#	c #80826C",
",#	c #797C68",
"'#	c #7E7F68",
")#	c #878A74",
"!#	c #75775F",
"~#	c #868461",
"{#	c #969875",
"]#	c #9A9B78",
"^#	c #898864",
"/#	c #868B67",
"(#	c #898968",
"_#	c #666A48",
":#	c #696549",
"<#	c #3B2F21",
"[#	c #4B3B2C",
"}#	c #A87A4E",
"|#	c #986D44",
"1#	c #A97449",
"2#	c #CDA16C",
"3#	c #E4BB84",
"4#	c #DBA86D",
"5#	c #C18C5C",
"6#	c #D4A973",
"7#	c #E0B380",
"8#	c #DDB27E",
"9#	c #724D2D",
"0#	c #4A3A2E",
"a#	c #6C6951",
"b#	c #716E59",
"c#	c #7A7861",
"d#	c #767259",
"e#	c #75735C",
"f#	c #72745C",
"g#	c #7A7962",
"h#	c #7D7E68",
"i#	c #848873",
"j#	c #6E715E",
"k#	c #8C8F6B",
"l#	c #7D7D59",
"m#	c #80825D",
"n#	c #919470",
"o#	c #54543A",
"p#	c #686645",
"q#	c #787758",
"r#	c #858B6B",
"s#	c #717254",
"t#	c #3C2E21",
"u#	c #7B5631",
"v#	c #996B3F",
"w#	c #AA784C",
"x#	c #C59669",
"y#	c #CBA16C",
"z#	c #C4915C",
"A#	c #9A5B30",
"B#	c #AE7745",
"C#	c #D2A974",
"D#	c #D8B07C",
"E#	c #785631",
"F#	c #907648",
"G#	c #747360",
"H#	c #737058",
"I#	c #6F694F",
"J#	c #7F7E68",
"K#	c #73745D",
"L#	c #818168",
"M#	c #6F6C51",
"N#	c #7D7E67",
"O#	c #838672",
"P#	c #737862",
"Q#	c #939771",
"R#	c #8C8F6D",
"S#	c #7B805C",
"T#	c #7F8160",
"U#	c #77714E",
"V#	c #6D6D4D",
"W#	c #5C593A",
"X#	c #858363",
"Y#	c #868366",
"Z#	c #838469",
"`#	c #9E6D33",
" $	c #9A6A37",
".$	c #B9844C",
"+$	c #B68956",
"@$	c #B99060",
"#$	c #A17344",
"$$	c #814C2B",
"%$	c #7C4A29",
"&$	c #AD8253",
"*$	c #AB8D60",
"=$	c #503B21",
"-$	c #6D6A51",
";$	c #6B664A",
">$	c #605940",
",$	c #7C755C",
"'$	c #82816E",
")$	c #706C55",
"!$	c #696951",
"~$	c #7E826C",
"{$	c #85866E",
"]$	c #787A60",
"^$	c #959E7B",
"/$	c #8B9271",
"($	c #8C9574",
"_$	c #838965",
":$	c #898E6B",
"<$	c #676747",
"[$	c #635B3F",
"}$	c #7D785A",
"|$	c #8E8A6B",
"1$	c #7F795A",
"2$	c #968D6E",
"3$	c #9E754A",
"4$	c #B27C42",
"5$	c #C69052",
"6$	c #CA9C5D",
"7$	c #B8894F",
"8$	c #8C5932",
"9$	c #996540",
"0$	c #D0AC78",
"a$	c #776347",
"b$	c #554731",
"c$	c #706953",
"d$	c #7D7A5F",
"e$	c #6F6950",
"f$	c #7A775E",
"g$	c #75765E",
"h$	c #777660",
"i$	c #7C7C61",
"j$	c #7C7F6B",
"k$	c #888C78",
"l$	c #858872",
"m$	c #777D66",
"n$	c #8E9572",
"o$	c #959A77",
"p$	c #878E6E",
"q$	c #767D60",
"r$	c #777C59",
"s$	c #797859",
"t$	c #747659",
"u$	c #6A674F",
"v$	c #918F6F",
"w$	c #746D4F",
"x$	c #574635",
"y$	c #76512A",
"z$	c #AE763A",
"A$	c #BA803F",
"B$	c #C18A49",
"C$	c #C18D54",
"D$	c #8D6A44",
"E$	c #CD9C60",
"F$	c #A5865B",
"G$	c #6D654D",
"H$	c #5E573E",
"I$	c #656149",
"J$	c #696751",
"K$	c #7B7660",
"L$	c #75735A",
"M$	c #7D7A63",
"N$	c #858770",
"O$	c #7F8069",
"P$	c #7F826C",
"Q$	c #737A66",
"R$	c #7B806C",
"S$	c #70745E",
"T$	c #838C6E",
"U$	c #8D916F",
"V$	c #909270",
"W$	c #858A6A",
"X$	c #808566",
"Y$	c #7F8469",
"Z$	c #6F735C",
"`$	c #6F6C55",
" %	c #33251B",
".%	c #4D3226",
"+%	c #7E522E",
"@%	c #BD8246",
"#%	c #BF8547",
"$%	c #B97E44",
"%%	c #C2874C",
"&%	c #7E5E3C",
"*%	c #B58953",
"=%	c #7E6744",
"-%	c #776F56",
";%	c #706A53",
">%	c #65644C",
",%	c #6C6653",
"'%	c #726D57",
")%	c #6C654B",
"!%	c #706E58",
"~%	c #787D68",
"{%	c #73745F",
"]%	c #696C58",
"^%	c #667267",
"/%	c #81876E",
"(%	c #7C7E65",
"_%	c #8D9370",
":%	c #777A57",
"<%	c #7B8264",
"[%	c #909677",
"}%	c #6E7860",
"|%	c #727961",
"1%	c #73775C",
"2%	c #5F6047",
"3%	c #33241D",
"4%	c #36251D",
"5%	c #613A28",
"6%	c #A57441",
"7%	c #C3884D",
"8%	c #BE8248",
"9%	c #C2874A",
"0%	c #C48448",
"a%	c #7E5B38",
"b%	c #B69960",
"c%	c #786549",
"d%	c #6D6B52",
"e%	c #635D42",
"f%	c #5D5841",
"g%	c #6A6652",
"h%	c #817C69",
"i%	c #6E694D",
"j%	c #5F604B",
"k%	c #6A6B57",
"l%	c #6B725F",
"m%	c #777B68",
"n%	c #787C69",
"o%	c #888E76",
"p%	c #7E8066",
"q%	c #929874",
"r%	c #7A805D",
"s%	c #878E71",
"t%	c #6C7156",
"u%	c #797F61",
"v%	c #727357",
"w%	c #33281B",
"x%	c #392620",
"y%	c #3A231D",
"z%	c #40271D",
"A%	c #815438",
"B%	c #BE8B57",
"C%	c #C1854A",
"D%	c #C08547",
"E%	c #A66D3B",
"F%	c #B57B4B",
"G%	c #A27145",
"H%	c #92643C",
"I%	c #875F41",
"J%	c #715840",
"K%	c #6E6851",
"L%	c #6B6954",
"M%	c #635D46",
"N%	c #7F7963",
"O%	c #808167",
"P%	c #7D7A61",
"Q%	c #83836D",
"R%	c #666D5D",
"S%	c #767C67",
"T%	c #657162",
"U%	c #818870",
"V%	c #777A60",
"W%	c #868865",
"X%	c #8E936F",
"Y%	c #767D61",
"Z%	c #636950",
"`%	c #4B493A",
" &	c #373027",
".&	c #3C3023",
"+&	c #37231E",
"@&	c #402821",
"#&	c #522F21",
"$&	c #855B3B",
"%&	c #B8844A",
"&&	c #B2773D",
"*&	c #AC743E",
"=&	c #A1582C",
"-&	c #A97546",
";&	c #5E3F23",
">&	c #7A582E",
",&	c #654728",
"'&	c #87694A",
")&	c #6B5C46",
"!&	c #6D6E5C",
"~&	c #66634F",
"{&	c #6F674A",
"]&	c #7A4A26",
"^&	c #A26328",
"/&	c #A1652E",
"(&	c #8E5726",
"_&	c #966332",
":&	c #795D34",
"<&	c #33372D",
"[&	c #635E45",
"}&	c #868662",
"|&	c #8D9776",
"1&	c #555C44",
"2&	c #3A4138",
"3&	c #303529",
"4&	c #3A3325",
"5&	c #372A23",
"6&	c #3F291B",
"7&	c #43261D",
"8&	c #4E2D22",
"9&	c #765339",
"0&	c #B48249",
"a&	c #B78852",
"b&	c #965327",
"c&	c #A35F33",
"d&	c #AD7C49",
"e&	c #65482B",
"f&	c #8F6A3E",
"g&	c #553C23",
"h&	c #735234",
"i&	c #7E7159",
"j&	c #5B513F",
"k&	c #645F48",
"l&	c #4F331E",
"m&	c #512E1B",
"n&	c #7F502B",
"o&	c #744623",
"p&	c #714120",
"q&	c #7E4D27",
"r&	c #814F28",
"s&	c #393024",
"t&	c #7F7D61",
"u&	c #7A795C",
"v&	c #7C815E",
"w&	c #3B3A29",
"x&	c #3F4639",
"y&	c #3D4539",
"z&	c #3E3529",
"A&	c #32201A",
"B&	c #402E20",
"C&	c #573525",
"D&	c #4B291F",
"E&	c #5E442B",
"F&	c #7A562D",
"G&	c #92683B",
"H&	c #A96939",
"I&	c #B47548",
"J&	c #A37345",
"K&	c #AC7944",
"L&	c #957746",
"M&	c #6F5D3C",
"N&	c #694E30",
"O&	c #746149",
"P&	c #6E5640",
"Q&	c #68523C",
"R&	c #422416",
"S&	c #5E371D",
"T&	c #5A321C",
"U&	c #593118",
"V&	c #562C1B",
"W&	c #5A3419",
"X&	c #5D3B26",
"Y&	c #504E40",
"Z&	c #74775B",
"`&	c #6C6C47",
" *	c #4B4937",
".*	c #423F36",
"+*	c #3F4939",
"@*	c #4A4C38",
"#*	c #363525",
"$*	c #463C2B",
"%*	c #3B2D25",
"&*	c #553B2B",
"**	c #5B3723",
"=*	c #584028",
"-*	c #3F482D",
";*	c #865028",
">*	c #A16B3A",
",*	c #9A6537",
"'*	c #9E6D41",
")*	c #67512F",
"!*	c #7D633A",
"~*	c #334027",
"{*	c #6A492E",
"]*	c #7B6C4F",
"^*	c #695844",
"/*	c #482D1B",
"(*	c #54341D",
"_*	c #623C1F",
":*	c #553219",
"<*	c #684128",
"[*	c #744A32",
"}*	c #562F22",
"|*	c #43372D",
"1*	c #565641",
"2*	c #797B61",
"3*	c #545236",
"4*	c #484834",
"5*	c #484538",
"6*	c #474934",
"7*	c #454633",
"8*	c #404033",
"9*	c #433928",
"0*	c #3D3226",
"a*	c #533E2B",
"b*	c #5C3F2C",
"c*	c #5B432C",
"d*	c #73522C",
"e*	c #996333",
"f*	c #AC7D52",
"g*	c #9B6E3F",
"h*	c #966E46",
"i*	c #7B603C",
"j*	c #30482B",
"k*	c #32452A",
"l*	c #79634A",
"m*	c #73573E",
"n*	c #5E3C27",
"o*	c #472918",
"p*	c #5A351E",
"q*	c #59321E",
"r*	c #58341C",
"s*	c #5A3925",
"t*	c #BA724A",
"u*	c #9D7A57",
"v*	c #4C463A",
"w*	c #6D694F",
"x*	c #7D7B60",
"y*	c #3C3727",
"z*	c #56523C",
"A*	c #4F4B3A",
"B*	c #6F6C54",
"C*	c #4C4935",
"D*	c #413D30",
"E*	c #4F4630",
"F*	c #423722",
"G*	c #4A412F",
"H*	c #54422C",
"I*	c #543722",
"J*	c #80512E",
"K*	c #B28855",
"L*	c #A97542",
"M*	c #975F37",
"N*	c #7A502C",
"O*	c #967345",
"P*	c #384427",
"Q*	c #34482C",
"R*	c #795C40",
"S*	c #6A472F",
"T*	c #4E2A19",
"U*	c #4A2712",
"V*	c #5E351A",
"W*	c #56321B",
"X*	c #724B2D",
"Y*	c #A57045",
"Z*	c #784C31",
"`*	c #D28E5F",
" =	c #504D37",
".=	c #756F53",
"+=	c #666345",
"@=	c #3E3526",
"#=	c #3F3828",
"$=	c #4E4531",
"%=	c #646047",
"&=	c #404130",
"*=	c #524E37",
"==	c #3E362A",
"-=	c #423C2F",
";=	c #535343",
">=	c #2F281A",
",=	c #6F482E",
"'=	c #9E7143",
")=	c #B9905C",
"!=	c #AF8754",
"~=	c #844B2A",
"{=	c #4F5431",
"]=	c #473E28",
"^=	c #3A4D30",
"/=	c #2D482A",
"(=	c #604C34",
"_=	c #5E452C",
":=	c #482917",
"<=	c #634129",
"[=	c #51301C",
"}=	c #4E2D18",
"|=	c #5D3821",
"1=	c #764020",
"2=	c #D0935E",
"3=	c #A47B4B",
"4=	c #757053",
"5=	c #746F54",
"6=	c #807350",
"7=	c #746240",
"8=	c #3C3728",
"9=	c #584935",
"0=	c #605B46",
"a=	c #4E4A38",
"b=	c #555138",
"c=	c #433B2C",
"d=	c #555741",
"e=	c #484531",
"f=	c #453827",
"g=	c #78512D",
"h=	c #B98C54",
"i=	c #BD8F59",
"j=	c #9A6940",
"k=	c #3C4226",
"l=	c #435133",
"m=	c #2B3821",
"n=	c #405233",
"o=	c #364C2E",
"p=	c #4E462B",
"q=	c #432717",
"r=	c #5D3B20",
"s=	c #50311B",
"t=	c #4D2914",
"u=	c #4F2914",
"v=	c #9F663D",
"w=	c #D49D68",
"x=	c #B17A4C",
"y=	c #816D4B",
"z=	c #7A7256",
"A=	c #7D714B",
"B=	c #B49E75",
"C=	c #E0C993",
"D=	c #5E5236",
"E=	c #4B4332",
"F=	c #514833",
"G=	c #413A2B",
"H=	c #4D4A36",
"I=	c #403D2F",
"J=	c #4A4535",
"K=	c #3E3B2E",
"L=	c #5B4932",
"M=	c #926944",
"N=	c #A47643",
"O=	c #AE8655",
"P=	c #4E4A2B",
"Q=	c #3B5435",
"R=	c #425735",
"S=	c #38442E",
"T=	c #3C5234",
"U=	c #425534",
"V=	c #42311F",
"W=	c #4A2B19",
"X=	c #532D1A",
"Y=	c #4F2D1A",
"Z=	c #532F1A",
"`=	c #7A4E2F",
" -	c #9F6E44",
".-	c #A76E43",
"+-	c #855935",
"@-	c #766B4E",
"#-	c #6E6344",
"$-	c #C4AB7F",
"%-	c #E1C897",
"&-	c #CDB07C",
"*-	c #CCB47F",
"=-	c #594B32",
"--	c #2E2A1A",
";-	c #42382A",
">-	c #443F2A",
",-	c #424537",
"'-	c #2F2B20",
")-	c #493E2D",
"!-	c #7D694B",
"~-	c #825A38",
"{-	c #C29862",
"]-	c #8A6F44",
"^-	c #414E33",
"/-	c #394D33",
"(-	c #405234",
"_-	c #475234",
":-	c #404F31",
"<-	c #425033",
"[-	c #472F1B",
"}-	c #5A3A1F",
"|-	c #512A17",
"1-	c #4E2915",
"2-	c #5B361E",
"3-	c #5F3B27",
"4-	c #77462B",
"5-	c #915B39",
"6-	c #BB8D60",
"7-	c #7B7048",
"8-	c #9B835B",
"9-	c #D5C297",
"0-	c #EDDCAE",
"a-	c #E4C898",
"b-	c #D6BD8B",
"c-	c #D4C190",
"d-	c #665D41",
"e-	c #3F3626",
"f-	c #3C3322",
"g-	c #494736",
"h-	c #40382B",
"i-	c #4A3F2E",
"j-	c #786648",
"k-	c #805E41",
"l-	c #A87C4C",
"m-	c #595033",
"n-	c #324029",
"o-	c #334731",
"p-	c #3C5334",
"q-	c #435233",
"r-	c #3E4F30",
"s-	c #51482D",
"t-	c #513622",
"u-	c #4D301A",
"v-	c #573720",
"w-	c #492514",
"x-	c #512E18",
"y-	c #59301A",
"z-	c #A67A52",
"A-	c #9F754C",
"B-	c #775F3D",
"C-	c #A78F69",
"D-	c #E4CBA1",
"E-	c #ECDAAA",
"F-	c #F6DEAF",
"G-	c #E7CA98",
"H-	c #C9AB7B",
"I-	c #DAC092",
"J-	c #DDC89A",
"K-	c #7E6E48",
"L-	c #463A2C",
"M-	c #3A3524",
"N-	c #433825",
"O-	c #655540",
"P-	c #786747",
"Q-	c #715A3E",
"R-	c #865F3A",
"S-	c #4B3726",
"T-	c #2A3521",
"U-	c #334430",
"V-	c #395133",
"W-	c #3B472A",
"X-	c #3C412A",
"Y-	c #63472F",
"Z-	c #614325",
"`-	c #52301A",
" ;	c #502B19",
".;	c #5C3721",
"+;	c #5C3720",
"@;	c #603C26",
"#;	c #896140",
"$;	c #84623D",
"%;	c #896B4A",
"&;	c #D6B787",
"*;	c #F0D5A8",
"=;	c #F7DEAD",
"-;	c #F0D8A6",
". + @ # $ % & * = - ; > , ' ) ! ~ { ] ^ / ( _ : < [ } | 1 2 3 4 ",
"5 6 7 8 9 0 a b c d e f g h i j k l m n o p q r s t u v w x y z ",
"A B C D E F G H I J K L M N O P Q R S T U V W X Y Z `  ...+.@.#.",
"$.%.&.*.=.-.;.>.,.'.).!.~.{.].^./.(._.:.<.[.}.|.1.2.3.4.5.6.7.8.",
"9.0.a.b.c.d.e.f.g.h.i.j.k.l.m.n.o.p.q.r.s.t.u.v.w.x.y.z.A.B.C.D.",
"E.F.G.H.I.J.K.L.M.N.O.P.Q.R.S.T.U.V.W.X.Y.Z.`. +.+++@+#+$+%+&+*+",
"=+-+;+>+,+'+)+!+~+{+]+^+/+(+_+:+<+[+}+|+1+2+3+4+5+6+7+8+9+0+a+b+",
"c+d+e+f+g+h+i+j+k+l+m+n+o+p+q+r+s+t+u+v+w+x+y+z+A+B+C+D+E+F+G+H+",
"I+J+K+L+M+N+O+P+Q+R+S+T+U+V+W+X+Y+Z+`+ @.@+@@@#@$@%@&@*@=@-@;@>@",
",@'@)@!@~@{@]@^@/@(@_@:@<@[@}@|@1@2@3@4@5@6@7@8@9@0@a@b@c@d@e@f@",
"g@h@i@j@k@l@m@n@o@p@q@r@s@t@u@v@w@x@y@z@A@B@C@D@E@F@G@H@I@J@K@L@",
"M@N@O@P@Q@R@S@T@U@V@W@X@Y@Z@`@ #.#+#@###$#%#&#*#=#-#;#>#,#'#)#!#",
"~#{#]#^#/#(#_#:#<#[#}#|#1#2#3#4#5#6#7#8#9#0#a#b#c#d#e#f#g#h#i#j#",
"k#l#m#n#o#p#q#r#s#t#u#v#w#x#y#z#A#B#C#D#E#F#G#H#I#J#K#L#M#N#O#P#",
"Q#R#S#T#U#V#W#X#Y#Z#`# $.$+$@$#$$$%$&$*$=$-$;$>$,$'$K#)$!$~${$]$",
"^$/$($_$:$<$[$}$|$1$2$3$4$5$6$7$8$9$0$a$b$c$d$e$f$g$h$i$j$k$l$m$",
"n$o$p$q$r$s$t$u$v$w$x$y$z$A$B$C$D$E$F$G$H$I$J$K$L$M$N$O$P$Q$R$S$",
"T$U$V$W$X$Y$Z$J.`$ %.%+%@%#%$%%%&%*%=%-%;%>%,%'%)%!%~%{%]%^%/%(%",
"_%:%<%[%}%|%1%2%3%4%5%6%7%8%9%0%a%b%c%d%e%f%g%h%i%j%k%l%m%n%o%p%",
"q%r%s%t%u%v%w%x%y%z%A%B%C%D%E%F%G%H%I%J%K%L%M%N%O%P%Q%R%S%T%U%V%",
"W%X%Y%Z%`% &.&+&@&#&$&%&&&*&=&-&;&>&,&'&)&!&~&{&]&^&/&(&_&:&<&[&",
"}&|&1&2&3&4&5&6&7&8&9&0&a&b&c&d&e&f&g&h&i&j&k&l&m&n&o&p&q&r&s&t&",
"u&v&w&x&y&z&A&B&C&D&E&F&G&H&I&J&K&L&M&N&O&P&Q&R&S&T&U&V&W&X&Y&Z&",
"`& *.*+*@*#*$*%*&***=*-*;*>*,*'*)*!*~*{*]*^*/*(*_*:*<*[*}*|*1*2*",
"3*4*5*6*7*8*9*0*a*b*c*d*e*f*g*h*i*j*k*l*m*n*o*p*q*r*s*t*u*v*w*x*",
"y*z*A*B*C*D*E*F*G*H*I*J*K*L*M*N*O*P*Q*R*S*T*U*V*W*X*Y*Z*`* =.=+=",
"@=#=$=%=&=*===-=;=>=,='=)=!=~={=]=^=/=(=_=:=<=[=}=|=1=2=3=4=5=6=",
"7=8=9=0=a=b=c=d=e=f=g=h=i=j=k=l=m=n=o=p=q=r=s=t=u=v=w=x=y=z=A=B=",
"C=D=E=F=G=H=I=J=K=L=M=N=O=P=Q=R=S=T=U=V=W=X=Y=Z=`= -.-+-@-#-$-%-",
"&-*-=---;->-,-'-)-!-~-{-]-^-/-(-_-:-<-[-}-|-1-2-3-4-5-6-7-8-9-0-",
"a-b-c-d-e-f-g-h-i-j-k-l-m-n-o-p-q-r-s-t-u-v-w-x-y-z-A-B-C-D-E-F-",
"G-H-I-J-K-L-M-N-O-P-Q-R-S-T-U-V-W-X-Y-Z-`- ;.;+;@;#;$;%;&;*;=;-;"};
