/* XPM */
static char *fpm_[] = {
/* columns rows colors chars-per-pixel */
"32 32 197 2",
"   c #292925252B2B",
".  c #2E2E2C2C3535",
"X  c #29292C2C3F3F",
"o  c #505000000000",
"O  c #5D5D00000000",
"+  c #757500000000",
"@  c #7F7F00000000",
"#  c #61610B0B2C2C",
"$  c #6D6D0C0C2828",
"%  c #25251C1C5050",
"&  c #2F2F1E1E5C5C",
"*  c #33331C1C5A5A",
"=  c #222226264E4E",
"-  c #2B2B26264D4D",
";  c #2F2F24244F4F",
":  c #323222224444",
">  c #303023234747",
",  c #272736364E4E",
"<  c #2E2E30304B4B",
"1  c #2A2A34344949",
"2  c #303035354A4A",
"3  c #3E3E30304A4A",
"4  c #232323235252",
"5  c #2E2E21215050",
"6  c #3E3E21215656",
"7  c #3D3D30305252",
"8  c #3F3F1F1F6363",
"9  c #2A2A22226161",
"0  c #29292E2E6767",
"q  c #2D2D26266C6C",
"w  c #2E2E29296868",
"e  c #2E2E2B2B6A6A",
"r  c #2C2C2C2C6B6B",
"t  c #323225256565",
"y  c #3E3E27276161",
"u  c #3A3A21216464",
"i  c #3A3A27276767",
"p  c #32322E2E6565",
"a  c #3F3F2D2D6464",
"s  c #3B3B2F2F6A6A",
"d  c #3D3D2F2F6969",
"f  c #393932326060",
"g  c #36362B2B7474",
"h  c #3A3A2C2C7070",
"j  c #31312F2F7A7A",
"k  c #353533337272",
"l  c #37373A3A7A7A",
"z  c #3D3D3B3B7E7E",
"x  c #484813134949",
"c  c #40401D1D4B4B",
"v  c #4F4F0C0C5C5C",
"b  c #4D4D13135A5A",
"n  c #484819195B5B",
"m  c #5F5F11115656",
"M  c #616108085D5D",
"N  c #49492B2B5757",
"B  c #50503C3C5555",
"V  c #4E4E0D0D6464",
"C  c #50500C0C6B6B",
"Z  c #484817176F6F",
"A  c #42421C1C6A6A",
"S  c #42421B1B6C6C",
"D  c #565611116161",
"F  c #5A5A15156060",
"G  c #575719196868",
"H  c #57571A1A6D6D",
"J  c #5C5C1F1F6C6C",
"K  c #4D4D0F0F7171",
"L  c #5E5E0D0D7373",
"P  c #4F4F16167070",
"I  c #4C4C19197676",
"U  c #636308086565",
"Y  c #676709096A6A",
"T  c #62620E0E6C6C",
"R  c #75750C0C7F7F",
"E  c #7C7C0D0D7C7C",
"W  c #696916167474",
"Q  c #6D6D16167676",
"!  c #6F6F10107D7D",
"~  c #6C6C16167F7F",
"^  c #646419197E7E",
"/  c #6E6E18187F7F",
"(  c #717113137575",
")  c #73731B1B7575",
"_  c #4D4D26266060",
"`  c #47472A2A6767",
"'  c #494929296767",
"]  c #454526266C6C",
"[  c #444427276E6E",
"{  c #444428286B6B",
"}  c #525229296E6E",
"|  c #5B5B3E3E6262",
" . c #414127277070",
".. c #5F5F26267B7B",
"X. c #55552E2E7878",
"o. c #5A5A29297A7A",
"O. c #474736367070",
"+. c #43433B3B7373",
"@. c #4F4F3D3D7F7F",
"#. c #7E7E3D3D6868",
"$. c #636322227171",
"%. c #656527277373",
"&. c #616122227676",
"*. c #616121217D7D",
"=. c #666628287878",
"-. c #65652D2D7F7F",
";. c #666637377F7F",
":. c #272742425D5D",
">. c #343445457171",
",. c #404047475D5D",
"<. c #42424C4C6161",
"1. c #434343436B6B",
"2. c #49494B4B6868",
"3. c #525251516565",
"4. c #5C5C55556F6F",
"5. c #464640407070",
"6. c #4F4F43437777",
"7. c #5A5A51517F7F",
"8. c #6A6A49497474",
"9. c #757545457D7D",
"0. c #929208081515",
"q. c #ABAB03030101",
"w. c #BABA0B0B0303",
"e. c #B0B013131919",
"r. c #AAAA29291C1C",
"t. c #D4D431311111",
"y. c #DEDE4C4C1C1C",
"u. c #DCDC62622A2A",
"i. c #D2D26E6E3939",
"p. c #979757575A5A",
"a. c #2F2F2F2F8181",
"s. c #2C2C34348080",
"d. c #383835358A8A",
"f. c #333337379494",
"g. c #4C4C1F1F8282",
"h. c #5F5F13138989",
"j. c #595917178888",
"k. c #50501C1C8989",
"l. c #6A6A16168484",
"z. c #6A6A1E1E8181",
"x. c #676711118B8B",
"c. c #7A7A17178484",
"v. c #717111118D8D",
"b. c #737312128F8F",
"n. c #7D7D14148A8A",
"m. c #72721E1E8D8D",
"M. c #71710B0B9393",
"N. c #7A7A12129090",
"B. c #76761E1E9696",
"V. c #767615159E9E",
"C. c #45452D2D8A8A",
"Z. c #54542A2A8F8F",
"A. c #525235358383",
"S. c #5E5E31318989",
"D. c #4C4C28289B9B",
"F. c #585829299595",
"G. c #5F5F25259E9E",
"H. c #656524248484",
"J. c #686822228080",
"K. c #66662C2C8383",
"L. c #66662B2B8989",
"P. c #63632A2A8D8D",
"I. c #757523238F8F",
"U. c #75752B2B8E8E",
"Y. c #71712D2D8D8D",
"T. c #656532328888",
"R. c #747435358585",
"E. c #717134348D8D",
"W. c #606023239292",
"Q. c #646422229292",
"!. c #616122229696",
"~. c #696923239090",
"^. c #6C6C22229090",
"/. c #656526269E9E",
"(. c #67672A2A9C9C",
"). c #737327279898",
"_. c #626232329595",
"`. c #6D6D33339494",
"'. c #777734349B9B",
"]. c #7D7D1E1EAFAF",
"[. c #47473939A6A6",
"{. c #64642727A2A2",
"}. c #69692121A7A7",
"|. c #64642A2AA6A6",
" X c #64642C2CA5A5",
".X c #6E6E2E2EA1A1",
"XX c #4D4D41419999",
"oX c #595941419090",
"OX c #666649499F9F",
"+X c #46464040A9A9",
"@X c #89890B0B8888",
"#X c #86861D1D8787",
"$X c #92921B1B8888",
"%X c #8D8D0F0F9595",
"&X c #808019199090",
"*X c #ACAC1414ADAD",
"=X c None",
/* pixels */
"=X=X=X=X=X=X=X=X=X=X=X=X=X=X=X=X=X=X=X=X=X=X=X=X=X=X=X=X=X=X=X=X",
"=X=X=X=X=X=X=X=X=X=X=X=X=X=X=X=X=X=X=X=X=X=X=X=X=X=X=X=X=X=X=X=X",
"=X=X=X=X=X=X=X=X=X=X=X=X=X=X=X=X=X=X=X=X=X=X=X=X=X=X=X=X=X=X=X=X",
"=X=X=X=X=X=X=X=X=X=X=X=X=X=X=X=X=X=X=X=X=X=X=X=X=X=X=X=X=X=X=X=X",
"=X=X=X=X=X=X=X=X=X=X=X=X=X=X=X=X=X=X=X=X=X=X=X=X=X=X=X=X=X=X=X=X",
"=X=X=X=X=X=X=X=X=X=X=X=X=X=X=X=X=X=X=X=X=X=X=X=X=X=X=X=X=X=X=X=X",
"=X=X=X=X=X=X=X=X=X=X=X=X=X=X=X=X=X=X=X=X=X=X=X=X=X=X=X=X=X=X=X=X",
"=X=X=X=X=X=X=X=X=X=X=X=X=X=X=X=X=X=X=X=X=X=X=X=X=X=X=X=X=X=X=X=X",
"=X=X=X=X=X=X=X=X=X=X=X=X=X=X=X=X=X=X=X=X=X=X=X=X=X=X=X4.3.,.1 =X",
"=X=X=X=X=X=X=X=X=X=X=X=X=X=X=X=X=X=X=X=XR.E.Y.=X=X=X7.2.<.2 =X=X",
"=X=X=X=X=X=X=X=X=X=X=X=X=X].V.M.v./ =X%.=.-.K.} =X=X6.5.1.< =X=X",
"=X=X=X=X=X=X=Xk.j.=XG.{.}.h.C L ~ Q F =Xz...T.X.=XOXO.@.+.=X=X=X",
"=X=X_ ` ' 8 u S I A =XF.!.K =X=Xc.! D =Xl.H L.o.=XoXs XXz =X=X=X",
"=X: 6 y ; =X=X=X]  .=X XW.P =X=X%XR v =Xx.V m.H.S.A.=X[.d.=X=X=X",
"=X=Xa t % =XD.=X=Xi =X|.Q.*.=X*X@XU =X=Xb.=XB.~._.[ =X+Xf.=X=X=X",
"=X=Xk w 9 =XC.& =X=X=X.X).I.&XE M =X=X=XN.=X=X(.Z.* =X9.8.B =X=X",
"=X=Xj e q g h 5 =X=X=X'.U.G =X=X=X=X=X=Xn.=X=X/.g.# e.#.p.i.=X=X",
"=X=Xa.r 4 =Xd > =X=X=X`.J.b =X=X=X=X=X=X#X$.=X^.Z $ 0.{ | u.=X=X",
"=X=Xs.0 = =X=X=X=X=X=XP.^ T =X=X=X=X=X$X) J n =X=X=X=X=Xr.y.=X=X",
"=X=Xl p - =X=X=X=X=X;.&.W ( Y =X=X=X=Xm =X=X=X=X=X=X=X=Xw.=X=X=X",
"=X=X>.f 7 3 =X=X=X=XN c x =X=X=X=X=X=X=X=X=X=X=X=X=X=X+ =X=Xt.=X",
"=X:., X .   =X=X=X=X=X=X=X=X=X=X=X=X=X=X=X=X=X=X=X=Xo O @ q.=X=X",
"=X=X=X=X=X=X=X=X=X=X=X=X=X=X=X=X=X=X=X=X=X=X=X=X=X=X=X=X=X=X=X=X",
"=X=X=X=X=X=X=X=X=X=X=X=X=X=X=X=X=X=X=X=X=X=X=X=X=X=X=X=X=X=X=X=X",
"=X=X=X=X=X=X=X=X=X=X=X=X=X=X=X=X=X=X=X=X=X=X=X=X=X=X=X=X=X=X=X=X",
"=X=X=X=X=X=X=X=X=X=X=X=X=X=X=X=X=X=X=X=X=X=X=X=X=X=X=X=X=X=X=X=X",
"=X=X=X=X=X=X=X=X=X=X=X=X=X=X=X=X=X=X=X=X=X=X=X=X=X=X=X=X=X=X=X=X",
"=X=X=X=X=X=X=X=X=X=X=X=X=X=X=X=X=X=X=X=X=X=X=X=X=X=X=X=X=X=X=X=X",
"=X=X=X=X=X=X=X=X=X=X=X=X=X=X=X=X=X=X=X=X=X=X=X=X=X=X=X=X=X=X=X=X",
"=X=X=X=X=X=X=X=X=X=X=X=X=X=X=X=X=X=X=X=X=X=X=X=X=X=X=X=X=X=X=X=X",
"=X=X=X=X=X=X=X=X=X=X=X=X=X=X=X=X=X=X=X=X=X=X=X=X=X=X=X=X=X=X=X=X",
"=X=X=X=X=X=X=X=X=X=X=X=X=X=X=X=X=X=X=X=X=X=X=X=X=X=X=X=X=X=X=X=X"
};
