/* XPM */
static char *gofigure2[] = {
/* columns rows colors chars-per-pixel */
"32 32 9 1",
"  c #800000",
". c #008000",
"X c #808000",
"o c #0000FF",
"O c #FF00FF",
"+ c #00FFFF",
"@ c #808080",
"# c #C0C0C0",
"$ c #FFFFFF",
/* pixels */
"        $$$$$$$$$$$$$$$$$$$$$$$$",
"        $$$$$$$        $$$$$$$$$",
"  @@@###$$$$$#@        $$$$$$$$$",
"  $$$$$$$$$#X......XX.X#$$$$$$$$",
"  $     $$@XXX.. XX@..X.@$$$$$$$",
"  $     $@XXXX$  X$$$$$$.O$$$$$$",
"  $ @@@ #XXXX.$ XX   $$$$@$$$$$$",
"  $$$$$ @XXX.$XXX    $$$$$#$$$$$",
"  ##@@@ #X.@ XX  @@@@$$$$$.+$$$$",
"        $#.$X $  $$$$$$$$..#$$$$",
"        $$$XX$$  $     $$$.@$$$$",
"$$$$$$$$$$oX $$  $     $$$..$$$$",
"$$$$$$$$$$O. $$  $$$$  $$$..$$$$",
"$$$$$$$$$.o.$$$$$$    $$$$..$$$$",
"$$$$$$$$$$..$$$$$$  $$$$$$.X$$$$",
"$$$$$$$$$$.#.$$.$$     $$$XX$$$$",
"$$$$$$$$$$$.@$$$$$     $..X@$$$$",
"$$$$$$$$$$$$...$$$$.$$$$$XX$$$$$",
"$$$$$$$$$$$$$$$#....$$$$.XXO$$$$",
"$$$$$$$$$$$$$$.$..#.$$$$.X@$$$$$",
"$$$$$$$$$$$$$$$$$$..$$$.XX#$$$$$",
"$$$$$$$$$$$$$$$$$$#.$$$.XX$$$$$$",
"$$$$$$$$$$$$$$$$$..$$$$XX@$$$$$$",
"$$$$$$$$$$$$$$$$$@$$$$.XX#$$$$$$",
"$$$$$$$$$$$$$$$.#.$$$$XXX$$$$$$$",
"$$$$$$$$$$$$$$$O.$$$$.XX$$$$$$$$",
"$$$$$$$$$$$$$$.@$$$$.XX@$$$$$$$$",
"$$$$$$$$o$$$$ @$$$$$XXXO$$$$$$$$",
"$$$$$$$@.@##@.$.$$$XXXo$$$$$$$$$",
"$$$$$$$#X..$$$$$$.XXX$$$$$$$$$$$",
"$$$$$$$$#..........@o$$$$$$$$$$$",
"$$$$$$$$$$@X...XX@O$$$$$$$$$$$$$"
};
