/* XPM */
static char *goplay[] = {
/* columns rows colors chars-per-pixel */
"32 32 189 2 ",
"   c #E53733",
".  c #E63E32",
"X  c #E33038",
"o  c #E23D3A",
"O  c #E03E3E",
"+  c #E03F3E",
"@  c #FB7408",
"#  c #F36418",
"$  c #EA412A",
"%  c #E9452B",
"&  c #E0413E",
"*  c #E24B3A",
"=  c #E34C38",
"-  c #E34F38",
";  c #E24E39",
":  c #E1483C",
">  c #E55735",
",  c #E45B35",
"<  c #E45836",
"1  c #E45936",
"2  c #E35138",
"3  c #E25039",
"4  c #E35338",
"5  c #E45338",
"6  c #E35438",
"7  c #ED6123",
"8  c #E86E2F",
"9  c #EC7A26",
"0  c #EC7C25",
"q  c #EA772A",
"w  c #E8722D",
"e  c #E8722E",
"r  c #E9752C",
"t  c #E8742D",
"y  c #E9772C",
"u  c #EA7A2B",
"i  c #EA7E2A",
"p  c #E66631",
"a  c #E66731",
"s  c #DA0F4B",
"d  c #D8094F",
"f  c #D80A4E",
"g  c #D90E4D",
"h  c #D80D4F",
"j  c #DC1747",
"k  c #DD1A44",
"l  c #DB1448",
"z  c #DA154A",
"x  c #DA184B",
"c  c #DA194B",
"v  c #D70750",
"b  c #D70651",
"n  c #D70751",
"m  c #D70850",
"M  c #D80850",
"N  c #DE2341",
"B  c #DC2646",
"V  c #DD2A45",
"C  c #DD2C44",
"Z  c #DD2D44",
"A  c #DD2E44",
"S  c #DC2348",
"D  c #DE3143",
"F  c #DE3342",
"G  c #DE3442",
"H  c #FF8000",
"J  c #FF8100",
"K  c #FF8200",
"L  c #FF8300",
"P  c #FF8400",
"I  c #FF8500",
"U  c #FF8600",
"Y  c #FF8700",
"T  c #FF8800",
"R  c #FF8900",
"E  c #FF8B00",
"W  c #FF8D00",
"Q  c #F7860F",
"!  c #FF9100",
"~  c #FF9200",
"^  c #FF9600",
"/  c #FF9C00",
"(  c #FF9E00",
")  c #FF9F00",
"_  c #F48614",
"`  c #EF9E1F",
"'  c #FFA200",
"]  c orange",
"[  c #FFA700",
"{  c #FBA207",
"}  c #FDA604",
"|  c #FFA900",
" . c #FEAD02",
".. c #FFB100",
"X. c #FFB200",
"o. c #FFB400",
"O. c #FFB500",
"+. c #FFBA00",
"@. c #FFBB00",
"#. c #FFBC00",
"$. c #FFBD00",
"%. c #FEBC01",
"&. c #FFBF00",
"*. c #FEBD02",
"=. c #F1AD1A",
"-. c #F2AF1A",
";. c #F1A91C",
":. c #F4BD15",
">. c #F5BF14",
",. c #F2B218",
"<. c #F2B219",
"1. c #F3B418",
"2. c #F3B518",
"3. c #EC8527",
"4. c #EC8826",
"5. c #EC8A26",
"6. c #EC8C25",
"7. c #ED8F24",
"8. c #EA8228",
"9. c #EB8328",
"0. c #EB8528",
"q. c #ED9123",
"w. c #EE9522",
"e. c #EF9C20",
"r. c #FFC000",
"t. c #FFC100",
"y. c #FFC400",
"u. c #FFC600",
"i. c #FFC700",
"p. c #FFCA00",
"a. c #FFCE00",
"s. c #FACE0A",
"d. c #FFD200",
"f. c #FFD300",
"g. c #FFD400",
"h. c #FCD606",
"j. c #FFD900",
"k. c #FFDB00",
"l. c #FFDC00",
"z. c #F8D30E",
"x. c #F8D70D",
"c. c #F8D40E",
"v. c #F9DA0C",
"b. c #F5C413",
"n. c #F6C612",
"m. c #F4C014",
"M. c #F7CF10",
"N. c #FFE000",
"B. c #FFE100",
"V. c #FFE200",
"C. c #FFE300",
"Z. c #FFE600",
"A. c #FFE800",
"S. c #FFE900",
"D. c #FFED00",
"F. c #FFEE00",
"G. c #FCEF05",
"H. c #FCEC06",
"J. c #FCED06",
"K. c #FAE209",
"L. c #FAE00A",
"P. c #FBE608",
"I. c #FBE708",
"U. c #FFF000",
"Y. c #FFF100",
"T. c #FFF600",
"R. c #FFF700",
"E. c #FEF503",
"W. c #FEF702",
"Q. c #FEF603",
"!. c #FEF703",
"~. c #FCF004",
"^. c #FDF004",
"/. c #FDF104",
"(. c #FDF204",
"). c #FFF800",
"_. c #FFF900",
"`. c #FFFB00",
"'. c #FEFA01",
"]. c #FEFB01",
"[. c #FEF802",
"{. c #FEF902",
"}. c #FEFA02",
"|. c #FFFC00",
" X c #FFFD00",
".X c #FEFC01",
"XX c #FFFE00",
"oX c yellow",
"OX c None",
/* pixels */
"OXOXOXOXOXOXOXOXOXOXOXOXOXOXOXOXOXOXOXOXOXOXOXOXOXOXOXOXOXOXOXOX",
"OXOXOXOXOXOXOXOXOXOXOXOXOXH H OXOXOXOXOXOXOXOXOXOXOXOXOXOXOXOXOX",
"OXOXOXOXOXOXOXOXOXOXOXOXOX@.r.OXOXOXOXOXOXOXOXOXOXOXOXOXOXOXOXOX",
"OXOXOXOXOXOXOXOXOXOXOXOXH A._. .OXOXOXOXOXOXOXOXOXOXOXOXOXOXOXOX",
"OXOXOXOXOXOXOXOXOXOXOXOX# > D ;   m OXOXOXOXOXOXOXOXOXOXOXOXOXOX",
"OXOXOXOXOXOXOXOXOXOXOXn n n n n n n n n n n OXOXOXOXOXOXOXOXOXOX",
"OXOXOXOXOXOXOXOXOXn n n n m 6 e 0.q X M n n n OXOXOXOXOXOXOXOXOX",
"OXOXOXOXOXOXOXOXn n n g 6 M. X X X Xi.@ n n b b OXOXOXOXOXOXOXOX",
"OXOXOXOXOXOXOXOXn n f Q  X X X X X X XX.H $ m b n OXOXI H I H OX",
"OXOXOXOXOXOXOXn n n OX$. X X X X X X X_.d.d.q m n o V.A.A.A.[ H ",
"OXOXOXOXOXOXn n n OXH V. X X X X X X X X X X}.A l 8.}. X XR.^ OX",
"OXOXOXOXOXOXn f OXH ) _. X X X;.p u e.I. X X X6.m w./. X XO.OXOX",
"OXOXOXOXOXl m 7 $.V. X X X X5.7.G. X XL._. X Xb.n 5.(. Xg.OXOXOX",
"OXOXOXI ) N S (. X X X X X>.7. X X X X X X X XL.n y  XU.~ OXOXOX",
"H H $.U. XZ 6  X X X X X Xp J. X X X X XG.}. XK.n >  X .OXOXOXOX",
"OXH X.R. XZ 8  X X X X X X3 }. X X X X X X X Xx.m ;.i.OXOXOXOXOX",
"OXOXOX~ k.V 0..X X X X X.XG G. X X X X}.I. X X<.c s.R OXOXOXOXOX",
"OXOXOXOXH c 5..X X X X X X1 2. X X XG.}.G. X}.B 9.} OXOXOXOXOXOX",
"OXOXOXOXOXb % i. X X X X(.<.& /. XG.v. X X_.i : _.$.OXOXOXOXOXOX",
"OXOXOXOXOXb M OX[ A. X X}.m.5.* x. X X Xn.3 3 J. XU.R OXOXOXOXOX",
"OXOXOXOXOXOXb OXOXR d. X X Xc.e G 3 , + & e.}. X X XO.OXOXOXOXOX",
"OXOXOXOXOXOXb b OXOXr. X X X X/.>.<.2.L. X X X X X XA.I OXOXOXOX",
"OXOXOXOXOXOXb b OXOXr. X X X X X X X X X X X X X X X X .OXOXOXOX",
"OXOXOXOXOXOXOXb n OXr. X X X X X X X X X X X X X X X Xl.OXOXOXOX",
"OXOXOXOXOXOXOXb n OXr. X X X X X X_.r.@.k.R. X X X X X X) OXOXOX",
"OXOXOXOXOXOXOXOXm k *. X X X X XD.) OXOXOXI [ r.V._. X Xa.OXOXOX",
"OXOXOXOXOXOXOXOXOXm 0  X X X Xl.W OXOXOXOXOXOXOXOXW [ u.d.I OXOX",
"OXOXOXOXOXOXOXOXOXOXl u }. Xu.I OXOXOXOXOXOXOXOXOXOXOXOXH H OXOX",
"OXOXOXOXOXOXOXOXOXOX_ Z y { H OXOXOXOXOXOXOXOXOXOXOXOXOXOXOXOXOX",
"OXOXOXOXOXOXOXOXOXOXr.h.% s OXOXOXOXOXOXOXOXOXOXOXOXOXOXOXOXOXOX",
"OXOXOXOXOXOXOXOXOXOXI R OXOXOXOXOXOXOXOXOXOXOXOXOXOXOXOXOXOXOXOX",
"OXOXOXOXOXOXOXOXOXOX@ OXOXOXOXOXOXOXOXOXOXOXOXOXOXOXOXOXOXOXOXOX"
};
