/* XPM */
static const char * gspiceui_xpm[ ] =
{
  "32 32 6 1",
  "b c #000000",
  "e c #0000ff",
  "f c #58a8ff",
  "d c #c00000",
  ". c #c000c0",
  "# c #c0ffc0",
  "................................",
  ".##############################.",
  ".##############################.",
  ".######bbbbbbbbb###############.",
  ".######b#######b###############.",
  ".##bbbbb#######bbbbbbbbbbbbbb##.",
  ".######b#######b#####b#########.",
  ".######bbbbbbbbb#####b#########.",
  ".####################b#########.",
  ".#################bbbbbbb######.",
  ".#####d########################.",
  ".#####d########################.",
  ".#####d###########bbbbbbb######.",
  ".#####d##############b#########.",
  ".#####d##ee##########b#########.",
  ".#####d#effe#######bbbbb#######.",
  ".#####dee##ee##################.",
  ".#####de####ef######bbb########.",
  ".#####ef####fe#################.",
  ".####fe######ef######b#########.",
  ".####ed######fe##########ee####.",
  ".###fed#######ef########effe###.",
  ".###efd#######fe#######ef##fe##.",
  ".##feddddddddddefdddddfeddddd##.",
  ".##e##d########fe#####ef#######.",
  ".#####d#########ef###fe########.",
  ".#####d#########fe###ef########.",
  ".#####d##########fefef#########.",
  ".#####d###########eee##########.",
  ".##############################.",
  ".##############################.",
  "................................"
};
