/* XPM */
static char *gxtuner32x32[] = {
/* columns rows colors chars-per-pixel */
"32 32 238 2 ",
"   c #1D1D1D",
".  c #2B171A",
"X  c #251C1D",
"o  c #2D1D1E",
"O  c #17271D",
"+  c #1B211D",
"@  c #1D2C1E",
"#  c #1D361C",
"$  c #173F1E",
"%  c #1A3C1D",
"&  c #21241E",
"*  c #2B211D",
"=  c #222A1E",
"-  c #292F1D",
";  c #243017",
":  c #2C3D15",
">  c #22331B",
",  c #25371A",
"<  c #243A1B",
"1  c #29391B",
"2  c #1B1F20",
"3  c #201F20",
"4  c #2B1F20",
"5  c #1E2222",
"6  c #1E2C23",
"7  c #173026",
"8  c #1B3425",
"9  c #1A3728",
"0  c #212121",
"q  c #2B2020",
"w  c #242A22",
"e  c #292D26",
"r  c #2B2C2A",
"t  c #2B3425",
"y  c #2C3C24",
"u  c #2F3328",
"i  c #32332F",
"p  c #33382F",
"a  c #393E2E",
"s  c #353633",
"d  c #393A35",
"f  c #3C3C3B",
"g  c #531515",
"h  c #531A16",
"j  c #7E0B0B",
"k  c #7F140A",
"l  c #7B1A0A",
"z  c #762F09",
"x  c #7C2809",
"c  c #7B3807",
"v  c #7C3511",
"b  c #7A3D12",
"n  c #1D4B16",
"m  c #164718",
"M  c #164719",
"N  c #1B411A",
"B  c #1F4A1D",
"V  c #1A5714",
"C  c #1C5E10",
"Z  c #12551E",
"A  c #39570F",
"S  c #254515",
"D  c #2B4217",
"F  c #204F16",
"G  c #2C4C14",
"H  c #23421A",
"J  c #2B431A",
"K  c #224A19",
"L  c #304414",
"P  c #304B13",
"I  c #394F12",
"U  c #324F1C",
"Y  c #245415",
"T  c #255C14",
"R  c #2C5A11",
"E  c #265718",
"W  c #345513",
"Q  c #395D11",
"!  c #1C700D",
"~  c #1C7D09",
"^  c #1D6511",
"/  c #1B7117",
"(  c #1A7418",
")  c #2E680D",
"_  c #396B0D",
"`  c #26770F",
"'  c #24780F",
"]  c #3A720C",
"[  c #226614",
"{  c #296218",
"}  c #396817",
"|  c #267911",
" . c #154A29",
".. c #18482A",
"X. c #1E5127",
"o. c #145C2E",
"O. c #2C4025",
"+. c #364327",
"@. c #3A4326",
"#. c #3C4C21",
"$. c #3B442F",
"%. c #265B29",
"&. c #3A5323",
"*. c #3C4032",
"=. c #166328",
"-. c #13632F",
";. c #157E2C",
":. c #117B33",
">. c #236E27",
",. c #3F6021",
"<. c #4D440E",
"1. c #405C0D",
"2. c #50411D",
"3. c #43591D",
"4. c #784205",
"5. c #794F01",
"6. c #775900",
"7. c #7D4414",
"8. c #7B4F13",
"9. c #456F07",
"0. c #486309",
"q. c #466D08",
"w. c #43730D",
"e. c #597B0F",
"r. c #46661C",
"t. c #596D1B",
"y. c #467817",
"u. c #587B12",
"i. c #435020",
"p. c #435C25",
"a. c #485129",
"s. c #434536",
"d. c #596421",
"f. c #487027",
"g. c #447A25",
"h. c #606B20",
"j. c #810D0C",
"k. c #811A0E",
"l. c #81230F",
"z. c #1F8F09",
"x. c #1B9A05",
"c. c #2A860D",
"v. c #238D09",
"b. c #3B830C",
"n. c #388D0C",
"m. c #239605",
"M. c #239009",
"N. c #2C940B",
"B. c #209A08",
"V. c #3E9703",
"C. c #309E0C",
"Z. c #1DB614",
"A. c #17BF16",
"S. c #22A306",
"D. c #2BA406",
"F. c #27A802",
"G. c #2CAD08",
"H. c #2CB604",
"J. c #24B804",
"K. c #2ABD02",
"L. c #0F8E23",
"P. c #0F8929",
"I. c #128529",
"U. c #0F8732",
"Y. c #0C8E36",
"T. c #108D34",
"R. c #109C36",
"E. c #208021",
"W. c #238632",
"Q. c #0CA22B",
"!. c #0EA936",
"~. c #14AC34",
"^. c #0CB334",
"/. c #0EBF36",
"(. c #0CB839",
"). c #478E05",
"_. c #4D8708",
"`. c #498C0B",
"'. c #549409",
"]. c #4D8B10",
"[. c #508017",
"{. c #588513",
"}. c #4E9310",
"|. c #43921B",
" X c #698E0E",
".X c #689908",
"XX c #6D8C10",
"oX c #748812",
"OX c #729110",
"+X c #45A205",
"@X c #45AA02",
"#X c #4CAA04",
"$X c #54A404",
"%X c #52AF06",
"&X c #58A30A",
"*X c #4FBD02",
"=X c #5AB305",
"-X c #54BD02",
";X c #5BBC03",
":X c #7BA408",
">X c #61BC01",
",X c #4A942B",
"<X c #46A025",
"1X c #17C117",
"2X c #26C304",
"3X c #2BC500",
"4X c #24CB02",
"5X c #2BCD01",
"6X c #2CD201",
"7X c #28D701",
"8X c #2DC81D",
"9X c #1EF61C",
"0X c #1DF81D",
"qX c #28E419",
"wX c #0DC02F",
"eX c #06C732",
"rX c #10C330",
"tX c #1CC332",
"yX c #0DD13D",
"uX c #08DC39",
"iX c #12D335",
"pX c #10DA3E",
"aX c #23DB20",
"sX c #23C93E",
"dX c #1CE339",
"fX c #57C501",
"gX c #5CC502",
"hX c #62C300",
"jX c #17DB42",
"kX c #16E341",
"lX c #81950E",
"zX c #8AA507",
"xX c #83A808",
"cX c #84B403",
"vX c #8FB303",
"bX c #9BB601",
"nX c #9FBD00",
"mX c #A0BE00",
/* pixels */
"f f f d s s p i i y c.F.M.H 0 B 1X0XaX( # > ! S.m.Y = 0 & = & 0 ",
"f f f *.p.r.,.+.r O.N.K.S.F 6 B 1X0XaX( # # ~ H.D.Y = = D Q W : ",
"s.f f $.[.&X}.&.r O.C.6XK.C w B A.9XaX( # H m.6XH.T ; 1 _ $X_.A ",
"d.a.f $.{.>X%X} u y N.5X2X[ # B Z.qX8X/ # n S.5XG.G = P ).>X'.A ",
"lXh.*.a y.=XgXy.y y c.3X6X/ < H n.'.e.[ % F J.5XD.n @ R #XhX_.L ",
"bXoXa.a f.&XgX`.U t ` H.7X| N < 9.6.4.T $ Y 2X6XN., ; _ -X;Xw.- ",
"mXxXt.$.#.].gX#X} 9 { G.7XM.F < q.6.4.{ M ^ 4X5Xc.; S `.fX$XQ & ",
"nXvXXX$.+.y.fX*Xb.< E C.7Xx.V 1 0.5.c Y M ! 4X2X` ; R +XfX).P & ",
"zXvX:Xr.+.,.%X*Xn.H K ' S.~ M - <.c x J M C B.v.T = ) @X-X] : = ",
"oXxXvXu.#.#.`.+Xb.H > H F % @ * h j.j.o @ # n H # > ) V.+XW : : ",
"d.OXcX.X3.y U U J w w = w 6 5 4 g j.j.o   & = @ + & < G G ; L 1.",
"$.t. Xu.#.r r r e 0 0 0 0 0 5 4 g j.j.o 5 0 3 3 0 0 0 & @ X : I ",
"i @.i.a t r r 0 e 3 0 0 0 0 r 4 g j.j.o 5 0 3 0 3 0 & 0 X X & = ",
"r u u r r 0 0 r 0 0 r 0 0 0 0 q g j.j.o 5 0 0 0 0 3 3 2 + & 0 + ",
"q r 0 r 0 0 r 0 0 0 0 0 0 0 0 q h j.j.o 5 3 0 3 0 X 0 5 5 5 X X ",
"0 0 0 0 e 0 0 0 0 0 0 0 0 0 0 q g j.j.o 5 0 0 0 5 5   5 X     5 ",
"0 0 0 0 0 0 0 0 0 0 0 0 0 0 5 o g j.j.o 2 0 0 3 0 X 0   2   0   ",
"0 3 e 0 0 0 0 0 0 0 0 0 0 9 o.>.2.j.j.o 5 5 3 0 5 5 5 X X 5 X 2 ",
"0 0 0 0 e 3 0 0 0 0 0 3 6 o.!.tXw.l.j.o 5 5 0 0   & 3 3 0   5   ",
"0 0 0 0 0 3 0 0 0 0 0 0 9 U.yXdX|.l.j.o 5 X 5 0 0 3 2 3   3   0 ",
"0 0 0 0 0 0 0 0 0 0 3 5 ..!.uXiX<X8.j . + + 5   & 3 X 0 &   2   ",
"0 0 0 0 0 0 0 0 0 0 3 8 -./.eXQ.,X7.j o   3 X 2 X 2 2 2 2 X X 2 ",
"0 3 0 0 3 0 0 0 0 3 3 ..Y.eXQ.=.g.b j o   2   2 2   2   X     2 ",
"0 r 0 0 0 0 0 0 3 2 5 -.(.wXP.X.r.v j * +                       ",
"0 0 0 0 0 0 0 0 5 5 7 U.pXiX~.W.f.b l ; O                       ",
"0 0 0 0 0 0 0 0 X 5  .R.kXjXjXsX,X8.z n O                       ",
"0 0 0 0 0 0 3 3 3 6 :.^.rX;.=.%.2.l.4./ M                       ",
"0 0 0 0 3 0 0 3 2 8 T.^.L.N 5 X h l.<.z.M O                     ",
"0 0 0 0 0 0 2 3 5 9 :.I.Z @   X h k.b E.M O                     ",
"0 0 0 0 3 3 3 0 0 5 8 # @ +   o h k k >                         ",
"0 0 0 0 0 2 3 & 2 3 X     X   X g j.j .                         ",
"0 0 0 0 0 3 3 3 0     5   5   X g j.j .                         "
};
