/* XPM */
static char * HerculesStudio_xpm[] = {
"32 32 538 2",
"  	c #050000",
". 	c #010000",
"+ 	c #000100",
"@ 	c #000201",
"# 	c #000004",
"$ 	c #010007",
"% 	c #030006",
"& 	c #040006",
"* 	c #050108",
"= 	c #000105",
"- 	c #000000",
"; 	c #030000",
"> 	c #00000A",
", 	c #00000C",
"' 	c #000005",
") 	c #020100",
"! 	c #020000",
"~ 	c #00000B",
"{ 	c #030009",
"] 	c #040004",
"^ 	c #030205",
"/ 	c #000102",
"( 	c #000200",
"_ 	c #000300",
": 	c #070002",
"< 	c #080001",
"[ 	c #040000",
"} 	c #010300",
"| 	c #020200",
"1 	c #000108",
"2 	c #000003",
"3 	c #020300",
"4 	c #010100",
"5 	c #000007",
"6 	c #000001",
"7 	c #040001",
"8 	c #090002",
"9 	c #070001",
"0 	c #090000",
"a 	c #0B0000",
"b 	c #0B0700",
"c 	c #050C00",
"d 	c #000A00",
"e 	c #000500",
"f 	c #000103",
"g 	c #000008",
"h 	c #010200",
"i 	c #000002",
"j 	c #030C00",
"k 	c #040B01",
"l 	c #090500",
"m 	c #0A0000",
"n 	c #080000",
"o 	c #060000",
"p 	c #0F0700",
"q 	c #21210D",
"r 	c #2D3B19",
"s 	c #254214",
"t 	c #18370B",
"u 	c #091C01",
"v 	c #020701",
"w 	c #010006",
"x 	c #020003",
"y 	c #050C06",
"z 	c #15260A",
"A 	c #213F15",
"B 	c #29461C",
"C 	c #2A3718",
"D 	c #191807",
"E 	c #0A0300",
"F 	c #000202",
"G 	c #070800",
"H 	c #252D17",
"I 	c #466138",
"J 	c #4A7B3C",
"K 	c #3B8332",
"L 	c #3A7A30",
"M 	c #2D4D21",
"N 	c #0C1508",
"O 	c #020002",
"P 	c #030202",
"Q 	c #000400",
"R 	c #070507",
"S 	c #1D2719",
"T 	c #3A582E",
"U 	c #3C7B33",
"V 	c #3D8536",
"W 	c #47783B",
"X 	c #354F28",
"Y 	c #151C08",
"Z 	c #071103",
"` 	c #304C28",
" .	c #478142",
"..	c #339134",
"+.	c #219C27",
"@.	c #2D952E",
"#.	c #43713A",
"$.	c #1C2613",
"%.	c #070102",
"&.	c #10080A",
"*.	c #323D2A",
"=.	c #4D7B44",
"-.	c #2D952F",
";.	c #229D29",
">.	c #349237",
",.	c #3E793B",
"'.	c #163111",
").	c #000800",
"!.	c #010002",
"~.	c #061606",
"{.	c #2A572A",
"].	c #3A8E3E",
"^.	c #1FA02C",
"/.	c #08AF1C",
"(.	c #19A526",
"_.	c #427C3B",
":.	c #202D16",
"<.	c #0B0103",
"[.	c #000600",
"}.	c #060001",
"|.	c #140A0C",
"1.	c #36432C",
"2.	c #498443",
"3.	c #19A425",
"4.	c #08AF1D",
"5.	c #1FA02E",
"6.	c #33873B",
"7.	c #0F3B13",
"8.	c #000C00",
"9.	c #010005",
"0.	c #010004",
"a.	c #030001",
"b.	c #030004",
"c.	c #020004",
"d.	c #031504",
"e.	c #255826",
"f.	c #309238",
"g.	c #12A422",
"h.	c #00B711",
"i.	c #08AB1A",
"j.	c #33792E",
"k.	c #19290E",
"l.	c #060002",
"m.	c #050002",
"n.	c #140709",
"o.	c #334328",
"p.	c #40873C",
"q.	c #09AB19",
"r.	c #00B611",
"s.	c #12A524",
"t.	c #2A8A35",
"u.	c #093B10",
"v.	c #000B00",
"w.	c #020008",
"x.	c #040005",
"y.	c #040003",
"z.	c #091304",
"A.	c #295526",
"B.	c #349035",
"C.	c #12A51D",
"D.	c #00B80C",
"E.	c #06AC15",
"F.	c #2E7C2B",
"G.	c #182A0C",
"H.	c #0C0000",
"I.	c #070004",
"J.	c #000401",
"K.	c #060004",
"L.	c #16060A",
"M.	c #324425",
"N.	c #3B8A39",
"O.	c #07AD14",
"P.	c #00B80A",
"Q.	c #13A61F",
"R.	c #2D8832",
"S.	c #0D3810",
"T.	c #000801",
"U.	c #040009",
"V.	c #050005",
"W.	c #080003",
"X.	c #101107",
"Y.	c #325428",
"Z.	c #3C8F36",
"`.	c #1CA41F",
" +	c #01B70B",
".+	c #0BAF16",
"++	c #328632",
"@+	c #1D3011",
"#+	c #100104",
"$+	c #090006",
"%+	c #000606",
"&+	c #090007",
"*+	c #19070D",
"=+	c #334627",
"-+	c #398E3A",
";+	c #0BAF12",
">+	c #01B708",
",+	c #1CA41E",
"'+	c #358732",
")+	c #163813",
"!+	c #060704",
"~+	c #060009",
"{+	c #06000B",
"]+	c #0E0E04",
"^+	c #364D25",
"/+	c #418734",
"(+	c #18A11C",
"_+	c #00B30A",
":+	c #13A714",
"<+	c #397A2D",
"[+	c #1A2C0F",
"}+	c #090103",
"|+	c #060007",
"1+	c #100609",
"2+	c #314326",
"3+	c #438437",
"4+	c #13A810",
"5+	c #00B406",
"6+	c #18A21D",
"7+	c #3A8033",
"8+	c #192F10",
"9+	c #050401",
"0+	c #050007",
"a+	c #010003",
"b+	c #000402",
"c+	c #0D1004",
"d+	c #3D4B26",
"e+	c #478535",
"f+	c #0EA720",
"g+	c #00B40F",
"h+	c #1DA21A",
"i+	c #497131",
"j+	c #213218",
"k+	c #020303",
"l+	c #090209",
"m+	c #090A0A",
"n+	c #35462C",
"o+	c #537C3B",
"p+	c #1FA315",
"q+	c #00B60B",
"r+	c #0EA722",
"s+	c #407C38",
"t+	c #202C12",
"u+	c #030500",
"v+	c #040002",
"w+	c #000101",
"x+	c #101307",
"y+	c #404D28",
"z+	c #498638",
"A+	c #0DA820",
"B+	c #00B30F",
"C+	c #11A51A",
"D+	c #378239",
"E+	c #30462B",
"F+	c #1E1415",
"G+	c #1B1114",
"H+	c #10170C",
"I+	c #10150B",
"J+	c #1C1215",
"K+	c #281E1E",
"L+	c #3D5338",
"M+	c #3B873D",
"N+	c #12A716",
"O+	c #00B509",
"P+	c #0EA824",
"Q+	c #427D3B",
"R+	c #243016",
"S+	c #060902",
"T+	c #000301",
"U+	c #0C0F03",
"V+	c #3C4924",
"W+	c #478436",
"X+	c #0CA71F",
"Y+	c #0DA916",
"Z+	c #369335",
"`+	c #4C703F",
" @	c #4E5239",
".@	c #4A5134",
"+@	c #3D5B2D",
"@@	c #3E5C2E",
"#@	c #4D5437",
"$@	c #52573D",
"%@	c #4E7242",
"&@	c #379436",
"*@	c #0EAC11",
"=@	c #00B60A",
"-@	c #0EA823",
";@	c #407B39",
">@	c #020500",
",@	c #0B0E02",
"'@	c #3B4823",
")@	c #468334",
"!@	c #00B310",
"~@	c #07AE0E",
"{@	c #1F9E1A",
"]@	c #359230",
"^@	c #3F8C39",
"/@	c #398E32",
"(@	c #2F9628",
"_@	c #309729",
":@	c #3B9034",
"<@	c #3E8B39",
"[@	c #33902E",
"}@	c #1F9E19",
"|@	c #08B008",
"1@	c #00B60C",
"2@	c #0DA722",
"3@	c #3F7A37",
"4@	c #1F2A10",
"5@	c #010400",
"6@	c #0F1206",
"7@	c #3F4C28",
"8@	c #498637",
"9@	c #02B306",
"0@	c #09B307",
"a@	c #05AC16",
"b@	c #03B01F",
"c@	c #02B217",
"d@	c #01B60A",
"e@	c #01B306",
"f@	c #02B216",
"g@	c #04B220",
"h@	c #07AE16",
"i@	c #06AF05",
"j@	c #01B400",
"k@	c #00B50B",
"l@	c #427D3A",
"m@	c #232E14",
"n@	c #050801",
"o@	c #0E1105",
"p@	c #3F4C27",
"q@	c #00B411",
"r@	c #00B305",
"s@	c #07B005",
"t@	c #04AD16",
"u@	c #03AE1C",
"v@	c #03B519",
"w@	c #01B205",
"x@	c #02B70A",
"y@	c #03B216",
"z@	c #03B01D",
"A@	c #03AD14",
"B@	c #08B107",
"C@	c #02B602",
"D@	c #222D13",
"E@	c #030600",
"F@	c #0A0D01",
"G@	c #3A4722",
"H@	c #00B511",
"I@	c #08AE0F",
"J@	c #1EA01C",
"K@	c #349430",
"L@	c #3A8A37",
"M@	c #3B9135",
"N@	c #2E9729",
"O@	c #2C9627",
"P@	c #378D31",
"Q@	c #3B8C39",
"R@	c #1C9E19",
"S@	c #06AE07",
"T@	c #00B50A",
"U@	c #407B38",
"V@	c #1F2B11",
"W@	c #478435",
"X@	c #00B510",
"Y@	c #0EAA17",
"Z@	c #319232",
"`@	c #416936",
" #	c #3C452A",
".#	c #374325",
"+#	c #2B4E1F",
"@#	c #284A1C",
"##	c #354223",
"$#	c #424C31",
"%#	c #4A723F",
"&#	c #329434",
"*#	c #0DAB10",
"=#	c #212C12",
"-#	c #0F1106",
";#	c #11A61B",
">#	c #308035",
",#	c #243D22",
"'#	c #0F0C0A",
")#	c #0D0607",
"!#	c #061105",
"~#	c #030F03",
"{#	c #0F090A",
"]#	c #181412",
"^#	c #344E32",
"/#	c #37873C",
"(#	c #13A918",
"_#	c #00B70B",
":#	c #0EA924",
"<#	c #222E14",
"[#	c #040700",
"}#	c #3C4A25",
"|#	c #1DA41B",
"1#	c #447330",
"2#	c #1B3014",
"3#	c #010105",
"4#	c #010805",
"5#	c #293F23",
"6#	c #4A7936",
"7#	c #1CA414",
"8#	c #417C38",
"9#	c #202D13",
"0#	c #030003",
"a#	c #0F0F05",
"b#	c #394E26",
"c#	c #448835",
"d#	c #19A21D",
"e#	c #01B209",
"f#	c #14A713",
"g#	c #3A7F2B",
"h#	c #1B2F0D",
"i#	c #090300",
"j#	c #100906",
"k#	c #304422",
"l#	c #438733",
"m#	c #12A810",
"n#	c #3A8133",
"o#	c #1A3010",
"p#	c #070003",
"q#	c #111208",
"r#	c #35552A",
"s#	c #408E37",
"t#	c #1EA31E",
"u#	c #03B60B",
"v#	c #0DB014",
"w#	c #33882D",
"x#	c #1E320D",
"y#	c #100100",
"z#	c #000700",
"A#	c #190807",
"B#	c #334721",
"C#	c #398E33",
"D#	c #0BAF11",
"E#	c #020005",
"F#	c #0A1406",
"G#	c #2B5526",
"H#	c #369035",
"I#	c #14A51D",
"J#	c #00B70C",
"K#	c #07AC15",
"L#	c #2D7C27",
"M#	c #182A0A",
"N#	c #140505",
"O#	c #304221",
"P#	c #398833",
"Q#	c #07AD13",
"R#	c #021404",
"S#	c #255725",
"T#	c #309037",
"U#	c #09AA1B",
"V#	c #33792D",
"W#	c #19290D",
"X#	c #050001",
"Y#	c #130707",
"Z#	c #324226",
"`#	c #40863A",
" $	c #051504",
".$	c #295528",
"+$	c #398D3D",
"@$	c #209F2B",
"#$	c #0AAF1C",
"$$	c #1AA426",
"%$	c #407B3A",
"&$	c #1F2C16",
"*$	c #0A0104",
"=$	c #12090C",
"-$	c #35422C",
";$	c #478241",
">$	c #18A325",
",$	c #060F01",
"'$	c #2C4825",
")$	c #437D3E",
"!$	c #349135",
"~$	c #219D27",
"{$	c #2B942D",
"]$	c #3D6935",
"^$	c #182213",
"/$	c #060003",
"($	c #0C0409",
"_$	c #2E3829",
":$	c #497542",
"<$	c #2C942F",
"[$	c #239E2A",
"}$	c #349137",
"|$	c #3C7639",
"1$	c #142F0F",
"2$	c #030400",
"3$	c #18200A",
"4$	c #334D25",
"5$	c #3A6D2D",
"6$	c #2A7422",
"7$	c #27681F",
"8$	c #1A3A12",
"9$	c #020A02",
"0$	c #020104",
"a$	c #030106",
"b$	c #111B12",
"c$	c #294720",
"d$	c #2C6B25",
"e$	c #2F7728",
"f$	c #37682B",
"g$	c #243E17",
"h$	c #0C1302",
"i$	c #070000",
"j$	c #090200",
"k$	c #0F1200",
"l$	c #132504",
"m$	c #0C2C00",
"n$	c #052400",
"o$	c #001000",
"p$	c #020009",
"q$	c #010008",
"r$	c #000501",
"s$	c #041300",
"t$	c #082601",
"u$	c #0D2902",
"v$	c #101D01",
"w$	c #0B0B00",
"x$	c #000900",
"y$	c #000307",
"z$	c #040100",
"A$	c #090001",
"B$	c #090004",
"C$	c #040300",
"D$	c #000104",
"E$	c #000006",
"F$	c #030008",
"G$	c #000305",
"H$	c #070200",
"I$	c #02010B",
"J$	c #010306",
"K$	c #030100",
"L$	c #00010B",
"M$	c #060100",
"  . + @ # $ % & * = - ; > , ' ) ! ' , > ; # ~ { & ] ^ / ( + .   ",
". - _ @ # ] : < [ - } | 1 ~ 2 3 4 2 ~ 5 - + 6 7 8 8 [ - ( ( - . ",
"( ( ( @ 6 9 0 a b c d e f g 2 h + i g i e j k l m n o - ( ( + + ",
"( ( ( / . o p q r s t u v w x ( + 6 ' y z A B C D E   . / F F / ",
"- + - i - G H I J K L M N O P Q ( ! R S T U V W X Y - - i i 6 - ",
"- - i i + Z `  ...+.@.#.$.%.  e _ ; &.*.=.-.;.>.,.'.).6 # # 6 - ",
"; ; !.!.+ ~.{.].^./.(._.:.<.o _ [.}.|.1.2.3.4.5.6.7.8.2 9.0.a.; ",
"; ; b.c.!.d.e.f.g.h.i.j.k.m l.e Q m.n.o.p.q.r.s.t.u.v.' w.b.; ; ",
"+ - 0.x.y.z.A.B.C.D.E.F.G.H.I.e J.K.L.M.N.O.P.Q.R.S.T.w.U.9.- ( ",
"Q ( # V.W.X.Y.Z.`. +.+++@+#+$+J.%+&+*+=+-+;+>+,+'+)+!+~+{+' ( e ",
"Q ( # V.y.]+^+/+(+_+:+<+[+}+|+F F x.1+2+3+4+5+6+7+8+9+& 0+# ( Q ",
"( + a+] b+c+d+e+f+g+h+i+j+k+l+. [ ] m+n+o+p+q+r+s+t+u+@ v+. + w+",
"( + O b.b+x+y+z+A+B+C+D+E+F+G+H+I+J+K+L+M+N+O+P+Q+R+S+T+v+! + / ",
"( + O b.b+U+V+W+X+g+Y+Z+`+ @.@+@@@#@$@%@&@*@=@-@;@t+>@T+v+! + / ",
"( + O b.b+,@'@)@X+!@~@{@]@^@/@(@_@:@<@[@}@|@1@2@3@4@5@T+v+! + / ",
"( + O b.b+6@7@8@A+!@9@0@a@b@c@d@e@f@g@h@i@j@k@-@l@m@n@T+v+! + / ",
"( + O b.b+o@p@8@A+q@r@s@t@u@v@w@x@y@z@A@B@C@1@P+l@D@E@T+v+! + / ",
"( + O b.b+F@G@)@X+H@I@J@K@L@M@N@O@P@Q@K@R@S@T@2@U@V@>@T+v+! + / ",
"( + O b.b+,@'@W@X+X@Y@Z@`@ #.#+#@###$#%#&#*#T@-@U@=#>@T+v+! + / ",
"( + O b.b+-#7@8@A+g+;#>#,#'#)#!#~#{#]#^#/#(#_#:#l@<#[#T+v+! + / ",
"( + a+b.b+U+}#W@f+g+|#1#2#J.3#h - 2 4#5#6#7#=@r+8#9#u+@ v+. + w+",
"e _ # V.0#a#b#c#d#e#f#g#h#i#K._ Q v+j#k#l#m#5+6+n#o#9+& 0+# ( Q ",
"[.Q # x.p#q#r#s#t#u#v#w#x#y#8 Q z#8 A#B#C#D#>+,+'+)+!+~+{+' ( e ",
"_ + # E#y.F#G#H#I#J#K#L#M#a }.e Q }.N#O#P#Q#P.Q.R.S.T.w.U.9.- ( ",
"- - 0.0.!.R#S#T#g.r.U#V#W#a : e Q X#Y#Z#`#q.r.s.t.u.v.' w.b.; ; ",
"! . !.i (  $.$+$@$#$$$%$&$*$l._ e l.=$-$;$>$4.5.6.7.8.2 9.0.a.; ",
"- - i i + ,$'$)$!$~${$]$^$/$v+_ _ a.($_$:$<$[$}$|$1$).6 # # 6 - ",
"- - - i - 2$3$4$5$6$7$8$9$% 0$_ _ x a$b$c$d$e$f$g$h$+ - i i 6 - ",
"- + + i . i$j$k$l$m$n$o$w+p$a+( + a+q$r$s$t$u$v$w$o o . / F F / ",
"- + + 6 6   n n | z#x$e y$~ 2 + + 3#, # e [.Q z$n 0 A$- ( ( + + ",
"[ ! + w+# c.I.B$. ( _ 4 5 ~ 2 . C$D$~ E$- - 6 X#8 8 X#- ( ( - . ",
"0 [ - w+# F$% % = G$( H$I$~ J$K$K$2 , L$M$= > w.0+x.2 / ( + .   "};
