/* XPM */
static char * icon_xpm[] = {
"48 48 467 2",
"  	c None",
". 	c #000000",
"+ 	c #282828",
"@ 	c #686868",
"# 	c #202020",
"$ 	c #101010",
"% 	c #303030",
"& 	c #A0A0AC",
"* 	c #B8B8B8",
"= 	c #A0A0A0",
"- 	c #C0C0C0",
"; 	c #B0B0B0",
"> 	c #F8F8F8",
", 	c #E0E0E0",
"' 	c #798D63",
") 	c #75845F",
"! 	c #989898",
"~ 	c #181818",
"{ 	c #D8D8D8",
"] 	c #849666",
"^ 	c #728D5F",
"/ 	c #6B8457",
"( 	c #647B50",
"_ 	c #C09004",
": 	c #B08804",
"< 	c #7F8474",
"[ 	c #AFA37D",
"} 	c #B5A879",
"| 	c #B7AB6E",
"1 	c #918D59",
"2 	c #4279B3",
"3 	c #4E7FB2",
"4 	c #D89810",
"5 	c #F0B810",
"6 	c #F8B810",
"7 	c #F0D008",
"8 	c #E0D08C",
"9 	c #E0C808",
"0 	c #A48804",
"a 	c #E0A008",
"b 	c #A08004",
"c 	c #99978B",
"d 	c #8D8D7D",
"e 	c #C9B588",
"f 	c #8F997F",
"g 	c #CEC282",
"h 	c #C5B56D",
"i 	c #AB985A",
"j 	c #437BB3",
"k 	c #5184B7",
"l 	c #BFCAC4",
"m 	c #382804",
"n 	c #F0C008",
"o 	c #F0C814",
"p 	c #E4CC20",
"q 	c #886000",
"r 	c #E0A808",
"s 	c #D09810",
"t 	c #808080",
"u 	c #CEB592",
"v 	c #EAD499",
"w 	c #E7CF9C",
"x 	c #ABA991",
"y 	c #A8B18D",
"z 	c #C3BF82",
"A 	c #C4AF68",
"B 	c #A8985A",
"C 	c #4D82B7",
"D 	c #CCD8D4",
"E 	c #FBFBD2",
"F 	c #D0D0D0",
"G 	c #B07808",
"H 	c #906804",
"I 	c #D09808",
"J 	c #B48410",
"K 	c #C8C8C8",
"L 	c #FCFAB1",
"M 	c #F6EAA3",
"N 	c #D6CA9C",
"O 	c #8D9988",
"P 	c #C7BB7D",
"Q 	c #C4B26B",
"R 	c #A49659",
"S 	c #817650",
"T 	c #487FAF",
"U 	c #779EBF",
"V 	c #FAFAF0",
"W 	c #FCFCF4",
"X 	c #906008",
"Y 	c #B88008",
"Z 	c #A87010",
"` 	c #FCFBB7",
" .	c #F9F2AF",
"..	c #E0D299",
"+.	c #D2C494",
"@.	c #BCB47D",
"#.	c #AF9E68",
"$.	c #A89B66",
"%.	c #918D69",
"&.	c #447BB2",
"*.	c #4E82B5",
"=.	c #D7DECC",
"-.	c #FBFBD5",
";.	c #F0F0F0",
">.	c #F2EDAB",
",.	c #FCFBB5",
"'.	c #DCD9A0",
").	c #B7B292",
"!.	c #C0B586",
"~.	c #A39966",
"{.	c #9E9766",
"].	c #827F5F",
"^.	c #948F6B",
"/.	c #447FB5",
"(.	c #5384B9",
"_.	c #CFCAB2",
":.	c #E3DCA6",
"<.	c #080808",
"[.	c #D2C992",
"}.	c #FAF0A8",
"|.	c #F8F0A4",
"1.	c #8D917B",
"2.	c #99997B",
"3.	c #A19C6D",
"4.	c #A49964",
"5.	c #867F56",
"6.	c #7B7D63",
"7.	c #3F79B1",
"8.	c #4880B9",
"9.	c #4E86BC",
"0.	c #A9BBA6",
"a.	c #F5E5A1",
"b.	c #FBF3A8",
"c.	c #EBE19C",
"d.	c #BBB282",
"e.	c #5F6961",
"f.	c #707259",
"g.	c #8F8659",
"h.	c #7F7B54",
"i.	c #74745E",
"j.	c #4379B2",
"k.	c #4A80B8",
"l.	c #5088BD",
"m.	c #8DA6B5",
"n.	c #E8E8E8",
"o.	c #FAF29E",
"p.	c #EAD48D",
"q.	c #63665F",
"r.	c #283A4B",
"s.	c #5F5F4E",
"t.	c #6E6B4D",
"u.	c #696B51",
"v.	c #C0C0C1",
"w.	c #4B82B8",
"x.	c #4E86BB",
"y.	c #484850",
"z.	c #AEA484",
"A.	c #75796E",
"B.	c #284057",
"C.	c #253B4E",
"D.	c #2E3D47",
"E.	c #595C47",
"F.	c #6E6E4E",
"G.	c #D8D8D9",
"H.	c #437BAF",
"I.	c #4A7FB7",
"J.	c #4E88BC",
"K.	c #254864",
"L.	c #25405C",
"M.	c #253D53",
"N.	c #253C4B",
"O.	c #505647",
"P.	c #6B6B4B",
"Q.	c #3A4442",
"R.	c #DCDCDB",
"S.	c #396BA0",
"T.	c #4479AF",
"U.	c #4A7FB5",
"V.	c #4E84B9",
"W.	c #404038",
"X.	c #21445F",
"Y.	c #213F59",
"Z.	c #253D51",
"`.	c #253D4E",
" +	c #4A4E4A",
".+	c #61634E",
"++	c #243848",
"@+	c #3A6899",
"#+	c #4075AB",
"$+	c #467FB4",
"%+	c #203D56",
"&+	c #213C4E",
"*+	c #253D50",
"=+	c #3B484B",
"-+	c #51594E",
";+	c #203A4C",
">+	c #D6D6D7",
",+	c #356699",
"'+	c #3F72A8",
")+	c #484848",
"!+	c #AFBDAC",
"~+	c #B0BDAB",
"{+	c #213D50",
"]+	c #2A404E",
"^+	c #3F4B4E",
"/+	c #203B4D",
"(+	c #D9D9D8",
"_+	c #316395",
":+	c #3D6EA3",
"<+	c #404040",
"[+	c #5D7C38",
"}+	c #93AA82",
"|+	c #AFBDAA",
"1+	c #626F77",
"2+	c #1E3749",
"3+	c #BEC6AB",
"4+	c #AEC684",
"5+	c #A0C266",
"6+	c #D4D4D3",
"7+	c #436516",
"8+	c #4D7913",
"9+	c #698D40",
"0+	c #8BAE68",
"a+	c #8BAD64",
"b+	c #A1B77A",
"c+	c #90AF5C",
"d+	c #82B822",
"e+	c #5F9701",
"f+	c #597E14",
"g+	c #CACACA",
"h+	c #436617",
"i+	c #4D7A14",
"j+	c #599016",
"k+	c #649F18",
"l+	c #70A919",
"m+	c #70A80D",
"n+	c #73AC0E",
"o+	c #76B00E",
"p+	c #6E8543",
"q+	c #D6D0D8",
"r+	c #4E7A14",
"s+	c #599015",
"t+	c #7BAF27",
"u+	c #7CB020",
"v+	c #68A404",
"w+	c #517D00",
"x+	c #888888",
"y+	c #282840",
"z+	c #71AB20",
"A+	c #7BAE21",
"B+	c #73AD0E",
"C+	c #69A404",
"D+	c #577A14",
"E+	c #ABABAB",
"F+	c #F8C008",
"G+	c #383838",
"H+	c #70A819",
"I+	c #7AAE20",
"J+	c #74AD0E",
"K+	c #5D9401",
"L+	c #64812B",
"M+	c #CBCBCC",
"N+	c #D89010",
"O+	c #F0CC20",
"P+	c #E0A410",
"Q+	c #080800",
"R+	c #649F17",
"S+	c #7AAE23",
"T+	c #7BAF20",
"U+	c #7DB120",
"V+	c #75AF0E",
"W+	c #5E9501",
"X+	c #8B9759",
"Y+	c #D3CEDB",
"Z+	c #C0881C",
"`+	c #E8A810",
" @	c #E8B010",
".@	c #C4A474",
"+@	c #E0A800",
"@@	c #C08808",
"#@	c #D09008",
"$@	c #639F17",
"%@	c #639C0E",
"&@	c #7AAD1F",
"*@	c #68A304",
"=@	c #567914",
"-@	c #959595",
";@	c #D8A008",
">@	c #F8CC14",
",@	c #787878",
"'@	c #A4803C",
")@	c #E8B008",
"!@	c #639D13",
"~@	c #6FA60D",
"{@	c #69A504",
"]@	c #BDBDBD",
"^@	c #C88C10",
"/@	c #585858",
"(@	c #886008",
"_@	c #F0B010",
":@	c #627E2A",
"<@	c #8A9B72",
"[@	c #D3CED6",
"}@	c #D09010",
"|@	c #805808",
"1@	c #F0B808",
"2@	c #F4D028",
"3@	c #7E8D68",
"4@	c #80906A",
"5@	c #989B8B",
"6@	c #A6A6A6",
"7@	c #C9C9CA",
"8@	c #E8C808",
"9@	c #906000",
"0@	c #C9B395",
"a@	c #C4AE5B",
"b@	c #C8A62D",
"c@	c #BC9F22",
"d@	c #E0B008",
"e@	c #986808",
"f@	c #F8C838",
"g@	c #CFAA13",
"h@	c #D4AE14",
"i@	c #DAB214",
"j@	c #CFA707",
"k@	c #A08A22",
"l@	c #C2CCE6",
"m@	c #E8A808",
"n@	c #2C2404",
"o@	c #A87000",
"p@	c #AE8B03",
"q@	c #D8B214",
"r@	c #C29B03",
"s@	c #A79F7D",
"t@	c #DBDBDC",
"u@	c #A07008",
"v@	c #A87008",
"w@	c #B87808",
"x@	c #403004",
"y@	c #805000",
"z@	c #C88800",
"A@	c #D89800",
"B@	c #C89008",
"C@	c #B88000",
"D@	c #402808",
"E@	c #9D7F03",
"F@	c #AF8C03",
"G@	c #C29D07",
"H@	c #C2A12B",
"I@	c #DDB515",
"J@	c #D4AB08",
"K@	c #B49103",
"L@	c #A9AC9A",
"M@	c #785008",
"N@	c #885800",
"O@	c #604000",
"P@	c #93ABCF",
"Q@	c #445ECE",
"R@	c #6D83D1",
"S@	c #8091CF",
"T@	c #7789CE",
"U@	c #6877BF",
"V@	c #5770CD",
"W@	c #415BC7",
"X@	c #3749BA",
"Y@	c #583800",
"Z@	c #403824",
"`@	c #8F7400",
" #	c #A08203",
".#	c #B48F03",
"+#	c #C8A107",
"@#	c #DEB615",
"##	c #E4BB15",
"$#	c #D9AF08",
"%#	c #A58E23",
"&#	c #C3C8D4",
"*#	c #785000",
"=#	c #483000",
"-#	c #738BDC",
";#	c #4661D4",
">#	c #6F86D5",
",#	c #7C90C6",
"'#	c #6A7AC4",
")#	c #6A79C3",
"!#	c #536FB6",
"~#	c #435DCB",
"{#	c #293AB8",
"]#	c #1623AC",
"^#	c #684800",
"/#	c #604008",
"(#	c #816B06",
"_#	c #826D06",
":#	c #927600",
"<#	c #B49003",
"[#	c #B79203",
"}#	c #CCA507",
"|#	c #E0B815",
"1#	c #E5BC15",
"2#	c #E9BF16",
"3#	c #CBA203",
"4#	c #95A260",
"5#	c #DFD9E2",
"6#	c #7384D3",
"7#	c #7180BC",
"8#	c #8594B9",
"9#	c #A1A1A1",
"0#	c #ACACAC",
"a#	c #A0A3B6",
"b#	c #818FB4",
"c#	c #465EB1",
"d#	c #1723AF",
"e#	c #919AB4",
"f#	c #9F934F",
"g#	c #7E6800",
"h#	c #957900",
"i#	c #A78703",
"j#	c #BA9503",
"k#	c #BA9D21",
"l#	c #E2BA15",
"m#	c #E6BD16",
"n#	c #EAC016",
"o#	c #DEB308",
"p#	c #CEA403",
"q#	c #AEA682",
"r#	c #DCD4C8",
"s#	c #C5C0C8",
"t#	c #96A3CD",
"u#	c #B3B3B3",
"v#	c #988321",
"w#	c #826B00",
"x#	c #9A7D00",
"y#	c #AC8B03",
"z#	c #C19A03",
"A#	c #D5AC08",
"B#	c #EDC216",
"C#	c #F0C516",
"D#	c #E2B708",
"E#	c #BE9A03",
"F#	c #AA9D55",
"G#	c #8D7607",
"H#	c #9F8100",
"I#	c #B29003",
"J#	c #C69F03",
"K#	c #DCB108",
"L#	c #EEC416",
"M#	c #F1C617",
"N#	c #E4B808",
"O#	c #D2A703",
"P#	c #B7A03A",
"Q#	c #C9CEDB",
"R#	c #CFCFCF",
"S#	c #DDDDDE",
"T#	c #BEBCA2",
"U#	c #B2A459",
"V#	c #B09A37",
"W#	c #C7A824",
"X#	c #CAAA24",
"Y#	c #CBAB24",
"Z#	c #CEAD25",
"`#	c #B0A884",
" $	c #C1C1C2",
".$	c #E7E7E8",
"+$	c #CDCDCD",
"@$	c #C6C5A9",
"#$	c #C8C6AA",
"$$	c #D6D6D6",
"%$	c #DFE9F6",
"                                                                                                ",
"                                  . . . . .                                                     ",
"                              . . . . . . . . .                                                 ",
"                              . . . . . . + @ # .                                               ",
"                            . . . . . . . $ . . . .                                             ",
"                          . . . . . . . . . . . . . .                                           ",
"                          . . . . # . . . % . . . . .                                           ",
"                          . . & * . . . = - ; . . . .                                           ",
"                          . . > > > . . > , > . . . . ' )                                       ",
"                            . . ! > ~ $ . . { > . . . ] ^ / (                                   ",
"                            . . . > _ : . . . > . . . < [ } | 1                                 ",
"                        2 3 . 4 5 6 7 8 9 0 a b . . . c d e f g h i                             ",
"                      j k l . m n o p 9 q r s . . t . u v w x y z A B                           ",
"                      C D E . F G : H I 4 J - K . t t . L M N O P Q R S                         ",
"                    T U V W . - - X Y Z * - > > . . . . `  ...+.@.#.$.%.                        ",
"                  &.*.=.-.. . ;.- K F * F > > > > . . . >.,.'.).!.~.{.].^.                      ",
"                  /.(._.:.<.- > > * * - > > > > > . . . [.}.|.1.2.3.4.5.6.                      ",
"                7.8.9.0.. <.> > > > ;.> > > > > > 8 . . . a.b.c.d.e.f.g.h.i.              K     ",
"                j.k.l.m.. { > > > > ;.> > > > > n.;.. . . . . o.p.q.r.s.t.u.              v.    ",
"                &.w.x.. . ; n.> > > > > > > { K - - > y.. . . z.A.B.C.D.E.F.              G.    ",
"                H.I.J.. . > > > > > > > > > > > > F F . . . . . K.L.M.N.O.P.Q.            R.    ",
"              S.T.U.V.. . > > > > > > > > > > > > > { . W.. . . X.Y.Z.`. +.+++                  ",
"              @+#+$+. ~ > > > > > > > > > > > > > > > . # <.. . . %+&+*+=+-+;+            >+    ",
"              ,+'+T.. . > > > > > > > > > > > > > > > n.. )+. . . !+~+{+]+^+/+            (+    ",
"              _+:+. <+. > > > > > > > > > > > > > > > > . . . . . . [+}+|+1+2+    3+4+5+6+      ",
"                . . . <.> > > > , > > > > > > > > > > > . . . . . . 7+8+9+0+a+b+c+d+e+f+g+      ",
"                . . . . > > > > , > > > > > > > > > > > . y.. . . . h+i+j+k+l+m+n+o+e+p+q+      ",
"                . <.; - > > > > , > > > > > > > > > > > . $ . . . . r+s+s+k+t+u+n+v+w+x+        ",
"                . . . - > > > > , > > > > > > > > > > > + <.y+$ . . 8+s+k+z+A+u+B+C+D+E+        ",
"                F+F+F+. > > > > , > > > > > > > > > > > . . . . G+. 8+s+k+H+I+u+J+K+L+M+        ",
"              N+o O+F+P+> > > > n.> > > > > > > > > 4 9 . . . $ Q+p 8+s+R+S+T+U+V+W+X+Y+        ",
"      Z+`+ @5 F+a F+F+o P+. . > > > > > > > > > > K .@+@@@@@#@5 F+o s+$@%@&@u+n+*@=@-@          ",
"      ;@o o F+o O+o 6 o >@. . ,@> > > > > > > > > K '@)@a r )@6 o F+F+!@~@I+u+J+{@D+]@          ",
"      ^@5 >@o a o o a 6 6 . . /@> > > > > > > > > K (@)@5 _@5 F+o >@6 o ~@u+n+*@:@<@[@          ",
"      }@ @F+F+a F+o 6 o F+}@> > > > > > > > > > > . |@1@o F+F+F+a F+6 2@6 3@4@5@6@7@            ",
"      N+`+F+o F+F+F+2@O+6 8@H > > > > > > > > > . . 9@1@a o 2@a O+6 O+a F+0@a@b@c@              ",
"      4 5 F+F+6 O+O+o o F+d@@@;.> > > > > > . . . . e@1@a 6 o a o a f@4 g@h@i@j@k@l@            ",
"      4 a m@5 O+F+F+o a a  @_ n@. . . . . . . . . . o@F+F+6 o a O+f@p@g@h@q@j@r@s@t@            ",
"            e@u@v@w@@@I ;@G X x@. . . . . . . . . . y@z@A@B@C@D@E@F@G@H@q@I@J@K@L@              ",
"                  m M@e@v@N@O@    P@Q@R@S@T@U@V@W@X@Y@o@w@v@Z@`@ #.#+#i@@###$#%#&#              ",
"                        *#=#      -#;#>#,#'#)#!#~#{#]#^#/#(#_#:#<#[#}#|#1#2#3#4#5#              ",
"                                  6#7#8#9#0#E+a#b#c#d#e#f#g#h#i#j#k#l#m#n#o#p#q#                ",
"                                    r#            s#t#u#v#w#x#y#z#A#2#B#C#D#E#v.                ",
"                                                        F#G#H#I#J#K#L#M#N#O#P#Q#R#S#            ",
"                                                          T#U#V#W#X#Y#Z#P#`# $.$                ",
"                                                              +$@$#$#$v.$$%$                    ",
"                                                                                                ",
"                                                                                                "};
