/* XPM */
static char *jaxe[] = {
/* columns rows colors chars-per-pixel */
"32 32 163 2 ",
"   c gray4",
".  c #131313",
"X  c gray11",
"o  c #232323",
"O  c #272728",
"+  c #2D2D2D",
"@  c #323232",
"#  c #363638",
"$  c #3B3B3B",
"%  c #48330D",
"&  c #493512",
"*  c #785F15",
"=  c #41403F",
"-  c #695224",
";  c #434343",
":  c #474847",
">  c #4C4D4C",
",  c #525252",
"<  c #5E5E5E",
"1  c #776444",
"2  c #67665D",
"3  c #656565",
"4  c #6C6C6C",
"5  c #757575",
"6  c #7B7B7B",
"7  c #8A7508",
"8  c #957D03",
"9  c #917B08",
"0  c #9B7F0C",
"q  c #8F7512",
"w  c #857A65",
"e  c #8C7E60",
"r  c #867C6A",
"t  c #8B7F6E",
"y  c #9C8106",
"u  c #978009",
"i  c #A88D01",
"p  c #B39601",
"a  c #B79A00",
"s  c #BD9E05",
"d  c #B09509",
"f  c #C2A303",
"g  c #D0AE00",
"h  c #D4B407",
"j  c #DAB803",
"k  c #C6A911",
"l  c #D4B510",
"z  c #E1BF07",
"x  c #CEB322",
"c  c #DABD25",
"v  c #CBB438",
"b  c #DABF36",
"n  c #DEC53D",
"m  c #8B8477",
"M  c #918A7E",
"N  c #D4C460",
"B  c #D8C86F",
"V  c #848484",
"C  c #8C8A87",
"Z  c #8C8C8C",
"A  c #94938F",
"S  c #939393",
"D  c #9D9D9D",
"F  c #A09787",
"G  c #A0968A",
"H  c #A29E98",
"J  c #A6A298",
"K  c #A9A499",
"L  c #A3A3A4",
"P  c #ADADAD",
"I  c #B2AFAC",
"U  c #B6B0A8",
"Y  c #AFB0B1",
"T  c #B3B4B4",
"R  c #BAB7B5",
"E  c #BBBBBB",
"W  c #C8BEBC",
"Q  c #D9C89B",
"!  c #DCD093",
"~  c #E7CE8A",
"^  c #E8D886",
"/  c #EADF9E",
"(  c #D7CAA5",
")  c #D2C6A9",
"_  c #DED2AA",
"`  c #CEC9B7",
"'  c #C1C0BF",
"]  c #CCC8BF",
"[  c #DAD1B3",
"{  c #E1D0A8",
"}  c #E2D8AB",
"|  c #E0D6B4",
" . c #E1D9B3",
".. c #EBDDB3",
"X. c #EFE1B5",
"o. c #EDE4BA",
"O. c #ECECBD",
"+. c #F3E4BB",
"@. c #F3EBBF",
"#. c #9BBCDA",
"$. c #B6BEC5",
"%. c #BEBFC1",
"&. c #A5BED4",
"*. c #BFC0C0",
"=. c #BBC3CD",
"-. c #AAC3DC",
";. c #B8C5D7",
":. c #C4C4C4",
">. c #CBCBC3",
",. c #C5C7CA",
"<. c #CCCCCB",
"1. c #D4D2C6",
"2. c #DAD7C5",
"3. c #DDDBC6",
"4. c #D6D4CC",
"5. c #D7D8C8",
"6. c #DEDBCB",
"7. c #CECED1",
"8. c #D3D3D3",
"9. c #DEDED7",
"0. c #D4D5DA",
"q. c #D9D6D9",
"w. c #DCDCDC",
"e. c #E0DDC0",
"r. c #E0DDD3",
"t. c #E6E1C1",
"y. c #E6E2CE",
"u. c #EEEFC8",
"i. c #F0E6C6",
"p. c #F5ECC3",
"a. c #F8EECE",
"s. c #F6F3C7",
"d. c #FDFBCA",
"f. c #E2E5DF",
"g. c #EEEDDD",
"h. c #F4EEDB",
"j. c #F3F4D0",
"k. c #F8F0D6",
"l. c #F6F2DE",
"z. c #F8F3DE",
"x. c #C6D3E2",
"c. c #D6D8E0",
"v. c #DBDBE0",
"b. c #DEE2E6",
"n. c #DDE4EC",
"m. c #DBE4F2",
"M. c #D7E6F8",
"N. c #E4E4E4",
"B. c #ECECE7",
"V. c #E5E6EA",
"C. c #E6EAED",
"Z. c #EBEBEB",
"A. c #F1F1E2",
"S. c #F8F4E3",
"D. c #F2F0EF",
"F. c #E2EAF1",
"G. c #EEEEF3",
"H. c #EDF0F4",
"J. c #F4F4F4",
"K. c #FAFAF0",
"L. c #F5F8FD",
"P. c #FEFEFE",
"I. c None",
/* pixels */
"I.I.I.I.I.I.I.I.I.I.I.I.I.I.I.I.I.I.I.I.I.I.I.I.I.I.I.I.I.I.I.I.",
"I.I.I.I.I.I.I.I.I.I.I.I.I.I.I.I.R *.q.C.J.P.I.I.I.I.I.I.I.I.I.I.",
"I.I.I.I.I.I.I.I.I.I.I.T E 8.V.Z.N.9.6.u.O.g.T I.I.I.I.I.I.I.I.I.",
"I.I.I.I.I.I.I.%.0.N.N.8.w.2.) ) _ ..p.s.d.j.7.I.I.I.I.I.I.I.I.I.",
"I.I.R W ` f.G.y.^ 1.0.Z.J.i.X.p.+.X.o.| e.A.N.I.I.I.I.I.I.I.I.I.",
"I.I.E B.=.;.>.b f v 5.P.P.k.{ [ 3.5.q.v.v.P.L.I I.I.I.I.I.I.I.I.",
"I.I.I.F.#.-.N g 9 p x p.P.P.N.b.V.Z.b.N.V.J.L.:.I.I.I.I.I.I.I.I.",
"I.I.I.b.b.V.! l p 0 i k / H.V.N.Z.w.w.B.Z.B.D.N.I.I.I.I.I.I.I.I.",
"I.I.I.q.J.C.m. .c a 7 8 h B J M m H <.B.J.K.P.J.T I.I.I.I.I.I.I.",
"I.I.I.E P.P.F.F.2.n f d z j q & % w P <.Z.J.P.L.R I.I.I.I.I.I.I.",
"I.I.I.,.J.P.J.n.v.K y s 0 * - 1 F L 6 4 S ,.P.K.w.I.I.I.I.I.I.I.",
"I.R f.N.Z.P.G.n.w.R r e m G I E L Z 4 ; 6 L q.P.G.I.I.I.I.I.I.I.",
"I.P.q.7.N.P.L.F.7.:.0.0.8.,.Y D S V 4 5 Z D R L.G.T I.S ; + I.I.",
"I.<.B.<.N.P.K.V.P S *.E E P L S C 4 : 3 V R <.P.m.,.S $   O + I.",
"I.I.J.7.8.K.P.7.S V Z P P D S Z 6 , 4 L ,.:.q.P.P.8.<   + . I.I.",
"I.I.E V.7.J.P.,.P D S Z C C V 5 4 S ,.0.:.7.P.P.Z.P + o o , I.I.",
"I.I.I.N.8.Z.P.8.E E T P D S S L :.7.8.:.4.k.S.J.' > X @ @ I.I.I.",
"I.I.I.P Z.N.P.J.,.:.<.7.7.8.8.<.:.] Q e.A.X.h.G.< . $ X I.I.I.I.",
"I.I.I.I.:.G.P.P.P.Z.q.4.8.,.4.N.Z.p.~ S.P.P.P.' . $ + 6 I.I.I.I.",
"I.I.I.I.I.N.P.P.P.P.P.P.P.D.L.P.P.S.h.Z.N.N.f.> O X V E I.I.I.I.",
"I.I.I.I.I.T P.P.P.P.P.P.P.J.G.P.P.G.0.w.w.N.6 + @ 3 J.w.I.I.I.I.",
"I.I.I.I.I.L J.P.P.P.P.P.P.J.B.P.P.J.q.f.N.L O $ < L.P.N.I.I.I.I.",
"I.I.I.I.I.I.N.P.P.P.P.P.P.P.Z.P.P.P.q.N.:.@ ; ; B.P.K.B.R I.I.I.",
"I.I.I.I.I.I.8.P.P.P.P.P.P.P.Z.L.P.P.a.} : ; @ A 9.4.:.%.:.I.I.I.",
"I.I.I.I.I.I.E P.P.P.P.P.P.J.Z.J.P.G.6.2 $ ; 5 T L D D I.I.I.I.I.",
"I.I.I.I.I.I.P L.M.m.D.V.w.<.:.T P T 5 # , $ S I.I.I.I.I.I.I.I.I.",
"I.I.I.I.I.I.P x.&.$.*.Y P P P %.R 6 @ < + I.I.I.I.I.I.I.I.I.I.I.",
"I.I.I.I.I.I.I.<.I T T P T E :.J I., ; @ I.I.I.I.I.I.I.I.I.I.I.I.",
"I.I.I.I.I.I.I.H D D R E 7.<.L I.I.@ + I.I.I.I.I.I.I.I.I.I.I.I.I.",
"I.I.I.I.I.I.I.I.I.I.P P.R I.I.I.Z ; I.I.I.I.I.I.I.I.I.I.I.I.I.I.",
"I.I.I.I.I.I.I.I.I.I.I.I.I.I.I.I.I.I.I.I.I.I.I.I.I.I.I.I.I.I.I.I.",
"I.I.I.I.I.I.I.I.I.I.I.I.I.I.I.I.I.I.I.I.I.I.I.I.I.I.I.I.I.I.I.I."
};
