/* XPM */
static char *jmeters_32x32[] = {
/* columns rows colors chars-per-pixel */
"32 32 78 1 ",
"  c #019101",
". c #089408",
"X c #0F970F",
"o c #109710",
"O c #179B17",
"+ c #189B18",
"@ c #229F22",
"# c #23A023",
"$ c #26A126",
"% c #29A229",
"& c #30A530",
"* c #37A937",
"= c #38A938",
"- c #3CAA3C",
"; c #42AD42",
": c #44AE44",
"> c #4AB14A",
", c #4DB24D",
"< c #50B350",
"1 c #51B451",
"2 c #58B758",
"3 c #5BB85B",
"4 c #5FBA5F",
"5 c #62BB62",
"6 c #65BC65",
"7 c #67BD67",
"8 c #6ABE6A",
"9 c #6CBF6C",
"0 c #6DC06D",
"q c #6FC06F",
"w c #70C170",
"e c #76C376",
"r c #77C477",
"t c #79C579",
"y c #7FC77F",
"u c #81C981",
"i c #84CA84",
"p c #87CC87",
"a c #88CC88",
"s c #8ECF8E",
"d c #90D090",
"f c #93D193",
"g c #95D295",
"h c #98D398",
"j c #9AD49A",
"k c #9FD69F",
"l c #A1D7A1",
"z c #A6D9A6",
"x c #A8DAA8",
"c c #ADDCAD",
"v c #AFDDAF",
"b c #B1DEB1",
"n c #B6E0B6",
"m c #B9E1B9",
"M c #BEE3BE",
"N c #BFE4BF",
"B c #C1E4C1",
"V c #C5E6C5",
"C c #C5E7C5",
"Z c #C8E7C8",
"A c #C9E8C9",
"S c #CFEACF",
"D c #D1EBD1",
"F c #D4EDD4",
"G c #D5EDD5",
"H c #DAEFDA",
"J c #DEF1DE",
"K c #E3F3E3",
"L c #E4F3E4",
"P c #E6F4E6",
"I c #E8F5E8",
"U c #EDF7ED",
"Y c #EEF8EE",
"T c #F1F9F1",
"R c #F5FBF5",
"E c #F7FCF7",
"W c #FAFDFA",
"Q c gray100",
/* pixels */
"QQQQQQQQQQQQQQQQQQQQQQQQQQQQQQQQ",
"QQQQQ7&&IJQQQQQQQQQQQQQQQQQQQQQQ",
"QQQQQ:  KqZQQQQQQQQQQQQQQQQQQQQQ",
"QQQQQ:  K1 zQQQQQQQQQQQQQQQQQQQQ",
"QQQQQ:  K;F2LWQQQQQQQQQQQQQQQQQQ",
"QQQQQ:  K2Q8#uQQQQQQQQQQQQQQQQQQ",
"QQQQQ:  KqQqf<WQQQQQQQQQQQQQQQQQ",
"QQQQQ:  KqQyGjKQQQQQQQQQQQQQQQQQ",
"QQQQQ:  KqQuYvAD=YQkQQQQQQQQQQQQ",
"QQQQQ:  KqQuYBbe*yQwQQQQQQQQQQQQ",
"QQQQQ:  KqQuYBz<T7T;QQQQQQQQQQQQ",
"QQQQQ:  KGQuYBz,UvDOMQQQQQQQQQQQ",
"QQQQQ:  KQQuYBz>&bmq$LQQQQQQQQQQ",
"QQQQQ:  KQQGRBz7z+kqLITQQQQQQQQQ",
"QQQQQ:  KQQQQBzwTnfqQQ$wQQQQQQQQ",
"QQQQQ:  KQQQQYDzBQQqQG=,LQQQQQQQ",
"QQQQQ:  KQQQQQQI1QQqQmfJuWQQQQQQ",
"QQQQQ:  KQQQQQQQ35SrQv8QuGlQQQQQ",
"QQQQQ:  KQQQQQQQT:vpEn#5uG%=QQQQ",
"QQQQQ:  KQQQQQQQQQQlMZh7%G&aHGQQ",
"QQQQQ:  KQQQQQQQQQQT*HtQhGeQ9.SQ",
"QQQQQ:  KQQQQQQQQQQQnJ4QQGsQ7D7Q",
"QQQQQ:  KQQQQQQQQQQQQQemQFhQeWGQ",
"QQQQQ-  UQQQQQQQQQQQQQKO7FhQsvQQ",
"QQQQQ$ .QQQQQQQQQQQQQQQZyGhQT*QQ",
"QQQQQX @QQQQQQQQQQQQQQQQQGhQQszQ",
"QQQQZ  -QQQQQQQQQQQQQQQQQTNQLW9Q",
"QQQE>  hQQQQQQQQQQQQQQQQQQQQ8WeQ",
"Wa8%  XTQQQQQQQQQQQQQQQQQQQQf>>Q",
"I    .zQQQQQQQQQQQQQQQQQQQQQQ7yQ",
"Y  .=ZQQQQQQQQQQQQQQQQQQQQQQQQQQ",
"WZHQQQQQQQQQQQQQQQQQQQQQQQQQQQQQ"
};
