/* XPM */
static char *jnoisemeter_32x32[] = {
/* columns rows colors chars-per-pixel */
"32 32 85 1 ",
"  c #DC0000",
". c #DC0101",
"X c #DC0404",
"o c #DD0B0B",
"O c #DE0D0D",
"+ c #DE1111",
"@ c #DF1616",
"# c #DF1A1A",
"$ c #E01F1F",
"% c #E02121",
"& c #E12424",
"* c #E22B2B",
"= c #E22F2F",
"- c #E33232",
"; c #E33737",
": c #E43939",
"> c #E43A3A",
", c #E43D3D",
"< c #E54141",
"1 c #E54343",
"2 c #E54444",
"3 c #E64A4A",
"4 c #E74D4D",
"5 c #E75151",
"6 c #E75656",
"7 c #E85454",
"8 c #E85555",
"9 c #E85858",
"0 c #E85B5B",
"q c #E95F5F",
"w c #E96060",
"e c #E96161",
"r c #E96464",
"t c #EA6565",
"y c #EB6A6A",
"u c #EB6D6D",
"i c #EC7272",
"p c #EC7373",
"a c #EC7575",
"s c #EC7878",
"d c #EC7B7B",
"f c #ED7E7E",
"g c #EE8080",
"h c #EF8787",
"j c #EF8989",
"k c #F08C8C",
"l c #F09090",
"z c #F09191",
"x c #F09292",
"c c #F19494",
"v c #F19999",
"b c #F29D9D",
"n c #F3A2A2",
"m c #F3A6A6",
"M c #F4ABAB",
"N c #F4ACAC",
"B c #F4AFAF",
"V c #F4B0B0",
"C c #F5B2B2",
"Z c #F5B4B4",
"A c #F5B8B8",
"S c #F6BFBF",
"D c #F7C2C2",
"F c #F7C7C7",
"G c #F7C8C8",
"H c #F8C9C9",
"J c #F8CCCC",
"K c #F9D2D2",
"L c #F9D3D3",
"P c #F9D6D6",
"I c #FAD6D6",
"U c #FADBDB",
"Y c #FADDDD",
"T c #FBE3E3",
"R c #FBE4E4",
"E c #FCE6E6",
"W c #FCE8E8",
"Q c #FCEAEA",
"! c #FCECEC",
"~ c #FDEDED",
"^ c #FDF0F0",
"/ c #FDF3F3",
"( c #FEF7F7",
") c #FEFBFB",
"_ c gray100",
/* pixels */
"________________________________",
"_____kqqQ___________g(__________",
"_____2..T___________4^__________",
"_____2..T___________Y___________",
"_____2..T)ETT___HK__R__EC)__HI__",
"_____2..TK8+#U_Z..D_4^JOoi_b.oJ_",
"_____2..TKoAsb_<nl5_4^kB)K_*Dbt_",
"_____2..TK=_Fs)#__#_4^tY__Y<_)-_",
"_____2..TK9_R9Q:__&_4)l2U_F2bv=_",
"_____2..TKt_Q8T5__,~4^^<+FZ$::<_",
"_____2..TKt_Q8~;__&_4~__hwFw____",
"_____2..TKt_Q8_$_)%_4^__(<Y-____",
"_____2..TKt_Q8_3hu9_4^vYmi_-kYl_",
"_____2..TKt_Q8_GXOI_4~u.%J_AX.y_",
"_____2..T_______Q~_____I(___QU__",
"_____2..T_______________________",
"_____2..T_______________________",
"_____2..T____________S~_________",
"_____2..T____________gU_________",
"_____2..T__!__Q___E__gU__^)___Q)",
"_____<..T(6O9vOI_M.j_..hQ+2(GtXR",
"_____<..R/+n-qcg_<A:(iA~fjsMH@B(",
"_____;..)(-_tb)r~5_vJhY_2_QfH8__",
"_____#.+_/6_dD_9I6ZhMgU_<CZtHa__",
"____RX.-_/r_fI_6G@*&nhY_%=&wGl__",
"____d..u_(r_gP_6Iu___gY_<___Gl__",
")FMq..XR_^t_hL_9Q3___lJ_,(__Hk__",
"Q.....f__(w_gP_6_;BSGCaTsaUmHj__",
"R...*Z___^t_gI_8_M.oJE;gE@.jJk__",
"_DK)______________RQ_____(Y_____",
"________________________________",
"________________________________"
};
