/* XPM */
static char *latexila[] = {
/* columns rows colors chars-per-pixel */
"32 32 240 2",
"   c #160816",
".  c #220F28",
"X  c #2A102E",
"o  c #311132",
"O  c #331A36",
"+  c #31143B",
"@  c #38143C",
"#  c #115F02",
"$  c #275D03",
"%  c #1E6D00",
"&  c #226000",
"*  c #346E00",
"=  c #3A6E0E",
"-  c #2B7701",
";  c #257D00",
":  c #396115",
">  c #72540F",
",  c #42512A",
"<  c #5F5A32",
"1  c #704D23",
"2  c #7C4E2D",
"3  c #361441",
"4  c #3C1443",
"5  c #461649",
"6  c #411949",
"7  c #501D4C",
"8  c #4A1C54",
"9  c #4E1E5C",
"0  c #511C57",
"q  c #561C5F",
"w  c #4F2445",
"e  c #592158",
"r  c #5B225F",
"t  c #5E1E67",
"y  c #542262",
"u  c #582269",
"i  c #692260",
"p  c #66206F",
"a  c #66276D",
"s  c #643266",
"d  c #7A3860",
"f  c #632570",
"g  c #612675",
"h  c #692379",
"j  c #6D2A7D",
"k  c #732974",
"l  c #742E7D",
"z  c #753776",
"x  c #846A0D",
"c  c #9F760C",
"v  c #8A5826",
"b  c #AD7326",
"n  c #AA7430",
"m  c #A55E56",
"M  c #987A5C",
"N  c #B36855",
"B  c #85676D",
"V  c #AE6367",
"C  c #449509",
"Z  c #4C8312",
"A  c #559913",
"S  c #788125",
"D  c #719F2A",
"F  c #6BA726",
"G  c #73B127",
"H  c #AC8000",
"J  c #A98A0D",
"K  c #BA8D15",
"L  c #B68E18",
"P  c #B99E16",
"I  c #B8951B",
"U  c #A78026",
"Y  c #B38824",
"T  c #99A430",
"R  c #9CAA30",
"E  c #82BE36",
"W  c #82B03C",
"Q  c #9FBB31",
"!  c #99B93A",
"~  c #A9B42E",
"^  c #BDB62C",
"/  c #B4BA2D",
"(  c #A9B93B",
")  c #C79100",
"_  c #C49F0D",
"`  c #CFA90D",
"'  c #D3B10C",
"]  c #CDA216",
"[  c #CBA619",
"{  c #D9AB16",
"}  c #CCB316",
"|  c #D6BB1A",
" . c #FABB02",
".. c #FEAE10",
"X. c #C08829",
"o. c #C38B34",
"O. c #D2A326",
"+. c #C0B824",
"@. c #CAB02D",
"#. c #FABE3E",
"$. c #90C93E",
"%. c #9AD83F",
"&. c #BDCE2B",
"*. c #B5C838",
"=. c #DAC31F",
"-. c #E6CA1D",
";. c #EFD51D",
":. c #D8CA25",
">. c #C4CB30",
",. c #D4C833",
"<. c #F5C824",
"1. c #EAD925",
"2. c #FDC038",
"3. c #D1E036",
"4. c #ECE42B",
"5. c #F4E420",
"6. c #E8E236",
"7. c #F1EB3E",
"8. c #EEF93E",
"9. c #A09B42",
"0. c #AAA749",
"q. c #8F8E74",
"w. c #C2AE4D",
"e. c #FCA943",
"r. c #FDA04E",
"t. c #F6B352",
"y. c #C9A46A",
"u. c #D5A961",
"i. c #E8BB75",
"p. c #FFB471",
"a. c #FCBC7F",
"s. c #92D241",
"d. c #ADC343",
"f. c #A3D54F",
"g. c #AADB4D",
"h. c #ABE84B",
"j. c #B4EB53",
"k. c #BDEC56",
"l. c #B1E15E",
"z. c #B3E859",
"x. c #BFF55D",
"c. c #B3C161",
"v. c #C6D44E",
"b. c #CCDE4C",
"n. c #DDD44C",
"m. c #E1CA49",
"M. c #F6D140",
"N. c #D1E141",
"B. c #D6E14B",
"V. c #D9EA53",
"C. c #C5FA5A",
"Z. c #EEF44E",
"A. c #F3F547",
"S. c #F1FE55",
"D. c #F6FD56",
"F. c #D7C760",
"G. c #DED862",
"H. c #D9C177",
"J. c #F4C761",
"K. c #F8D065",
"L. c #EBCF79",
"P. c #F9CF7C",
"I. c #F5D87A",
"U. c #DAE660",
"Y. c #C1F464",
"T. c #C8FF66",
"R. c #CDFD6A",
"E. c #D7E877",
"W. c #EEFE66",
"Q. c #F4F960",
"!. c #E8F079",
"~. c #742880",
"^. c #732B87",
"/. c #7A2E86",
"(. c #762E89",
"). c #7F2F8F",
"_. c #7D3685",
"`. c #7A3E9B",
"'. c #923583",
"]. c #882A91",
"[. c #883995",
"{. c #8F389E",
"}. c #8F33A5",
"|. c #9733A3",
" X c #9938A0",
".X c #9938AE",
"XX c #AD3AAB",
"oX c #A538B3",
"OX c #A239B8",
"+X c #A4509F",
"@X c #9C56AB",
"#X c #AF4CB4",
"$X c #AC6EA8",
"%X c #AD3EC9",
"&X c #B73CC4",
"*X c #B243C5",
"=X c #C041D4",
"-X c #C64BD2",
";X c #C349DE",
":X c #E047EB",
">X c #B69DB3",
",X c #C4AD97",
"<X c #D2BF91",
"1X c #FEB984",
"2X c #F4C783",
"3X c #FAC280",
"4X c #E3DF8E",
"5X c #E0CE9C",
"6X c #FCC790",
"7X c #F4CC9A",
"8X c #FAD395",
"9X c #E0E987",
"0X c #E8E788",
"qX c #EDE08F",
"wX c #EFE59C",
"eX c #E2E89C",
"rX c #D5D6AC",
"tX c #EDCEA0",
"yX c #FFCAA2",
"uX c #E9D2BB",
"iX c #FFD3B0",
"pX c #FCDCB6",
"aX c #FDD4BC",
"sX c #E8E2A6",
"dX c #E0E4AC",
"fX c #F4E2AF",
"gX c #FCE2B2",
"hX c #F9EBB0",
"jX c #F6E6BC",
"kX c #CAACCB",
"lX c #FDDFC3",
"zX c #F7F2C5",
"xX c #FEE7D4",
"cX c #FBEAE1",
"vX c #FAF5E0",
"bX c #FCF3E6",
"nX c #FDF6EF",
"mX c #FFEAFA",
"MX c #FDFEFC",
"NX c None",
/* pixels */
"NXNXNXNXNXNXNX% - % % NXNXNXNXNXNXNXNXNXNXNXNXNXNXNXNXNXNXNXNXNX",
"NXNXNXNXNX% ; A G E E A % NXNXNXNX. NXNXNXNXNXNXNXNXNXNXNXNXNXNX",
"NXNXNXNX% C E k.j.x.k.R.$.- . NXNX@ + /.NXNXNXNXNXNXNXNXNXNXNXNX",
"NXNXNXNX; f.x.h.x.j.h.x.R.%., [.~.f 6 q NXNXNXNXNXNXNXNXNXNXNXNX",
"NXNXNX# G R.j.Y.x.j.Y.j.Y.C.W _.p g ).3 3 NXNXNXNXNX. NXNXNXNXNX",
"NXNXNX& f.T.h.Y.j.Y.R.j.Y.h.f.s u (.).O _.NXNXNXNX3 X NXNXNXNXNX",
"NXNXNX* g.T.j.x.! ! z.x.k.h.z.B j ).}.z #XNXNXNXa q NXNXNXNXNXNX",
"NXNXNX$ s.T.j.x.d.>.Q f.z.T.l.0.0.0.0.0.0.$XNX>X@Xy NXNXNXNXNXNX",
"NXNXNXNXF T.Y.h.! 3.3.>.! l.c.F.!.vXG.eX0.0.0.0.kXNXNXNXNXNXNXNX",
"NXNXNXNX= %.T.x.! N.N.N.B.*.9.~ >.i.b.qXI.wXhX0.0.0.0.NXNXNXNXNX",
"NXNXNXNXNXZ %.T.f.&.N.b.U.N.9X4X0.,Xw.y.<XrXu.tXzX5X0.0.q.NXNXNX",
"NXNXNXNXNXNX: D $.( V.E.G.,.G.4XjXbX0.uX0.0.0.0.H.0.0.4Xv.S NXNX",
"NXNXNXNXNXNXNXNXNX0.0XeXJ.wXqXsXI.e.3XxXMXnXMXpXiXnXfX0X&.NXNXNX",
"NXNXNXNXNXNXNXNXNX0.dXzXt.vX7XK.#.6X2.8Xr.yXbX6XnXMXjXb.S NXNXNX",
"NXNXNXNXNXNXNXNX. p 0.iXiXMXcX .gXMXvX..aXlXlXa.nXxXn.T `.NXNXNX",
"NXNXNXNXNXNXNXNXNXp t 0.iXMXp.P.M.jXMXr.nXbXvXpXp.m.~ ~.NXNXNXNX",
"NXNXNXNXNXNXNXj NXNX|.f 0.3XiXmXK.J.1XcXxXpXL.m.,.R f j NXNXNXNX",
"NXNXNXNXNXNXNX}.NXNX^.*Xp p 0.2X<.6XiX8Xt.m.>.0.< NXj NXNXNXNXNX",
"NXNXNXNXNXNXNXNXj NX9 -XOX=Xd J +.^ / T 9.M +X~.NXu y NXNXNXNXNX",
"NXNXNXNXNXNXNXNXg u NX{.;X*XV ;.=.} 2 f + .XOX3 6 g NXNXNXNXNXNX",
"NXNXNXNXNXNXNXNXNXf NX+ &X:Xo.A.Q.-.w 4 f 5 oXf 9 NXNXNX4 NXNXNX",
"NXNXNXNXNXNXNXNXNX8 u @ t ;XO.Q.Z.Y ~.6 5 0 (.0 q NXNX0 k NXNXNX",
"NXNXNXNXNXNX6 @ NXNX9 r (.[.{ S.7.n a r 5 ^.[.f o o  X~.NXNXNXNX",
"NXNXNXNXNXNXe a @ NX0 8 f XX{ S.7.N q ~.%X;X%Xy O {.*XNXNXNXNXNX",
"NXNXNXNXNXNXNX8 *Xa   f 6 ].O.S.7.v ~.&X|.y ).@ a ~.NXNXNXNXNXNX",
"NXNXNXNXNXNXNXNX)..X9 8 0 9 X.Z.A.n u 4 6 y /.~.i NXNXNXNXNXNXNX",
"NXNXNXNXNXNXNXNXNXq l @ @ ~.m 6.D.L }.~.f /..X;Xh @ NXNXNXNXNXNX",
"NXNXNXNXNXNXNXNXNXNX7 /.oX%XOX} D.=.'.=X|.u 3 ].}.0 NXNXNXNXNXNX",
"NXNXNXNXNXNXNXNXNX@ j =X.X.X.Xb A.A.H K I U U x > > NXNXNXNXNXNX",
"NXNXNXNXNXNXNXNXNX6 t d 1 U @.[ ` 8.' ' S.Z.Z.7.7.6.:.:.' c NXNX",
"NXNXNXNXNXNXNXNXNXL } 1.6.Z.S.A._ ) ] 6.W.W.S.D.A.6.:.=._ NXNXNX",
"NXNXNXNXNXNXNXNXNXL } -.1.6.1.6.5.-.1.4.;.| P P J NXNXNXNXNXNXNX"
};
