/* XPM */
static char *linpsk[] = {
/* columns rows colors chars-per-pixel */
"32 32 3 1",
"  c #000000",
". c #00C000",
"X c #FFFFFF",
/* pixels */
"................................",
"................................",
"................................",
"................................",
".....XX...........XXXXXX........",
"....XXXX........XXXXXXXXXX......",
"...XXXXXX......XXXXXXXXXXXX.....",
"...XXXXXX......XXXXXXXXXXXX.....",
"..XXXXXXXX....XXXXXXXXXXXXXX....",
"..XXXXXXXX...XXXXXXXXXXXXXXXX...",
".XXXXXXXXXX..XXXXXXXXXXXXXXXX...",
".XXXXXXXXXX.XXXXXXXXXXXXXXXXXX.X",
"XXXXXXXXXXXXXXXXXXXXXXXXXXXXXXXX",
".XXXXXXXXXX.XXXXXXXXXXXXXXXXXX.X",
".XXXXXXXXXX.XXXXXXXXXXXXXXXXXX.X",
"..XXXXXXXX...XXXXXXXXXXXXXXXX...",
"..XXXXXXXX....XXXXXXXXXXXXXX....",
"...XXXXXX......XXXXXXXXXXXX.....",
"...XXXXXX......XXXXXXXXXXXX.....",
"....XXXX........XXXXXXXXXX......",
".....XX...........XXXXXX........",
"................................",
"................................",
"................................",
".... ... . .. .   ..   . .. ....",
".... ... . .. . .. . ... . .....",
".... ... .  . . .. .. ..  ......",
".... ... . .  .   .... .  ......",
".... ... . .. . ...... . . .....",
"....   . . .. . ....  .. .. ....",
"................................",
"................................"
};
