/* XPM */ 
static const unsigned char * lmemory_xpm[] = {
"32 32 103 2",
"  	c None",
"! 	c #54BA76",
"# 	c #55BB76",
"$ 	c #50B578",
"% 	c #054E96",
"& 	c #004898",
"' 	c #014998",
"( 	c #003E92",
") 	c white",
"* 	c #51B678",
"+ 	c #57BE75",
", 	c #4FB578",
"- 	c #054D96",
". 	c #54B976",
"0 	c #014599",
"1 	c #003E91",
"2 	c #004197",
"3 	c #54B977",
"4 	c #0D4AA1",
"5 	c #014A98",
"6 	c #00429B",
"7 	c #06449B",
"8 	c #F0F4F9",
"9 	c #004294",
": 	c #00429A",
"; 	c #044D97",
"< 	c #004398",
"= 	c #003D91",
"> 	c #004899",
"? 	c #004998",
"@ 	c #014898",
"A 	c #044596",
"B 	c #F4F7FA",
"C 	c #014596",
"D 	c #00459B",
"E 	c #00469B",
"F 	c #0B4B96",
"G 	c #0C4C96",
"H 	c #0D4C95",
"I 	c #00479A",
"J 	c #00469A",
"K 	c #004799",
"L 	c #003B9C",
"M 	c #0C519D",
"N 	c #F88265",
"O 	c #004699",
"P 	c #00459C",
"Q 	c #FF8860",
"R 	c #FF8761",
"S 	c #F98464",
"T 	c #F88365",
"U 	c #FF8861",
"V 	c #ED8265",
"W 	c #00449C",
"X 	c #034A97",
"Y 	c #F88465",
"Z 	c #F68365",
"[ 	c #F58365",
"] 	c #FE8563",
"^ 	c #F08265",
"_ 	c #04479A",
"` 	c #FC8563",
"a 	c #4DBA77",
"b 	c #F67F60",
"c 	c #F57A5A",
"d 	c #F67D5D",
"e 	c #FE8364",
"f 	c #F38C64",
"g 	c #5AB975",
"h 	c #52BB76",
"i 	c #F57E5F",
"j 	c #F08566",
"k 	c #5BB875",
"l 	c #F68263",
"m 	c #F6886B",
"n 	c #FFF9F8",
"o 	c #EF8566",
"p 	c #5CB875",
"q 	c #ED8266",
"r 	c #FF7F64",
"s 	c #55BA76",
"t 	c #53BB76",
"u 	c #00439C",
"v 	c #EC8166",
"w 	c #FC8464",
"x 	c #F78365",
"y 	c #55BB75",
"z 	c #57B975",
"{ 	c #014799",
"| 	c #58B876",
"} 	c #60B675",
"~ 	c #4FBC77",
" !	c #50BC76",
"!!	c #03408F",
"#!	c #49BE77",
"$!	c #48BE77",
"%!	c #53BA76",
"&!	c #4FB872",
"'!	c #F1F6F7",
"(!	c #EEF2F9",
")!	c #004296",
"*!	c #024C95",
"+!	c #004697",
"! ! ! ! ! ! # $ % & ' ' ' ' ' ' ' ' ' ' ' ' ' ' ' ( ' ) ) ) ) ) ",
"! ! ! ! ! ! # $ % & ' ' ' ' ' ' ' ' ' ' ' ' ' ' ' ( ' ) ) ) ) ) ",
"! ! ! ! ! ! # * % & ' ' ' ' ' ' ' ' ' ' ' ' ' ' ' ( ' ) ) ) ) ) ",
"! ! ! ! ! ! + , - & ' ' ' ' ' ' ' ' ' ' ' ' ' ' ' ( ' ) ) ) ) ) ",
"! ! ! ! . ! ! ' 0 ' ' ' ' ' ' ' ' ' ' ' ' ' ' ' ' 1 ' ) ) ) ) ) ",
"! ! ! ! ! ! ' ' ' ' ' ' ' ' ' ' ' ' ' ' ' ' ' ' ' 2 ' ! ! ! ! ! ",
"# # # ! 3 ' 4 ' ' ' 5 ' ' ' ' ' ' ' ' ' ' ' ' ' ' 6 ' ! ! ! ! ! ",
"$ $ * $ ' 7 ' ) 8 ' 9 ' ' ' ' ' ' ' ' ' ' ' ' ' ' : ' ! ! ! ! ! ",
"% % % ; < ' ) ) ) ) = ' ' ' ' ' > > > ? ' ' ' ' ' : ' ! ! ! ! ! ",
"& & & & @ A ' B ) ' C ' ' ? D E F G H I J ' ' ' K L ' ! ! ! ! ! ",
"' ' ' ' ' ' ' M ' ' 5 ' ? I ' ' N N N ' ' E ' O ' ' ! # ! ! ! ! ",
"' ' ' ' ' ' ' ' ' ' ' & P ' Q R S S T U V ' W X ! ! # ! ! ! ! ! ",
"' ' ' ' ' ' ' ' ' ' ? P ' R Y Z Z Z Z [ ] ^ ' ! 3 # ! ! ! ! ! ! ",
"' ' ' ' ' ' ' ' ' ' _ ' R T Z Z Z Z Z Z Z ` N ! a ! ! ! ! ! ! ! ",
"' ' ' ' ' ' ' ' ' D ' Q Y Z Z Z b c d Z Z [ e f g h ! ! ! ! ! ! ",
"' ' ' ' ' ' ' ' ' D ' R Z Z Z i Z ) ) Z Z Z Z j k h ! ! ! ! ! ! ",
"' ' ' ' ' ' ' ' ' D ' R Z Z l m n ) ) ) Z Z Z o k h ! ! ! ! ! ! ",
"' ' ' ' ' ' ' ' ' ' ' R Z Z l m n ) ) ) Z Z N o k h ! ! ! ! ! ! ",
"' ' ' ' ' ' ' ' ' ' ' R Z Z Z i Z ) ) Z Z Z N o k h ! ! ! ! ! ! ",
"' ' ' ' ' ' ' ' ' ' ' Q [ Z Z Z Z Z Z Z Z Z N [ p h ! ! ! ! ! ! ",
"' ' ' ' ' ' ' ' ' ' ' q ` Z Z Z Z Z Z Z Z Z r N s t ! ! ! ! ! ! ",
"' ' ' ' ' ' ' ' ' ' D O ^ ] [ Z Z Z Z Z Z Z N ! ! ! ! ! ! ! ! ! ",
"' ' ' ' ' ' ' ' ' ' ' u O v w Z Z Z Z x r Z ! ! ! ! ! y # # # # ",
"' ' ' ' ' ' ' ' ' ' O 5 ' O Z Z Z Z Z Z Z z ! ! ) ) ! ! $ $ $ $ ",
"' ' ' ' ' ' ' ' ' { ' ' ! ! | } Z Z Z ! ~  !! ) ) ) ) !!% % % % ",
"( ( ( ( ( 2 6 ' ' L ' ! # ! h h #!#!$!~ %!! &!! '!(!' )!& & & & ",
"' ' ' ' ' ' ' ' ' ' ! # ! ! ! ! ! ! ! ! ! ! # ! ' ' 9 5 ' ' ' ' ",
") ) ) ) ) ! ! ! ! ! ! ! ! ! ! ! ! ! ! ! ! ! # ! *!+!' ' ' ' ' ' ",
") ) ) ) ) ! ! ! ! ! ! ! ! ! ! ! ! ! ! ! ! ! ! ! % & ' ' ' ' ' ' ",
") ) ) ) ) ! ! ! ! ! ! ! ! ! ! ! ! ! ! ! ! ! ! $ % & ' ' ' ' ' ' ",
") ) ) ) ) ! ! ! ! ! ! ! ! ! ! ! ! ! ! ! ! ! ! $ % & ' ' ' ' ' ' ",
") ) ) ) ) ! ! ! ! ! ! ! ! ! ! ! ! ! ! ! ! ! ! $ % & ' ' ' ' ' ' "};