/* XPM */
static char * logo_letodms_32x32_xpm[] = {
"32 32 342 2",
"  	c None",
". 	c #FFFFFE",
"+ 	c #FEFFFF",
"@ 	c #FFFFFF",
"# 	c #FFFBF0",
"$ 	c #F1F2F4",
"% 	c #D2DEFF",
"& 	c #E4F0D5",
"* 	c #CDCCFF",
"= 	c #FEFAEF",
"- 	c #FFFCF5",
"; 	c #EFF2FB",
"> 	c #E6ECFF",
", 	c #EBF0FD",
"' 	c #FFFEF7",
") 	c #FFFEF3",
"! 	c #CFDBFF",
"~ 	c #EAEDF7",
"{ 	c #DBEBDC",
"] 	c #D8E4E6",
"^ 	c #FFFFF7",
"/ 	c #ECEFF7",
"( 	c #E6E9FF",
"_ 	c #D1DCFE",
": 	c #EDF0FF",
"< 	c #ECF0FE",
"[ 	c #FFFEF4",
"} 	c #D5E0FE",
"| 	c #FFFDEF",
"1 	c #FFFBF1",
"2 	c #FEFEFE",
"3 	c #FFFEFB",
"4 	c #D9E2FC",
"5 	c #E4EAF9",
"6 	c #FFFCEF",
"7 	c #FEFAF0",
"8 	c #FBF9EC",
"9 	c #BCDABB",
"0 	c #D2DCFF",
"a 	c #D5DBFF",
"b 	c #E0FFFF",
"c 	c #CCEDFF",
"d 	c #FCFBF0",
"e 	c #EDF2FF",
"f 	c #FEFDF9",
"g 	c #FFFDF3",
"h 	c #D8E5ED",
"i 	c #D3E6CF",
"j 	c #F4F3F2",
"k 	c #F3F6FE",
"l 	c #FFFEF9",
"m 	c #FFFDF5",
"n 	c #DDE6FA",
"o 	c #E1E8FD",
"p 	c #D4FFFE",
"q 	c #E4FFFF",
"r 	c #D2FEFF",
"s 	c #D4EFFE",
"t 	c #D2FFFF",
"u 	c #EFF1FE",
"v 	c #FCFBF5",
"w 	c #F6F5F1",
"x 	c #EEEFF7",
"y 	c #C6DFC7",
"z 	c #F4F6FF",
"A 	c #FFFEFE",
"B 	c #C7CBF4",
"C 	c #D0EFFF",
"D 	c #D4FAFF",
"E 	c #D4FFFF",
"F 	c #D4DAFF",
"G 	c #D3F9FF",
"H 	c #EFF2FF",
"I 	c #F6FAF6",
"J 	c #C6E0C7",
"K 	c #D4E5CD",
"L 	c #F6F8FD",
"M 	c #FFFFFC",
"N 	c #BCD9BF",
"O 	c #C7F0FD",
"P 	c #D4E2FF",
"Q 	c #D4DCFF",
"R 	c #D3DEFF",
"S 	c #EFF3FF",
"T 	c #EDEBED",
"U 	c #F1EEF1",
"V 	c #FAFAFF",
"W 	c #FFFDFA",
"X 	c #FFFAED",
"Y 	c #FFFAEF",
"Z 	c #BBD9C0",
"` 	c #C4F0FC",
" .	c #D4DBFF",
"..	c #D4F4FF",
"+.	c #D4DDFF",
"@.	c #EAF3FF",
"#.	c #F2F7F3",
"$.	c #FAF9ED",
"%.	c #A7C1AB",
"&.	c #FBF9ED",
"*.	c #FFFDF7",
"=.	c #FFFEFC",
"-.	c #BED9C1",
";.	c #D1F0FF",
">.	c #D4DFFF",
",.	c #D4DEFF",
"'.	c #DEF3FF",
").	c #B6C5B7",
"!.	c #F9F5F5",
"~.	c #FCF8ED",
"{.	c #FFFAEE",
"].	c #FFFDF8",
"^.	c #BDD9C0",
"/.	c #CBF2FF",
"(.	c #D3DFFF",
"_.	c #D7DFFF",
":.	c #BEDFFF",
"<.	c #ABABAE",
"[.	c #FDFEFD",
"}.	c #C4D7FC",
"|.	c #D5DFFF",
"1.	c #ABDEFE",
"2.	c #A7DFFF",
"3.	c #C7E1C7",
"4.	c #CCE1CC",
"5.	c #B7D7B5",
"6.	c #D2DFFF",
"7.	c #B9DFFF",
"8.	c #B4DFFF",
"9.	c #A9DFFF",
"0.	c #A7D7F9",
"a.	c #BAE0FF",
"b.	c #DEEDFB",
"c.	c #FFFFFB",
"d.	c #C0B5BF",
"e.	c #CCD4F4",
"f.	c #FFFDF0",
"g.	c #C8D7FC",
"h.	c #A5DFFF",
"i.	c #A9DDFD",
"j.	c #A9DCFD",
"k.	c #A5C8EE",
"l.	c #A1C7F0",
"m.	c #DEEBF9",
"n.	c #C0B5BE",
"o.	c #E5E3E4",
"p.	c #FFFFFD",
"q.	c #AFD9FD",
"r.	c #A6CEF2",
"s.	c #A6CAF0",
"t.	c #A5C9EF",
"u.	c #A9CBEE",
"v.	c #7DBEFF",
"w.	c #E0ECF8",
"x.	c #B5CBCB",
"y.	c #B9C9B8",
"z.	c #DAE0D1",
"A.	c #FFFBEF",
"B.	c #FFFAF0",
"C.	c #BCD9C0",
"D.	c #A7D5FA",
"E.	c #A5C8EF",
"F.	c #A6CAEF",
"G.	c #8CC3F9",
"H.	c #7FBFFE",
"I.	c #E2EAE6",
"J.	c #FFFBED",
"K.	c #D1DDCA",
"L.	c #FFE2FD",
"M.	c #A4C9F1",
"N.	c #A5C9F0",
"O.	c #A9CCEE",
"P.	c #7CADFF",
"Q.	c #E6EBDC",
"R.	c #B8C9B8",
"S.	c #DEE6F7",
"T.	c #E6DDD8",
"U.	c #FEE9F9",
"V.	c #FFFCF1",
"W.	c #D4E5D3",
"X.	c #A9CBF6",
"Y.	c #A9CAEE",
"Z.	c #96C3F5",
"`.	c #7DB3FF",
" +	c #7F9BFE",
".+	c #7FB3FE",
"++	c #B3A9B3",
"@+	c #E7EFE8",
"#+	c #FEFBEF",
"$+	c #99A49D",
"%+	c #C4D0BB",
"&+	c #9FC9F6",
"*+	c #7EC1FF",
"=+	c #7E9CFF",
"-+	c #7E9EFF",
";+	c #7F9FFF",
">+	c #7F9FFE",
",+	c #E0EDF8",
"'+	c #FFFEF1",
")+	c #FFFDEE",
"!+	c #EEF0F5",
"~+	c #EFF0FA",
"{+	c #AAA9A9",
"]+	c #FEFFFB",
"^+	c #BEDCBD",
"/+	c #DDDEF0",
"(+	c #EEE3FC",
"_+	c #E7EBF8",
":+	c #C7D1B9",
"<+	c #7AB8FF",
"[+	c #7F9CFE",
"}+	c #729FFF",
"|+	c #FDFAF0",
"1+	c #FDF9F0",
"2+	c #CFDCFE",
"3+	c #D1DDFB",
"4+	c #C2DDC6",
"5+	c #A2A4AE",
"6+	c #ACC0AB",
"7+	c #E5F0DB",
"8+	c #FDF9F2",
"9+	c #FEEFF6",
"0+	c #DBE3FC",
"a+	c #FFFCEE",
"b+	c #7CB9FF",
"c+	c #7F9EFF",
"d+	c #7E9FFF",
"e+	c #4F9F9B",
"f+	c #809FFF",
"g+	c #FBFAF7",
"h+	c #C1DCC2",
"i+	c #BFDBBD",
"j+	c #C1DDC4",
"k+	c #A0A4A6",
"l+	c #C3DEC1",
"m+	c #C9D6DA",
"n+	c #C1DAD1",
"o+	c #E6EBFA",
"p+	c #D2DDFF",
"q+	c #DCE4FB",
"r+	c #FFFEEE",
"s+	c #DFE6FA",
"t+	c #FFFDF4",
"u+	c #C8D3BA",
"v+	c #7CA5F9",
"w+	c #7F9EBC",
"x+	c #769FC4",
"y+	c #519FC5",
"z+	c #549FA6",
"A+	c #639FC5",
"B+	c #E1EDFB",
"C+	c #CDDEE6",
"D+	c #C0DCBF",
"E+	c #BCD6BC",
"F+	c #BDD9BD",
"G+	c #9FA4A3",
"H+	c #C6DDCD",
"I+	c #DCEAD7",
"J+	c #ECE6DD",
"K+	c #E5EAFA",
"L+	c #E2E8FA",
"M+	c #F8F6F4",
"N+	c #E0E8F1",
"O+	c #BFDAC6",
"P+	c #B9CFAF",
"Q+	c #7C9CFF",
"R+	c #809FFB",
"S+	c #6A9FA4",
"T+	c #789FA8",
"U+	c #519FA8",
"V+	c #549EA9",
"W+	c #E3ECFD",
"X+	c #E0ECDC",
"Y+	c #ABC0AB",
"Z+	c #A9C0A9",
"`+	c #AEC7AE",
" @	c #888C88",
".@	c #FAF7F5",
"+@	c #C6DCDB",
"@@	c #C1CBE8",
"#@	c #E7EBF9",
"$@	c #FBF8F4",
"%@	c #FEFCF9",
"&@	c #CEE6D1",
"*@	c #B6C6B3",
"=@	c #AFC2B7",
"-@	c #B5CFB4",
";@	c #C4DDCC",
">@	c #BDD0B6",
",@	c #5397B0",
"'@	c #5999A2",
")@	c #5C9FA1",
"!@	c #799FF1",
"~@	c #7099F0",
"{@	c #BDD3F0",
"]@	c #FEFDFF",
"^@	c #F0F3FF",
"/@	c #D2E4CB",
"(@	c #A8A6A7",
"_@	c #AAA1AA",
":@	c #7D817C",
"<@	c #FFFDF6",
"[@	c #BED9CF",
"}@	c #FFFFF2",
"|@	c #E2EAEF",
"1@	c #E0E4D7",
"2@	c #BAD9C4",
"3@	c #ABABB9",
"4@	c #C2B6BC",
"5@	c #CBDDCC",
"6@	c #D5E7D0",
"7@	c #D5E7D3",
"8@	c #D4E7D4",
"9@	c #BFD5B6",
"0@	c #809CFF",
"a@	c #839FEA",
"b@	c #7D9DEC",
"c@	c #65A8B8",
"d@	c #C7D3FF",
"e@	c #E0E8FF",
"f@	c #A4B3A2",
"g@	c #9D9B9F",
"h@	c #B1B2B1",
"i@	c #BCCDD4",
"j@	c #B1CDB3",
"k@	c #FAFBF7",
"l@	c #FCFDFF",
"m@	c #FFFEFD",
"n@	c #FFFCF2",
"o@	c #CCD6BB",
"p@	c #599CF6",
"q@	c #5E9FA8",
"r@	c #65A6BA",
"s@	c #F4F8FD",
"t@	c #FEFDF6",
"u@	c #E7F0FE",
"v@	c #C8C8CA",
"w@	c #EAF0FF",
"x@	c #CAD5BC",
"y@	c #4F95F9",
"z@	c #ADBABD",
"A@	c #B8C8B0",
"                                                                ",
"                                                                ",
"                                                        .       ",
"                                    + @ . @ @   # $ % & * @     ",
"                    @ = - ; > > , ' ) ! ~ { ] ^ / ( _ : @ <     ",
"                  [ } | 1 @ @ 2 3 4 5 6 7 8 9 0 a b @ c d e     ",
"                  f g @ ' h i j k l @ = m n o p q r r s t u     ",
"              @ @ v w x y z @ + A @ A @ @ B C D E E E F G H     ",
"              I J K L M @ . @ @ @ @ @ @ @ N O P E E E Q R S     ",
"            @ T U V W X Y W @ @ @ @ @ @ @ Z ` Q Q  ...+.R @.    ",
"              #.$.%.&.*.Y Y # =.A @ @ @ @ -.;.Q >.>.,.>.R '.    ",
"              @ ).!.~.Y # # # {.].@ @ @ @ ^./.Q >.(._.:.R '.    ",
"              @ <.@ [.Y # # # # # Y Y A @ Z }.>.>.|.1.2.R '.    ",
"              @ 3.4.5.g # # # # # # # Y @ Z }.6.7.8.9.0.a.b.    ",
"                c.d.e.f.# # # # # # # # M Z g.h.i.j.i.k.l.m.    ",
"                @ n.o.p.# # # # # # # # m Z q.r.s.t.t.u.v.w.    ",
"                @ x.y.z.A.B.# # # # # # g C.D.E.s.s.F.G.H.w.    ",
"                + I.J.K.L.6 # # # # # # g C.M.s.s.N.O.P.H.w.    ",
"                Q.R.S.T.U.A.# # # # # # V.W.X.F.Y.Z.`. +.+w.    ",
"              @ ++@+#+$+1 A.# # # # # # = # %+&+*+=+-+;+>+,+    ",
"        '+)+!+~+{+]+^+/+# (+_+)+7 # # # # # :+<+[+;+>+}+>+,+    ",
"    |+1+2+3+R 4+5+@ 6+7+8+9+7 0+a+A.7 # # # :+b+c+;+d+e+f+,+    ",
"    g+! h+i+i+j+k+@ l+m+n+o+p+q+r+s+6 # 6 t+u+v+w+x+y+z+A+B+    ",
"    + . C+D+E+F+G+@ H+I+J+K+R % L+| V.M+N+O+P+Q+R+S+T+U+V+W+    ",
"      + X+Y+Z+`+ @@ .@+@@@#@} $@%@&@*@=@-@;@>@,@'@)@!@~@{@]@    ",
"      A ^@/@(@_@:@@ <@[@}@|@1@2@3@4@5@6@7@8@9@0@a@b@c@d@@       ",
"          A e@f@g@h@@ i@Y+j@~.k@l@p.@ m@  n@o@p@q@r@s@@         ",
"            @ t@u@@ v@w@c.@ +               x@y@z@V @           ",
"                @ @ @ @                     > A@. A             ",
"                                            . @                 ",
"                                                                ",
"                                                                "};
