/* XPM */
static char *longomatch[] = {
/* columns rows colors chars-per-pixel */
"30 32 158 2 ",
"   c #343C22",
".  c #384125",
"X  c #3C442B",
"o  c #3F482C",
"O  c #3F4530",
"+  c #566E1F",
"@  c #434C2F",
"#  c #404731",
"$  c #434A32",
"%  c #454A39",
"&  c #494C3F",
"*  c #475032",
"=  c #495236",
"-  c #495039",
";  c #525B3F",
":  c #576F20",
">  c #586F22",
",  c #577021",
"<  c #597123",
"1  c #5D742A",
"2  c #61752D",
"3  c #627732",
"4  c #667A36",
"5  c #697935",
"6  c #6B7D3C",
"7  c #717E3E",
"8  c #545C42",
"9  c #565750",
"0  c #5B5D57",
"q  c #586146",
"w  c #5C644A",
"e  c #5F684F",
"r  c #5F6453",
"t  c #6F794B",
"y  c #606751",
"u  c #646B54",
"i  c #666A5C",
"p  c #6A7154",
"a  c #6D735D",
"s  c #717A57",
"d  c #777F5E",
"f  c #656563",
"g  c #6A6C65",
"h  c #6D6E6B",
"j  c #6F7262",
"k  c #727764",
"l  c #727962",
"z  c #70716F",
"x  c #777D6C",
"c  c #787C69",
"v  c #727272",
"b  c #7A7D73",
"n  c #7B7B7A",
"m  c #718345",
"M  c #738549",
"N  c #79854C",
"B  c #758050",
"V  c #798555",
"C  c #7A8B52",
"Z  c #7E875C",
"A  c #7E8E5A",
"S  c #7E8173",
"D  c #7F807E",
"F  c #818B56",
"G  c #828D5B",
"H  c #84925E",
"J  c #869262",
"K  c #899464",
"L  c #879967",
"P  c #899864",
"I  c #8D966C",
"U  c #8E9B6E",
"Y  c #919C6E",
"T  c #858A77",
"R  c #80817C",
"E  c #878C7B",
"W  c #888E7B",
"Q  c #939C73",
"!  c #959D7B",
"~  c #93A073",
"^  c #99A37B",
"/  c #9DA87E",
"(  c #838383",
")  c #878882",
"_  c #8A8C85",
"`  c #8D8E8C",
"'  c #8E9382",
"]  c #919482",
"[  c #939981",
"{  c #969A8E",
"}  c #949494",
"|  c #979896",
" . c #999B95",
".. c #989998",
"X. c #9AA283",
"o. c #9EA981",
"O. c #9DA58A",
"+. c #9DA194",
"@. c #9FA09B",
"#. c #A1AB84",
"$. c #A0A78E",
"%. c #A2AE8A",
"&. c #A7B08B",
"*. c #A0A495",
"=. c #A3AA94",
"-. c #A1A49C",
";. c #A6AC99",
":. c #A9AF9C",
">. c #ABB493",
",. c #ADB49C",
"<. c #B2BB9D",
"1. c #A2A3A1",
"2. c #AAADA5",
"3. c #ACACAC",
"4. c #AEB3A3",
"5. c #B0B5A3",
"6. c #B5BCA3",
"7. c #B1B5AA",
"8. c #B4B9AD",
"9. c #B9BFAC",
"0. c #B2B3B2",
"q. c #B7BBB3",
"w. c #BABEB5",
"e. c #BBBCBB",
"r. c #B7C0A3",
"t. c #BBC0A7",
"y. c #BCC4AC",
"u. c #BCC0B4",
"i. c #BDC1BA",
"p. c #C2C9B2",
"a. c #C2C4BE",
"s. c #C7CCBB",
"d. c #C8CCBC",
"f. c #C3C4C3",
"g. c #C6C9C3",
"h. c #CBCEC5",
"j. c #C7CAC8",
"k. c #CACBCA",
"l. c #CED3C4",
"z. c #CED0CC",
"x. c #D9DDCD",
"c. c #CFD2D1",
"v. c #D3D3D3",
"b. c #D7DAD2",
"n. c #D7D8D8",
"m. c #DBDCDA",
"M. c #E1E3DD",
"N. c #DFE0E0",
"B. c #E3E4E3",
"V. c #E7E9E2",
"C. c #EBEBEB",
"Z. c #EFF0EE",
"A. c #F0F1EE",
"S. c #EFF0F0",
"D. c #F3F4F3",
"F. c #F7F8F7",
"G. c #FEFEFE",
"H. c None",
/* pixels */
"H.H.H.H.H.H.H.H.H.H.H.H.H.H.H.H.H.H.H.H.H.H.H.H.H.H.H.H.H.H.",
"H.H.H.H.H.H.H.H.H.H.H.H.H.H.H.H.H.H.+.y H.H.H.H.H.H.H.H.H.H.",
"H.H.H.H.H.H.H.H.H.H.H.H.H.H.H.H.H.y k._ H.H.H.H.H.H.H.H.H.H.",
"H.H.H.H.H.H.H.H.H.H.H.H.H.q y q ; -.7.$ H.H.H.H.H.H.H.H.H.H.",
"H.H.H.H.H.E +.H.H.8 ' w.v.m.n.c.z.N.e.y H.H.H.H.H.H.H.H.H.H.",
"H.H.H.H.' n.a.@ ' m.F.B.j.e.q.e.f.j.z.f.{ 8 H.H.H.H.H.H.H.H.",
"H.H.H.H.x _ 7.g.F.C.0.} | { [ ! X.;.e.c.c.0.a H.H.H.H.H.H.H.",
"H.H.H.H.H.; f.C.n.` ( T Z H Q ^ Q J G o.k.m.i.k H.H.H.H.H.H.",
"H.H.H.H.* h.G.c.D n d J 6.j.j.g.e.8.;.K J s.B.q.i H.H.H.H.H.",
"H.H.H.H.4.G.C.D z s Q k.c.g.i.w.8.4.:.*.I F l.V.-.= H.H.H.H.",
"H.H.H.l A.G.1.f a I k.k.a.i.8.7.4.;.$.X.! G K V.v.b H.H.H.H.",
"H.H.H.u.G.m.h g B u.j.a.w.8.4.:.=.O.! Q J F 7 >.S.1.- H.H.H.",
"H.H.w C.G.3.f p Q g.i.8.7.4.;.=.^ I J G Y >.N m V.j.i H.H.H.",
"H.H.] G.F.( f t ,.w.8.4.:.=.X.H 6 Q >.5 P ,.M 1 p.B.b H.H.H.",
"H.H.7.G.B.v g V 7.7.4.;.=.[ F 4 U A >.G 3 >.6.M o.S._ X H.H.",
"H.H.g.G.m.z j G 5.5.9.5.y.Q #.H 6.6 C <.~ N >.K K D.} # H.H.",
"H.H.k.G.v.v k G 8.b.h.l.&.>.&.%.K / m l.y.L L 1 A D.} O H.H.",
"H.H.h.G.n.n c F ,.l.Q y.~ y.y.p.K ~ K / m < + + L D.` X H.H.",
"H.H.a.G.B.( R N ! d.^ ^ >.5 3 ^ 4 : < > > < < + ~ A.D X H.H.",
"H.H.4.G.A.} ) B J >.t.>.r.1 < 1 < < < < < < < > <.V.g   H.H.",
"H.H.W F.F.0.` Z N F &.Y 4 < < < < < < < < < > 2 x.f.9 H.H.H.",
"H.H.q M.F.n.| ] 5 2 < + < < < < < < < < < < + P S.} % H.H.H.",
"H.H.H.7.F.C.0.@.V > < < < < < < < < < < < < 3 l.n.f . H.H.H.",
"H.H.H.u B.S.n.3.-.7 + < < < < < < < < < < < &.S.` & H.H.H.H.",
"H.H.H.H.+.C.C.k.0.-.7 > < < < < < < < + < / A.3.0   H.H.H.H.",
"H.H.H.H.H.q.C.B.k.e.4.G 1 > + , > + > 6 <.Z.e.g O H.H.H.H.H.",
"H.H.H.H.H.= 8.N.n.k.f.j.5.U C m M J >.M.C.3.h % H.H.H.H.H.H.",
"H.H.H.H.H.H.H.+.c.v.k.j.c.m.m.m.M.C.B.f.} h % H.H.H.H.H.H.H.",
"H.H.H.H.H.H.H.H.l 2.g.f.e.f.f.f.i.0...D r . H.H.H.H.H.H.H.H.",
"H.H.H.H.H.H.H.H.H.H.u E  .1. .| _ b r o H.H.H.H.H.H.H.H.H.H.",
"H.H.H.H.H.H.H.H.H.H.H.H.H.H.@ o H.H.H.H.H.H.H.H.H.H.H.H.H.H.",
"H.H.H.H.H.H.H.H.H.H.H.H.H.H.H.H.H.H.H.H.H.H.H.H.H.H.H.H.H.H."
};
