/* XPM */
static char *mmass[] = {
/* columns rows colors chars-per-pixel */
"32 32 256 2 ",
"   c #080506",
".  c #1A1613",
"X  c #171414",
"o  c #232227",
"O  c #2E2A27",
"+  c #313032",
"@  c #3B393B",
"#  c #550800",
"$  c #551106",
"%  c #610D0B",
"&  c #6C1E0B",
"*  c #49330F",
"=  c #54310D",
"-  c #5E360B",
";  c #5C3914",
":  c #523F16",
">  c #603209",
",  c #763414",
"<  c #7B3715",
"1  c #6E2C13",
"2  c #7E481F",
"3  c #78511C",
"4  c #6F4610",
"5  c #6A5927",
"6  c #775B25",
"7  c #655834",
"8  c #6B4A23",
"9  c #7D612A",
"0  c #7E6134",
"q  c #464546",
"w  c #5F5B46",
"e  c #55575A",
"r  c #625A49",
"t  c #6E6640",
"y  c #6D6D6E",
"u  c #676566",
"i  c #757262",
"p  c #6F7071",
"a  c #77797B",
"s  c #872C16",
"d  c #93330F",
"f  c #824515",
"g  c #815814",
"h  c #9D500A",
"j  c #B0580D",
"k  c #A75612",
"l  c #B45B10",
"z  c #93641C",
"x  c #966116",
"c  c #936F15",
"v  c #AF6B1E",
"b  c #BA6B17",
"n  c #A07313",
"m  c #B87819",
"M  c #A8760F",
"N  c #995C25",
"B  c #9C5F31",
"V  c #8B4D26",
"C  c #A8482B",
"Z  c #A1572E",
"A  c #B55034",
"S  c #AD573B",
"D  c #8A6927",
"F  c #9D6127",
"G  c #9D6435",
"H  c #967137",
"J  c #9B7524",
"K  c #A36C2D",
"L  c #AD6E29",
"P  c #A26228",
"I  c #AA762A",
"U  c #B37529",
"Y  c #A36B34",
"T  c #A76C34",
"R  c #AC7334",
"E  c #A8773A",
"W  c #B37E3B",
"Q  c #C57D1D",
"!  c #877543",
"~  c #9D7D46",
"^  c #867D54",
"/  c #B6674A",
"(  c #817765",
")  c #B78314",
"_  c #9E8F3E",
"`  c #BE8825",
"'  c #B6842A",
"]  c #BC862A",
"[  c #B68838",
"{  c #C4800C",
"}  c #C3871C",
"|  c #CC901A",
" . c #C38424",
".. c #C28529",
"X. c #C48D2F",
"o. c #CA8A29",
"O. c #CB952E",
"+. c #CA9326",
"@. c #D29425",
"#. c #D39A28",
"$. c #C58A37",
"%. c #CD9C36",
"&. c #CA963A",
"*. c #CE9D3A",
"=. c #C99436",
"-. c #D39D34",
";. c #D19E3C",
":. c #D8A42A",
">. c #DAAA3C",
",. c #D5A33A",
"<. c #E2B437",
"1. c #A78442",
"2. c #A98F4E",
"3. c #B28F45",
"4. c #BA8C4B",
"5. c #B5854C",
"6. c #A08F5C",
"7. c #BC8B5D",
"8. c #A09352",
"9. c #B89E59",
"0. c #BDA84F",
"q. c #8E8563",
"w. c #9D936E",
"e. c #878379",
"r. c #958F76",
"t. c #988F67",
"y. c #BBA168",
"u. c #CB9F4F",
"i. c #C2924D",
"p. c #D69F43",
"a. c #C1955E",
"s. c #D4A643",
"d. c #DAAA45",
"f. c #D6AA4C",
"g. c #D7AB48",
"h. c #DDB34D",
"j. c #CFAE59",
"k. c #D2A65C",
"l. c #DAB353",
"z. c #DCB759",
"x. c #DEBB5B",
"c. c #E0AF44",
"v. c #E4BA4F",
"b. c #E8B74D",
"n. c #E3BB54",
"m. c #E1BB5A",
"M. c #C69964",
"N. c #CF9C7E",
"B. c #C6846B",
"V. c #DAB669",
"C. c #CCA877",
"Z. c #D7B879",
"A. c #E2BB68",
"S. c #DAC153",
"D. c #E3C15D",
"F. c #EED056",
"G. c #F0D55D",
"H. c #F8D154",
"J. c #FFE45E",
"K. c #E5C362",
"L. c #E7C668",
"P. c #F3CE6A",
"I. c #E5C677",
"U. c #F2CC70",
"Y. c #EDD57B",
"T. c #F9DA7A",
"R. c #FFE376",
"E. c #FFE57E",
"W. c #FFEB7F",
"Q. c #7A7D81",
"!. c #7E8083",
"~. c #949495",
"^. c #9C9C9C",
"/. c #A19C88",
"(. c #B9B29F",
"). c #A2A3A5",
"_. c #AAAAAA",
"`. c #BDBCBD",
"'. c #B2B5BA",
"]. c #D6B889",
"[. c #DBC689",
"{. c #D3C696",
"}. c #E3C781",
"|. c #EEC982",
" X c #ECD38D",
".X c #F5D588",
"XX c #F5D985",
"oX c #E2CA93",
"OX c #E6CC98",
"+X c #EBD49A",
"@X c #ECD49B",
"#X c #F2DB9B",
"$X c #F8DC90",
"%X c #FDE58B",
"&X c #FFEF8B",
"*X c #FFF285",
"=X c #FFF28A",
"-X c #FBE593",
";X c #FFEA96",
":X c #F7E398",
">X c #FFF996",
",X c #D6CDA0",
"<X c #D7CDAC",
"1X c #E9D9A4",
"2X c #F2DEA5",
"3X c #F2DFAB",
"4X c #EEDFBF",
"5X c #F0DEB1",
"6X c #FFEDA4",
"7X c #F2E2AB",
"8X c #FFEFAE",
"9X c #F8E7A7",
"0X c #FEF1AB",
"qX c #FFFBAE",
"wX c #F6E6B2",
"eX c #F6E9B5",
"rX c #F3E4BC",
"tX c #F7E9BC",
"yX c #FBEEBB",
"uX c #FBEAB1",
"iX c #FEF2B4",
"pX c #FEF3BA",
"aX c #FEFABA",
"sX c #BFC0C2",
"dX c #C4C4C5",
"fX c #CBCBCC",
"gX c #C9C9C9",
"hX c #DAD6C3",
"jX c #DBDCDD",
"kX c #D0D1D3",
"lX c #ECE2C4",
"zX c #F7EDC3",
"xX c #FAEFC3",
"cX c #F1E9C8",
"vX c #FCF3C2",
"bX c #F7F0CA",
"nX c #FDF6CC",
"mX c #FFFDCD",
"MX c #F7F1C3",
"NX c #FAF4D2",
"BX c #FFFED2",
"VX c #FEFDDB",
"CX c #F6F1D2",
"ZX c #DFE2E6",
"AX c #E3E4E4",
"SX c #E7E9EC",
"DX c #F0EBE0",
"FX c #FFFFEB",
"GX c #FAF7EF",
"HX c #EBEEF2",
"JX c #EEF1F3",
"KX c #F4F4F4",
"LX c #FFFFF3",
"PX c #F3F6FA",
"IX c #FDFEFE",
"UX c None",
/* pixels */
"UXUXUXUXUXUXUXUXUXUXUXUXUXUXUXUXUXUXUXUXUXUXUXUXUXUXUXUXUXUXUXUX",
"UXUXUXUXUXUXUXUXUXUXUXUXUXUXy ~.).~.y UXUXUXUXUXUXUXUXUXUXUXUXUX",
"UXUXUXUXUXUXUXUXUXUXUXUX_.IXIXIXIXIXIXIX^.UXUXUXUXUXUXUXUXUXUXUX",
"UXUXUXUXUXUXUXUXUXUXUX^.IXHXKXKXKXKXKXAXPXp UXUXUXUXUXUXUXUXUXUX",
"UXUXUXUXUXUXUXUXUXUXUXAXIXPXIXIXIXIXKXAXsXQ.UXUXUXUXUXUXUXUXUXUX",
"UXUXUXUXUXUXUXUXUXUXUX).ZXgXjXkXjXkXdX).p + UXUXUXUXUXUXUXUXUXUX",
"UXUXUXUXUXUXUXUXUXUXUXUXe a Q.~.a p e O X UXUXUXUXUXUXUXUXUXUXUX",
"UXUXUXUXUXUXUXUXUXUXUXUXUX. O o . X X   UXUXUXUXUXUXUXUXUXUXUXUX",
"UXUXUXUXUXUXUXUXUX7 9 z M m i e . o e.j.9.2.! 7 UXUXUXUXUXUXUXUX",
"UXUXUXUXUXUXr.{.U.v.@.p.OX<X'.~.@ q ).hXrX.XP.XX:X[.w.UXUXUXUXUX",
"UXUXUXUX/.VXVXXXg.O.u.JXIXZXjX).u u _.HXPXHX}.I.@X9XaXvXt.UXUXUX",
"UXUXUXhXLXCX2XD.h.#.I.PXDXIXIXjXdXfXjXIXGXJXoX.X2X7XrXbXBX,XUXUX",
"UXUXi LXlXnXXXS.>.-.k.KXIXZXsX`.dX`.`.'.dXHX[. X7XwXxXnX1XBXi UX",
"UXUXt VXbXvX Xv.>.O.;.Z.lXfXq     X q e.(.rXoX#X3XtXzXeX1XmXr UX",
"UXUXUX>XcXpXY.<.>.-.=.&.&.4.H 6 0 0 ~ y.].oX}.+X3XwX3X3XcX|.UXUX",
"UXUXUXJ.-XnX7XK.>.+.} b  ...z g 6 V E u.A.U.Y.#X#X3XrX5XV.{ UXUX",
"UXUXUXG.R.-XpXyXtX+XZ.k.v k f ; ; 8 H [ 3.1.E 1.Z.+X XK.:.) UXUX",
"UXUXUXS.W.-X%XR.0XmXmXMXC.D 3 ; = = - - > 4 z ] g.h.L.S.>.) UXUX",
"UXUXUX0.*X9X;X%X0XaX0X:XXXG.d.-.o.b b j l Q #.;.s.z.L.l.<.c UXUX",
"UXUXUX8.>X:X;X6XpXnXtX7X XA.A.p.X...k h h v ..=.s.h.K.x.<.c UXUX",
"UXUXUX^ qXXX;X0XpX4XC / 0XM.V E E f P k b U &.;.s.l.K.z.:.6 UXUX",
"UXUXUXUX&XR.%X6XwXLX/ A yXI.% G d., $ L f K , R s.s.D.l.#.UXUXUX",
"UXUXUXUXH.E.%X0XuXFXB.C uX}.1 B =.L # P f E & T d.s.D.z.} UXUXUX",
"UXUXUXUXF.E.-XpXtXGXB.d iX#Xs C l.Z $ W < E & G g.g.K.n.` UXUXUX",
"UXUXUXUXS.*X-XpXnXNXN.S [.oXs V i., N U & R R [ s.g.m.n.' UXUXUX",
"UXUXUXUX0.*X-X8XnXVXVXbX@X XZ.i.W $. .m X...%.*.%.s.l.b.J UXUXUX",
"UXUXUXUX_ =X#XaXmXVXbXxX#XM.7.T G K K F m ` +.%.;.g.f.n.D UXUXUX",
"UXUXUXUX5 >XwXzXNXVXVXeXOXN.7.5.E Y Y R R ` -.%.*.s.z.H.: UXUXUX",
"UXUXUXUXUX! pXVXVXnXMX1X].].M.5.W R R K I ' ` X.-.b.m.5 UXUXUXUX",
"UXUXUXUXUXUXUXq.<XBXmXaX6XXXA.f.&.O.| | #.+.o.o.[ 9 UXUXUXUXUXUX",
"UXUXUXUXUXUXUXUXUXUXw ^ 6.9.3.[ ' ' n c g 4 * UXUXUXUXUXUXUXUXUX",
"UXUXUXUXUXUXUXUXUXUXUXUXUXUXUXUXUXUXUXUXUXUXUXUXUXUXUXUXUXUXUXUX"
};
