/* XPM */
static char *iconfinal_0[] = {
/* columns rows colors chars-per-pixel */
"32 32 191 2 ",
"   c #8FA30E4508D2",
".  c #9FDE02480155",
"X  c #962508300266",
"o  c #8E7216AB169C",
"O  c #8C5F1DE31DF1",
"+  c #9F3B167E1679",
"@  c #A9FC0000009C",
"#  c #A7A707D907D4",
"$  c #B3FB003E003B",
"%  c #BAB600000000",
"&  c #B2E80CA30CA2",
"*  c #A505148C1489",
"=  c #A774186E1864",
"-  c #9F7D2AD12ACB",
";  c #92BE371E36F0",
":  c #A0C42CAE2CAF",
">  c #A95A2B792B79",
",  c #B273251F251F",
"<  c #ADBB397E398E",
"1  c #B483385B3864",
"2  c #C37400000000",
"3  c #CD3200000000",
"4  c #D6C600150025",
"5  c #E014001B0010",
"6  c #E7D5001C0024",
"7  c #EEC300130000",
"8  c #EE8607880000",
"9  c #F59700000160",
"0  c #FAF8000002C4",
"q  c #F80E000008BD",
"w  c #E74E1AE10000",
"e  c #FBF2141F0094",
"r  c #FAB815291A51",
"t  c #FA970000249B",
"y  c #FB0300003C21",
"u  c #E111283F2809",
"i  c #B0DD57411B4D",
"p  c #B1DF6AE30000",
"a  c #DF9B43D10000",
"s  c #FBB64E970000",
"d  c #D650670B0000",
"f  c #CDBA7C2E0015",
"g  c #FB7C00005AF7",
"h  c #FB3400006402",
"j  c #FA8C000077B8",
"k  c #9BDC54865474",
"l  c #9C5C5B295AF7",
"z  c #A51C45984596",
"x  c #BA28435B4344",
"c  c #B5135B5E5CB7",
"v  c #BB7076547654",
"b  c #C5EF7CD77CD7",
"n  c #C9B77F3C7F15",
"m  c #F37269706E13",
"M  c #0092FEEE010C",
"N  c #0D8CFE040091",
"B  c #0917FF6C0971",
"V  c #1040FE0C0017",
"C  c #1603FF4115D0",
"Z  c #1E21FEFC1EBA",
"A  c #2831FD740A8B",
"S  c #2691FE88192D",
"D  c #32A9FE7B1576",
"F  c #0000FDBB2E29",
"G  c #21E0FE8C248B",
"H  c #23D6FDB52E3A",
"J  c #2DA6FED92DEB",
"K  c #2FC5FEA72FAD",
"L  c #2DE5FE88301B",
"P  c #3410FE7234F4",
"I  c #3A78FEBA39E2",
"U  c #5206FDC601DE",
"Y  c #0011FD9F5321",
"T  c #0000FDBB71D8",
"R  c #09FFFD3D7A17",
"E  c #449BFEEC44DA",
"W  c #4AE7FF694AE0",
"Q  c #537BFF83539F",
"!  c #5C17FFD25C17",
"~  c #67C5F40D5F6A",
"^  c #663BFFB8663B",
"/  c #6D0EFFFC6D0E",
"(  c #73A6FED97424",
")  c #7BE1FF6A7B31",
"_  c #BCBB820C0000",
"`  c #C4BF86A9001F",
"'  c #FB1E94310000",
"]  c #FA4EAE981ABB",
"[  c #84B1E60F0984",
"{  c #8BE9FDE20000",
"}  c #A4C3FE8505D4",
"|  c #AC1AFE070000",
" . c #B346FCFB012C",
".. c #BE0AFDC6001A",
"X. c #FB13D0790000",
"o. c #C30DFDBA0000",
"O. c #E25AE58D0000",
"+. c #E89CEEFD0000",
"@. c #FB05ED800000",
"#. c #EF6EF5660000",
"$. c #ECDFFE200000",
"%. c #F899F7560000",
"&. c #F4F4F99C0000",
"*. c #FCBDFE6B0002",
"=. c #A1D5FBCB6000",
"-. c #FD75FFBE411E",
";. c #22902290BF0C",
":. c #03650365C7B4",
">. c #07990799C98F",
",. c #00180014DA7B",
"<. c #00C70093ECD9",
"1. c #160D160DE4DF",
"2. c #04400069F724",
"3. c #006B006DFF92",
"4. c #09CB0003FF2B",
"5. c #00000E22FF99",
"6. c #0B760B4FFFAB",
"7. c #00001377FF29",
"8. c #03771EEBFF54",
"9. c #14B314B6FFE6",
"0. c #19221922FF5A",
"q. c #23DF001BFF73",
"w. c #30BE0000FF78",
"e. c #001433F9FF8A",
"r. c #25162516FFBA",
"t. c #2AEC2B0CFF4F",
"y. c #35413541FF75",
"u. c #3A343A33FFD5",
"i. c #64F92FDEC69A",
"p. c #428C0069FECD",
"a. c #63380000FEF3",
"s. c #70970000FE36",
"d. c #344E4698FF2F",
"f. c #000062D0FF46",
"g. c #39826452FDC6",
"h. c #473C4748C60C",
"j. c #560F560FC3C9",
"k. c #50535053CE22",
"l. c #47484273D33F",
"z. c #564955CFD055",
"x. c #44624444FFF0",
"c. c #4CA14A6CFEF3",
"v. c #53BF53C7FFFF",
"b. c #5D765D7DFFF5",
"n. c #641E6418FF76",
"m. c #6C0C6C13FFF0",
"M. c #752A74B6FFE9",
"N. c #7CEF7CEFFFFF",
"B. c #FA4400008BAD",
"V. c #FAF300009C80",
"C. c #DF8B05E7A037",
"Z. c #F9B63CEEAE8F",
"A. c #85C20000FF86",
"S. c #A0440000FF6D",
"D. c #FB2E0000C91C",
"F. c #FA780000D797",
"G. c #CB23000AFF36",
"H. c #D4150000FEB7",
"J. c #FB860000E1FA",
"K. c #E68C0000FE98",
"L. c #EBB50000FEE1",
"P. c #FB7C0000F5C1",
"I. c #F5330000FEE7",
"U. c #FC64000FFEBD",
"Y. c #F7EB1D94FD86",
"T. c #0000FE4A85E0",
"R. c #0006FE018B7A",
"E. c #056AFCB9A48E",
"W. c #5121FD328F99",
"Q. c #000091DAFFB5",
"!. c #0000ADCAFE16",
"~. c #0000B6C5FF43",
"^. c #4541BB2AFED3",
"/. c #0000FDA3D68A",
"(. c #0000CFCAFF2E",
"). c #0033DAA9FE9B",
"_. c #1A4CD82EFE35",
"`. c #1751FC85F039",
"'. c #0000FDAFF0D9",
"]. c #0000F674FE3C",
"[. c #00C1FE9AFEB7",
"{. c #523DD794CA7C",
"}. c #C91D96879687",
"|. c #84EEFF8E84EA",
" X c #8D7CFF918DA6",
".X c #9269FFDD9269",
"XX c #851E851EFFFF",
"oX c #89A189A1FFFF",
"OX c #88B2F666F762",
"+X c #FE9BC6F5E64A",
"@X c None",
/* pixels */
"@X@X@X@X@X@X@X@X@X@X@X@X@X@X@X@X@X@X@X@X@X@X@X@X@X@X@X@X@X@X@X@X",
"@X@X@X@X@X@X@X@X@X@X@X@X@X@X@X@X@X@X@X@X@X@X@X@X@X@X@X@X@X@X@X@X",
"@X@X@X@X@X@X@X@X@X@X@X@X@X@X@X@X@X@X@X@X@X@X@X@X@X@X@X@X@X@X@X@X",
"@X@X@X@X@X@X@X@X@X@X@X@X@X@X@X@X@X@X@X@X@X@X@X@X@X@X@X@X@X@X@X@X",
"@X@X@X@X@X@X@X@X@X@X@X@X@X@X@X@X@X@X@X@X@X@X@X@X@X@X@X@X@X@X@X@X",
"@X@X@X@X@X@X@X@X@X@X@X@XK P @XM.t.u.N.@X@X@X@X@X@X@X@X@X@X@X@X@X",
"@X@X@X@X@X@X@X@X@X@X|.) ( ) {.g.c.b.m.M.XXXX@X@X@X@X@X@X@X@X@X@X",
"@X@X@X@X@X@X@X@X/ |..X.X) W.`.^.n.m.m.M.M.N.oXoX@X@X@X@X@X@X@X@X",
"@X@X@X@X@X@X/ (  X.X) Q H E.[._.d.x.v.n.m.M.N.N.XXN.@X@X@X@X@X@X",
"@X@X@X@X@X@X/  X) W Z B F /.[.).8.6.0.r.u.v.n.M.N.N.XX@X@X@X@X@X",
"@X@X@X@X! / |.! S M M M Y '.[.(.7.3.3.3.3.6.0.u.b.M.M.M.@X@X@X@X",
"@X@X@X@X^ ) W B M M M M T [.[.~.5.3.3.3.3.3.3.3.9.u.n.m.n.@X@X@X",
"@X@X@X! / Q B M M M M M R.[.[.Q.5.3.3.3.3.3.3.3.3.6.u.b.n.m.@X@X",
"@X@X/ ! ^ J M M M M M M R.[.].f.3.3.3.3.3.3.3.3.3.3.0.x.v.v.b.@X",
"@X@XQ ! W C M M M M M M R.[.).e.3.3.3.3.3.3.3.3.3.3.3.t.x.x.x.@X",
"@XQ W W P B M V V V V V R [.!.5.3.3.3.3.3.3.3.3.3.3.3.9.t.y.u.@X",
"@XE I L S U { | ..o... .=.OXn.p.q.4.3.3.3.3.3.3.3.3.3.3.0.r.r.n.",
"@XL G D } $.*.*.*.*.*.*.-.+XY.K.G.S.a.q.3.3.3.3.3.3.3.3.3.9.0.n.",
"@XZ A  .*.*.*.*.*.*.*.@.] Z.U.U.U.U.I.H.A.w.3.3.3.3.3.3.2.<.1.@X",
"@X~ [ O.+.#.&.%.@.X.' s e t B.F.P.U.U.U.U.H.a.4.3.3.2.<.,.:.k.@X",
"@X@Xi p _ ` f d a w 8 9 9 0 0 t h V.D.J.P.U.L.s.2.<.,.>.;.j.@X@X",
"@X@Xc o   X . @ $ % 2 3 4 5 6 9 9 q t y g j B.C.i.l.z.h.@X@X@X@X",
"@X@X@X@Xl k ; O o : < 1 , & % 2 3 4 6 6 7 9 q r m @X@X@X@X@X@X@X",
"@X@X@X@X@X@X@X@X@X@X@X@X@Xb c > * # @ % 2 3 4 u @X@X@X@X@X@X@X@X",
"@X@X@X@X@X@X@X@X@X@X@X@X@X@X@X@X}.v z - + = x n @X@X@X@X@X@X@X@X",
"@X@X@X@X@X@X@X@X@X@X@X@X@X@X@X@X@X@X@X@X@X@X@X@X@X@X@X@X@X@X@X@X",
"@X@X@X@X@X@X@X@X@X@X@X@X@X@X@X@X@X@X@X@X@X@X@X@X@X@X@X@X@X@X@X@X",
"@X@X@X@X@X@X@X@X@X@X@X@X@X@X@X@X@X@X@X@X@X@X@X@X@X@X@X@X@X@X@X@X",
"@X@X@X@X@X@X@X@X@X@X@X@X@X@X@X@X@X@X@X@X@X@X@X@X@X@X@X@X@X@X@X@X",
"@X@X@X@X@X@X@X@X@X@X@X@X@X@X@X@X@X@X@X@X@X@X@X@X@X@X@X@X@X@X@X@X",
"@X@X@X@X@X@X@X@X@X@X@X@X@X@X@X@X@X@X@X@X@X@X@X@X@X@X@X@X@X@X@X@X",
"@X@X@X@X@X@X@X@X@X@X@X@X@X@X@X@X@X@X@X@X@X@X@X@X@X@X@X@X@X@X@X@X"
};
