/* XPM */
static char * mudita24_xpm[] = {
"48 48 181 2",
"  	c None",
". 	c #EFEBE5",
"+ 	c #DEDAD5",
"@ 	c #D8D5CF",
"# 	c #E6E2DC",
"$ 	c #E9E5DF",
"% 	c #EDEAE5",
"& 	c #E7E4DF",
"* 	c #DCD8D3",
"= 	c #E8E4DE",
"- 	c #E4E0DB",
"; 	c #D9D4CD",
"> 	c #D9D5CE",
", 	c #D7D1CA",
"' 	c #EEEAE4",
") 	c #3B3A38",
"! 	c #1C0000",
"~ 	c #470000",
"{ 	c #030000",
"] 	c #908E8A",
"^ 	c #C0CAD2",
"/ 	c #ADBECE",
"( 	c #DDDDDB",
"_ 	c #91ACC5",
": 	c #242323",
"< 	c #230000",
"[ 	c #430000",
"} 	c #000000",
"| 	c #A7A4A0",
"1 	c #E4DFD8",
"2 	c #DAD6CF",
"3 	c #D8D4CD",
"4 	c #E1DCD5",
"5 	c #DBD8D2",
"6 	c #F0EEEB",
"7 	c #D5D0C9",
"8 	c #EAE6E0",
"9 	c #340000",
"0 	c #840000",
"a 	c #050000",
"b 	c #ACBFD0",
"c 	c #99B8D4",
"d 	c #D4D6D7",
"e 	c #71A1CD",
"f 	c #410000",
"g 	c #7C0000",
"h 	c #D9D4CC",
"i 	c #F3F1EF",
"j 	c #EEECE8",
"k 	c #D0CBC3",
"l 	c #DEDAD6",
"m 	c #F2F0EC",
"n 	c #D3CEC6",
"o 	c #401400",
"p 	c #A23300",
"q 	c #060200",
"r 	c #501900",
"s 	c #993000",
"t 	c #DAD5CE",
"u 	c #F5F3F1",
"v 	c #EDEBE7",
"w 	c #D0CBC2",
"x 	c #DBD8D4",
"y 	c #F1EFEC",
"z 	c #D3CEC7",
"A 	c #421900",
"B 	c #A74000",
"C 	c #521F00",
"D 	c #9D3D00",
"E 	c #F2F1EF",
"F 	c #ECEAE7",
"G 	c #D1CBC3",
"H 	c #DBD7D2",
"I 	c #EFEDE9",
"J 	c #3B1700",
"K 	c #963A00",
"L 	c #4A1C00",
"M 	c #8E3600",
"N 	c #F2F0EE",
"O 	c #EDEAE6",
"P 	c #CFCAC2",
"Q 	c #D6D1CB",
"R 	c #E1DED9",
"S 	c #CFC9C2",
"T 	c #ECE8E2",
"U 	c #DCD7D0",
"V 	c #E2DFDB",
"W 	c #DFDBD5",
"X 	c #D4CFC7",
"Y 	c #E6E1DB",
"Z 	c #B9B1A5",
"` 	c #E3DFD8",
" .	c #CAC4BA",
"..	c #E9E5DE",
"+.	c #BFB7AA",
"@.	c #E7E3DC",
"#.	c #441A00",
"$.	c #AB4200",
"%.	c #542000",
"&.	c #A13E00",
"*.	c #D0C9C0",
"=.	c #D0CAC0",
"-.	c #0C2300",
";.	c #1D5800",
">.	c #010300",
",.	c #0E2B00",
"'.	c #1C5300",
").	c #002200",
"!.	c #005500",
"~.	c #000300",
"{.	c #002A00",
"].	c #005000",
"^.	c #002000",
"/.	c #005100",
"(.	c #002800",
"_.	c #004C00",
":.	c #002100",
"<.	c #005300",
"[.	c #002900",
"}.	c #004E00",
"|.	c #002400",
"1.	c #005C00",
"2.	c #002D00",
"3.	c #005700",
"4.	c #002300",
"5.	c #005800",
"6.	c #002B00",
"7.	c #004600",
"8.	c #00B100",
"9.	c #000700",
"0.	c #004A00",
"a.	c #00BC00",
"b.	c #004500",
"c.	c #00AD00",
"d.	c #00C500",
"e.	c #003300",
"f.	c #006900",
"g.	c #006300",
"h.	c #006100",
"i.	c #00BA00",
"j.	c #E8E4DD",
"k.	c #BDC3C5",
"l.	c #B4BFC7",
"m.	c #CECCC8",
"n.	c #A4B6C5",
"o.	c #DBD6CE",
"p.	c #D8D3CB",
"q.	c #F4F2F0",
"r.	c #EFEDEA",
"s.	c #D1CBC4",
"t.	c #004700",
"u.	c #00B200",
"v.	c #F6F4F3",
"w.	c #E4E1DD",
"x.	c #F0EEEA",
"y.	c #D1CCC4",
"z.	c #00A800",
"A.	c #F5F4F2",
"B.	c #EBE9E6",
"C.	c #E3E0DD",
"D.	c #ECE8E3",
"E.	c #00A300",
"F.	c #ECE9E5",
"G.	c #CFC9C1",
"H.	c #D0CBC4",
"I.	c #B7AFA2",
"J.	c #DDD8D1",
"K.	c #E9E6E3",
"L.	c #E7E5E0",
"M.	c #D2CDC5",
"N.	c #EBE7E1",
"O.	c #E9E6E2",
"P.	c #D1CCC5",
"Q.	c #EDE9E3",
"R.	c #CDC6BC",
"S.	c #CCC5BB",
"T.	c #E7E3DD",
"U.	c #E2DED7",
"V.	c #ECE7E1",
"W.	c #E7E2DC",
"X.	c #E2DDD7",
". . . . . . . + @ @ @ @ @ @ @ # . . . . . . $ % & . . . . . . . * @ @ @ @ @ @ @ = . . . . . . - ",
". . ; > , ' . ) ! ~ ~ ~ ~ ~ { ] . . ^ / . . $ % & . . ( _ . . . : < ~ ~ ~ ~ [ } | . 1 2 3 4 . - ",
". . 5 6 7 8 . ) 9 0 0 0 0 0 a ] . . b c . . $ % & . . d e . . . : f 0 0 0 0 g } | . h i j k . - ",
". . l m n 8 . ) o p p p p p q ] . . b c . . $ % & . . d e . . . : r p p p p s } | . t u v w . - ",
". . x y z 8 . ) A B B B B B q ] . . b c . . $ % & . . d e . . . : C B B B B D } | . t E F G . - ",
". . H I n 8 . ) J K K K K K q ] . . b c . . $ % & . . d e . . . : L K K K K M } | . h N O P . - ",
". . Q R S T . ) J K K K K K q ] . . b c . . $ % & . . d e . . . : L K K K K M } | . U V W X . - ",
". . Y Z ` . . ) A B B B B B q ] . . b c . . $ % & . . d e . . . : C B B B B D } | . .  . .' . - ",
". . ..+.@.. . ) #.$.$.$.$.$.q ] . . b c . . $ % & . . d e . . . : %.$.$.$.$.&.} | . . *.=.. . - ",
". . ..+.@.. . ) #.$.$.$.$.$.q ] . . b c . . $ % & . . d e . . . : %.$.$.$.$.&.} | . . *.=.. . - ",
". . ..+.@.. . ) #.$.$.$.$.$.q ] . . b c . . $ % & . . d e . . . : %.$.$.$.$.&.} | . . *.=.. . - ",
". . ..+.@.. . ) #.$.$.$.$.$.q ] . . b c . . $ % & . . d e . . . : %.$.$.$.$.&.} | . . *.=.. . - ",
". . ..+.@.. . ) #.$.$.$.$.$.q ] . . b c . . $ % & . . d e . . . : %.$.$.$.$.&.} | . . *.=.. . - ",
". . ..+.@.. . ) -.;.;.;.;.;.>.] . . b c . . $ % & . . d e . . . : ,.;.;.;.;.'.} | . . *.=.. . - ",
". . ..+.@.. . ) ).!.!.!.!.!.~.] . . b c . . $ % & . . d e . . . : {.!.!.!.!.].} | . . *.=.. . - ",
". . ..+.@.. . ) ^./././././.~.] . . b c . . $ % & . . d e . . . : (././././._.} | . . *.=.. . - ",
". . ..+.@.. . ) :.<.<.<.<.<.~.] . . b c . . $ % & . . d e . . . : [.<.<.<.<.}.} | . . *.=.. . - ",
". . ..+.@.. . ) |.1.1.1.1.1.~.] . . b c . . $ % & . . d e . . . : 2.1.1.1.1.3.} | . . *.=.. . - ",
". . ..+.@.. . ) |.1.1.1.1.1.~.] . . b c . . $ % & . . d e . . . : 2.1.1.1.1.3.} | . . *.=.. . - ",
". . ..+.@.. . ) |.1.1.1.1.1.~.] . . b c . . $ % & . . d e . . . : 2.1.1.1.1.3.} | . . *.=.. . - ",
". . ..+.@.. . ) |.1.1.1.1.1.~.] . . b c . . $ % & . . d e . . . : 2.1.1.1.1.3.} | . . *.=.. . - ",
". . ..+.@.. . ) |.1.1.1.1.1.~.] . . b c . . $ % & . . d e . . . : 2.1.1.1.1.3.} | . . *.=.. . - ",
". . ..+.@.. . ) |.1.1.1.1.1.~.] . . b c . . $ % & . . d e . . . : 2.1.1.1.1.3.} | . . *.=.. . - ",
". . ..+.@.. . ) |.1.1.1.1.1.~.] . . b c . . $ % & . . d e . . . : 2.1.1.1.1.3.} | . . *.=.. . - ",
". . ..+.@.. . ) ^./././././.~.] . . b c . . $ % & . . d e . . . : (././././._.} | . . *.=.. . - ",
". . ..+.@.. . ) ^./././././.~.] . . b c . . $ % & . . d e . . . : (././././._.} | . . *.=.. . - ",
". . ..+.@.. . ) 4.5.5.5.5.5.~.] . . b c . . $ % & . . d e . . . : 6.5.5.5.5.<.} | . . *.=.. . - ",
". . ..+.@.. . ) |.1.1.1.1.1.~.] . . b c . . $ % & . . d e . . . : 2.1.1.1.1.3.} | . . *.=.. . - ",
". . ..+.@.. . ) |.1.1.1.1.1.~.] . . b c . . $ % & . . d e . . . : 2.1.1.1.1.3.} | . . *.=.. . - ",
". . ..+.@.. . ) |.1.1.1.1.1.~.] . . b c . . $ % & . . d e . . . : 2.1.1.1.1.3.} | . . *.=.. . - ",
". . ..+.@.. . ) |.1.1.1.1.1.~.] . . b c . . $ % & . . d e . . . : 2.1.1.1.1.3.} | . . *.=.. . - ",
". . ..+.@.. . ) |.1.1.1.1.1.~.] . . b c . . $ % & . . d e . . . : 2.1.1.1.1.3.} | . . *.=.. . - ",
". . ..+.@.. . ) 7.8.8.8.8.8.9.] . . b c . . $ % & . . d e . . . : 2.1.1.1.1.3.} | . . *.=.. . - ",
". . ..+.@.. . ) 0.a.a.a.a.a.9.] . . b c . . $ % & . . d e . . . : 6.5.5.5.5.<.} | . . *.=.. . - ",
". . ..+.@.. . ) b.c.c.c.c.c.9.] . . b c . . $ % & . . d e . . . : (././././._.} | . . *.=.. . - ",
". . ..+.@.. . ) b.c.c.c.c.c.9.] . . b c . . $ % & . . d e . . . : (././././._.} | . . *.=.. . - ",
". . ..+.@.. . ) }.d.d.d.d.d.9.] . . b c . . $ % & . . d e . . . : e.f.f.f.f.g.} | . . *.=.. . - ",
". . ..+.@.. . ) }.d.d.d.d.d.9.] . . b c . . $ % & . . d e . . . : h.d.d.d.d.i.} | . . *.=.. . - ",
". . ..+.@.. . ) }.d.d.d.d.d.9.] . . b c . . $ % & . . d e . . . : h.d.d.d.d.i.} | . . *.=.. . - ",
". . ..+.@.. . ) }.d.d.d.d.d.9.] . . b c . . $ % & . . d e . . . : h.d.d.d.d.i.} | . . *.=.. . - ",
". . ..+.@.. . ) }.d.d.d.d.d.9.] . . b c . . $ % & . . d e . . . : h.d.d.d.d.i.} | . . *.=.. . - ",
". . ..+.@.. . ) }.d.d.d.d.d.9.] . j.k.l.4 . $ % & . ' m.n.o.. . : h.d.d.d.d.i.} | . . *.=.. . - ",
". . ..+.@.. . ) }.d.d.d.d.d.9.] . p.q.r.s.. $ % & . ..V y z T . : h.d.d.d.d.i.} | . . *.=.. . - ",
". . ..+.@.. . ) t.u.u.u.u.u.9.] . h v.O w . $ % & . ..w.x.y.T . : 3.u.u.u.u.z.} | . . *.=.. . - ",
". . ..+.@.. . ) b.c.c.c.c.c.9.] . h A.B.G . $ % & . ..C.r.y.D.. : !.c.c.c.c.E.} | . . *.=.. . - ",
". . ..+.@.. . ) b.c.c.c.c.c.9.] . p.N F.G.. $ % & . ..R v H.T . : !.c.c.c.c.E.} | . . *.=.. . - ",
". . ..I.@.. . ) } } } } } } } ] . J.K.L.M.. $ % & . N.* O.P.Q.. : } } } } } } } | . . R.S.. . - ",
". . . T.. . . + @ @ @ @ @ @ @ # . . ` U.V.. $ % & . . W.X.j.. . * @ @ @ @ @ @ @ = . . N.N.. . - "};
