/* XPM */
static char *mysql_workbench[] = {
/* columns rows colors chars-per-pixel */
"32 32 188 2 ",
"   c #003D54",
".  c #003F59",
"X  c #00415E",
"o  c #004564",
"O  c #014A64",
"+  c #004768",
"@  c #00486A",
"#  c #09556E",
"$  c #0C5870",
"%  c #13637B",
"&  c #E4A432",
"*  c #E8AE48",
"=  c #F6CC7B",
"-  c #1D6F99",
";  c #037294",
":  c #037598",
">  c #1A729F",
",  c #0A7BA2",
"<  c #0770A9",
"1  c #0A73AC",
"2  c #237AA4",
"3  c #2C7EA3",
"4  c #0385AB",
"5  c #0689AC",
"6  c #1883A5",
"7  c #0085B2",
"8  c #008EBB",
"9  c #168ABA",
"0  c #1B8DBC",
"q  c #1990B7",
"w  c #1492BC",
"e  c #2983AB",
"r  c #3985AC",
"t  c #308BAF",
"y  c #2C8CB3",
"u  c #3490B6",
"i  c #3E91B5",
"p  c #4391B6",
"a  c #4C90B0",
"s  c #4595B9",
"d  c #5593B3",
"f  c #5A9FBF",
"g  c #639AB7",
"h  c #649EBC",
"j  c #008FC3",
"k  c #1A8DC0",
"l  c #1496C1",
"z  c #1498C6",
"x  c #139DCE",
"c  c #009DD6",
"v  c #259BC3",
"b  c #2E9DC4",
"n  c #269DC8",
"m  c #339DC2",
"M  c #3A9EC0",
"N  c #0BA0D5",
"B  c #00A1D9",
"V  c #12A3D4",
"C  c #12A6DC",
"Z  c #12A9DF",
"A  c #2DA2CB",
"S  c #33A2C6",
"D  c #33A3C9",
"F  c #3DA6CC",
"G  c #33A9D3",
"H  c #39ABD3",
"J  c #30AEDC",
"K  c #05AAE2",
"L  c #11ABE3",
"P  c #10AEEA",
"I  c #0FB2EF",
"U  c #12B0E6",
"Y  c #10B1ED",
"T  c #0FB4F1",
"R  c #2FB3E5",
"E  c #2FB7E9",
"W  c #2FBAED",
"Q  c #31B3E2",
"!  c #31B8E6",
"~  c #31B7E9",
"^  c #30BAED",
"/  c #2DBCF1",
"(  c #4CABCD",
")  c #5BA5C6",
"_  c #57A7C8",
"`  c #5BA5C8",
"'  c #48AED2",
"]  c #4CB1D5",
"[  c #42B0D8",
"{  c #52B3D5",
"}  c #59B2D1",
"|  c #58B8DC",
" . c #6AABC7",
".. c #6AADCC",
"X. c #7CABC3",
"o. c #60B1CD",
"O. c #73B0CC",
"+. c #63B5D2",
"@. c #6EB3D0",
"#. c #62B9D8",
"$. c #6ABCD9",
"%. c #7CB6D2",
"&. c #72BCD7",
"*. c #7EBFD7",
"=. c #43B9E2",
"-. c #4EBCE1",
";. c #7FC1D7",
":. c #75C1DD",
">. c #7DC4DC",
",. c #65C6EE",
"<. c #F0CE8B",
"1. c #F5D394",
"2. c #F3DFBA",
"3. c #FDE9B6",
"4. c #82AEC7",
"5. c #84B0C7",
"6. c #82B3CC",
"7. c #8AB6CF",
"8. c #8EB9CE",
"9. c #82B7D6",
"0. c #83B9D2",
"q. c #89BDD5",
"w. c #85BDD8",
"e. c #89BED8",
"r. c #99BED3",
"t. c #83C5DC",
"y. c #8EC6DA",
"u. c #83C8DF",
"i. c #91C0D4",
"p. c #9AC2D7",
"a. c #95C5DA",
"s. c #9BC6DC",
"d. c #92C9DC",
"f. c #9FC8DD",
"g. c #8DCAE0",
"h. c #93CEE4",
"j. c #9CD1E3",
"k. c #91D1F1",
"l. c #A5CCE1",
"z. c #AACFE2",
"x. c #B1CFE7",
"c. c #A0D2E3",
"v. c #ABD3E4",
"b. c #AED8E7",
"n. c #ACD8E8",
"m. c #B2D4E5",
"M. c #B8D8E7",
"N. c #B3D3E8",
"B. c #B3DCEA",
"V. c #BADBEA",
"C. c #BFE1ED",
"Z. c #FAEAC6",
"A. c #F6E7CE",
"S. c #FAF1CF",
"D. c #F6ECDB",
"F. c #FEEFD8",
"G. c #FFF8D4",
"H. c #C7DAE6",
"J. c #C8DBE6",
"K. c #C3DEEC",
"L. c #C9DFEE",
"P. c #C5E2EE",
"I. c #CFE3EF",
"U. c #CAE3F1",
"Y. c #CBEAF4",
"T. c #D3E6F1",
"R. c #D8E7F2",
"E. c #D3ECF5",
"W. c #D9EBF3",
"Q. c #D8EEF8",
"!. c #D6F0F7",
"~. c #DAF1F7",
"^. c #DEF4FB",
"/. c #FBF3E2",
"(. c #FFF9E6",
"). c #E1EEF4",
"_. c #E1F0F5",
"`. c #E9F4F7",
"'. c #E3F5FC",
"]. c #EBF6FA",
"[. c #E6F8FE",
"{. c #ECF9FD",
"}. c #FCF6F0",
"|. c #FCF8F4",
" X c #F1F6FC",
".X c #F4FBFE",
"XX c #FEFFFF",
"oX c None",
/* pixels */
"oXoXB j j j j j j j j j j j j j j j j j j j j j j j j j j c oXoX",
"oX: $ % % % % % % % % % % % % % % % % % % % % % % % % % % $ ; oX",
"  , )..X.X.X.X.X.X.X.X.X.X.X.X.X.X.X.X.X.X.X.X.X.X.X.X.X.X{.6 X ",
"oXq {.{.[.{.P.K.{..X[.[.[.[.[.[.].[.[.[.[.[.[.[.[.[.[.[.]..Xi   ",
"oXw ].[.{.M.4.p.X.M.[.{.{.^.^.'.^.^.^.^.^.^.^.^.^.^.^.^.^..XS   ",
"oXl ].[.{.V.5.{.U.5.X.X.f.{.{.^.^.^.^.^.^.[.^.^.^.'.^.'.^..XS   ",
"oXz {.[.^..X7.p..X[.{.!.8.g U..X'.'.'.'.'.'.'.'.'.'.'.'.'..XD X ",
"oXx {.{.'.{.{.h ].E.r .X.XP.d z..X'.[.'.[.'.'.'.[.'.'.'.'..XG X ",
"oXV  X{.[.'..X0.7.XXz.'.{..X[.a z..X[.[.[.[.[.[.[.[.[.].[..XG o ",
"oXV .X{.].]..XU.e .X.X{.].]..X].3 U..X].].{.].{.{.].].].]..XJ X ",
"oXC .X.X{.{.{..Xp z..X.X{.{.{.XXz.- .X{.{.{..X{.{.{..X{..X.XJ o ",
"oXZ .X.X.X.X.XXX`.2 .X.X.X{..X.XXXt 0.XX.X.X.X.X.X{..X{..XXXJ o ",
"oXL .XXX.X.X.XXXP.s XX.X.X.X.X.XXXK.2 .X.X.X.X.X.X.X.X.X.XXXR o ",
"oXL .XXX.X.X.XXX0.i.XXXX.X.X.X.X.XXXe M.XX.X.X.X.XXX.X.X.XXXE o ",
"oXP .XXXXXXXXXXXO.m..Xm.XXXXXX.X.XXXm.y XXXX.XXXXXXXXX.XXXXXE o ",
"oXP .XXXXXXXXXXXq.M.P.> .XXXXXXXXXXX.Xu m.XXXXXXXXXXXXXXXXXX^ + ",
"oXP .XXXXXXXXXXXI.%.a.y f.XXXXXXXXXXXXR.u ..).XXXXXXXXXXXXXX^ @ ",
"oXY XXXXXXXXXXXXXX0.y R...`.XXXXXXXXXXXXXXK.) s.XXXXXXXXXXXX/ @ ",
"oXT XXXXXXXXXXXXXXXXR.XX X9.XXXXXXXXXXXXXXXXXXs.%..XXXXXXXXX/ @ ",
"oXY .XXXXXXXXXXXXXXXXXXXXX Xx.XXXXXXXXXXXXK.q.e._ L.XXXXXXXX/ @ ",
"oXY XXXXXXXXXXXXXXXXXXXXXXXXXXXXXXXXXXXXXXs._ ].XXXXXXXXXXXX^ @ ",
"oXP XXXXXXXXXXXXXXXXXXXXXXXXXXXXXXXXXXXXXXXXN.@.T.XXXXXXXXXX^ @ ",
"oXU .XH..XH.XXXXA./.D.A.|.XXXXXXXXXXXXXXXXXXXX`.w.L.XXXXXXXXE o ",
"oXL .Xf  .i m.i.= * <.& 1.F.}.XXXXXXXXXXXXXXXXXXXXN. XXXXXXX! o ",
"oXL .X.X X Xl.z.G.(.Z.3.S.2.XX.XXXXXXXXXXXXXXXXXXXXX.XXXXXXXQ o ",
"oXZ .XH .X|.].| .X{.XX.Xk.,..X$.:..XXX`.XXXX`.XXXX).h.{ .XXXR o ",
"oXC XX{ g.0 h.' } { $.v #.b g.u.' ' @.S ' } F ] +.:.h.A n  X=.X ",
"oXV XXb.< j.1 t.( d.0 :.].1 t.*.&.o.9 ( *.v E.b 0 _.y.>.+.P.-.X ",
"oXx XX.XB.XXn.XXP.j. X_.XX].E.U.b.V.XXv.T.~..XW. Xt.T. X~..X[ X ",
"oXK d.!.'.U.~.Y.~.'.E.!.Y.!.!.~.'.~.Y.'.~.~.E.!.!.'.!.E.~.B.V O ",
"oX5 8 7 7 7 7 7 7 7 7 7 7 7 7 7 7 7 7 7 7 7 7 7 7 7 7 7 7 8 4 oX",
"oXoXoXoXoXoXoXoXoXoXoXoXoXoXoXoXoXoXoXoXoXoXoXoXoXoXoXoXoXoXoXoX"
};
