/* XPM */
static char *petri_foo[] = {
/* columns rows colors chars-per-pixel */
"32 19 219 2",
"   c #000000",
".  c #000001",
"X  c #010101",
"o  c #020202",
"O  c #030303",
"+  c #030204",
"@  c #030305",
"#  c #040306",
"$  c #040404",
"%  c #050505",
"&  c #040406",
"*  c #060606",
"=  c #070707",
"-  c #060609",
";  c #080808",
":  c #090909",
">  c #0B0B0B",
",  c #0A0A0C",
"<  c #0A090F",
"1  c #0C0C0C",
"2  c #0E0E0E",
"3  c #0F0F0F",
"4  c #101010",
"5  c #111111",
"6  c #121212",
"7  c #131313",
"8  c #141414",
"9  c #1B1B1B",
"0  c #1F1F1F",
"q  c #141420",
"w  c #1B1B20",
"e  c #1A1928",
"r  c #1E1D2D",
"t  c #202020",
"y  c #212121",
"u  c #222222",
"i  c #242424",
"p  c #252525",
"a  c #262626",
"s  c #272727",
"d  c #282828",
"f  c #292929",
"g  c #2C2C2C",
"h  c #252532",
"j  c #222134",
"k  c #2A293B",
"l  c #313131",
"z  c #323232",
"x  c #333333",
"c  c #363636",
"v  c #373737",
"b  c #34343C",
"n  c #383838",
"m  c #393939",
"M  c #3A3A3A",
"N  c #3C3C3C",
"B  c #3D3D3D",
"V  c #3E3E3E",
"C  c #3F3F3F",
"Z  c #403F51",
"A  c #404040",
"S  c #434343",
"D  c #454545",
"F  c #464646",
"G  c #474747",
"H  c #414149",
"J  c #47474F",
"K  c #484848",
"L  c #494949",
"P  c #4A4A4A",
"I  c #4D4D4D",
"U  c #4E4E4E",
"Y  c #434252",
"T  c #444351",
"R  c #464656",
"E  c #474656",
"W  c #484754",
"Q  c #4C4C55",
"!  c #46455A",
"~  c #47465B",
"^  c #484759",
"/  c #4A495E",
"(  c #4E4D5E",
")  c #515151",
"_  c #525252",
"`  c #535353",
"'  c #545454",
"]  c #555555",
"[  c #565655",
"{  c #575759",
"}  c #595959",
"|  c #5B5B5B",
" . c #5D5D5D",
".. c #5E5E5E",
"X. c #444264",
"o. c #494862",
"O. c #4E4D64",
"+. c #4B4A6B",
"@. c #4E4C6C",
"#. c #4E4D6C",
"$. c #4F4F6D",
"%. c #555462",
"&. c #53526A",
"*. c #56556D",
"=. c #5D5D69",
"-. c #5C5C6B",
";. c #5C5B6E",
":. c #5F5E6D",
">. c #525270",
",. c #535270",
"<. c #545371",
"1. c #585671",
"2. c #5E5E74",
"3. c #5E5C7E",
"4. c #5F5D7E",
"5. c #616160",
"6. c #626261",
"7. c #626262",
"8. c #636363",
"9. c #646464",
"0. c #666666",
"q. c #666667",
"w. c #676767",
"e. c #676768",
"r. c #686868",
"t. c #696969",
"y. c #6A6A6A",
"u. c #6A6A6B",
"i. c #6B6B6B",
"p. c #6B6B6E",
"a. c #6C6C6C",
"s. c #6D6D6D",
"d. c #6F6F6F",
"f. c #626272",
"g. c #656474",
"h. c #676676",
"j. c #6B6B70",
"k. c #6B6B71",
"l. c #6A6972",
"z. c #6A6A73",
"x. c #6F6F72",
"c. c #6C6B75",
"v. c #6D6C75",
"b. c #646379",
"n. c #6F6E7A",
"m. c #6F6F7B",
"M. c #6D6B7D",
"N. c #707070",
"B. c #717171",
"V. c #727272",
"C. c #737373",
"Z. c #747474",
"A. c #757575",
"S. c #777777",
"D. c #77767D",
"F. c #787878",
"G. c #797979",
"H. c #7B7B7B",
"J. c #78787F",
"K. c #7C7C7C",
"L. c #7C7C7D",
"P. c #7D7D7D",
"I. c #7F7F7F",
"U. c #615F83",
"Y. c #676583",
"T. c #69688A",
"R. c #6C6A8A",
"E. c #716F81",
"W. c #747385",
"Q. c #787785",
"!. c #7B7B84",
"~. c #797887",
"^. c #74728B",
"/. c #787691",
"(. c #7C7A95",
"). c #7F7D9F",
"_. c #808080",
"`. c #818181",
"'. c #828282",
"]. c #808087",
"[. c #868589",
"{. c #878789",
"}. c #84838F",
"|. c #898989",
" X c #8B8B8B",
".X c #8C8C8B",
"XX c #8D8D8D",
"oX c #8E8E8E",
"OX c #898899",
"+X c #8B8A9C",
"@X c #909090",
"#X c #919191",
"$X c #949493",
"%X c #959594",
"&X c #9A9A9A",
"*X c #9C9C9C",
"=X c #9D9D9E",
"-X c #A0A09F",
";X c #9B9BA1",
":X c #9F9EAF",
">X c #A1A1A1",
",X c #A2A2A1",
"<X c #A7A7A7",
"1X c #A6A6A8",
"2X c #A5A5AB",
"3X c #A8A8A8",
"4X c #ACACAC",
"5X c #ADADB1",
"6X c #B0B0B0",
"7X c #B1B1B1",
"8X c #B3B3B3",
"9X c #B5B4B5",
"0X c #B5B5B5",
"qX c #BEBEBE",
"wX c #C0C0C0",
"eX c #C2C2C3",
"rX c #D8D8D8",
"tX c #E9E9E9",
"yX c None",
/* pixels */
"yXyXyXyXyXyXyXyXyXyX-.Q _.B.d.d.B.i.A.I.K.B.F.F.I.K._.F.9.' v yX",
"yXyXyXyXyXyXyXyXyXyX^.2.;XXX7X8X.X9.1X7X*XH.3X4X#X_._.B.y.I a   ",
"yXyXyXyXyXyXyXyXyXyX! +.x.5. .e.x m I.F.x C r.y.K _ C m 0 a =   ",
"yXyXyXyXyXyXyXyXyXyXZ U.k. XB.I :   = : = = = , h H 5.f = 4   yX",
"yXyXyXyXyXyXyXyXyXyXW T.m.%Xy.x               w Y.;.,XK 0 =   yX",
"yXyXyXyXyXyXyXyXyXyX^ Y.m.I._ 8   yXyXyXyXyXyXyX).b.,XK a   yXyX",
"yXyXyXyXyXyXyXyXyXyX/ +.k.a =     yXyXyXyXyXyXyXR.g.|.x 2   yXyX",
"yXyXyXyXyXyXyXyXyXyX<.&.9.:     yXyXyXyXyXyXyXO.,.v.F :   yXyXyX",
"yXyXyXyXyXyXyXyXyXO.,.J.C       yXyXyXyXyXyXyX*.o.i.8     yXyXyX",
"yXyXyXyXyXJ { F.x.E.z.d.m ,   yXyXyXyXyXyXyXR @.-.C     yXyXyXyX",
"yXyX%.M.!.1X9XXX9. .| S 9     yXyXyXyXyXyXT 1.g.y.4     yXyXyXyX",
"yXg.+X;XrXqXe.F S S C a =   yXyXyX-.k.{.%X[.!.y.N 4   yXyXyXyXyX",
"W (.}.wX7Xd. .d.5.' m 2     yXQ.+X1XeX,XA.| I C u =   yXyXyXyXyX",
"! 4.D.XXI F 9.i.8._ a =   yX!.:X5XtX8X| K K S f :   yXyXyXyXyXyX",
"k X.b x a x F K C u =   yXyX/.W.5X&Xi.' _ 5._ a     yXyXyXyXyXyX",
"yXe q +   = 4 8 2       yXyX@.Y ' v g f x C a :   yXyXyXyXyXyXyX",
"yX  = +             yXyXyXyXj r = + = : 4 4 =   yXyXyXyXyXyXyXyX",
"yXyXyX          yXyXyXyXyXyX- , -             yXyXyXyXyXyXyXyXyX",
"yXyXyXyXyXyXyXyXyXyXyXyXyXyXyXyX          yXyXyXyXyXyXyXyXyXyXyX"
};
