/* XPM */
static char * phlipple_xpm[] = {
"32 32 537 2",
"  	c None",
". 	c #10104F",
"+ 	c #10104E",
"@ 	c #0F0F4C",
"# 	c #121355",
"$ 	c #131354",
"% 	c #131255",
"& 	c #131355",
"* 	c #121354",
"= 	c #121255",
"- 	c #131254",
"; 	c #121254",
"> 	c #131356",
", 	c #080826",
"' 	c #151559",
") 	c #161559",
"! 	c #151659",
"~ 	c #161659",
"{ 	c #344576",
"] 	c #334475",
"^ 	c #334575",
"/ 	c #344575",
"( 	c #354676",
"_ 	c #354776",
": 	c #354777",
"< 	c #364877",
"[ 	c #364977",
"} 	c #374B79",
"| 	c #384C7A",
"1 	c #3A507C",
"2 	c #202663",
"3 	c #151558",
"4 	c #16165B",
"5 	c #090926",
"6 	c #18185D",
"7 	c #18185E",
"8 	c #17175D",
"9 	c #4B698D",
"0 	c #557896",
"a 	c #597C9A",
"b 	c #5E839F",
"c 	c #5E83A0",
"d 	c #5F83A0",
"e 	c #5F84A1",
"f 	c #5F83A1",
"g 	c #6084A1",
"h 	c #6085A2",
"i 	c #6186A2",
"j 	c #526C93",
"k 	c #2A276C",
"l 	c #262569",
"m 	c #18185F",
"n 	c #0A0A28",
"o 	c #1B1B62",
"p 	c #1B1B63",
"q 	c #1B1A63",
"r 	c #1A1B63",
"s 	c #1A1A62",
"t 	c #4F6E92",
"u 	c #567997",
"v 	c #567998",
"w 	c #6287A4",
"x 	c #83ADC7",
"y 	c #82ACC6",
"z 	c #7DA2C0",
"A 	c #5C5898",
"B 	c #5D5A99",
"C 	c #4E4B8C",
"D 	c #181860",
"E 	c #212067",
"F 	c #1A1A63",
"G 	c #1B1B64",
"H 	c #0B0B2A",
"I 	c #1D1D67",
"J 	c #1E1D67",
"K 	c #1E1D66",
"L 	c #1D1E67",
"M 	c #1C1C66",
"N 	c #6082A4",
"O 	c #739AB7",
"P 	c #567A99",
"Q 	c #577A99",
"R 	c #577B9A",
"S 	c #84ADC8",
"T 	c #82ABC6",
"U 	c #82AAC6",
"V 	c #81AAC6",
"W 	c #81AAC5",
"X 	c #5F5E9C",
"Y 	c #5D5999",
"Z 	c #3D3B80",
"` 	c #302F75",
" .	c #1D1D66",
"..	c #1E1E69",
"+.	c #0D0C2C",
"@.	c #20206C",
"#.	c #20206B",
"$.	c #20216B",
"%.	c #6385A8",
"&.	c #83ADC8",
"*.	c #7DA6C1",
"=.	c #567999",
"-.	c #587B9B",
";.	c #567899",
">.	c #7EA7C3",
",.	c #81ABC6",
"'.	c #83AFC8",
").	c #646AA4",
"!.	c #5E5B9B",
"~.	c #5E5A9B",
"{.	c #6966A7",
"].	c #615E9E",
"^.	c #3E3C82",
"/.	c #21216D",
"(.	c #0D0D2F",
"_.	c #232370",
":.	c #232371",
"<.	c #232470",
"[.	c #6588AB",
"}.	c #83ACC7",
"|.	c #85AECA",
"1.	c #5A7D9E",
"2.	c #597C9D",
"3.	c #587B9C",
"4.	c #749BB8",
"5.	c #83ABC7",
"6.	c #82ACC7",
"7.	c #6E7FAF",
"8.	c #5E5B9C",
"9.	c #5E5C9D",
"0.	c #5F5C9D",
"a.	c #5F5C9E",
"b.	c #8985C7",
"c.	c #6965A7",
"d.	c #4C4A8F",
"e.	c #212270",
"f.	c #242373",
"g.	c #0E0E31",
"h.	c #252675",
"i.	c #252575",
"j.	c #242374",
"k.	c #617EA6",
"l.	c #7E9FC2",
"m.	c #7C9EC0",
"n.	c #7C9DC0",
"o.	c #7D9EC1",
"p.	c #5C7AA2",
"q.	c #506C97",
"r.	c #6382A9",
"s.	c #7C9DBF",
"t.	c #7C9CBF",
"u.	c #7B9CBF",
"v.	c #7B9BBF",
"w.	c #748BB7",
"x.	c #5E599D",
"y.	c #605C9F",
"z.	c #5F5D9F",
"A.	c #5D5A9D",
"B.	c #807DBF",
"C.	c #8985C8",
"D.	c #726EB1",
"E.	c #555398",
"F.	c #232373",
"G.	c #262575",
"H.	c #262677",
"I.	c #101032",
"J.	c #28287A",
"K.	c #282879",
"L.	c #262679",
"M.	c #43418B",
"N.	c #615CA1",
"O.	c #5F5BA0",
"P.	c #46438E",
"Q.	c #262578",
"R.	c #2F2E7E",
"S.	c #615DA1",
"T.	c #605BA0",
"U.	c #605CA0",
"V.	c #605EA0",
"W.	c #605EA1",
"X.	c #605DA0",
"Y.	c #7470B3",
"Z.	c #8986C9",
"`.	c #8885C9",
" +	c #7975B9",
".+	c #6460A3",
"++	c #252677",
"@+	c #29297C",
"#+	c #111134",
"$+	c #2B2B7E",
"%+	c #29297D",
"&+	c #464490",
"*+	c #6360A3",
"=+	c #625EA2",
"-+	c #625FA2",
";+	c #625FA3",
">+	c #55539A",
",+	c #2A2B7E",
"'+	c #28287C",
")+	c #6561A4",
"!+	c #615FA2",
"~+	c #6865AA",
"{+	c #8B88CB",
"]+	c #8A86C9",
"^+	c #837FC3",
"/+	c #303082",
"(+	c #2B2B7F",
"_+	c #2C2B80",
":+	c #121237",
"<+	c #2D2E83",
"[+	c #2D2C82",
"}+	c #6764A7",
"|+	c #625FA4",
"1+	c #625EA4",
"2+	c #615FA4",
"3+	c #6360A5",
"4+	c #2A2980",
"5+	c #2B2C82",
"6+	c #292981",
"7+	c #56549C",
"8+	c #625EA3",
"9+	c #6260A4",
"0+	c #7A77BB",
"a+	c #8987C9",
"b+	c #8A87CA",
"c+	c #615EA3",
"d+	c #3C3C8C",
"e+	c #2E2D82",
"f+	c #2E2E85",
"g+	c #131439",
"h+	c #303087",
"i+	c #2E2E87",
"j+	c #58559F",
"k+	c #7C78BD",
"l+	c #837FC4",
"m+	c #8380C3",
"n+	c #8581C5",
"o+	c #615EA6",
"p+	c #5B58A1",
"q+	c #5A58A0",
"r+	c #7370B6",
"s+	c #8480C4",
"t+	c #8682C6",
"u+	c #6461A7",
"v+	c #6461A6",
"w+	c #6360A7",
"x+	c #706DB2",
"y+	c #8B87CB",
"z+	c #8B86CB",
"A+	c #8D89CD",
"B+	c #6764A9",
"C+	c #494897",
"D+	c #303088",
"E+	c #31318A",
"F+	c #15143B",
"G+	c #32328C",
"H+	c #32338C",
"I+	c #4C4B9A",
"J+	c #7875BA",
"K+	c #8A88CB",
"L+	c #8B88CC",
"M+	c #7673B7",
"N+	c #6562A8",
"O+	c #8C89CC",
"P+	c #6E6BB1",
"Q+	c #6B68AE",
"R+	c #53519E",
"S+	c #34348F",
"T+	c #15163C",
"U+	c #353591",
"V+	c #363591",
"W+	c #414096",
"X+	c #6E6CB2",
"Y+	c #8C89CD",
"Z+	c #8B87CC",
"`+	c #807CC2",
" @	c #6562A9",
".@	c #6663AA",
"+@	c #6966AD",
"@@	c #8D8ACE",
"#@	c #7774BA",
"$@	c #6360A8",
"%@	c #8D89CE",
"&@	c #7673B9",
"*@	c #5F5CA6",
"=@	c #343490",
"-@	c #363693",
";@	c #17173F",
">@	c #383895",
",@	c #383896",
"'@	c #363694",
")@	c #6764AB",
"!@	c #8C88CC",
"~@	c #8A87CB",
"{@	c #6562AA",
"]@	c #6764AC",
"^@	c #6663AB",
"/@	c #8682C7",
"(@	c #7F7CC1",
"_@	c #353595",
":@	c #393998",
"<@	c #181840",
"[@	c #3B3B9B",
"}@	c #3A3A99",
"|@	c #5D5BA8",
"1@	c #8380C6",
"2@	c #8B89CE",
"3@	c #8D8BCF",
"4@	c #6B68B1",
"5@	c #6864AD",
"6@	c #6764AD",
"7@	c #7875BD",
"8@	c #7D7AC1",
"9@	c #7D7BC1",
"0@	c #7E7BC1",
"a@	c #7B78BF",
"b@	c #5453A5",
"c@	c #5654A6",
"d@	c #706DB8",
"e@	c #7E7CC2",
"f@	c #7F7BC2",
"g@	c #7976BE",
"h@	c #6967AE",
"i@	c #3F3E9B",
"j@	c #3C3C9D",
"k@	c #191943",
"l@	c #3D3D9E",
"m@	c #3D3E9E",
"n@	c #5352A6",
"o@	c #7B77BF",
"p@	c #8D88CE",
"q@	c #8E8ACF",
"r@	c #7370B8",
"s@	c #6966B0",
"t@	c #6966AF",
"u@	c #6866AE",
"v@	c #6C68B0",
"w@	c #3C3C9E",
"x@	c #504EA6",
"y@	c #6965AF",
"z@	c #6B67B0",
"A@	c #4948A3",
"B@	c #3F3EA2",
"C@	c #1B1B45",
"D@	c #4040A3",
"E@	c #4040A4",
"F@	c #4847A6",
"G@	c #8E8BD0",
"H@	c #8C8ACF",
"I@	c #827FC6",
"J@	c #6865B0",
"K@	c #6A67B1",
"L@	c #6A67B2",
"M@	c #6B68B2",
"N@	c #4A4AA7",
"O@	c #4A49A6",
"P@	c #6562B0",
"Q@	c #3D3EA2",
"R@	c #4141A6",
"S@	c #1C1C47",
"T@	c #4343A9",
"U@	c #4141A8",
"V@	c #6B67B2",
"W@	c #8E8AD0",
"X@	c #8E89CF",
"Y@	c #8D8ACF",
"Z@	c #8D89CF",
"`@	c #8A86CC",
" #	c #6A68B3",
".#	c #6C69B3",
"+#	c #6C69B4",
"@#	c #6D6BB5",
"##	c #7B77C0",
"$#	c #7A77BF",
"%#	c #7A76BF",
"&#	c #6462B4",
"*#	c #5452AC",
"=#	c #5352AC",
"-#	c #7B78C0",
";#	c #7976BF",
">#	c #4B4AAA",
",#	c #4343A8",
"'#	c #4444AC",
")#	c #1C1C49",
"!#	c #4646AD",
"~#	c #4645AD",
"{#	c #4545AD",
"]#	c #4444AD",
"^#	c #615FB2",
"/#	c #8683CA",
"(#	c #8D8AD1",
"_#	c #8D8AD0",
":#	c #6E6AB6",
"<#	c #6C69B5",
"[#	c #6B68B4",
"}#	c #8884CC",
"|#	c #8E8AD1",
"1#	c #8E8BD1",
"2#	c #8380C8",
"3#	c #6A67B4",
"4#	c #8C89CF",
"5#	c #605DB2",
"6#	c #4747B0",
"7#	c #1E1E4B",
"8#	c #4848B2",
"9#	c #4848B1",
"0#	c #4948B2",
"a#	c #5957B4",
"b#	c #7C7AC3",
"c#	c #8F8CD2",
"d#	c #7370BC",
"e#	c #6E6BB7",
"f#	c #6D6AB6",
"g#	c #807CC6",
"h#	c #8D8BD1",
"i#	c #8A87CE",
"j#	c #6C69B6",
"k#	c #8481C9",
"l#	c #8E8BD2",
"m#	c #7976C0",
"n#	c #4949B2",
"o#	c #4948B1",
"p#	c #4A4AB5",
"q#	c #1F1F4D",
"r#	c #4B4BB6",
"s#	c #5151B6",
"t#	c #7672BD",
"u#	c #918DD3",
"v#	c #7B78C2",
"w#	c #6E6BB9",
"x#	c #6F6BB9",
"y#	c #7774BF",
"z#	c #908CD3",
"A#	c #8F8BD1",
"B#	c #7F7CC6",
"C#	c #8986CD",
"D#	c #5A59B6",
"E#	c #4B4BB7",
"F#	c #4C4CBA",
"G#	c #20204F",
"H#	c #4D4DBA",
"I#	c #4E4EBB",
"J#	c #4D4DBB",
"K#	c #4D4EBA",
"L#	c #4B4BBB",
"M#	c #6E6BBA",
"N#	c #8481CA",
"O#	c #706DBB",
"P#	c #706CBB",
"Q#	c #726FBC",
"R#	c #8E8CD3",
"S#	c #8F8DD3",
"T#	c #7673C0",
"U#	c #7A76C2",
"V#	c #726FBE",
"W#	c #4E4EBA",
"X#	c #4F4FBE",
"Y#	c #212151",
"Z#	c #5050C0",
"`#	c #4F4FC0",
" $	c #605FBE",
".$	c #6764BC",
"+$	c #706EBC",
"@$	c #716EBD",
"#$	c #6F6CBB",
"$$	c #8B88D1",
"%$	c #908BD4",
"&$	c #908CD4",
"*$	c #7F7CC7",
"=$	c #706EBD",
"-$	c #6765BD",
";$	c #5A59BE",
">$	c #5050BF",
",$	c #5251C3",
"'$	c #232353",
")$	c #5353C4",
"!$	c #5252C4",
"~$	c #6160C1",
"{$	c #7370BE",
"]$	c #726EBD",
"^$	c #8582CD",
"/$	c #918ED5",
"($	c #908DD5",
"_$	c #908DD4",
":$	c #8582CC",
"<$	c #716EBE",
"[$	c #5352C4",
"}$	c #5554C7",
"|$	c #232355",
"1$	c #5556C9",
"2$	c #5655C9",
"3$	c #5656C9",
"4$	c #5757C8",
"5$	c #5C5BC7",
"6$	c #6665C3",
"7$	c #7B78C5",
"8$	c #7B77C4",
"9$	c #7B78C4",
"0$	c #7A78C4",
"a$	c #7B77C5",
"b$	c #7C79C5",
"c$	c #7D79C6",
"d$	c #7471BF",
"e$	c #605FC5",
"f$	c #5555C9",
"g$	c #5556C8",
"h$	c #5757CC",
"i$	c #252557",
"j$	c #5858CD",
"k$	c #5858CE",
"l$	c #5857CD",
"m$	c #5758CD",
"n$	c #5857CE",
"o$	c #5958CD",
"p$	c #5959CD",
"q$	c #5959CC",
"r$	c #5A5ACC",
"s$	c #5A5AD1",
"t$	c #262659",
"u$	c #5B5AD1",
"v$	c #5B5BD2",
"w$	c #5B5BD3",
"x$	c #5F5FDC",
"y$	c #0E0D20",
"z$	c #5D5DD6",
"A$	c #5F5FDA",
"B$	c #5F5FD9",
"C$	c #5E5FD9",
"D$	c #5F5ED9",
"E$	c #5E5ED9",
"F$	c #6161DF",
"G$	c #333376",
"H$	c #383881",
"I$	c #313172",
"J$	c #323272",
"K$	c #313171",
"L$	c #161634",
"    . . . . . . . . . . . . . . . . . . . . . . . . . . + +     ",
"  . . . . . . . . . . . . . . . . . . . . . . . . . . . . . @   ",
"# $ # % & # & & * = - # # % * - ; $ - - $ ; ; ; * $ % $ & * > , ",
"' ) ! ' ' ~ ' ! ! ' { ] ^ / ( _ : < [ [ [ } | 1 2 ) ~ 3 ! ' 4 5 ",
"6 6 7 6 7 6 7 7 8 9 0 a b c c d d e f e g h i j k l 6 7 6 6 m n ",
"o p o q r o o s t u v w x y y y y y y y y y z A B C D E F p G H ",
"I J I K L I M N O P Q R S T U T T T T T V W X Y Y B Z ` J  ...+.",
"@.#.@.@.@.$.%.&.*.=.-.;.>.,.,.,.T ,.,.,.'.).!.~.!.{.].^.@.@./.(.",
"_.:.:.:.<.[.S }.|.1.2.3.4.5.}.}.y 6.}.&.7.8.9.0.a.b.c.d.e.:.f.g.",
"h.i.h.j.k.l.m.n.o.p.q.q.r.s.t.u.u.u.v.w.x.y.z.A.B.C.D.E.F.G.H.I.",
"J.K.L.M.N.O.O.O.O.P.Q.Q.R.S.T.O.O.O.O.U.V.W.X.Y.Z.`. +.+++K.@+#+",
"$+%+&+*+=+-+;+-+-+>+%+,+'+)+!+-+-+;+=+!+-+-+~+{+]+]+^+-+/+(+_+:+",
"<+[+}+|+;+1+2+|+1+3+4+5+6+7+1+8+;+1+|+3+3+9+0+Z.a+a+b+c+d+e+f+g+",
"h+i+j+k+^+^+^+l+m+n+o+p+q+r+s+s+s+s+t+u+v+w+x+y+z+z+A+B+C+D+E+F+",
"G+H+I+J+{+{+K+{+K+L+M+N+N+x+L+{+K+{+O+P+N+N+Q+O+K+{+O+P+R+G+S+T+",
"U+V+W+X+Y+L+L+L+L+Z+`+ @.@+@@@L+L+L+L+#@.@.@$@%@L+L+L+&@*@=@-@;@",
">@,@'@)@%@!@!@!@!@!@~@{@]@{@~@!@!@!@L+`+^@]@^@/@!@!@!@(@]@_@:@<@",
"[@[@}@|@1@2@2@2@2@2@3@4@5@6@7@8@9@9@0@a@b@c@c@d@0@e@f@g@h@i@j@k@",
"l@m@l@n@o@%@p@p@%@p@q@r@s@s@t@t@t@t@u@v@w@l@l@x@t@y@u@t@z@A@B@C@",
"D@D@E@F@r@G@H@H@H@H@I@J@K@L@K@K@L@K@L@M@N@E@E@O@M@K@K@L@P@Q@R@S@",
"T@T@T@U@V@W@X@Y@Z@`@ #.#+#@###$#$#$#$#%#&#*#*#=#-#;#;#r@>#,#'#)#",
"!#~#{#]#^#/#(#(#_#:#<#<#[#}#|#|#1#|#|#|#2#<#<#3#4#|#_#5#]#{#6#7#",
"8#8#9#0#a#b#1#c#d#e#e#f#g#1#1#1#h#1#1#1#i#j#e#f#k#l#m#n#o#8#p#q#",
"r#r#r#r#s#t#u#v#w#x#w#y#z#A#A#A#A#1#A#A#u#w#x#w#B#C#D#E#r#r#F#G#",
"H#I#J#K#L#M#N#M#O#P#Q#R#l#R#R#R#R#R#R#R#S#T#O#O#U#V#F#K#W#I#X#Y#",
"Z#Z#Z#Z#`# $.$+$@$#$$$%$&$&$&$%$&$%$&$&$%$*$=$@$-$;$Z#Z#Z#>$,$'$",
")$)$)$)$)$!$~${$]$^$/$($($($($($($($($($_$:$<$<$)$)$)$[$)$)$}$|$",
"1$2$1$2$3$3$4$5$6$7$8$9$0$a$9$7$7$7$b$b$c$b$d$e$f$1$g$1$3$3$h$i$",
"j$k$j$j$j$k$j$k$l$m$n$j$l$j$j$o$j$j$p$q$q$q$r$j$k$j$k$j$j$j$s$t$",
"u$v$v$v$w$v$w$v$v$w$v$v$v$v$v$v$w$w$v$v$v$w$v$w$v$v$w$v$w$w$x$y$",
"  z$A$B$C$D$E$E$E$E$C$E$D$D$E$E$C$E$D$D$D$C$E$E$E$E$E$E$E$F$G$  ",
"    H$I$J$J$J$J$J$J$J$J$J$J$J$J$J$J$J$J$J$J$J$J$J$J$J$J$K$L$    "};
