/* XPM */
static char * pyspread_xpm[] = {
"25 32 332 2",
"  	c None",
". 	c #2F5316",
"+ 	c #529025",
"@ 	c #74B048",
"# 	c #78B44C",
"$ 	c #73A84E",
"% 	c #2D3924",
"& 	c #123000",
"* 	c #599F25",
"= 	c #52A616",
"- 	c #45A400",
"; 	c #46A700",
"> 	c #49AC01",
", 	c #4FAE0B",
"' 	c #86C25B",
") 	c #67A838",
"! 	c #304420",
"~ 	c #2F600C",
"{ 	c #4B901A",
"] 	c #4B9119",
"^ 	c #679B41",
"/ 	c #446B2B",
"( 	c #3E6C1F",
"_ 	c #429F00",
": 	c #4EB401",
"< 	c #42A600",
"[ 	c #56AF14",
"} 	c #83C353",
"| 	c #69A73C",
"1 	c #287100",
"2 	c #1E4A00",
"3 	c #46851A",
"4 	c #6A9F45",
"5 	c #416429",
"6 	c #193A04",
"7 	c #2C6C00",
"8 	c #3A7E0A",
"9 	c #419E00",
"0 	c #347703",
"a 	c #4C9117",
"b 	c #76BE42",
"c 	c #6AB830",
"d 	c #8AC95B",
"e 	c #67AF32",
"f 	c #45791F",
"g 	c #62854B",
"h 	c #041300",
"i 	c #121411",
"j 	c #1B1F17",
"k 	c #3B8801",
"l 	c #4D951A",
"m 	c #4EA40E",
"n 	c #46A900",
"o 	c #388501",
"p 	c #0E3700",
"q 	c #84BB5C",
"r 	c #83C454",
"s 	c #78BF45",
"t 	c #8FD15C",
"u 	c #292F25",
"v 	c #3B661E",
"w 	c #0D2100",
"x 	c #1F221C",
"y 	c #56A61C",
"z 	c #1E5200",
"A 	c #7BAA5A",
"B 	c #3D9100",
"C 	c #44A300",
"D 	c #2A6600",
"E 	c #296400",
"F 	c #5A982D",
"G 	c #60AC27",
"H 	c #5CB11C",
"I 	c #85CC52",
"J 	c #2D2A2E",
"K 	c #446F28",
"L 	c #326010",
"M 	c #0C1E01",
"N 	c #2B3326",
"O 	c #347207",
"P 	c #0F2401",
"Q 	c #598937",
"R 	c #6FA548",
"S 	c #3D9300",
"T 	c #44A400",
"U 	c #3B8D00",
"V 	c #69BD2B",
"W 	c #4AA805",
"X 	c #4EAD06",
"Y 	c #60A22F",
"Z 	c #457129",
"` 	c #417417",
" .	c #041800",
"..	c #495F1E",
"+.	c #3F7919",
"@.	c #091D00",
"#.	c #2F5415",
"$.	c #6DA446",
"%.	c #5CA12A",
"&.	c #46A502",
"*.	c #5AAA21",
"=.	c #6E9F4D",
"-.	c #63AE2B",
";.	c #78B34D",
">.	c #050903",
",.	c #447028",
"'.	c #39750A",
").	c #979D48",
"!.	c #5A6C34",
"~.	c #528333",
"{.	c #0A1C00",
"].	c #0F2A00",
"^.	c #37621C",
"/.	c #62913F",
"(.	c #6BAF38",
"_.	c #67A738",
":.	c #739858",
"<.	c #334227",
"[.	c #2F7100",
"}.	c #B3B957",
"|.	c #695D27",
"1.	c #478B18",
"2.	c #0E3500",
"3.	c #411009",
"4.	c #213A17",
"5.	c #262129",
"6.	c #050207",
"7.	c #3C3939",
"8.	c #143400",
"9.	c #2C6B00",
"0.	c #B6A862",
"a.	c #485B22",
"b.	c #000000",
"c.	c #6D6D6D",
"d.	c #414141",
"e.	c #1B1814",
"f.	c #8DB56C",
"g.	c #0F4800",
"h.	c #A23217",
"i.	c #0B1304",
"j.	c #000900",
"k.	c #838382",
"l.	c #AEAEAE",
"m.	c #AEAEAD",
"n.	c #70706F",
"o.	c #2D3326",
"p.	c #280D01",
"q.	c #4E4939",
"r.	c #595958",
"s.	c #6D6B6A",
"t.	c #9B9B9A",
"u.	c #C0C0BF",
"v.	c #C2C2C1",
"w.	c #B8B7B6",
"x.	c #B3B3B3",
"y.	c #AFAFAE",
"z.	c #B5B5B4",
"A.	c #725A4B",
"B.	c #511F11",
"C.	c #111A1C",
"D.	c #686152",
"E.	c #6F6F6F",
"F.	c #9B9A99",
"G.	c #B0B0B0",
"H.	c #B2B2B2",
"I.	c #B0B0AF",
"J.	c #AEADAD",
"K.	c #ADADAC",
"L.	c #8F8B8A",
"M.	c #85240D",
"N.	c #9F9C9B",
"O.	c #E0DFDF",
"P.	c #9F9E9E",
"Q.	c #7B7878",
"R.	c #A2A1A0",
"S.	c #928D8C",
"T.	c #69615E",
"U.	c #5B524F",
"V.	c #ABACAB",
"W.	c #0F0F0F",
"X.	c #E8E6E7",
"Y.	c #817F7E",
"Z.	c #545454",
"`.	c #737373",
" +	c #959595",
".+	c #ABA9A8",
"++	c #5E5754",
"@+	c #665F5D",
"#+	c #908076",
"$+	c #736761",
"%+	c #766D67",
"&+	c #83817F",
"*+	c #797979",
"=+	c #060606",
"-+	c #6B6A6A",
";+	c #686565",
">+	c #5E5855",
",+	c #7C6F68",
"'+	c #6B605B",
")+	c #726862",
"!+	c #736661",
"~+	c #907F76",
"{+	c #716660",
"]+	c #857D79",
"^+	c #8A8A89",
"/+	c #B2B2B1",
"(+	c #10100F",
"_+	c #949494",
":+	c #7A7A7A",
"<+	c #675D57",
"[+	c #938278",
"}+	c #948983",
"|+	c #887A6B",
"1+	c #85766E",
"2+	c #584F4B",
"3+	c #918E8C",
"4+	c #C8C7C7",
"5+	c #F8F8F8",
"6+	c #ACA8A8",
"7+	c #858181",
"8+	c #6A6868",
"9+	c #B2B0AF",
"0+	c #685E59",
"a+	c #807169",
"b+	c #5F5652",
"c+	c #75706E",
"d+	c #CCC9C9",
"e+	c #DBDADA",
"f+	c #D7D6D6",
"g+	c #9E9D9C",
"h+	c #EAE9E9",
"i+	c #585352",
"j+	c #BFC0BF",
"k+	c #272727",
"l+	c #A4A4A4",
"m+	c #CBCBCA",
"n+	c #898584",
"o+	c #615956",
"p+	c #DCDCDC",
"q+	c #E0E0E0",
"r+	c #E3E2E2",
"s+	c #908A89",
"t+	c #CFCCCD",
"u+	c #DEDDDD",
"v+	c #E5E4E4",
"w+	c #9B9898",
"x+	c #D4D3D3",
"y+	c #999897",
"z+	c #A5A4A4",
"A+	c #010101",
"B+	c #E9E8E8",
"C+	c #969492",
"D+	c #A9A6A7",
"E+	c #A19E9E",
"F+	c #E9E9E9",
"G+	c #918D8C",
"H+	c #B2AFAF",
"I+	c #EDEDED",
"J+	c #E4E3E3",
"K+	c #605D5C",
"L+	c #C7C7C6",
"M+	c #636160",
"N+	c #C4C4C4",
"O+	c #817C7C",
"P+	c #E4E2E3",
"Q+	c #F1F1F1",
"R+	c #D3D1D1",
"S+	c #B8B5B5",
"T+	c #B4B0B1",
"U+	c #CECBCC",
"V+	c #D3D2D2",
"W+	c #B6B4B3",
"X+	c #CAC9C9",
"Y+	c #F3F3F3",
"Z+	c #898887",
"`+	c #B6B6B5",
" @	c #ECEBEB",
".@	c #6B6764",
"+@	c #C5C2C3",
"@@	c #B4B2B2",
"#@	c #CBCACA",
"$@	c #C5C3C3",
"%@	c #B7B3B4",
"&@	c #C1C0C0",
"*@	c #878685",
"=@	c #D0CFCF",
"-@	c #A6A5A4",
";@	c #717170",
">@	c #FBFAFA",
",@	c #989595",
"'@	c #E1DFE0",
")@	c #F3F2F2",
"!@	c #A09D9C",
"~@	c #E7E5E6",
"{@	c #B1AFAF",
"]@	c #746D69",
"^@	c #DCDBDB",
"/@	c #CACAC9",
"(@	c #626161",
"_@	c #1A1A1A",
":@	c #FFFFFF",
"<@	c #CBC9C9",
"[@	c #CDCCCC",
"}@	c #939291",
"|@	c #E3E1E1",
"1@	c #E0DFE0",
"2@	c #7E7A79",
"3@	c #777373",
"4@	c #D2D1D1",
"5@	c #E2E1E2",
"6@	c #3D403B",
"7@	c #020202",
"8@	c #F6F4F4",
"9@	c #EAE9E8",
"0@	c #575453",
"a@	c #D9D8D8",
"b@	c #817D7C",
"c@	c #BAB9B8",
"d@	c #E6E6E6",
"e@	c #F5F5F5",
"f@	c #CECDCD",
"g@	c #2B2B2B",
"h@	c #8B8A8A",
"i@	c #FDFCFC",
"j@	c #C9C8C8",
"k@	c #E5E3E4",
"l@	c #808080",
"m@	c #1E1D1D",
"n@	c #3D3D3C",
"o@	c #F7F6F5",
"p@	c #C1BFC0",
"q@	c #50504F",
"                                                  ",
"                  . + @ # $ %                     ",
"              & * = - ; > , ' ) !                 ",
"            ~ { ] ^ / ( _ : < [ } | 1             ",
"          2 3 4 5 6 7 8 9 0 a b [ c d e           ",
"          f g h i j k l m n o p q r s t u         ",
"          v w     x y z A B C D E F G H I J       ",
"        K L M       N O P Q R S T U V W X Y       ",
"        Z `  .        ..+.@.#.$.%.&.*.=.-.;.>.    ",
"        ,.'.).          !.~.{.].^./.(._.:.<.      ",
"          [.}.            |.1.2.3.4.5.6.7.        ",
"          8.9.0.a.  b.c.d.  e.f.g.h.              ",
"          i.j.b.b.k.l.m.n.      o.p.q.            ",
"        r.s.t.u.v.w.x.y.z.b.      A.B.C.D.        ",
"      x.E.F.G.H.H.H.I.J.K.L.          M.          ",
"    N.O.P.Q.R.y.m.I.S.T.U.V.                      ",
"  W.X.Y.Z.`. +.+++@+#+$+%+&+*+                    ",
"  =+-+c.;+>+,+'+)+!+~+{+]+^+/+(+                  ",
"    _+:+<+[+}+|+1+2+3+4+5+6+7+8+                  ",
"    m.9+0+[+a+b+c+d+e+f+g+h+i+j+k+                ",
"    l+m+n+o+p+q+r+s+t+u+v+w+x+y+z+b.              ",
"    A+B+C+v+D+E+e+F+G+H+e+I+J+K+L+M+              ",
"    b.I+N+O+P+Q+R+S+T+U+V+W+X+Y+Z+`+b.            ",
"    b.m+ @.@+@@@#@Y+$@%@$@Y+&@*@4+=@-@            ",
"      ;@>@,@'@)@O.!@~@{@&@]@u.^@/@(@b.            ",
"      _@:@<@[@}@|@1@2@3@4@5@J+6@7@b.              ",
"      b.8@9@0@a@b@c@d@e@f@g@b.b.b.                ",
"        h@i@j@.+:@k@l@m@b.b.b.                    ",
"        n@:@o@p@q@b.b.b.                          ",
"          b.b.b.b.                                ",
"                                                  ",
"                                                  "};
