/* XPM */
static char *qjadeo_32x32[] = {
/* columns rows colors chars-per-pixel */
"32 32 161 2 ",
"   c #000000",
".  c #010101",
"X  c #020202",
"o  c #030303",
"O  c #040404",
"+  c #050505",
"@  c #060606",
"#  c #070707",
"$  c #080808",
"%  c #090909",
"&  c #0A0A0A",
"*  c #0B0B0B",
"=  c #0C0C0C",
"-  c #0D0D0D",
";  c #0E0E0E",
":  c #0F0F0F",
">  c #101010",
",  c #111111",
"<  c #121212",
"1  c #131313",
"2  c #141414",
"3  c #151515",
"4  c #161616",
"5  c #171717",
"6  c #181818",
"7  c #191919",
"8  c #1A1A1A",
"9  c #1B1B1B",
"0  c #1C1C1C",
"q  c #1D1D1D",
"w  c #1E1E1E",
"e  c #1F1F1E",
"r  c #1F1F1F",
"t  c #202020",
"y  c #212121",
"u  c #222222",
"i  c #232323",
"p  c #242424",
"a  c #252525",
"s  c #262626",
"d  c #272727",
"f  c #282827",
"g  c #282828",
"h  c #292929",
"j  c #2A2A2A",
"k  c #2D2D2D",
"l  c #2E2E2E",
"z  c #2F2F2F",
"x  c #303030",
"c  c #313131",
"v  c #323232",
"b  c #333333",
"n  c #353535",
"m  c #363636",
"M  c #373737",
"N  c #3A3A3A",
"B  c #3A3B3B",
"V  c #3B3B3B",
"C  c #3C3C3C",
"Z  c #3E3E3E",
"A  c #3F3F3F",
"S  c #404040",
"D  c #424242",
"F  c #434343",
"G  c #444444",
"H  c #454545",
"J  c #464646",
"K  c #474747",
"L  c #494949",
"P  c #4A4A4A",
"I  c #4B4B4B",
"U  c #4C4C4C",
"Y  c #4D4D4C",
"T  c #4D4D4D",
"R  c #4E4E4E",
"E  c #4F4F4F",
"W  c #515151",
"Q  c #525252",
"!  c #535353",
"~  c #545454",
"^  c #565656",
"/  c #575757",
"(  c #585858",
")  c #595959",
"_  c #5A5A5A",
"`  c #5B5B5B",
"'  c #5C5C5C",
"]  c #5D5D5D",
"[  c #5E5E5E",
"{  c #5F5F5F",
"}  c #606060",
"|  c #616161",
" . c #626262",
".. c #646464",
"X. c #656565",
"o. c #666666",
"O. c #676766",
"+. c #676767",
"@. c #686868",
"#. c #696969",
"$. c #6A6A6A",
"%. c #6B6B6B",
"&. c #6C6C6C",
"*. c #6D6D6D",
"=. c #6E6E6E",
"-. c #6F6F6F",
";. c #707070",
":. c #717171",
">. c #727272",
",. c #737373",
"<. c #747474",
"1. c #757575",
"2. c #767676",
"3. c #777777",
"4. c #787878",
"5. c #797979",
"6. c #7A7A7A",
"7. c #7B7B7B",
"8. c #7C7C7C",
"9. c #7D7D7D",
"0. c #7E7E7E",
"q. c #7F7F7F",
"w. c #818181",
"e. c #828282",
"r. c #828283",
"t. c #828383",
"y. c #838383",
"u. c #848484",
"i. c #858585",
"p. c #878787",
"a. c #8C8C8C",
"s. c #8D8D8D",
"d. c #8E8E8E",
"f. c #8F8F8F",
"g. c #909090",
"h. c #929292",
"j. c #939393",
"k. c #969696",
"l. c #989898",
"z. c #999999",
"x. c #9B9B9B",
"c. c #9C9C9C",
"v. c #9D9D9D",
"b. c #9E9E9E",
"n. c #9F9F9F",
"m. c #A0A0A0",
"M. c #A1A1A1",
"N. c #A2A2A2",
"B. c #A3A3A3",
"V. c #A4A4A4",
"C. c #A5A5A5",
"Z. c #A6A6A6",
"A. c #A8A8A8",
"S. c #A9A9A9",
"D. c #ACACAC",
"F. c #ADADAD",
"G. c #AFAFAF",
"H. c #B8B8B8",
"J. c #BFBFBF",
"K. c #CDCDCD",
"L. c None",
/* pixels */
"L.L.L.L.L.L.L.L.L.L.L.L.L.L.L.L.L.L.L.L.L.L.L.L.L.L.L.L.L.L.L.L.",
"L.L.L.L.L.L.L.L.L.L.L.L.L.L.L.L.L.L.L.L.L.L.L.L.L.L.L.L.L.L.L.L.",
"L.L.L.L.L.L.L.L.L.L.L.L.L.L.L.L.L.L.L.L.L.L.L.L.L.L.L.L.L.L.L.L.",
"L.L.L.L.L.L.L.L.L.L.L.L.L.L.L.L.L.L.L.L.L.L.L.L.L.L.L.L.L.L.L.L.",
"                                                                ",
"g w u O     7 u &     7 u &     3 u &     3 u &     3 s &     s ",
"..1.k.7     ..l.7     | l.w     { l.w     { l.u     ) b.u   = ..",
"7 = , O     = , O     = , &   O , 3 &   O = 3 O     & 3 O   O 7 ",
"        O 3 7 w g M P / 1.s.1.u.a.t.9.6.:.=.:.t.t.t.=.t.| 6.+.& ",
"  , 7 7 7 w s g g g B Y :.t...:...| :.=...#...6.:.p.=.=.Y | P O ",
"  3 u w w u g g s s B ! 1.:.) #.....1.#.1.:.6.6...6.=.=.| =.) O ",
"                                                                ",
"      , &     O                     w                 O M       ",
"      ..#.  = 6.u                 w b.w               & H       ",
"      z G.w +.s.O   & O 3 O       H Z.s   o 2 O   3 & & H       ",
"        #.l.Z.u   O s / #...! , 6.S.J., s 3.t.{ =.Z.:.& H       ",
"        u K./       D g.  9.H.=.=.=.m.P b.G.#...m.Y :.& B       ",
"      v g.6.G.g B   / G.D 6.=.m.1.s.w ) g.g 3 #.{ :.v   3       ",
"    3 p.!   { p.1., B | =.s   C :.w     g H M z / v   O w       ",
"      O       w B / { 3                                         ",
"                o u 7                                           ",
"                                                                ",
"L.L.L.L.L.L.L.L.L.L.L.L.L.L.L.L.L.L.L.L.L.L.L.L.L.L.L.L.L.L.L.L.",
"    & s     # g O   z D 7 7 3         g | I O     = D =         ",
"7   , H = & 7 ! C & P ) , C z & & *   H P { w & , = Y u = & O 7 ",
"Z.& = | / | ! t.#.O H 6.) | #.{ ! P & D C ` ) ! 6.#.:.! Y | u m.",
"g , C =.Y 1.H Y P O Y :.=.Y t.#./ Y , F C | | { ! ` 1./ Y =.= g ",
"  = / z / D / z s O 7 v M ) D D M C   u u z A H s v M v I v O   ",
"L.L.L.L.L.L.L.L.L.L.L.L.L.L.L.L.L.L.L.L.L.L.L.L.L.L.L.L.L.L.L.L.",
"L.L.L.L.L.L.L.L.L.L.L.L.L.L.L.L.L.L.L.L.L.L.L.L.L.L.L.L.L.L.L.L.",
"L.L.L.L.L.L.L.L.L.L.L.L.L.L.L.L.L.L.L.L.L.L.L.L.L.L.L.L.L.L.L.L.",
"L.L.L.L.L.L.L.L.L.L.L.L.L.L.L.L.L.L.L.L.L.L.L.L.L.L.L.L.L.L.L.L."
};
