/* XPM */
static char *noname[] = {
/* width height ncolors chars_per_pixel */
"32 32 601 2",
/* colors */
"   c #000000",
" . c #A0A19D",
" X c #55595A",
" o c #9FA19C",
" O c #545959",
" + c #666864",
" @ c #656863",
" # c #30312F",
" $ c #ABADAB",
" % c #505355",
" & c #2F312E",
" * c #415F85",
" = c #B6CBE4",
" - c #75A5D9",
" ; c #4E5353",
" : c #B5CBE3",
" > c #2E2F2D",
" , c #999996",
" < c #4E5153",
" 1 c #74A3D8",
" 2 c #4D5152",
" 3 c #3D3F3F",
" 4 c #3C3F3E",
" 5 c #4C4F51",
" 6 c #4B4F50",
" 7 c #3A3D3C",
" 8 c #6F7270",
" 9 c #14181A",
" 0 c #5D605B",
" q c #121618",
" w c #C8C8C4",
" e c #2E5586",
" r c #010404",
" t c #5B5E59",
" y c #262725",
" u c #5A5E58",
" i c #595C57",
" p c #343736",
" a c #D5D6D4",
" s c #585C56",
" d c #686C69",
" f c #797C7D",
" g c #6E9AC8",
" h c #575A55",
" j c #D3D4D2",
" k c #565854",
" l c #555853",
" z c #274D7F",
" x c #8A8B87",
" c c #646865",
" v c #D0D0CF",
" b c #535651",
" n c #264B7E",
" m c #2C2F2E",
" M c #868983",
" N c #616462",
" B c #4F524D",
" V c #4D504B",
" C c #4A4E48",
" Z c #6C9DD3",
" A c #4D688D",
" S c #686C6C",
" D c #496489",
" F c #464844",
" G c #454843",
" H c #6D96CA",
" J c #8B8D8B",
" K c #8A8D8A",
" L c #434641",
" P c #BACEE4",
" I c #646668",
" U c #F4F5F2",
" Y c #626666",
" T c #616465",
" R c #2A2D2F",
" E c #999892",
" W c #3C403A",
" Q c #080707",
" ! c #B298AE",
" ~ c #818381",
" ^ c #3A3E38",
" / c #6C9FD6",
" ( c #DCDBD7",
" ) c #808380",
" _ c #151717",
" ` c #4A4C4B",
" ' c #242929",
" ] c #595E5D",
" [ c #6A9DD4",
" { c #040303",
" } c #030302",
" | c #A3A49F",
".  c #585C5C",
".. c #363A34",
".X c #2E5282",
".o c #010100",
".O c #0F1111",
".+ c #333631",
".@ c #E5E5E3",
".# c #1E2123",
".$ c #1D2122",
".% c #436086",
".& c #ACAEAB",
".* c #B7CCE4",
".= c #404241",
".- c #1A1D1F",
".; c #AAACA9",
".: c #4F5253",
".> c #4E5252",
"., c #B5CAE2",
".< c #A8AAA7",
".1 c #3C403D",
".2 c #4D5051",
".3 c #727372",
".4 c #B3C8E0",
".5 c #60635D",
".6 c #4A5B6F",
".7 c #699FD6",
".8 c #383A39",
".9 c #373A38",
".0 c #A2A4A1",
".q c #111516",
".w c #363837",
".e c #A1A2A0",
".r c #454A49",
".t c #000102",
".y c #709BC9",
".u c #9FA29E",
".i c #6F99C8",
".p c #434647",
".a c #6D99C6",
".s c #9D9E9C",
".d c #45473F",
".f c #9B9E9A",
".g c #666766",
".h c #344A77",
".j c #2F3230",
".k c #9A9C99",
".l c #535550",
".z c #2E302F",
".x c #7092BF",
".c c #52554F",
".v c #636563",
".b c #51534E",
".n c #50534D",
".m c #5F655F",
".M c #2A2C2B",
".N c #5D615D",
".B c #4D4F4A",
".V c #282A29",
".C c #393E68",
".Z c #A6A79E",
".A c #6C6F6F",
".S c #B5D9F2",
".D c #262827",
".F c #353A39",
".G c #A5A59D",
".H c #5A5D5A",
".J c #A4A59C",
".K c #585958",
".L c #323636",
".P c #464943",
".I c #E6E6E0",
".U c #444741",
".Y c #1E201F",
".T c #626765",
".R c #4A6FA0",
".E c #878886",
".W c #BCBDBA",
".Q c #B9E1F9",
".! c #40413D",
".~ c #F1F0EE",
".^ c #959897",
"./ c #3E413B",
".( c #282C2C",
".) c #989790",
"._ c #3C3F39",
".` c #384B60",
".' c #4C4F4C",
".] c #345787",
".[ c #335786",
".{ c #818280",
".} c #3A3D37",
".| c #6C9ED5",
"X  c #B6B7B4",
"X. c #5F6058",
"XX c #6B9ED4",
"Xo c #5E6057",
"XO c #699CD2",
"X+ c #D9D8D3",
"X@ c #7D807C",
"X# c #2F5382",
"X$ c #7C807B",
"X% c #212425",
"X& c #6A6C66",
"X* c #555958",
"X= c #466388",
"X- c #BFC1C0",
"X; c #456187",
"X: c #424542",
"X> c #ADAFAB",
"X, c #ACADAA",
"X< c #ABADA9",
"X1 c #4D6E9C",
"X2 c #4F5352",
"X3 c #2E2F2B",
"X4 c #A9ABA7",
"X5 c #D0CCCA",
"X6 c #A8A9A6",
"X7 c #505049",
"X8 c #3B3D3B",
"X9 c #70726F",
"X0 c #393B39",
"Xq c #A4A5A2",
"Xw c #6E706D",
"Xe c #030404",
"Xr c #A3A5A1",
"Xt c #6D706C",
"Xy c #6D6E6C",
"Xu c #373937",
"Xi c #5B5E57",
"Xp c #010202",
"Xa c #353735",
"Xs c #000001",
"Xd c #A0A19E",
"Xf c #9FA19D",
"Xg c #416290",
"Xh c #676C66",
"Xj c #525758",
"Xk c #46483F",
"Xl c #565852",
"Xz c #313331",
"Xx c #666865",
"Xc c #0A0C0E",
"Xv c #9A9B98",
"Xb c #B5CBE4",
"Xn c #2D2F2D",
"Xm c #979995",
"XM c #50524C",
"XN c #2B2D2B",
"XB c #4B4F51",
"XV c #7F7498",
"XC c #DBDCDB",
"XZ c #959593",
"XA c #494F4F",
"XS c #393D3C",
"XD c #292B29",
"XF c #3D3E36",
"XG c #B6C4DB",
"XH c #5B5E5A",
"XJ c #101417",
"XK c #899291",
"XL c #595C58",
"XP c #383A31",
"XI c #242524",
"XU c #434F74",
"XY c #575A56",
"XT c #424748",
"XR c #565A55",
"XE c #D1D2D1",
"XW c #545853",
"XQ c #1F211F",
"X! c #535652",
"X~ c #CFD0CF",
"X^ c #636665",
"X/ c #CED0CE",
"X( c #626664",
"X) c #BDBEBA",
"X_ c #2C2F2F",
"X` c #CDCECD",
"X' c #50524F",
"X] c #3C5B84",
"X[ c #67A8D9",
"X{ c #CBCCCB",
"X} c #5E6260",
"X| c #4B4E4A",
"o  c #A94D68",
"o. c #4A4E49",
"oX c #6B9DD3",
"oo c #7F7F7D",
"oO c #484A47",
"o+ c #232526",
"o@ c #7D7F7B",
"o# c #8DAFD0",
"o$ c #464A45",
"o% c #8B8F8C",
"o& c #7B7D79",
"o* c #202323",
"o= c #656A6A",
"o- c #444643",
"o; c #434642",
"o: c #424641",
"o> c #424441",
"o, c #2D3133",
"o< c #626667",
"o1 c #1B1D1E",
"o2 c #ABACA8",
"o3 c #757773",
"o4 c #606465",
"o5 c #AAACA7",
"o6 c #848785",
"o7 c #282D2E",
"o8 c #838584",
"o9 c #5D6262",
"o0 c #070707",
"oq c #4B4E4D",
"ow c #70716E",
"oe c #3A3C39",
"or c #030303",
"ot c #A3A4A0",
"oy c #373A36",
"ou c #575C5C",
"oi c #474A49",
"op c #020102",
"oa c #363835",
"os c #010101",
"od c #6B6D69",
"of c #000100",
"og c #898F8D",
"oh c #9FA09C",
"oj c #535858",
"ok c #323431",
"ol c #525657",
"oz c #4A5F84",
"ox c #515656",
"oc c #B8CEE6",
"ov c #313230",
"ob c #505655",
"on c #656763",
"om c #646762",
"oM c #B6CCE4",
"oN c #2F302E",
"oB c #4F5254",
"oV c #4E5253",
"oC c #626560",
"oZ c #384C65",
"oA c #4C5051",
"oS c #60635E",
"oD c #69A5D7",
"oF c #15191B",
"oG c #5E615C",
"oH c #A4A6A4",
"oJ c #282A27",
"oK c #131719",
"oL c #A9C3E1",
"oP c #5C5F5A",
"oI c #272826",
"oU c #5A5D58",
"oY c #242623",
"oT c #444849",
"oR c #585B56",
"oE c #434848",
"oW c #D4D5D3",
"oQ c #686B69",
"o! c #0D1113",
"o~ c #6D99C7",
"o^ c #565954",
"o/ c #414646",
"o( c #8B8C88",
"o) c #545752",
"o_ c #9A9C9A",
"o` c #B5CEE6",
"o' c #525550",
"o] c #60A9E5",
"o[ c #2D302F",
"o{ c #878884",
"o} c #51534F",
"o| c #50534E",
"O  c #4E514C",
"O. c #365987",
"OX c #B6C5DD",
"Oo c #383C3D",
"OO c #4C4F4A",
"O+ c #272A29",
"O@ c #80827D",
"O# c #4A4D48",
"O$ c #325583",
"O% c #4B5A6A",
"O& c #FBFCF9",
"O* c #343839",
"O= c #484B46",
"O- c #FAFAF8",
"O; c #F9FAF7",
"O: c #474945",
"O> c #7C7E79",
"O, c #464944",
"O< c #8B8E8B",
"O1 c #7A7C77",
"O2 c #444742",
"O3 c #8A8C8A",
"O4 c #B6596D",
"O5 c #898C89",
"O6 c #CFD1D1",
"O7 c #636767",
"O8 c #424540",
"O9 c #455F85",
"O0 c #626566",
"Oq c #767873",
"Ow c #40413E",
"Oe c #606364",
"Or c #080807",
"Ot c #5D6161",
"Oy c #4B4D4C",
"Ou c #7F827F",
"Oi c #393937",
"Op c #030202",
"Oa c #020201",
"Os c #6F99CF",
"Od c #474948",
"Of c #111413",
"Og c #010000",
"Oh c #464747",
"Oj c #545958",
"Ok c #466389",
"Ol c #0E1010",
"Oz c #1C2021",
"Ox c #ACAFAB",
"Oc c #666863",
"Ov c #ACADAB",
"Ob c #ABADAA",
"On c #505354",
"Om c #4F5353",
"OM c #4E5352",
"ON c #3E413F",
"OB c #636460",
"OV c #4E5152",
"OC c #4D5151",
"OZ c #61645E",
"OA c #4C5150",
"OS c #984259",
"OD c #4D4F51",
"OF c #171A1C",
"OG c #161A1B",
"OH c #3A3D3B",
"OJ c #15181A",
"OK c #6AA0D7",
"OL c #466896",
"OP c #393B3A",
"OI c #383B39",
"OU c #373B38",
"OY c #121617",
"OT c #5B5E58",
"OR c #A0A39F",
"OE c #494A43",
"OW c #9FA19E",
"OQ c #484A42",
"O! c #6F9AC8",
"O~ c #696A69",
"O^ c #333534",
"O/ c #9C9D9B",
"O( c #555852",
"O) c #545651",
"O_ c #535650",
"O` c #3E4142",
"O' c #B4CBE4",
"O] c #51544E",
"O[ c #616461",
"O{ c #3E5B84",
"O} c #325B8C",
"O| c #4F524C",
"+  c #4D504A",
"+. c #355685",
"+X c #474D4E",
"+o c #373B3B",
"+O c #272928",
"++ c #71A0CD",
"+@ c #5A5E5A",
"+# c #252726",
"+$ c #494C46",
"+% c #232524",
"+& c #474A44",
"+* c #565856",
"+= c #8B8D8A",
"+- c #434640",
"+; c #F5F5F2",
"+: c #898B88",
"+> c #42423F",
"+, c #6794C3",
"+< c #505450",
"+1 c #4F524F",
"+2 c #F0EFED",
"+3 c #355888",
"+4 c #FFFFFF",
"+5 c #5C605F",
"+6 c #4A4E4A",
"+7 c #5A5E5D",
"+8 c #315684",
"+9 c #7F817E",
"+0 c #595E5C",
"+q c #6A9DD3",
"+w c #305483",
"+e c #2F5482",
"+r c #2F5282",
"+t c #D8D7D2",
"+y c #867CA6",
"+u c #202324",
"+i c #8BADCF",
"+p c #1F2323",
"+a c #466288",
"+s c #AEB0AC",
"+d c #434443",
"+f c #676963",
"+g c #424442",
"+h c #446086",
"+j c #ACAEAA",
"+k c #515454",
"+l c #AAACA8",
"+z c #4F5252",
"+x c #BABCBB",
"+c c #191B1D",
"+v c #A9AAA7",
"+b c #3D403D",
"+n c #3C3E3C",
"+m c #17191B",
"+M c #3A3C3A",
"+N c #A5A6A3",
"+B c #A4A6A2",
"+V c #A3A4A1",
"+C c #020303",
"+Z c #A2A4A0",
"+A c #000101",
"+S c #A0A29E",
"+D c #545A5A",
"+F c #6A6B69",
"+G c #343634",
"+H c #9FA09D",
"+J c #333633",
"+K c #1E2325",
"+L c #9DA09B",
"+P c #767978",
"+I c #2F322F",
"+U c #646763",
"+Y c #D0CFCD",
"+T c #A9ACAA",
"+R c #2D302D",
"+E c #4C5252",
"+W c #2C2E2C",
"+Q c #07090B",
"+! c #A7AAA8",
"+~ c #4B5051",
"+^ c #282A28",
"+/ c #474C4D",
"+( c #5C5D5B",
"+) c #262826",
"+_ c #5A5D59",
"+` c #494B45",
"+' c #343837",
"+] c #696B6B",
"+[ c #575B56",
"+{ c #222422",
"+} c #D2D3D2",
"+| c #577398",
"@  c #6A97C5",
"@. c #B5CEE7",
"@X c #1E201E",
"@o c #7094C1",
"@O c #535552",
"@+ c #CECFCE",
"@@ c #626564",
"@# c #4B4D4A",
"@$ c #363A3C",
"@% c #4A4B49",
"@& c #595D5B",
"@* c #494B48",
"@= c #474B46",
"@- c #689AD0",
"@; c #2F5181",
"@: c #222425",
"@> c #676B6C",
"@, c #6C9BCA",
"@< c #8B8E8C",
"@1 c #454744",
"@2 c #D1D3D4",
"@3 c #2F3435",
"@4 c #F5F6F4",
"@5 c #414340",
"@6 c #616566",
"@7 c #1B1E1E",
"@8 c #40413F",
"@9 c #63A8E2",
"@0 c #3E413D",
"@q c #292E2F",
"@w c #737671",
"@e c #4D514F",
"@r c #3D3F3C",
"@t c #080808",
"@y c #818482",
"@u c #335788",
"@i c #808281",
"@p c #393D38",
"@a c #94958E",
"@s c #393B38",
"@d c #040404",
"@f c #585D5D",
"@g c #383937",
"@h c #49678D",
"@j c #020202",
"@k c #6C6E6A",
"@l c #2E5383",
"@z c #49658D",
"@x c None",
/* pixels */
"                                                  Xs@j  .t@j    ",
"                                                @j  o1oAO* '  Xp",
"                                                @j  .# 8+1o7osos",
"                                                  Oa r.LoEXcOg  ",
"    @j@jXsosor@jXpor  Xs      osos      @jor@jor  op  +o.r+Qos  ",
"  Xs  @jos.o.o      Op }OpOp }osOg }Op {os      @dOg+mOjoq+Kosos",
"os+C+c.$ 9OGX%OzOz@:oK q q qOYoFOF qoKXJ.$+pOz+uOJo!o,Xmo}@$.qXe",
"  .(X$oxXA+X d.J.G.T ;. +D X@f+E+/ ] Oou ;@a.Z+0Xjou+~+L@O@e M.-",
"  +7 wOCX2oT+P+tX+.AobX(+5+5@@OAXTX^ ] NoAX) (OtX* co/OC+' S.IO`",
"  oj+4XCO6 j+;O;O; UX5+YX/ v@+ j aX`XEX{.@O&O-.~X`X~oW+}@2+2@4.p",
"  o9X X@ E+: ~ )@i.{XKog J J JO3O5O< Ko%o6Ou )@y@< KO3o(.)o&.W 6",
"  O7o_XPoZ zO.@u+.O}.C.h e@;@l+e+w+rX#.X+8+3.].[+r.XO$ n.`XFoH+k",
"   TXqo;.R -@-.7 Ho]o +y@9OsOK ZXXXXXX.| [XOXO+qXX /oX 1OLOE $.>",
"  o4 |.F+|o#+,++.xX[OSXVoD@o@,.a g.io~o~ gO! g go~.y@ +i A./.;oV",
"   Tot.1X1oc.4@.XG.QO4 !.SOXo`., =Xb : : = =XboM.*O' PoLXgXk+T+z",
"   YOW.d.6O{ D@zO9 *XUoz@h+hOk+a+a+a+a+a+aX=+a+hX;.% DX]O%OQ+!Om",
"   YXd LXoXMo|+`Xi+f.mo.+`o)O|O].n.n.n.n.bO|o|XlO_XlO]X7X. GX4oB",
"  O0 . L.N+<OZ.f+B.k ,XvXtX|+_ k+[ h hXYXR+_ h C+<+6 iXR+@O,X4oB",
"  o<XfO2OT u.uXy@8Oi+M `.EowO:oR.l lo)O) lOOO(O@X&O1o) CoP GX4oB",
"  o< oO,o^+=.K &@%@*+g+G+{.3.HOO io)o)oRo|o3OqO[OMoQo3XhXL@=.<On",
"  o4+V._XwO~okX' FoO@1@5oNXN.g G s bo^ lXWO>@& f.^@>X}o@ b+$X6On",
"  o4Xr.}X9Od@go>@#oi 4+bXa+)Oy@*o)o) iOO xoSo8XZOBoo+]omo{ WX> 2",
"  o4.0@p.vX0Xz@5.=+dXQ 7oe+# 3o-O)o^ lXROc@k+F@r.'X3+(+U@wo:.;.:",
"   T+Z ^+*O^XD+n.9.YXIOPoa+) p@5o^X! ho|o{XxOh+>.!Ow.w ++9@0X,OV",
"  @6+SO8@#.8oI+JX8XSOI@s >+^.zO= so) h bonoGONO+Xn+%OUoCodO2.;.:",
"   Ioh L V m+O y+Rov #XNoY@7+Io'o'o'o' bO .c.nXuo[OHO(+ XW.U+v %",
"  OeORO# @X:X_o+.V+W.M.Do*.jO( 0XHoPoP t 0oPoP.5.5oSXHoUom.B+v 2",
"  o=+H.+ B Goy@XOfOl.O _oJO8O=.P+&+&+&+&.Po$O,O2 GO2O=+- V..o5ol",
"  OoX-X6Oxo2+s+l.eO/.s+NX>OvObObObObObObObX<Ob.&.&+jX<ObX<Ob+x R",
"os+C@3 % 6.> 6 5 <oBoV 2XBOD.2oAoAoAoAoAoAoAoAoAoAoAoA 2 6 %@q+A",
"  osos                                                      ofos",
"    or Qo0o0o0o0o0@tOro0o0o0o0o0o0o0o0o0o0o0o0o0o0o0o0o0o0o0or  "
};
