/* XPM */
static char *showq[] = {
/* columns rows colors chars-per-pixel */
"32 32 150 2",
"   c #1C1C4A4A7676",
".  c #13134B4A7E7E",
"X  c #1D1C4D4D7979",
"o  c #35354E4D6564",
"O  c #31314F4E6B6B",
"+  c #2F2F50506D6D",
"@  c #353551516B6B",
"#  c #3F3F55556868",
"$  c #3D3D56566C6C",
"%  c #21204D4D7675",
"&  c #404055556968",
"*  c #414158586E6E",
"=  c #48485D5D7070",
"-  c #4E4E62627474",
";  c #515165647777",
":  c #555568687978",
">  c #5D5D6E6E7E7E",
",  c #69699F9F6969",
"<  c #6969A6A67777",
"1  c #6A6AA7A77676",
"2  c #6D6DA9A97474",
"3  c #6666A4A47979",
"4  c #6767A5A57979",
"5  c #6565A4A47A7A",
"6  c #6868A6A67878",
"7  c #7272ABAB7070",
"8  c #7070AAAA7272",
"9  c #BBBBD7D73636",
"0  c #BDBDD8D83434",
"q  c #B7B7D5D53939",
"w  c #B6B6D4D43A3A",
"e  c #B3B3D2D23C3C",
"r  c #DDDDEBEB1B1B",
"t  c #DADAE9E91D1D",
"y  c #E6E6EFEF1111",
"u  c #E2E2EEEE1717",
"i  c #E1E1EDED1818",
"p  c #E6E6F0F01414",
"a  c #C3C3DCDC2F2F",
"s  c #C6C6DDDD2D2D",
"d  c #C8C8DFDF2B2B",
"f  c #C1C1DBDB3131",
"g  c #C2C2DBDB3030",
"h  c #C0C0DADA3232",
"j  c #CFCFE3E32626",
"k  c #CBCBE0E02929",
"l  c #8C8CBBBB5B5B",
"z  c #8F8FBDBD5858",
"x  c #8E8EBDBD5959",
"c  c #8D8DBCBC5A5A",
"v  c #8888B9B95E5E",
"b  c #8282B5B56363",
"n  c #8383B6B66262",
"m  c #8585B7B76060",
"M  c #8080B4B46464",
"N  c #9696C1C15353",
"B  c #9797C2C25252",
"V  c #9595C1C15454",
"C  c #9898C2C25151",
"Z  c #9A9AC4C45050",
"A  c #AAAACDCD4343",
"S  c #ABABCECE4242",
"D  c #A8A8CCCC4545",
"F  c #A1A1C8C84A4A",
"G  c #0F0E4E4E8989",
"H  c #0B0B4F4E8E8D",
"J  c #13134C4C8282",
"K  c #12124D4D8585",
"L  c #11114E4D8686",
"P  c #06064F4F9291",
"I  c #050551519898",
"U  c #040451509998",
"Y  c #01015454A2A2",
"T  c #01015B5BAEAE",
"R  c #01015C5CB0B0",
"E  c #01015D5DB2B2",
"W  c #01016262BBBB",
"Q  c #05056666BDBD",
"!  c #19197777B6B6",
"~  c #18187777B7B7",
"^  c #1F1F7B7BB1B1",
"/  c #1B1B7878B5B5",
"(  c #14147474BABA",
")  c #10107272BDBD",
"_  c #12127373BCBC",
"`  c #23237777A3A3",
"'  c #27277F7FABAB",
"]  c #20207B7BB1B1",
"[  c #21217C7CB0B0",
"{  c #5F5F70708080",
"}  c #656576768585",
"|  c #6A6A7A7A8887",
" . c #6B6B7A7A8989",
".. c #6D6D7C7C8989",
"X. c #6F6F7E7E8B8A",
"o. c #01016464C0C0",
"O. c #01016666C3C3",
"+. c #01016868C7C7",
"@. c #05056B6BC6C6",
"#. c #04046B6BC7C7",
"$. c #06066C6CC5C5",
"%. c #0B0B6F6FC1C1",
"&. c #01016969C8C8",
"*. c #01016969C9C9",
"=. c #0D0D7070C0C0",
"-. c #3B3B82828989",
";. c #39398A8A9D9D",
":. c #2F2F8484A5A5",
">. c #2A2A8181A9A9",
",. c #2B2B8282A8A8",
"<. c #28288080AAAA",
"1. c #31318585A3A3",
"2. c #33338686A2A2",
"3. c #30308585A4A4",
"4. c #525299998989",
"5. c #40408E8E9797",
"6. c #41418F8F9797",
"7. c #42428F8F9696",
"8. c #474792929292",
"9. c #434390909595",
"0. c #494993939090",
"q. c #484893939191",
"w. c #787885859191",
"e. c #7C7C87879191",
"r. c #5E5EA0A08080",
"t. c #84848F8F9898",
"y. c #858590909999",
"u. c #93939999A0A0",
"i. c #9B9BA1A1A6A6",
"p. c #9A9AA1A1A7A7",
"a. c #A1A1A6A6AAAA",
"s. c #A4A4A8A8ABAB",
"d. c #A3A3A9A9AEAE",
"f. c #A9A9ADADB1B1",
"g. c #B2B2B5B5B8B8",
"h. c #B6B6B7B7BABA",
"j. c #B6B6BABABDBD",
"k. c #BBBBBDBDC0C0",
"l. c #BCBCBFBFC1C1",
"z. c #C4C4C4C4C5C5",
"x. c #C6C6C6C6C7C7",
"c. c #E6E6E6E6E6E6",
"v. c #E9E9E9E9E9E9",
"b. c #EDEDEDEDEDED",
"n. c #F1F1F1F1F1F1",
"m. c #F5F5F5F5F5F5",
"M. c #F6F6F6F6F6F6",
"N. c #F7F7F7F7F7F7",
"B. c #FCFCFCFCFCFC",
"V. c #FFFFFFFFFFFF",
/* pixels */
"V.V.V.V.c.p.{ $ o o o o o o o o o o o o o o o o & } s.v.V.V.V.V.",
"V.V.V.p.+ P W &.*.*.*.*.*.*.*.*.*.*.*.*.*.*.*.*.*.E U O p.B.V.V.",
"V.V.X.K &.&.&.&.*.*.*.*.*.*.*.*.*.*.*.*.*.*.*.*.*.*.*.*.J e.V.V.",
"V.p.J &.&.&.&.&.*.*.*.*.*.*.*.*.*.*.*.*.*.*.*.*.&.*.*.*.O.. d.V.",
"v.O &.&.&.&.&.&.*.*.j *.*.*.*.*.*.*.*.*.*.*.&.*.*.&.&.&.&.O.@ b.",
"f.P _ 6 F g Z 2.*.*.j *.*.*.*.*.*.*.*.*.*.*.&.#.*.&.&.&.&.&.P g.",
"} E 8 b >.%.;.Z *.*.j *.*.*.&.*.*.*.*.&.*.*.*.$.*.*.&.&.&.&.T X.",
"- o.9 ~ &.&.&.#.*.*.j r.9 Z ,.*.=.4 w 5 %.*.2.Z #.$.g %.&.e ` : ",
"= O.m b [ #.&.&.*.*.j m ~ 5 c *.4 c ^ c 5 *.( h &.0.j 0.$.j o.; ",
"= O._ 3 q h 2 ( *.*.j ] #.=.g &.Z :.@.2.V *.&.0 ( x 4.l [ S W ; ",
"= O.*.*.&./ b b *.*.j *.*.*.j *.f =.*.=.g @.&.V 5.w #.w 0.m o.- ",
"= O.*.*.&.&.~ 9 *.*.j *.*.*.j *.B 2.&.2.V *.&.8 F M &.b F 3 o.- ",
"= O.Z ;._ ] b 7 *.*.j *.*.*.j *.4 c ] x 5 *.*.q.j 5.&.6.j 6.O.; ",
"= O.1.Z g D 7 _ *.*.j *.*.*.j *.=.4 q 4 =.*.*./ k $.&.@.k / W - ",
"= O.*.*.*.&.&.*.*.*.*.*.*.*.*.*.*.*.&.&.*.*.*.*.#.*.*.*.&.&.o.- ",
"= O.*.*.O.&.&.*.*.*.*.*.*.*.*.*.*.*.*.*.*.*.*.*.*.*.*.*.&.O.o.- ",
"= O.*.*.*.*.*.*.*.*.*.*.*.*.*.*.*.*.*.*.*.*.*.*.*.*.*.*.*.*.o.- ",
"= &.*.*.*.*.*.*.*.*.*.*.*.*.*.*.*.*.*.*.*.*.*.*.*.*.*.*.*.*.o.- ",
"= O.*.*.*.*.*.*.*.*.*.&.<.V f r f V <.*.*.*.*.*.*.*.*.*.*.*.o.- ",
"= O.*.*.*.*.*.*.*.*.@.r.i D 2.=.2.A i r.*.*.*.*.*.*.*.*.*.*.o.- ",
"= O.&.&.*.*.*.*.*.*.<.i s @.&.*.*.@.s i <.&.*.*.*.*.*.*.*.*.o.- ",
"= O.&.&.*.*.*.*.*.*.V p n &.&.&.*.*.m p V &.*.*.*.*.*.*.*.*.o.- ",
"= O.&.*.*.*.*.*.*.*.f p 9.&.*.*.*.*.6.p h *.*.*.*.*.*.*.*.*.o.- ",
"= O.*.*.*.*.*.*.*.&.r p =.*.*.*.*.*._ p t *.*.*.*.*.*.*.*.*.o.- ",
"; O.&.&.*.*.*.*.*.*.h p 6.&.*.*.&.&.9.p D *.*.*.*.*.*.*.*.*.E { ",
"..R &.&.*.*.*.*.*.&.V p n &.*.*.*.&.m p 6 *.*.*.*.*.*.*.*.*.R w.",
"h.H &.&.*.*.*.*.&.&.>.i j *.*.*.*.@.g u <.&.*.*.*.*.*.*.*.*.G k.",
"n.$ o.&.*.*.*.*.&.&.&.5 i D :.=.2.D d 2.&.&.&.&.*.*.*.*.*.o.* m.",
"V.g.X O.*.*.*.*.&.&.&.&.>.B g i p h =.&.&.&.&.&.&.&.&.&.O.% k.V.",
"V.V.u.  o.&.*.*.+.+.&.&.&.&.&.4.p p 4.&.&.&.&.&.*.&.&.W % u.V.V.",
"V.V.V.j.$ G Y E E E T E E E E E , y r -.E E E E E Y K * k.V.V.V.",
"V.V.V.V.m.z.t...| |  .|  . . . . . ..... . . . ...y.x.m.V.V.V.V."
};
