/* XPM */
static char *sineshaper32x32[] = {
/* columns rows colors chars-per-pixel */
"32 32 243 2 ",
"   c #010C13",
".  c #000A15",
"X  c #000D19",
"o  c #000E1B",
"O  c #000F1B",
"+  c #010F1B",
"@  c #000F1D",
"#  c #021019",
"$  c #02101B",
"%  c #03121D",
"&  c #00101E",
"*  c #00101F",
"=  c #001220",
"-  c #001321",
";  c #001222",
":  c #031420",
">  c #031421",
",  c #031523",
"<  c #041622",
"1  c #001525",
"2  c #001628",
"3  c #00182B",
"4  c #031A2A",
"5  c #031A2B",
"6  c #031B2B",
"7  c #041928",
"8  c #041C2B",
"9  c #00192C",
"0  c #031A2C",
"q  c #001A2F",
"w  c #001B2F",
"e  c #041D2E",
"r  c #041D2F",
"t  c #001D33",
"y  c #001F35",
"u  c #001F36",
"i  c #042033",
"p  c #042337",
"a  c #002239",
"s  c #042338",
"d  c #03243A",
"f  c #00243D",
"g  c #04283F",
"h  c #002742",
"j  c #052940",
"k  c #002844",
"l  c #002A47",
"z  c #042B44",
"x  c #042C46",
"c  c #052D47",
"v  c #002C4A",
"b  c #002D4A",
"n  c #052E49",
"m  c #052F4B",
"M  c #002E4D",
"N  c #002F4D",
"B  c #002F4E",
"V  c #002F51",
"C  c #003053",
"Z  c #003253",
"A  c #043350",
"S  c #063450",
"D  c #053452",
"F  c #063552",
"G  c #003455",
"H  c #003456",
"J  c #003457",
"K  c #003557",
"L  c #063755",
"P  c #053757",
"I  c #003558",
"U  c #00365A",
"Y  c #00385C",
"T  c #043A5C",
"R  c #053B5D",
"E  c #063D5E",
"W  c #003B61",
"Q  c #053D61",
"!  c #003D64",
"~  c #003F68",
"^  c #00406A",
"/  c #02416A",
"(  c #054268",
")  c #064369",
"_  c #06446A",
"`  c #00406C",
"'  c #00416D",
"]  c #00426C",
"[  c #00436E",
"{  c #004673",
"}  c #004773",
"|  c #064973",
" . c #004875",
".. c #054974",
"X. c #054975",
"o. c #004878",
"O. c #024A78",
"+. c #004E7F",
"@. c #054F7D",
"#. c #05507F",
"$. c #004E80",
"%. c #005082",
"&. c #055180",
"*. c #005185",
"=. c #005489",
"-. c #00558B",
";. c #02558B",
":. c #04578A",
">. c #04578B",
",. c #00568E",
"<. c #00588F",
"1. c #005990",
"2. c #005A91",
"3. c #005A93",
"4. c #065B91",
"5. c #055C91",
"6. c #005C96",
"7. c #005D98",
"8. c #005F9A",
"9. c #005F9B",
"0. c #00609C",
"q. c #00609D",
"w. c #00619D",
"e. c #00629F",
"r. c #05629C",
"t. c #05639C",
"y. c #05649F",
"u. c #06649E",
"i. c #0064A2",
"p. c #0466A2",
"a. c #0065A4",
"s. c #0067A6",
"d. c #056BAB",
"f. c #006AAD",
"g. c #026CAD",
"h. c #006CAF",
"j. c #076EAE",
"k. c #006FB5",
"l. c #0470B2",
"z. c #0571B4",
"x. c #0572B4",
"c. c #0572B5",
"v. c #0573B6",
"b. c #0072B8",
"n. c #0073BA",
"m. c #0474B8",
"M. c #0076BF",
"N. c #0476BC",
"B. c #0577BC",
"V. c #0477BD",
"C. c #0477BE",
"Z. c #0379C1",
"A. c #0478C0",
"S. c #0779C0",
"D. c #0079C4",
"F. c #007AC5",
"G. c #007BC6",
"H. c #007BC7",
"J. c #007CC9",
"K. c #007ECB",
"L. c #067FC9",
"P. c #047ECA",
"I. c #007FCE",
"U. c #0381CE",
"Y. c #0383D1",
"T. c #0082D3",
"R. c #0083D3",
"E. c #0083D4",
"W. c #0385D4",
"Q. c #0385D5",
"!. c #0084D6",
"~. c #0486D6",
"^. c #0086D9",
"/. c #0487D8",
"(. c #0388D9",
"). c #0088DA",
"_. c #008ADF",
"`. c #038BDE",
"'. c #028BDF",
"]. c #038BDF",
"[. c #028CDF",
"{. c #038CDF",
"}. c #008BE1",
"|. c #008CE1",
" X c #008CE2",
".X c #008EE5",
"XX c #028EE4",
"oX c #008EE6",
"OX c #008FE7",
"+X c #0090E7",
"@X c #0290E7",
"#X c #0090E9",
"$X c #0091E9",
"%X c #0391E8",
"&X c #0291E9",
"*X c #0292EA",
"=X c #0092EC",
"-X c #0093EC",
";X c #0092ED",
":X c #0093ED",
">X c #0294ED",
",X c #0294EE",
"<X c #0395EF",
"1X c #0095F0",
"2X c #0095F1",
"3X c #0296F1",
"4X c #0096F2",
"5X c #0097F3",
"6X c #0197F3",
"7X c #0097F4",
"8X c #0198F4",
"9X c #0098F5",
"0X c #0298F5",
"qX c #0299F5",
"wX c #0099F6",
"eX c #0199F6",
"rX c #0099F7",
"tX c #0199F7",
"yX c #009AF7",
"uX c #019AF7",
"iX c #0099F8",
"pX c #019BF8",
"aX c #009AF9",
"sX c #009BF9",
"dX c #019BF9",
"fX c #029BF8",
"gX c #009BFA",
"hX c #019BFA",
"jX c #009BFB",
"kX c #009CFB",
"lX c #019CFB",
"zX c #009CFC",
"xX c #009DFD",
"cX c #019DFD",
"vX c #009EFD",
"bX c #009DFE",
"nX c #009EFE",
"mX c #019EFE",
"MX c #009EFF",
"NX c #019EFF",
"BX c #009FFF",
"VX c #00A0FF",
"CX c None",
/* pixels */
"CXCXCXCXCXo.,.V CXCXCXCX[ [ CXCXCXCXCXCXCXCXCXCXCXCXCXCXCXCXCXCX",
"CXCXCX= 6.2XkXE.Z CX= 9.;X&X3.CXCXCXCXCXCXCXCXCXCXCXCXCXCXCXCXCX",
"CXCXCX^ 2XMXMXVXb.$ { pXMXMX;XU CXCXCXCXCXCXCXCXCXCXCXCXCXCXCXCX",
"CXCX= b.VXMXMXMX,XY F.VXMXMXMXw.CXCXCXCXCXCXCXCXCXCXCXCXCXCXCXCX",
"CXCXv &XVX&XU.MXMXJ.6XVXkXlXVXK.2 CXCXCXCXCXCXCXCXCXCXCXCXCXCXCX",
"CXCX+.MXVXl.) pXMXMXMXMXj._.VXXXk CXCXCXCXCXCXCXCXCXCXCXCXCXCXCX",
"CXX h.VXVX#.s `.MXMXVX<XL N.VXpX! CXCXCXCXCXCXCXCXCXCXCXCXCXCXCX",
"CXw Q.VX2XP $ d.VXMXVXl.< p.MXMX%.CXCXCXCXCXCXCXCXCXCXCXCXCXCXCX",
"CXB ;XVX/.i CXF /.kX~.F   >.MXVXw.CXCXCXCXCXCXCXCXCXCXCXCXCXCXCX",
"CX[ kXVXN.< CXCXm X.c CXCX| kXVXk.X CXCXCXCXCXCXCXCXCXCXCXCXCXCX",
"CX<.MXMXt.CXCXCXCXCXCXCXCXT pXVXH.* CXCXCXCXCXCXCXCXCXCXCXCXCXCX",
". h.VXMX@.CXCXCXCXCXCXCXCXA &XVXQ.w CXCXCXCXCXCXCXCXCXCXCXCXCXCX",
"w J.VX2XQ CXCXCXCXCXCXCXCXj {.VX|.h CXCXCXCXCXCXCXCXCXCXCXCXCXCX",
"h _.VXXXx CXCXCXCXCXCXCXCXe Q.VX&XB CXCXCXCXCXCXCXCXCXCXCXCXCXCX",
"^ ;XVXQ.i CXCXCXCXCXCXCXCX5 P.VX7XZ CXCXCXCXCXCXCXCXCXCXCXCXCXCX",
",.&XMXC.< CXCXCXCXCXCXCXCX5 C.VXkXW CXCXCXCXCXCXCXCXCXCXCXCXCXCX",
"CXK [ ^ CXCXCXCXCXCXCXCXCXX h.VXkXO.CXCXCXCXCXCXCXCXCXCX;.;.$.CX",
"CXCXCXCXCXCXCXCXCXCXCXCXCXCX9.MXMX>.CXCXCXCXCXCXCXCXCXg &XMXXXCX",
"CXCXCXCXCXCXCXCXCXCXCXCXCXCX=.MXVXt.CXCXCXCXCXCXCXCXCXF ,XVX/.C ",
"CXCXCXCXCXCXCXCXCXCXCXCXCXCX{ kXVXx.* CXCXCXCXCXCXCXCX( pXVXH.CX",
"CXCXCXCXCXCXCXCXCXCXCXCXCXCXU 2XVXU.4 CXCXCXCXCXCXCXCX#.MXMXf.CX",
"CXCXCXCXCXCXCXCXCXCXCXCXCXCXf |.VXXXx CXCXCXe CXCXCXCXy.MXMX3.CX",
"CXCXCXCXCXCXCXCXCXCXCXCXCXCX= F.VXpX( CX8 4.U.x.c CX< A.MXkX^ CX",
"CXCXCXCXCXCXCXCXCXCXCXCXCXCXCXi.VXMX4.# X.pXMXVXC.4 d _.VX&Xv CX",
"CXCXCXCXCXCXCXCXCXCXCXCXCXCXCXO.lXVXB.8 v.VXMXMXpX( E pXMXJ.w CX",
"CXCXCXCXCXCXCXCXCXCXCXCXCXCXCXl @XVXXXE }.VXMXMXVXv.u.VXMXw.CXCX",
"CXCXCXCXCXCXCXCXCXCXCXCXCXCXCX= C.VXkXB.pXMX}.;XVX6X<XMXpX^ CXCX",
"CXCXCXCXCXCXCXCXCXCXCXCXCXCXCXCX+.MXMXMXMXVX3.a.VXMXMXVXT.t CXCX",
"CXCXCXCXCXCXCXCXCXCXCXCXCXCXCXCXa /.VXMXMXpXZ K 2XMXMXMX;.CXCXCX",
"CXCXCXCXCXCXCXCXCXCXCXCXCXCXCXCXCX*.kXMXMXF.2 @ f.MXMXJ.t CXCXCX",
"CXCXCXCXCXCXCXCXCXCXCXCXCXCXCXCXCX2 0.XXK.U CXCXi 9.a.B CXCXCXCX",
"CXCXCXCXCXCXCXCXCXCXCXCXCXCXCXCXCXCXCXCXCXCXCXCXCXCXCXCXCXCXCXCX"
};
