/* XPM */
static char *specimen___x__[] = {
/* columns rows colors chars-per-pixel */
"30 32 180 2",
"   c #000301",
".  c #030B03",
"X  c #041605",
"o  c #051B06",
"O  c #071D08",
"+  c #08190A",
"@  c #062106",
"#  c #072308",
"$  c #092409",
"%  c #0A2C0B",
"&  c #0D320E",
"*  c #0D3B0E",
"=  c #152D17",
"-  c #0F3311",
";  c #0E3B11",
":  c #153516",
">  c #133F15",
",  c #1B3D1B",
"<  c #0F4210",
"1  c #114013",
"2  c #114B13",
"3  c #1E4A1D",
"4  c #145216",
"5  c #18531A",
"6  c #165D1A",
"7  c #1A5A1D",
"8  c #17661A",
"9  c #1B631F",
"0  c #196B1B",
"q  c #177019",
"w  c #19721A",
"e  c #1F4521",
"r  c #1F5221",
"t  c #1F5A20",
"y  c #204220",
"u  c #255326",
"i  c #2A532C",
"p  c #2A5B2C",
"a  c #2E5330",
"s  c #2F5F31",
"d  c #1D6620",
"f  c #1F6A23",
"g  c #1E7521",
"h  c #1E7B21",
"j  c #236626",
"k  c #2E662F",
"l  c #2D6B2C",
"z  c #217622",
"x  c #227D25",
"c  c #2F762F",
"v  c #257B29",
"b  c #2F6531",
"n  c #2F6930",
"m  c #336535",
"M  c #336F34",
"N  c #366238",
"B  c #396F3A",
"V  c #2C7C32",
"C  c #357236",
"Z  c #3C743D",
"A  c #37783A",
"S  c #3D783D",
"D  c #3E7640",
"F  c #456A47",
"G  c #427645",
"H  c #447C46",
"J  c #4E7F4F",
"K  c #1E851D",
"L  c #1E8A1E",
"P  c #228224",
"I  c #238C25",
"U  c #258429",
"Y  c #2B842E",
"T  c #268C2A",
"R  c #2C8D2D",
"E  c #239524",
"W  c #269C26",
"Q  c #27952B",
"!  c #2A932D",
"~  c #249A29",
"^  c #2A9C2C",
"/  c #30932F",
"(  c #2B8731",
")  c #358236",
"_  c #308E33",
"`  c #3B8E3B",
"'  c #2C9631",
"]  c #2C9C31",
"[  c #329333",
"{  c #329E35",
"}  c #35923C",
"|  c #26A229",
" . c #2BA42C",
".. c #2DA92E",
"X. c #2DA531",
"o. c #2EAC33",
"O. c #32A235",
"+. c #31AB34",
"@. c #3CA13D",
"#. c #35AA39",
"$. c #2FB134",
"%. c #31B236",
"&. c #35B33A",
"*. c #3AB63E",
"=. c #36B93B",
"-. c #39B93E",
";. c #3CA744",
":. c #3FAD42",
">. c #3FB743",
",. c #3CBC42",
"<. c #428544",
"1. c #458B45",
"2. c #4C824D",
"3. c #468E4B",
"4. c #459A45",
"5. c #48964A",
"6. c #4C9F4E",
"7. c #558F57",
"8. c #5C8E5E",
"9. c #549756",
"0. c #539C55",
"q. c #42A445",
"w. c #42AC45",
"e. c #4BA44E",
"r. c #48AB4B",
"t. c #41B544",
"y. c #4CB34E",
"u. c #45BC4B",
"i. c #48BE4B",
"p. c #4DA150",
"a. c #55A355",
"s. c #53AE57",
"d. c #53A958",
"f. c #4DBC51",
"g. c #51B451",
"h. c #52BD56",
"j. c #57B65A",
"k. c #56BD58",
"l. c #5ABB5D",
"z. c #5AB560",
"x. c #63A867",
"c. c #67AD6B",
"v. c #63BC64",
"b. c #64B06A",
"n. c #6DBE6E",
"m. c #70A472",
"M. c #75AE77",
"N. c #40C145",
"B. c #46C44B",
"V. c #42C84A",
"C. c #47D34F",
"Z. c #4BCC51",
"A. c #51C255",
"S. c #54C159",
"D. c #4BD754",
"F. c #4DDB56",
"G. c #4FDD5A",
"H. c #50D456",
"J. c #56D55E",
"K. c #52DC5C",
"L. c #5DD764",
"P. c #65C46A",
"I. c #69C96F",
"U. c #64D46A",
"Y. c #68D16E",
"T. c #72C174",
"R. c #72C876",
"E. c #75C078",
"W. c #7DC67E",
"Q. c #6AD471",
"!. c #6BDA73",
"~. c #70DF77",
"^. c #72D67A",
"/. c #62E96D",
"(. c #84C586",
"). c #85CB87",
"_. c #8FD091",
"`. c #9FD9A0",
"'. c #A3D7A5",
"]. c None",
/* pixels */
"].].].].].].].].].].].].].].].].].].].].].].].].].: 3 t # ].",
"].].].].].].].].].].].].].].].].].].].].].3 p k ` @.{ ! % ].",
"].].].].].].].].].].].].].].].].].3 u m 5.l.S.t.&.....U % ].",
"].].].].].].].].].].].].].i m C p.Y.~.U.A.t.=...+...^ P % ].",
"].].].].].].].].].p p C d.Y.U.g.f.J.D.u.%. .X.W ..E L z $ ].",
"].].].].].i b 3.z.!.l.h././.K.*.,.G.K.u.O.! +.E ..E K z $ ].",
"].].].].7.v.g.L.J.Z.+.X.V.N.#.P x ( v 5 & $ t / ..E K z $ ].",
"].].].].G l.*.D.F.C...! ;.} V 7 1 : + ].].].= e.i.| I z $ ].",
"].].].].].k O.| | W K 2 % @ X   ].].].].].].].H U.-.^ v $ ].",
"].].].].].u q.t.=.%.h #   ].].].].].].].].].].].^.B.E Y $ ].",
"].].].].].].k f.-.%.x % ].].].].].].].].].].].].b.A.] _ % ].",
"].].].].].].].s.B.-.U & ].].].].].].].].].].].].Z j.{ v O ].",
"].].].].].].].A i.%.h & ].].].].].].].].].].].].y a./ w O ].",
"].].].].].].].m y...P & ].].].].].].].].].].].].].9.[ 0 O ].",
"].].].].].].].].` E q # ].].].].].].].].].].].].].<./ 8 O ].",
"].].].].].].].].c W w % ].].].].].].].].].].].].].Z R 0 o ].",
"].].].].].].].].c ^ q % ].].].].].].].].].].].].].S R 0 o ].",
"].].].].].].].].c ^ q % ].].].].].].].].].].].].].1.R q o ].",
"].].].].].].].].A ^ w % ].].].].].].].].].].].].].4.! q o ].",
"].].].].].].].i r.+.h - ].].].].].].].].].].].].D w.X.x O ].",
"].].].].N H Z ) >.+.P % ].].].].].].].].].B 2.H r.&.X.x O ].",
"].].i 9.6.q.@.X... .h % ].].].].].].].2.0.p.e.w.#. .~ g O ].",
"].a c.R.S.=.$.$.%.X.z % ].].].].].].8.E.I.i.-.&.%.o.X.z o ].",
"].2.).T.#.| | | | E 8 $ ].].].].].F M.).j.X.|  .| ~ I 0 X ].",
"a (.`.E.o.o.o.$.o.^ d $ ].].].].].m.`.`.h.$.$.$.o.X.Q d X ].",
"N T.n.y. .$.&.%.$.] d $ ].].].].].m._.W.;.| | | $.o.! d + ].",
"s v.u.&.o.$.$.o.X.T 7 $ ].].].].].x.I.f.>.o.$.o.X.] U 7 + ].",
"].q.O.~ ~ ^ X.] ' v 2 O ].].].].].<.;.X.~ E I I T T g 1 . ].",
"].j X.] Q ' ' ' R f - . ].].].].].r ( ' Q U P h U v t %   ].",
"].].d K g h g g 6 ; + ].].].].].].].4 d q 8 8 8 5 2 & . ].].",
"].].].< 2 4 2 < % X ].].].].].].].].].; 2 2 2 < ; $ . ].].].",
"].].].].X % $ X ].].].].].].].].].].].].@ % % $ X ].].].].]."
};
