/* XPM */
static char * spotlighter_xpm[] = {
"22 22 40 1",
" 	c None",
".	c #3B3B3B",
"+	c #424242",
"@	c #8D8D8D",
"#	c #575757",
"$	c #FF3535",
"%	c #FF0202",
"&	c #FF0E0E",
"*	c #FF4040",
"=	c #999999",
"-	c #FF4A4A",
";	c #FF0000",
">	c #FF1111",
",	c #9E9E9E",
"'	c #FF2323",
")	c #FF6363",
"!	c #FF3E3E",
"~	c #FF4D4D",
"{	c #5B5B5B",
"]	c #FF3C3C",
"^	c #FF0101",
"/	c #FF8787",
"(	c #FF6F6F",
"_	c #FFAFAF",
":	c #FF2020",
"<	c #FF9595",
"[	c #FF1010",
"}	c #FF0404",
"|	c #FF9F9F",
"1	c #FF9090",
"2	c #FF5959",
"3	c #FF1717",
"4	c #FF3939",
"5	c #FFA7A7",
"6	c #FF0909",
"7	c #FFA2A2",
"8	c #FF4343",
"9	c #FF5454",
"0	c #FFA1A1",
"a	c #393939",
"                      ",
"                      ",
"......................",
"......................",
"......+@       @+.....",
"....#     $%&*   #....",
"...=     -;;;;;>  =...",
"..,      ';   );! ~,..",
".{~      ]^/   (;;; {.",
". ;~     _;:/   ;;;  .",
".  ;~     <[}| ~;;;  .",
".   ;~     /};|      .",
".    ;~     1;2      .",
".{    3~     ;4     {.",
"..,   53~   );*    ,..",
"...=    6;;;;;    =...",
"....#    78]90   #....",
"......+@      @+......",
"......a...............",
"......................",
"                      ",
"                      "};
