/* XPM */
static char *structuredstorageexplorer[] = {
/* columns rows colors chars-per-pixel */
"32 5 7 1",
"  c #000000",
". c #6C6001",
"X c #907201",
"o c #B16B00",
"O c #F57500",
"+ c #EE9601",
"@ c None",
/* pixels */
"@@@@@@@@@@@@@@@@@@@@@@@@@@@@@@@@",
" @@@@@ @@@@@@@@@@@@@@@+X@@@@@@@@",
"  @@@@@@@@@@@@@@@@@@@@Oo.@@@@@@@",
"@@@@@@@@@@@@@@@@@@@@@@@@@@@@@@@@",
"@@@@@@@@@@@@@@@@@@@@@@@@@@@@@@@@"
};
