/* XPM */
static char *transgui_2[] = {
/* columns rows colors chars-per-pixel */
"32 32 97 2 ",
"   c #37373D3D3E3E",
".  c #39393E3E3E3E",
"X  c #3F3F44444343",
"o  c #47474B4B4A4A",
"O  c #49CA4DCE4D4D",
"+  c #4F4F54545353",
"@  c #538C55C752C4",
"#  c #566C586E546A",
"$  c #58A75A0B56CD",
"%  c #56565A5A5858",
"&  c #5BA45DB959D9",
"*  c #5EB860E15D5D",
"=  c #613C63635EF1",
"-  c #643F66666287",
";  c #66F9698E65AE",
":  c #68FB6B4666AF",
">  c #66666AEB69EA",
",  c #6B6B6E186A6A",
"<  c #6E07713E6DA0",
"1  c #70F172F36E6E",
"2  c #6E6E73737171",
"3  c #7445765F722C",
"4  c #76F7797975CB",
"5  c #79797C7C7777",
"6  c #7B8D7E597B0D",
"7  c #952100000000",
"8  c #9E9E05050505",
"9  c #949409090909",
"0  c #A2A206060606",
"q  c #A4230A0A0A0A",
"w  c #A8A80A0A0A0A",
"e  c #AF5210101010",
"r  c #ADAD18181717",
"t  c #909033333232",
"y  c #BDBD36363636",
"u  c #BFBF39393939",
"i  c #C8F700D200D2",
"p  c #C4C409090808",
"a  c #EFEF10101010",
"s  c #E9E918181717",
"d  c #F0F01A9A1A9A",
"f  c #D45336363636",
"g  c #8F8F41413E3E",
"h  c #F4F45DDE5DDE",
"j  c #DADA6CED6CED",
"k  c #E4E477777777",
"l  c #E2E278787777",
"z  c #7D9F80A27BA8",
"x  c #814E83507EE5",
"c  c #8B8B83837E7E",
"v  c #84A986AB82A7",
"b  c #8A8A87878282",
"n  c #8666896984C4",
"m  c #8A688B69868D",
"M  c #8BE18E2389B4",
"N  c #92928B8B8787",
"B  c #8F0F91D18D4D",
"V  c #909092E88EE4",
"C  c #93C4964D9249",
"Z  c #972D996C9542",
"A  c #99719C3995F8",
"S  c #9B689D369999",
"D  c #9E48A0F69C9C",
"F  c #A0A0A2A29E9E",
"G  c #A24CA44EA0A0",
"H  c #A6E6A9A9A4A4",
"J  c #AAAAACACA7A7",
"K  c #AAAAAD46AA10",
"L  c #AED9B1B1AD82",
"P  c #B1B1B3B3AFAF",
"I  c #B4B4B8B8AFAF",
"U  c #B319B51BB222",
"Y  c #B660B90EB45E",
"T  c #BABABDE2B6DB",
"R  c #BABABD12B90E",
"E  c #BF3FC1C1BCE7",
"W  c #C0C0C26CBEBE",
"Q  c #C5C5C7C7C1C1",
"!  c #C6EBC9EEC47B",
"~  c #CA97CC99C72D",
"^  c #CCCCCECEC9C9",
"/  c #CDFAD1C6C964",
"(  c #D1FCD4FFCDCD",
")  c #D5AAD72CD328",
"_  c #D71CDA08D419",
"`  c #D9D9DCDCD5D5",
"'  c #DC46DE88D9AE",
"]  c #DE95E129DBDB",
"[  c #E1E1E3E3DF50",
"{  c #E53AE610E363",
"}  c #E7E7EA94E5E5",
"|  c #E8E8E8E8E6E6",
" . c #EDB4EED1EC41",
".. c #EEEEF171EDED",
"X. c #F0F7F2EBEFEF",
"o. c #FEFEFF3EFEFE",
"O. c None",
/* pixels */
"O.O.O.O.O.O.7 7 7 7 7 7 7 t c b b b t 9 7 7 7 7 7 7 O.O.O.O.O.O.",
"O.O.O.O.O.7 y j l k k k k N W ) ) Q M l k k k l j u 7 O.O.O.O.O.",
"O.O.O.O.O.q h d a a a a a N  . . . .N s a a a a d h w O.O.O.O.O.",
"O.O.O.O.O.0 f i i i i i i b | { |  .N p i i i i i f 0 O.O.O.O.O.",
"O.O.O.O.O.7 q e e e e e e m { ] [ | N r e e e e e q 7 O.O.O.O.O.",
"O.O.O.O.O.O.7 7 7 7 7 7 7 m ] ' ' { M 9 7 7 7 7 7 7 O.O.O.O.O.O.",
"O.O.O.O.O.O.O.O.O.O.O.O.O.m ] ) ) ' M O.O.O.O.O.O.O.O.O.O.O.O.O.",
"O.O.O.O.O.O.O.O.O.O.O.O.O.m ` ( / ' M O.O.O.O.O.O.O.O.O.O.O.O.O.",
"O.O.O.O.O.O.O.O.O.O.O.O.O.M _ / ~ _ M O.O.O.O.O.O.O.O.O.O.O.O.O.",
"O.O.O.O.O.# # # # # # # # n / W W ( M $ $ # # # # # O.O.O.O.O.O.",
"O.O.O.O.# , n m m m m m M n / E W ( M m M m c M M z * O.O.O.O.O.",
"O.O.O.O.# n z ; * * * * * n Q I T ~ M * * * * - < n 6 # O.O.O.O.",
"O.O.O.O.& M , , A A A A A x Q E T ~ m Z A A A B & 3 M # O.O.O.O.",
"O.O.O.O.- M ; H / / / / E m Q E T ! m I / / / / x < V * O.O.O.O.",
"O.O.O.O.< B - I / / / / D z E L L E x D / / / / Z , V : O.O.O.O.",
"O.O.O.O.6 V & Q ( ( ( / n < J C C J 1 M / / / / H : C 4 O.O.O.O.",
"O.O.O.# m V $ _ _ _ ) ) 2 * Z z z C * z ( ( ( ( E * C n # O.O.O.",
"O.O.O.& C M - ] ' ' ' ' - O > 6 z > o 2 _ ` ` _ ( & Z C & O.O.O.",
"O.O.O.& F n 3 [ [ [ [ ' > o       X O > ] ] ] ] ' = V F & O.O.O.",
"O.O.O.* K z m | { o.o.' 4 - 3 3 2 3 * 5 ] o.o.{ [ 3 M K & O.O.O.",
"O.O.O.; L 6 D  .{ F n v 3 + # $ % % + 6 n n J ] | M v L - O.O.O.",
"O.O.O.3 U 4 U X.X.X.W n - + * * * * % 3 M ( .. . .H 5 P 4 O.O.O.",
"O.O.O.v U 2 Q X.X.X.X.] V 4 o .   % n P  .X.X.X.X.E 3 U M O.O.O.",
"O.O.# Z Y ; ` X.X.X.X.X. .L v + 4 C ' X.X.X.X.X.X._ - Y S & O.O.",
"O.O.& H Y , ! X.X.X.X.X.X.X.) V R X.X.X.X.X.X. .X.( > Y L & O.O.",
"O.O.& Y R Z & > : : ; : - - - - - - * - * - & - * & B R W & O.O.",
"O.O.# K F F S C C C C C Z Z Z Z Z Z Z A A Z A A S S S F U # O.O.",
"O.O.# Z x 6 C 6 C U U U U P P P U P U P U U U P P U C 6 S # O.O.",
"O.O.# m m 5 5 5 6 6 z 6 6 6 z 6 6 6 6 x 6 z z 6 6 6 6 z C # O.O.",
"O.O.+ : V Z Z Z Z A A Z A Z A A A Z Z Z A Z Z A A A A C 6 # O.O.",
"O.O.O.@ # # # # # # # # # # # # # # # # # # # # # # # # # O O.O.",
"O.O.O.O.O.O.O.O.O.O.O.O.O.O.O.O.O.O.O.O.O.O.O.O.O.O.O.O.O.O.O.O."
};
