/* XPM */
static char * tryton_client_xpm[] = {
"32 32 104 2",
"  	c None",
". 	c #1B2019",
"+ 	c #1C211A",
"@ 	c #1D221B",
"# 	c #1E231C",
"$ 	c #1F231D",
"% 	c #20251E",
"& 	c #21261F",
"* 	c #222720",
"= 	c #242922",
"- 	c #272B25",
"; 	c #272C26",
"> 	c #292E27",
", 	c #2A2F28",
"' 	c #2C302A",
") 	c #2D312B",
"! 	c #2E332D",
"~ 	c #30352E",
"{ 	c #31362F",
"] 	c #343832",
"^ 	c #373C36",
"/ 	c #383C36",
"( 	c #383D37",
"_ 	c #3A3E38",
": 	c #424640",
"< 	c #474B46",
"[ 	c #4B4F49",
"} 	c #4D504B",
"| 	c #4E514C",
"1 	c #4F534E",
"2 	c #50544F",
"3 	c #535651",
"4 	c #565A55",
"5 	c #595D58",
"6 	c #5C5F5A",
"7 	c #5D615C",
"8 	c #5F635E",
"9 	c #60635F",
"0 	c #626561",
"a 	c #636661",
"b 	c #656863",
"c 	c #656964",
"d 	c #6D706B",
"e 	c #6E716D",
"f 	c #70736F",
"g 	c #717470",
"h 	c #747672",
"i 	c #757874",
"j 	c #7A7D79",
"k 	c #7C7E7B",
"l 	c #848683",
"m 	c #898B88",
"n 	c #8A8C89",
"o 	c #8B8D8A",
"p 	c #8B8E8B",
"q 	c #8C8F8B",
"r 	c #90928F",
"s 	c #919390",
"t 	c #929491",
"u 	c #959794",
"v 	c #989A97",
"w 	c #9A9C99",
"x 	c #9B9D9B",
"y 	c #9C9E9C",
"z 	c #9D9F9D",
"A 	c #9EA09D",
"B 	c #9FA19E",
"C 	c #A1A3A0",
"D 	c #A2A3A1",
"E 	c #A5A7A5",
"F 	c #A7A9A6",
"G 	c #B2B3B1",
"H 	c #B3B5B3",
"I 	c #B4B6B4",
"J 	c #B5B7B5",
"K 	c #B7B8B6",
"L 	c #B9BAB8",
"M 	c #BABCBA",
"N 	c #BDBEBD",
"O 	c #BEBFBE",
"P 	c #BFC0BE",
"Q 	c #C0C1BF",
"R 	c #C5C6C5",
"S 	c #C6C7C6",
"T 	c #C8C9C7",
"U 	c #C9CAC8",
"V 	c #D1D1D0",
"W 	c #D8D8D8",
"X 	c #D9D9D8",
"Y 	c #DADAD9",
"Z 	c #DADBDA",
"` 	c #DBDCDB",
" .	c #DCDDDC",
"..	c #DFDFDF",
"+.	c #E2E3E2",
"@.	c #E3E4E3",
"#.	c #E5E5E5",
"$.	c #E7E7E7",
"%.	c #E9E9E8",
"&.	c #E9EAE9",
"*.	c #EAEAEA",
"=.	c #EBEBEB",
"-.	c #ECECEC",
";.	c #EDEDED",
"          . . . . . . . . . . . . . . . . . . . . . .           ",
"      . . . . . . . . . . . . . . . . . . . . . . . . . .       ",
"    . . . . . . . . . . . . . . . . . . . . . . . . . . . .     ",
"  . . . . . . . . . . . . . . . % ; . . . . . . . . . . . . .   ",
". . . . . ~ a - . . . . . . . . R =.g . . . . . . . . . . . . . ",
". . . . , ` ;.` ~ . . . . . . & #.;.;.f . . . . . . . . . . . . ",
". . . . - Y ;.;.q . . . . . . . D ;.;.E . . . . . . . . . . . . ",
". . . . . c ;.;.B . . . . . . . 0 ;.;.3 . . . . . . . . . . . . ",
". . . . . . H ;.J . . . . . . . 8 ;. .+ . . . . . . . . . . . . ",
". . . . . . ^ $.W # . . . . . . h ;.S . . . . . . . . . . . . . ",
". . . . . . . u ;.b . . . . . . n ;.I . . . . . . . . . . . . . ",
". . . . . . . { $.T + . . . . . C ;.D . . . . . . . . . . . . . ",
". . . . . . . . u ;.6 . . . . . U ;.v . . . . . . . c s > . . . ",
". . . . . . . . { %.X ! . . . = *.;.w . . . . . . ] %.;.T . . . ",
". . . . . . . . . D ;.M $ . . | ;.;.x . . . . . . r ;.;.;.{ . . ",
". . . . . . . . . < ;.;.r . . j ;.;.y . . . . . : @.;.;.m @ . . ",
". . . . . . . . . . P ;.;.u 9 U ;.;.A . . . . < ..;.&.d . . . . ",
". . . . . . . . . . e ;.;.;.;.;.;.;.S . . . 5 +.;.;.7 . . . . . ",
". . . . . . . . . . 1 ;.;.;.;.;.;.;.;.p [ z ;.;.;.z . . . . . . ",
". . . . . . . . . . ( ;.;.;.;.;.;.;.;.;.;.;.;.;.Y > . . . . . . ",
". . + C N } . . . . * ;.;.;.;.;.;.;.;.;.;.;.;.;.7 . . . . . . . ",
". . & ;.;.$.k % . . / ;.;.;.;.;.;.;.;.;.;.;.;.F . . . . . . . . ",
". . . L ;.;.;.V v p Q ;.;.;.;.;.;.;.;.;.;.;.Z ) . . . . . . . . ",
". . . ' o V ;.;.;.;.;.;.;.;.;.;.;.;.;.;.;.-.4 . . . . . . . . . ",
". . . . . . _ i G $.;.;.;.;.;.;.;.;.;.;.;.t . . . . . . . . . . ",
". . . . . . . . . * 4 o O %.;.;.;.;.;.;.T & . . . . . . . . . . ",
". . . . . . . . . . . . . * 2 l K X S r ! . . . . . . . . . . . ",
". . . . . . . . . . . . . . . . . . . . . . . . . . . . . . . . ",
"  . . . . . . . . . . . . . . . . . . . . . . . . . . . . . .   ",
"    . . . . . . . . . . . . . . . . . . . . . . . . . . . .     ",
"      . . . . . . . . . . . . . . . . . . . . . . . . . .       ",
"          . . . . . . . . . . . . . . . . . . . . . .           "};
