/* XPM */
static char *magick[] = {
/* columns rows colors chars-per-pixel */
"24 24 4 1",
"  c #000000",
"X c #7f7f00",
"o c #ffffff",
"O c None",
/* pixels */
"OOOOOOOOOOOOOOOOOOOOOOOO",
"OOOOOOOOOOOOO   OOOOOOOO",
"OOOOOOOOOOOO XXX OOOOOOO",
"OOOOOOOOOOO Xooo OOOOOOO",
"OOOOOOOOOOO Xoo OOOOOOOO",
"OOOOOOOOOOO ooo OOOOOOOO",
"OOOOOOOOOO XooX OOOOOOOO",
"OOOOOOOOO XoooX OOOOOOOO",
"OOOOOOOOO XoooX    OOOOO",
"OOOOOOOOO Xooooooo OOOOO",
"OOOOOOOOO XXooooo OOOOOO",
"OOOOOOOOO XXXX   OOOOOOO",
"OOOOOOOOO XXXX OOOOOOOOO",
"OOOOOOOOO XXXXX OOOOOOOO",
"OOOOOOOO   XXXX OOOOOOOO",
"OOOOOOO XXXXXXX OOOOOOOO",
"OOOOOO XX  XXXXX OOOOOOO",
"OOOOOO X O XXXXX OOOOOOO",
"OOOOOOO O XXX   OOOOOOOO",
"OOOOOOOO XXX OOOOOOOOOOO",
"OOOOOOOO XX OOOOOOOOOOOO",
"OOOOOOO XX OOOOOOOOOOOOO",
"OOOOOOO XXX OOOOOOOOOOOO",
"OOOOOOO XXXX OOOOOOOOOOO"
};
