/* XPM */
static char *zita_rev_[] = {
/* columns rows colors chars-per-pixel */
"32 32 111 2",
"   c #000000",
".  c #010000",
"X  c #050102",
"o  c #060102",
"O  c #090204",
"+  c #0E0305",
"@  c #0E0306",
"#  c #0F0306",
"$  c #120407",
"%  c #130407",
"&  c #140408",
"*  c #160509",
"=  c #170509",
"-  c #18050A",
";  c #19050A",
":  c #1E060C",
">  c #1F070C",
",  c #21070D",
"<  c #23070E",
"1  c #27080F",
"2  c #280810",
"3  c #290910",
"4  c #2A0911",
"5  c #2D0A12",
"6  c #2E0A12",
"7  c #300A13",
"8  c #330B14",
"9  c #370C16",
"0  c #380C16",
"q  c #390C16",
"w  c #3A0C17",
"e  c #3E0D19",
"r  c #400E19",
"t  c #450F1B",
"y  c #470F1C",
"u  c #49101D",
"i  c #4D101E",
"p  c #511120",
"a  c #541221",
"s  c #571323",
"d  c #581323",
"f  c #5F1425",
"g  c #611527",
"h  c #661628",
"j  c #671629",
"k  c #6B172A",
"l  c #6E172C",
"z  c #781A2F",
"x  c #791A30",
"c  c #7C1A31",
"v  c #7D1B32",
"b  c #7F1B32",
"n  c #811B33",
"m  c #831C34",
"M  c #851C34",
"N  c #851C35",
"B  c #871D36",
"V  c #8B1E37",
"C  c #8C1E37",
"Z  c #8D1E38",
"A  c #8F1E38",
"S  c #901F39",
"D  c #921F3A",
"F  c #931F3A",
"G  c #94203B",
"H  c #95203B",
"J  c #97203C",
"K  c #99213D",
"L  c #A42341",
"P  c #A52341",
"I  c #A72442",
"U  c #AA2443",
"Y  c #AC2544",
"T  c #AF2545",
"R  c #B02546",
"E  c #B22646",
"W  c #B32647",
"Q  c #B42647",
"!  c #B62748",
"~  c #B72748",
"^  c #B82749",
"/  c #BA284A",
"(  c #BC284A",
")  c #BE294B",
"_  c #BF294C",
"`  c #C32A4D",
"'  c #C42A4D",
"]  c #C52A4E",
"[  c #C62A4F",
"{  c #C82B4F",
"}  c #CA2B50",
"|  c #CB2B50",
" . c #CE2C51",
".. c #CF2C52",
"X. c #D02C52",
"o. c #D22D53",
"O. c #D32D54",
"+. c #D62E55",
"@. c #D72E55",
"#. c #D82E55",
"$. c #D82E56",
"%. c #DC2F57",
"&. c #DD2F57",
"*. c #DF2F58",
"=. c #E03059",
"-. c #E13059",
";. c #E5315B",
":. c #E6315B",
">. c #E73B63",
",. c #E9496E",
"<. c #EA5276",
/* pixels */
",.,.,.,.,.,.,.,.,.,.,.,.,.,.,.,.,.,.,.,.,.,.,.,.,.,.,.,.,.,.,.<.",
":.:.:.:.:.:.:.:.:.:.:.:.:.:.:.:.:.:.:.:.:.:.:.:.:.:.:.:.:.:.:.>.",
":.:.:.:.:.:.:.:.:.:.:.:.. :.:.:.:.:.:.:.:.:.:.:.:.:.:.:.:.:.:.>.",
":.:.:.:.:.:.:.:.:.:.:.:.. :.:.:.. :.:.:.:.:.:.:.:.:.:.:.:.:.:.>.",
":.:.:.:.:.:.:.:.:.:.:.:.:.:.:.:.. :.:.:.:.:.:.:.:.:.:.:.:.:.:.>.",
":.:.:.. . . . . . . :.:.. :.:.. . . . . :.:.:.( j = t G =.:.:.>.",
":.:.:.:.:.:.:.:.v 3 :.:.. :.:.:.. :.:.:.:.:.:.6 M X.T e G :.:.>.",
":.:.:.:.:.:.:.D : ..:.:.. :.:.:.. :.:.:.:.:.:.:.:.:.:.` u :.:.>.",
":.:.:.:.:.:.P = ` :.:.:.. :.:.:.. :.:.:.:.:.=.D p & . . O :.:.>.",
":.:.:.:.:.Q = ! :.:.:.:.. :.:.:.. :.:.:.:.:.H 8 W @.:.@.. :.:.>.",
":.:.:.:.` = I :.:.:.:.:.. :.:.:.. :.:.:.:.:.w U :.:.:.H . :.:.>.",
":.:.:...: H :.:.:.:.:.:.. :.:.:.% $.:.:.:.:., _ :.:.:.p . :.:.>.",
":.:.:.3 n :.:.:.:.:.:.:.. :.:.:.u B &.:.:.:.z t / ! i g . :.:.>.",
":.:.:.. . . . . . . :.:.. :.:.:.W t O . :.:.$.x 1 , j =.. :.:.>.",
":.:.:.:.:.:.:.:.:.:.:.:.:.:.:.:.:.:.:.:.:.:.:.:.:.:.:.:.:.:.:.>.",
":.:.:.:.:.:.:.:.:.:.:.:.:.:.:.:.:.:.:.:.:.:.:.:.:.:.:.:.:.:.:.>.",
":.:.:.:.:.:.:.:.:.:.:.:.:.:.:.:.:.:.:.:.:.:.:.:.:.:.:.:.:.:.:.>.",
":.:.:.:.:.:.:.:.:.:.:.:.:.:.:.:.:.:.:.:.:.:.:.:.:.:.:.:.:.:.:.>.",
":.:.:.:.:.:.:.:.:.:.:.:.:.:.:.:.:.:.:.:.:.:.:.:.:.U 8 . :.:.:.>.",
":.:.:.:.:.:.:.:.:.:.:.:.:.:.:.:.:.:.:.:.:.:.:.:.:.w U . :.:.:.>.",
":.:.:.:.:.:.:.:.:.:.:.:.:.:.:.:.:.:.:.:.:.:.:.:.:.:.:.. :.:.:.>.",
":.:.. ..y X :.:./ w # 3 K :.X.# &.:.:.:.&.# X.:.:.:.:.. :.:.:.>.",
":.:.. f K :.:.X.% l [ C ; ( :.9 C :.:.:.V 9 :.:.:.:.:.. :.:.:.>.",
":.:.. B :.:.:.A f :.:.:.n x :.n 6 :.:.:.6 m :.:.:.:.:.. :.:.:.>.",
":.:.. W :.:.:.u W :.:.:.[ 9 :.... ! :.! . ..:.:.:.:.:.. :.:.:.>.",
":.:.. &.:.:.:.# . . . . . X :.:.8 s :.s 8 :.:.:.:.:.:.. :.:.:.>.",
":.:.. :.:.:.:.: / :.:.:.:.:.:.:.v O | O v :.:.:.:.:.:.. :.:.:.>.",
":.:.. :.:.:.:.a g :.:.:.:.:.:.:.| . 3 . | :.:.:.:.:.:.. :.:.:.>.",
":.:.. :.:.:.:.} = k ( O.L w :.:.:.8 . 6 :.:.:.:.:.:.:.. :.:.:.>.",
":.:.. :.:.:.:.:.[ u = # e U :.:.:.v . v :.:.:.:.:.. . . . . :.>.",
":.:.:.:.:.:.:.:.:.:.:.:.:.:.:.:.:.:.:.:.:.:.:.:.:.:.:.:.:.:.:.>.",
":.:.:.:.:.:.:.:.:.:.:.:.:.:.:.:.:.:.:.:.:.:.:.:.:.:.:.:.:.:.:.>."
};
